999
dxfrw 0.6.3
  0
SECTION
  2
HEADER
  9
$ACADVER
  1
AC1021
  9
$DWGCODEPAGE
  3
ANSI_1252
  9
$INSBASE
 10
0
 20
0
 30
0
  9
$EXTMIN
 10
0
 20
-4.440892098500626e-016
 30
0
  9
$EXTMAX
 10
108
 20
30
 30
0
  9
$LIMMIN
 10
0
 20
0
  9
$LIMMAX
 10
420
 20
297
  9
$ORTHOMODE
 70
    0
  9
$REGENMODE
 70
    1
  9
$FILLMODE
 70
    1
  9
$QTEXTMODE
 70
    0
  9
$MIRRTEXT
 70
    0
  9
$LTSCALE
 40
1
  9
$ATTMODE
 70
    0
  9
$TEXTSIZE
 40
2.5
  9
$TRACEWID
 40
15.68
  9
$TEXTSTYLE
  7
STANDARD
  9
$CLAYER
  8
0
  9
$CELTYPE
  6
BYLAYER
  9
$CECOLOR
 62
  256
  9
$CELTSCALE
 40
1
  9
$DISPSILH
 70
    0
  9
$DIMSCALE
 40
2.5
  9
$DIMASZ
 40
2.5
  9
$DIMEXO
 40
0.625
  9
$DIMDLI
 40
3.75
  9
$DIMRND
 40
0
  9
$DIMDLE
 40
0
  9
$DIMEXE
 40
1.25
  9
$DIMTP
 40
0
  9
$DIMTM
 40
0
  9
$DIMTXT
 40
2.5
  9
$DIMCEN
 40
2.5
  9
$DIMTSZ
 40
0
  9
$DIMTOL
 70
    0
  9
$DIMLIM
 70
    0
  9
$DIMTIH
 70
    0
  9
$DIMTOH
 70
    0
  9
$DIMSE1
 70
    0
  9
$DIMSE2
 70
    0
  9
$DIMTAD
 70
    1
  9
$DIMZIN
 70
    8
  9
$DIMBLK
  1

  9
$DIMASO
 70
    1
  9
$DIMSHO
 70
    1
  9
$DIMPOST
  1

  9
$DIMAPOST
  1

  9
$DIMALT
 70
    0
  9
$DIMALTD
 70
    3
  9
$DIMALTF
 40
0.03937
  9
$DIMLFAC
 40
1
  9
$DIMTOFL
 70
    1
  9
$DIMTVP
 40
0
  9
$DIMTIX
 70
    0
  9
$DIMSOXD
 70
    0
  9
$DIMSAH
 70
    0
  9
$DIMBLK1
  1

  9
$DIMBLK2
  1

  9
$DIMSTYLE
  2
Standard
  9
$DIMCLRD
 70
    0
  9
$DIMCLRE
 70
    0
  9
$DIMCLRT
 70
    0
  9
$DIMTFAC
 40
1
  9
$DIMGAP
 40
0.625
  9
$DIMJUST
 70
    0
  9
$DIMSD1
 70
    0
  9
$DIMSD2
 70
    0
  9
$DIMTOLJ
 70
    0
  9
$DIMTZIN
 70
    8
  9
$DIMALTZ
 70
    0
  9
$DIMALTTZ
 70
    0
  9
$DIMUPT
 70
    0
  9
$DIMDEC
 70
    2
  9
$DIMTDEC
 70
    2
  9
$DIMALTU
 70
    2
  9
$DIMALTTD
 70
    3
  9
$DIMTXSTY
  7
STANDARD
  9
$DIMAUNIT
 70
    0
  9
$DIMADEC
 70
    0
  9
$DIMALTRND
 40
0
  9
$DIMAZIN
 70
    0
  9
$DIMDSEP
 70
   44
  9
$DIMATFIT
 70
    3
  9
$DIMFRAC
 70
    0
  9
$DIMLDRBLK
  1
STANDARD
  9
$DIMLUNIT
 70
    2
  9
$DIMLWD
 70
   -2
  9
$DIMLWE
 70
   -2
  9
$DIMTMOVE
 70
    0
  9
$DIMFXL
 40
1
  9
$DIMFXLON
 70
    0
  9
$DIMJOGANG
 40
0.7854
  9
$DIMTFILL
 70
    0
  9
$DIMTFILLCLR
 70
    0
  9
$DIMARCSYM
 70
    0
  9
$DIMLTYPE
  6

  9
$DIMLTEX1
  6

  9
$DIMLTEX2
  6

  9
$LUNITS
 70
    2
  9
$LUPREC
 70
    4
  9
$SKETCHINC
 40
1
  9
$FILLETRAD
 40
0
  9
$AUNITS
 70
    0
  9
$AUPREC
 70
    2
  9
$MENU
  1
.
  9
$ELEVATION
 40
0
  9
$PELEVATION
 40
0
  9
$THICKNESS
 40
0
  9
$LIMCHECK
 70
    0
  9
$CHAMFERA
 40
0
  9
$CHAMFERB
 40
0
  9
$CHAMFERC
 40
0
  9
$CHAMFERD
 40
0
  9
$SKPOLY
 70
    0
  9
$USRTIMER
 70
    1
  9
$ANGBASE
 50
0
  9
$ANGDIR
 70
    0
  9
$PDMODE
 70
   34
  9
$PDSIZE
 40
0
  9
$PLINEWID
 40
0
  9
$SPLFRAME
 70
    0
  9
$SPLINETYPE
 70
    2
  9
$SPLINESEGS
 70
    8
  9
$HANDSEED
  5
20000
  9
$SURFTAB1
 70
    6
  9
$SURFTAB2
 70
    6
  9
$SURFTYPE
 70
    6
  9
$SURFU
 70
    6
  9
$SURFV
 70
    6
  9
$UCSBASE
  2

  9
$UCSNAME
  2

  9
$UCSORG
 10
0
 20
0
 30
0
  9
$UCSXDIR
 10
1
 20
0
 30
0
  9
$UCSYDIR
 10
0
 20
1
 30
0
  9
$UCSORTHOREF
  2

  9
$UCSORTHOVIEW
 70
    0
  9
$UCSORGTOP
 10
0
 20
0
 30
0
  9
$UCSORGBOTTOM
 10
0
 20
0
 30
0
  9
$UCSORGLEFT
 10
0
 20
0
 30
0
  9
$UCSORGRIGHT
 10
0
 20
0
 30
0
  9
$UCSORGFRONT
 10
0
 20
0
 30
0
  9
$UCSORGBACK
 10
0
 20
0
 30
0
  9
$PUCSBASE
  2

  9
$PUCSNAME
  2

  9
$PUCSORG
 10
0
 20
0
 30
0
  9
$PUCSXDIR
 10
1
 20
0
 30
0
  9
$PUCSYDIR
 10
0
 20
1
 30
0
  9
$PUCSORTHOREF
  2

  9
$PUCSORTHOVIEW
 70
    0
  9
$PUCSORGTOP
 10
0
 20
0
 30
0
  9
$PUCSORGBOTTOM
 10
0
 20
0
 30
0
  9
$PUCSORGLEFT
 10
0
 20
0
 30
0
  9
$PUCSORGRIGHT
 10
0
 20
0
 30
0
  9
$PUCSORGFRONT
 10
0
 20
0
 30
0
  9
$PUCSORGBACK
 10
0
 20
0
 30
0
  9
$USERI1
 70
    0
  9
$USERI2
 70
    0
  9
$USERI3
 70
    0
  9
$USERI4
 70
    0
  9
$USERI5
 70
    0
  9
$USERR1
 40
0
  9
$USERR2
 40
0
  9
$USERR3
 40
0
  9
$USERR4
 40
0
  9
$USERR5
 40
0
  9
$WORLDVIEW
 70
    1
  9
$SHADEDGE
 70
    3
  9
$SHADEDIF
 70
   70
  9
$TILEMODE
 70
    1
  9
$MAXACTVP
 70
   64
  9
$PINSBASE
 10
0
 20
0
 30
0
  9
$PLIMCHECK
 70
    0
  9
$PEXTMIN
 10
0
 20
0
 30
0
  9
$PEXTMAX
 10
0
 20
0
 30
0
  9
$SNAPSTYLE
 70
    0
  9
$PLIMMIN
 10
0
 20
0
  9
$PLIMMAX
 10
210
 20
297
  9
$UNITMODE
 70
    0
  9
$VISRETAIN
 70
    1
  9
$PLINEGEN
 70
    0
  9
$PSLTSCALE
 70
    1
  9
$TREEDEPTH
 70
 3020
  9
$CMLSTYLE
  2
Standard
  9
$CMLJUST
 70
    0
  9
$CMLSCALE
 40
20
  9
$PROXYGRAPHICS
 70
    1
  9
$MEASUREMENT
 70
    1
  9
$CELWEIGHT
370
   -1
  9
$ENDCAPS
280
    0
  9
$JOINSTYLE
280
    0
  9
$LWDISPLAY
290
    0
  9
$INSUNITS
 70
    4
  9
$HYPERLINKBASE
  1

  9
$STYLESHEET
  1

  9
$XEDIT
290
    1
  9
$CEPSNTYPE
380
    0
  9
$PSTYLEMODE
290
    1
  9
$EXTNAMES
290
    1
  9
$PSVPSCALE
 40
1
  9
$OLESTARTUP
290
    0
  9
$SORTENTS
280
  127
  9
$INDEXCTL
280
    0
  9
$HIDETEXT
280
    1
  9
$XCLIPFRAME
290
    0
  9
$HALOGAP
280
    0
  9
$OBSCOLOR
 70
  257
  9
$OBSLTYPE
280
    0
  9
$INTERSECTIONDISPLAY
280
    0
  9
$INTERSECTIONCOLOR
 70
  257
  9
$DIMASSOC
280
    1
  9
$PROJECTNAME
  1

  9
$CAMERADISPLAY
290
    0
  9
$LENSLENGTH
 40
50
  9
$CAMERAHEIGHT
 40
0
  9
$STEPSPERSEC
 40
2
  9
$STEPSIZE
 40
50
  9
$3DDWFPREC
 40
2
  9
$PSOLWIDTH
 40
5
  9
$PSOLHEIGHT
 40
80
  9
$LOFTANG1
 40
1.570796326794897
  9
$LOFTANG2
 40
1.570796326794897
  9
$LOFTMAG1
 40
0
  9
$LOFTMAG2
 40
0
  9
$LOFTPARAM
 70
    7
  9
$LOFTNORMALS
280
    1
  9
$LATITUDE
 40
1
  9
$LONGITUDE
 40
1
  9
$NORTHDIRECTION
 40
0
  9
$TIMEZONE
 70
-8000
  9
$LIGHTGLYPHDISPLAY
280
    1
  9
$TILEMODELIGHTSYNCH
280
    1
  9
$SOLIDHIST
280
    1
  9
$SHOWHIST
280
    1
  9
$DWFFRAME
280
    2
  9
$DGNFRAME
280
    0
  9
$REALWORLDSCALE
290
    1
  9
$INTERFERECOLOR
 62
    1
  9
$CSHADOW
280
    0
  9
$SHADOWPLANELOCATION
 40
0
  0
ENDSEC
  0
SECTION
  2
CLASSES
  0
ENDSEC
  0
SECTION
  2
TABLES
  0
TABLE
  2
VPORT
  5
8
330
0
100
AcDbSymbolTable
 70
    1
  0
VPORT
  5
31
330
2
100
AcDbSymbolTableRecord
100
AcDbViewportTableRecord
  2
*ACTIVE
 70
    0
 10
0
 20
0
 11
1
 21
1
 12
68.99421295406198
 22
32.26422803471439
 13
0
 23
0
 14
10
 24
10
 15
10
 25
10
 16
0
 26
0
 36
1
 17
0
 27
0
 37
0
 40
83.63774134320811
 41
1.855960264900662
 42
50
 43
0
 44
0
 50
0
 51
0
 71
    0
 72
  100
 73
    1
 74
    3
 75
    0
 76
    1
 77
    0
 78
    0
281
    0
 65
    1
110
0
120
0
130
0
111
1
121
0
131
0
112
0
122
1
132
0
 79
    0
146
0
348
10020
 60
    7
 61
    5
292
1
282
    1
141
0
142
0
 63
  250
421
3358443
  0
ENDTAB
  0
TABLE
  2
LTYPE
  5
5
330
0
100
AcDbSymbolTable
 70
    4
  0
LTYPE
  5
14
330
5
100
AcDbSymbolTableRecord
100
AcDbLinetypeTableRecord
  2
ByBlock
 70
    0
  3

 72
   65
 73
    0
 40
0
  0
LTYPE
  5
15
330
5
100
AcDbSymbolTableRecord
100
AcDbLinetypeTableRecord
  2
ByLayer
 70
    0
  3

 72
   65
 73
    0
 40
0
  0
LTYPE
  5
16
330
5
100
AcDbSymbolTableRecord
100
AcDbLinetypeTableRecord
  2
Continuous
 70
    0
  3
Solid line
 72
   65
 73
    0
 40
0
  0
LTYPE
  5
32
330
5
100
AcDbSymbolTableRecord
100
AcDbLinetypeTableRecord
  2
DOT
 70
    0
  3
Dot . . . . . . . . . . . . . . . . . . . . . .
 72
   65
 73
    2
 40
6.35
 49
0
 74
    0
 49
-6.35
 74
    0
  0
LTYPE
  5
33
330
5
100
AcDbSymbolTableRecord
100
AcDbLinetypeTableRecord
  2
DOTTINY
 70
    0
  3
Dot (.15x) .....................................
 72
   65
 73
    2
 40
0.9525
 49
0
 74
    0
 49
-0.9525
 74
    0
  0
LTYPE
  5
34
330
5
100
AcDbSymbolTableRecord
100
AcDbLinetypeTableRecord
  2
DOT2
 70
    0
  3
Dot (.5x) .....................................
 72
   65
 73
    2
 40
3.175
 49
0
 74
    0
 49
-3.175
 74
    0
  0
LTYPE
  5
35
330
5
100
AcDbSymbolTableRecord
100
AcDbLinetypeTableRecord
  2
DOTX2
 70
    0
  3
Dot (2x) .  .  .  .  .  .  .  .  .  .  .  .  .
 72
   65
 73
    2
 40
12.7
 49
0
 74
    0
 49
-12.7
 74
    0
  0
LTYPE
  5
36
330
5
100
AcDbSymbolTableRecord
100
AcDbLinetypeTableRecord
  2
DASHED
 70
    0
  3
Dashed _ _ _ _ _ _ _ _ _ _ _ _ _ _ _ _ _
 72
   65
 73
    2
 40
19.05
 49
12.7
 74
    0
 49
-6.35
 74
    0
  0
LTYPE
  5
37
330
5
100
AcDbSymbolTableRecord
100
AcDbLinetypeTableRecord
  2
DASHEDTINY
 70
    0
  3
Dashed (.15x) _ _ _ _ _ _ _ _ _ _ _ _ _ _ _ _ _
 72
   65
 73
    2
 40
2.8575
 49
1.905
 74
    0
 49
-0.9525
 74
    0
  0
LTYPE
  5
38
330
5
100
AcDbSymbolTableRecord
100
AcDbLinetypeTableRecord
  2
DASHED2
 70
    0
  3
Dashed (.5x) _ _ _ _ _ _ _ _ _ _ _ _ _ _ _ _ _
 72
   65
 73
    2
 40
9.524999999999999
 49
6.35
 74
    0
 49
-3.175
 74
    0
  0
LTYPE
  5
39
330
5
100
AcDbSymbolTableRecord
100
AcDbLinetypeTableRecord
  2
DASHEDX2
 70
    0
  3
Dashed (2x) ____  ____  ____  ____  ____  ___
 72
   65
 73
    2
 40
38.09999999999999
 49
25.4
 74
    0
 49
-12.7
 74
    0
  0
LTYPE
  5
3A
330
5
100
AcDbSymbolTableRecord
100
AcDbLinetypeTableRecord
  2
DASHDOT
 70
    0
  3
Dash dot __ . __ . __ . __ . __ . __ . __ . __
 72
   65
 73
    4
 40
25.4
 49
12.7
 74
    0
 49
-6.35
 74
    0
 49
0
 74
    0
 49
-6.35
 74
    0
  0
LTYPE
  5
3B
330
5
100
AcDbSymbolTableRecord
100
AcDbLinetypeTableRecord
  2
DASHDOTTINY
 70
    0
  3
Dash dot (.15x) _._._._._._._._._._._._._._._.
 72
   65
 73
    4
 40
3.81
 49
1.905
 74
    0
 49
-0.9525
 74
    0
 49
0
 74
    0
 49
-0.9525
 74
    0
  0
LTYPE
  5
3C
330
5
100
AcDbSymbolTableRecord
100
AcDbLinetypeTableRecord
  2
DASHDOT2
 70
    0
  3
Dash dot (.5x) _._._._._._._._._._._._._._._.
 72
   65
 73
    4
 40
12.7
 49
6.35
 74
    0
 49
-3.175
 74
    0
 49
0
 74
    0
 49
-3.175
 74
    0
  0
LTYPE
  5
3D
330
5
100
AcDbSymbolTableRecord
100
AcDbLinetypeTableRecord
  2
DASHDOTX2
 70
    0
  3
Dash dot (2x) ____  .  ____  .  ____  .  ___
 72
   65
 73
    4
 40
50.8
 49
25.4
 74
    0
 49
-12.7
 74
    0
 49
0
 74
    0
 49
-12.7
 74
    0
  0
LTYPE
  5
3E
330
5
100
AcDbSymbolTableRecord
100
AcDbLinetypeTableRecord
  2
DIVIDE
 70
    0
  3
Divide ____ . . ____ . . ____ . . ____ . . ____
 72
   65
 73
    6
 40
31.75
 49
12.7
 74
    0
 49
-6.35
 74
    0
 49
0
 74
    0
 49
-6.35
 74
    0
 49
0
 74
    0
 49
-6.35
 74
    0
  0
LTYPE
  5
3F
330
5
100
AcDbSymbolTableRecord
100
AcDbLinetypeTableRecord
  2
DIVIDETINY
 70
    0
  3
Divide (.15x) __..__..__..__..__..__..__..__.._
 72
   65
 73
    6
 40
4.7625
 49
1.905
 74
    0
 49
-0.9525
 74
    0
 49
0
 74
    0
 49
-0.9525
 74
    0
 49
0
 74
    0
 49
-0.9525
 74
    0
  0
LTYPE
  5
40
330
5
100
AcDbSymbolTableRecord
100
AcDbLinetypeTableRecord
  2
DIVIDE2
 70
    0
  3
Divide (.5x) __..__..__..__..__..__..__..__.._
 72
   65
 73
    6
 40
15.875
 49
6.35
 74
    0
 49
-3.175
 74
    0
 49
0
 74
    0
 49
-3.175
 74
    0
 49
0
 74
    0
 49
-3.175
 74
    0
  0
LTYPE
  5
41
330
5
100
AcDbSymbolTableRecord
100
AcDbLinetypeTableRecord
  2
DIVIDEX2
 70
    0
  3
Divide (2x) ________  .  .  ________  .  .  _
 72
   65
 73
    6
 40
63.5
 49
25.4
 74
    0
 49
-12.7
 74
    0
 49
0
 74
    0
 49
-12.7
 74
    0
 49
0
 74
    0
 49
-12.7
 74
    0
  0
LTYPE
  5
42
330
5
100
AcDbSymbolTableRecord
100
AcDbLinetypeTableRecord
  2
BORDER
 70
    0
  3
Border __ __ . __ __ . __ __ . __ __ . __ __ .
 72
   65
 73
    6
 40
44.45
 49
12.7
 74
    0
 49
-6.35
 74
    0
 49
12.7
 74
    0
 49
-6.35
 74
    0
 49
0
 74
    0
 49
-6.35
 74
    0
  0
LTYPE
  5
43
330
5
100
AcDbSymbolTableRecord
100
AcDbLinetypeTableRecord
  2
BORDERTINY
 70
    0
  3
Border (.15x) __.__.__.__.__.__.__.__.__.__.__.
 72
   65
 73
    6
 40
6.6675
 49
1.905
 74
    0
 49
-0.9525
 74
    0
 49
1.905
 74
    0
 49
-0.9525
 74
    0
 49
0
 74
    0
 49
-0.9525
 74
    0
  0
LTYPE
  5
44
330
5
100
AcDbSymbolTableRecord
100
AcDbLinetypeTableRecord
  2
BORDER2
 70
    0
  3
Border (.5x) __.__.__.__.__.__.__.__.__.__.__.
 72
   65
 73
    6
 40
22.225
 49
6.35
 74
    0
 49
-3.175
 74
    0
 49
6.35
 74
    0
 49
-3.175
 74
    0
 49
0
 74
    0
 49
-3.175
 74
    0
  0
LTYPE
  5
45
330
5
100
AcDbSymbolTableRecord
100
AcDbLinetypeTableRecord
  2
BORDERX2
 70
    0
  3
Border (2x) ____  ____  .  ____  ____  .  ___
 72
   65
 73
    6
 40
88.89999999999999
 49
25.4
 74
    0
 49
-12.7
 74
    0
 49
25.4
 74
    0
 49
-12.7
 74
    0
 49
0
 74
    0
 49
-12.7
 74
    0
  0
LTYPE
  5
46
330
5
100
AcDbSymbolTableRecord
100
AcDbLinetypeTableRecord
  2
CENTER
 70
    0
  3
Center ____ _ ____ _ ____ _ ____ _ ____ _ ____
 72
   65
 73
    4
 40
50.8
 49
31.75
 74
    0
 49
-6.35
 74
    0
 49
6.35
 74
    0
 49
-6.35
 74
    0
  0
LTYPE
  5
47
330
5
100
AcDbSymbolTableRecord
100
AcDbLinetypeTableRecord
  2
CENTERTINY
 70
    0
  3
Center (.15x) ___ _ ___ _ ___ _ ___ _ ___ _ ___
 72
   65
 73
    4
 40
7.62
 49
4.7625
 74
    0
 49
-0.9525
 74
    0
 49
0.9525
 74
    0
 49
-0.9525
 74
    0
  0
LTYPE
  5
48
330
5
100
AcDbSymbolTableRecord
100
AcDbLinetypeTableRecord
  2
CENTER2
 70
    0
  3
Center (.5x) ___ _ ___ _ ___ _ ___ _ ___ _ ___
 72
   65
 73
    4
 40
28.575
 49
19.05
 74
    0
 49
-3.175
 74
    0
 49
3.175
 74
    0
 49
-3.175
 74
    0
  0
LTYPE
  5
49
330
5
100
AcDbSymbolTableRecord
100
AcDbLinetypeTableRecord
  2
CENTERX2
 70
    0
  3
Center (2x) ________  __  ________  __  _____
 72
   65
 73
    4
 40
101.6
 49
63.5
 74
    0
 49
-12.7
 74
    0
 49
12.7
 74
    0
 49
-12.7
 74
    0
  0
ENDTAB
  0
TABLE
  2
LAYER
  5
2
330
0
100
AcDbSymbolTable
 70
    1
  0
LAYER
  5
10
330
2
100
AcDbSymbolTableRecord
100
AcDbLayerTableRecord
  2
0
 70
    0
 62
    7
  6
CONTINUOUS
370
   -3
390
F
  0
ENDTAB
  0
TABLE
  2
STYLE
  5
3
330
0
100
AcDbSymbolTable
 70
    3
  0
STYLE
  5
4A
330
2
100
AcDbSymbolTableRecord
100
AcDbTextStyleTableRecord
  2
Standard
 70
    0
 40
0
 41
1
 50
0
 71
    0
 42
1
  3
txt
  4

  0
ENDTAB
  0
TABLE
  2
VIEW
  5
6
330
0
100
AcDbSymbolTable
 70
    0
  0
ENDTAB
  0
TABLE
  2
UCS
  5
7
330
0
100
AcDbSymbolTable
 70
    0
  0
ENDTAB
  0
TABLE
  2
APPID
  5
9
330
0
100
AcDbSymbolTable
 70
    1
  0
APPID
  5
12
330
9
100
AcDbSymbolTableRecord
100
AcDbRegAppTableRecord
  2
ACAD
 70
    0
  0
APPID
  5
4B
330
9
100
AcDbSymbolTableRecord
100
AcDbRegAppTableRecord
  2
LibreCad
 70
    0
  0
ENDTAB
  0
TABLE
  2
DIMSTYLE
  5
A
330
0
100
AcDbSymbolTable
 70
    1
100
AcDbDimStyleTable
 71
    1
  0
DIMSTYLE
105
4C
330
A
100
AcDbSymbolTableRecord
100
AcDbDimStyleTableRecord
  2
Standard
 70
    0
 40
1
 41
2.5
 42
0.625
 43
0.38
 44
1.25
 45
0
 46
0
 47
0
 48
0
 49
1
140
2.5
141
0.09
142
2.5
143
25.4
144
1
145
0
146
1
147
0.625
148
0
 71
    0
 72
    0
 73
    0
 74
    1
 75
    0
 76
    0
 77
    0
 78
    1
 79
    0
170
    0
171
    2
172
    0
173
    0
174
    0
175
    0
176
    0
177
    0
178
    0
179
    0
271
    2
272
    4
273
    2
274
    2
275
    0
276
    0
277
    2
278
    0
279
    0
280
    0
281
    0
282
    0
283
    1
284
    0
285
    0
286
    0
288
    0
289
    3
340
standard
341

371
   -2
372
   -2
  0
ENDTAB
  0
TABLE
  2
BLOCK_RECORD
  5
1
330
0
100
AcDbSymbolTable
 70
    2
  0
BLOCK_RECORD
  5
1F
330
1
100
AcDbSymbolTableRecord
100
AcDbBlockTableRecord
  2
*Model_Space
 70
    0
280
    1
281
    0
  0
BLOCK_RECORD
  5
1E
330
1
100
AcDbSymbolTableRecord
100
AcDbBlockTableRecord
  2
*Paper_Space
 70
    0
280
    1
281
    0
  0
ENDTAB
  0
ENDSEC
  0
SECTION
  2
BLOCKS
  0
BLOCK
  5
20
330
1F
100
AcDbEntity
  8
0
100
AcDbBlockBegin
  2
*Model_Space
 70
    0
 10
0
 20
0
 30
0
  3
*Model_Space
  1

  0
ENDBLK
  5
21
330
1F
100
AcDbEntity
  8
0
100
AcDbBlockEnd
  0
BLOCK
  5
1C
330
1B
100
AcDbEntity
  8
0
100
AcDbBlockBegin
  2
*Paper_Space
 70
    0
 10
0
 20
0
 30
0
  3
*Paper_Space
  1

  0
ENDBLK
  5
1D
330
1F
100
AcDbEntity
  8
0
100
AcDbBlockEnd
  0
ENDSEC
  0
SECTION
  2
ENTITIES
  0
SPLINE
  5
4D
100
AcDbEntity
  8
0
  6
ByLayer
 62
  256
370
   -1
100
AcDbSpline
210
0
220
0
230
0
 70
    8
 71
    3
 72
    8
 73
    4
 74
    0
 42
1e-007
 43
1e-007
 40
0
 40
0
 40
0
 40
0
 40
1
 40
1
 40
1
 40
1
 10
24.77823300663415
 20
21.10814229406663
 30
0
 10
24.06461021096009
 20
21.04815956099247
 30
0
 10
23.54089748790979
 20
20.95916872129675
 30
0
 10
22.7887768217595
 20
20.77000326833029
 30
0
  0
SPLINE
  5
4E
100
AcDbEntity
  8
0
  6
ByLayer
 62
  256
370
   -1
100
AcDbSpline
210
0
220
0
230
0
 70
    8
 71
    3
 72
    8
 73
    4
 74
    0
 42
1e-007
 43
1e-007
 40
0
 40
0
 40
0
 40
0
 40
1
 40
1
 40
1
 40
1
 10
22.7887768217595
 20
20.77000326833029
 30
0
 10
22.06491912547649
 20
20.5880218437658
 30
0
 10
21.51972153982825
 20
20.28112788620481
 30
0
 10
21.27362319180064
 20
19.91730155067966
 30
0
  0
SPLINE
  5
4F
100
AcDbEntity
  8
0
  6
ByLayer
 62
  256
370
   -1
100
AcDbSpline
210
0
220
0
230
0
 70
    8
 71
    3
 72
    8
 73
    4
 74
    0
 42
1e-007
 43
1e-007
 40
0
 40
0
 40
0
 40
0
 40
1
 40
1
 40
1
 40
1
 10
21.27362319180064
 20
19.91730155067966
 30
0
 10
21.17012778169715
 20
19.76426101012878
 30
0
 10
21.12187073983748
 20
19.72217138400007
 30
0
 10
20.91257573546876
 20
19.60240965406353
 30
0
  0
SPLINE
  5
50
100
AcDbEntity
  8
0
  6
ByLayer
 62
  256
370
   -1
100
AcDbSpline
210
0
220
0
230
0
 70
    8
 71
    3
 72
    8
 73
    4
 74
    0
 42
1e-007
 43
1e-007
 40
0
 40
0
 40
0
 40
0
 40
1
 40
1
 40
1
 40
1
 10
20.91257573546876
 20
19.60240965406353
 30
0
 10
18.79990076876948
 20
18.39381128314098
 30
0
 10
17.84309372512246
 20
16.45288361604272
 30
0
 10
18.45742407498089
 20
14.6223633944362
 30
0
  0
SPLINE
  5
51
100
AcDbEntity
  8
0
  6
ByLayer
 62
  256
370
   -1
100
AcDbSpline
210
0
220
0
230
0
 70
    8
 71
    3
 72
    8
 73
    4
 74
    0
 42
1e-007
 43
1e-007
 40
0
 40
0
 40
0
 40
0
 40
1
 40
1
 40
1
 40
1
 10
18.45742407498089
 20
14.6223633944362
 30
0
 10
18.54824492090382
 20
14.35159486638778
 30
0
 10
18.56152940097728
 20
14.28266583838938
 30
0
 10
18.55007492713102
 20
14.14060585229871
 30
0
  0
SPLINE
  5
52
100
AcDbEntity
  8
0
  6
ByLayer
 62
  256
370
   -1
100
AcDbSpline
210
0
220
0
230
0
 70
    8
 71
    3
 72
    8
 73
    4
 74
    0
 42
1e-007
 43
1e-007
 40
0
 40
0
 40
0
 40
0
 40
1
 40
1
 40
1
 40
1
 10
18.55007492713102
 20
14.14060585229871
 30
0
 10
18.50825677691903
 20
13.62001122406333
 30
0
 10
19.1222479111558
 20
12.84172855309271
 30
0
 10
20.08691715589961
 20
12.19249260550753
 30
0
  0
SPLINE
  5
53
100
AcDbEntity
  8
0
  6
ByLayer
 62
  256
370
   -1
100
AcDbSpline
210
0
220
0
230
0
 70
    8
 71
    3
 72
    8
 73
    4
 74
    0
 42
1e-007
 43
1e-007
 40
0
 40
0
 40
0
 40
0
 40
1
 40
1
 40
1
 40
1
 10
20.08691715589961
 20
12.19249260550753
 30
0
 10
20.18099157604733
 20
12.1291895926976
 30
0
 10
20.21142325066649
 20
12.09685965504932
 30
0
 10
20.1768568685614
 20
12.09685965504932
 30
0
  0
SPLINE
  5
54
100
AcDbEntity
  8
0
  6
ByLayer
 62
  256
370
   -1
100
AcDbSpline
210
0
220
0
230
0
 70
    8
 71
    3
 72
    8
 73
    4
 74
    0
 42
1e-007
 43
1e-007
 40
0
 40
0
 40
0
 40
0
 40
1
 40
1
 40
1
 40
1
 10
20.1768568685614
 20
12.09685965504932
 30
0
 10
19.97928703831019
 20
12.09685965504932
 30
0
 10
19.97522058762617
 20
11.97838549660353
 30
0
 10
20.14994972698678
 20
11.31742489199783
 30
0
  0
LINE
  5
55
100
AcDbEntity
  8
0
  6
ByLayer
 62
  256
370
   -1
100
AcDbLine
 10
20.14994972698678
 20
11.31742489199783
 11
20.27357468849253
 21
10.84976444784452
  0
LINE
  5
56
100
AcDbEntity
  8
0
  6
ByLayer
 62
  256
370
   -1
100
AcDbLine
 10
20.27357468849253
 20
10.84976444784452
 11
20.19929112122239
 21
10.84976444784452
  0
SPLINE
  5
57
100
AcDbEntity
  8
0
  6
ByLayer
 62
  256
370
   -1
100
AcDbSpline
210
0
220
0
230
0
 70
    8
 71
    3
 72
    8
 73
    4
 74
    0
 42
1e-007
 43
1e-007
 40
0
 40
0
 40
0
 40
0
 40
1
 40
1
 40
1
 40
1
 10
20.19929112122239
 20
10.84976444784452
 30
0
 10
20.09200021925463
 20
10.84976444784452
 30
0
 10
19.8547809435433
 20
10.77459923021626
 30
0
 10
19.6738166487468
 20
10.68323646665386
 30
0
  0
SPLINE
  5
58
100
AcDbEntity
  8
0
  6
ByLayer
 62
  256
370
   -1
100
AcDbSpline
210
0
220
0
230
0
 70
    8
 71
    3
 72
    8
 73
    4
 74
    0
 42
1e-007
 43
1e-007
 40
0
 40
0
 40
0
 40
0
 40
1
 40
1
 40
1
 40
1
 10
19.6738166487468
 20
10.68323646665386
 30
0
 10
18.84741241532637
 20
10.26620395403294
 30
0
 10
19.0356967350317
 20
9.239383788560076
 30
0
 10
19.91184931801432
 20
9.385443002726817
 30
0
  0
SPLINE
  5
59
100
AcDbEntity
  8
0
  6
ByLayer
 62
  256
370
   -1
100
AcDbSpline
210
0
220
0
230
0
 70
    8
 71
    3
 72
    8
 73
    4
 74
    0
 42
1e-007
 43
1e-007
 40
0
 40
0
 40
0
 40
0
 40
1
 40
1
 40
1
 40
1
 10
19.91184931801432
 20
9.385443002726817
 30
0
 10
20.00131485274157
 20
9.40035401136419
 30
0
 10
20.08176583574267
 20
9.412621620218156
 30
0
 10
20.09057716835402
 20
9.412758133821995
 30
0
  0
SPLINE
  5
5A
100
AcDbEntity
  8
0
  6
ByLayer
 62
  256
370
   -1
100
AcDbSpline
210
0
220
0
230
0
 70
    8
 71
    3
 72
    8
 73
    4
 74
    0
 42
1e-007
 43
1e-007
 40
0
 40
0
 40
0
 40
0
 40
1
 40
1
 40
1
 40
1
 10
20.09057716835402
 20
9.412758133821995
 30
0
 10
20.09938798386838
 20
9.412824322235975
 30
0
 10
20.12080562385837
 20
9.367143974648744
 30
0
 10
20.13815629606736
 20
9.311227175161614
 30
0
  0
SPLINE
  5
5B
100
AcDbEntity
  8
0
  6
ByLayer
 62
  256
370
   -1
100
AcDbSpline
210
0
220
0
230
0
 70
    8
 71
    3
 72
    8
 73
    4
 74
    0
 42
1e-007
 43
1e-007
 40
0
 40
0
 40
0
 40
0
 40
1
 40
1
 40
1
 40
1
 10
20.13815629606736
 20
9.311227175161614
 30
0
 10
20.30027861095234
 20
8.788870280403966
 30
0
 10
20.85469396744155
 20
8.632237467103609
 30
0
 10
21.20089867193797
 20
9.010975845460099
 30
0
  0
LINE
  5
5C
100
AcDbEntity
  8
0
  6
ByLayer
 62
  256
370
   -1
100
AcDbLine
 10
21.20089867193797
 20
9.010975845460099
 11
21.2970063174277
 21
9.11616578238092
  0
LINE
  5
5D
100
AcDbEntity
  8
0
  6
ByLayer
 62
  256
370
   -1
100
AcDbLine
 10
21.2970063174277
 20
9.11616578238092
 11
21.41439612349755
 21
9.074754587495523
  0
SPLINE
  5
5E
100
AcDbEntity
  8
0
  6
ByLayer
 62
  256
370
   -1
100
AcDbSpline
210
0
220
0
230
0
 70
    8
 71
    3
 72
    8
 73
    4
 74
    0
 42
1e-007
 43
1e-007
 40
0
 40
0
 40
0
 40
0
 40
1
 40
1
 40
1
 40
1
 10
21.41439612349755
 20
9.074754587495523
 30
0
 10
22.04526375200878
 20
8.852175361601834
 30
0
 10
22.44765569771508
 20
9.576913674048988
 30
0
 10
22.01977966133477
 20
10.16521698139997
 30
0
  0
SPLINE
  5
5F
100
AcDbEntity
  8
0
  6
ByLayer
 62
  256
370
   -1
100
AcDbSpline
210
0
220
0
230
0
 70
    8
 71
    3
 72
    8
 73
    4
 74
    0
 42
1e-007
 43
1e-007
 40
0
 40
0
 40
0
 40
0
 40
1
 40
1
 40
1
 40
1
 10
22.01977966133477
 20
10.16521698139997
 30
0
 10
21.94285269428123
 20
10.27094883596027
 30
0
 10
21.86158831772393
 20
10.40135242183234
 30
0
 10
21.83915406506294
 20
10.45496296876978
 30
0
  0
SPLINE
  5
60
100
AcDbEntity
  8
0
  6
ByLayer
 62
  256
370
   -1
100
AcDbSpline
210
0
220
0
230
0
 70
    8
 71
    3
 72
    8
 73
    4
 74
    0
 42
1e-007
 43
1e-007
 40
0
 40
0
 40
0
 40
0
 40
1
 40
1
 40
1
 40
1
 10
21.83915406506294
 20
10.45496296876978
 30
0
 10
21.77036051647441
 20
10.61972868343817
 30
0
 10
21.60525610328135
 20
10.63613099977808
 30
0
 10
21.48264723734962
 20
10.49041100123299
 30
0
  0
SPLINE
  5
61
100
AcDbEntity
  8
0
  6
ByLayer
 62
  256
370
   -1
100
AcDbSpline
210
0
220
0
230
0
 70
    8
 71
    3
 72
    8
 73
    4
 74
    0
 42
1e-007
 43
1e-007
 40
0
 40
0
 40
0
 40
0
 40
1
 40
1
 40
1
 40
1
 10
21.48264723734962
 20
10.49041100123299
 30
0
 10
21.39826528307438
 20
10.39016864825733
 30
0
 10
21.41182046341909
 20
10.28064130183275
 30
0
 10
21.52365251110239
 20
10.15843887413063
 30
0
  0
SPLINE
  5
62
100
AcDbEntity
  8
0
  6
ByLayer
 62
  256
370
   -1
100
AcDbSpline
210
0
220
0
230
0
 70
    8
 71
    3
 72
    8
 73
    4
 74
    0
 42
1e-007
 43
1e-007
 40
0
 40
0
 40
0
 40
0
 40
1
 40
1
 40
1
 40
1
 10
21.52365251110239
 20
10.15843887413063
 30
0
 10
21.73450656287858
 20
9.927997705688643
 30
0
 10
21.79604782626322
 20
9.817047308363456
 30
0
 10
21.79604782626322
 20
9.667192602332438
 30
0
  0
SPLINE
  5
63
100
AcDbEntity
  8
0
  6
ByLayer
 62
  256
370
   -1
100
AcDbSpline
210
0
220
0
230
0
 70
    8
 71
    3
 72
    8
 73
    4
 74
    0
 42
1e-007
 43
1e-007
 40
0
 40
0
 40
0
 40
0
 40
1
 40
1
 40
1
 40
1
 10
21.79604782626322
 20
9.667192602332438
 30
0
 10
21.79604782626322
 20
9.401371658229161
 30
0
 10
21.55618566786547
 20
9.36788859430604
 30
0
 10
21.33245383279393
 20
9.602532727035879
 30
0
  0
SPLINE
  5
64
100
AcDbEntity
  8
0
  6
ByLayer
 62
  256
370
   -1
100
AcDbSpline
210
0
220
0
230
0
 70
    8
 71
    3
 72
    8
 73
    4
 74
    0
 42
1e-007
 43
1e-007
 40
0
 40
0
 40
0
 40
0
 40
1
 40
1
 40
1
 40
1
 10
21.33245383279393
 20
9.602532727035879
 30
0
 10
21.11034878483478
 20
9.835346336441528
 30
0
 10
20.85110221178905
 20
9.755911966111437
 30
0
 10
20.93555190576923
 20
9.480806028559254
 30
0
  0
SPLINE
  5
65
100
AcDbEntity
  8
0
  6
ByLayer
 62
  256
370
   -1
100
AcDbSpline
210
0
220
0
230
0
 70
    8
 71
    3
 72
    8
 73
    4
 74
    0
 42
1e-007
 43
1e-007
 40
0
 40
0
 40
0
 40
0
 40
1
 40
1
 40
1
 40
1
 10
20.93555190576923
 20
9.480806028559254
 30
0
 10
20.9583248569549
 20
9.406521944192132
 30
0
 10
20.95391970774621
 20
9.374259229151802
 30
0
 10
20.91067798953663
 20
9.299977213172619
 30
0
  0
SPLINE
  5
66
100
AcDbEntity
  8
0
  6
ByLayer
 62
  256
370
   -1
100
AcDbSpline
210
0
220
0
230
0
 70
    8
 71
    3
 72
    8
 73
    4
 74
    0
 42
1e-007
 43
1e-007
 40
0
 40
0
 40
0
 40
0
 40
1
 40
1
 40
1
 40
1
 10
20.91067798953663
 20
9.299977213172619
 30
0
 10
20.77173506406691
 20
9.061130116154924
 30
0
 10
20.51980851593001
 20
9.262022294529842
 30
0
 10
20.45453898328903
 20
9.663802514503798
 30
0
  0
SPLINE
  5
67
100
AcDbEntity
  8
0
  6
ByLayer
 62
  256
370
   -1
100
AcDbSpline
210
0
220
0
230
0
 70
    8
 71
    3
 72
    8
 73
    4
 74
    0
 42
1e-007
 43
1e-007
 40
0
 40
0
 40
0
 40
0
 40
1
 40
1
 40
1
 40
1
 10
20.45453898328903
 20
9.663802514503798
 30
0
 10
20.4203118168056
 20
9.874589860769017
 30
0
 10
20.3145799622453
 20
9.906513360187688
 30
0
 10
19.97962625393184
 20
9.807218328887135
 30
0
  0
SPLINE
  5
68
100
AcDbEntity
  8
0
  6
ByLayer
 62
  256
370
   -1
100
AcDbSpline
210
0
220
0
230
0
 70
    8
 71
    3
 72
    8
 73
    4
 74
    0
 42
1e-007
 43
1e-007
 40
0
 40
0
 40
0
 40
0
 40
1
 40
1
 40
1
 40
1
 10
19.97962625393184
 20
9.807218328887135
 30
0
 10
19.70004639327207
 20
9.724327682314422
 30
0
 10
19.52538499361639
 20
9.791223484970807
 30
0
 10
19.55439361733493
 20
9.970019075015436
 30
0
  0
SPLINE
  5
69
100
AcDbEntity
  8
0
  6
ByLayer
 62
  256
370
   -1
100
AcDbSpline
210
0
220
0
230
0
 70
    8
 71
    3
 72
    8
 73
    4
 74
    0
 42
1e-007
 43
1e-007
 40
0
 40
0
 40
0
 40
0
 40
1
 40
1
 40
1
 40
1
 10
19.55439361733493
 20
9.970019075015436
 30
0
 10
19.59838098939579
 20
10.24099237346962
 30
0
 10
19.86494758735033
 20
10.41260238382133
 30
0
 10
20.29140005573304
 20
10.44445762643809
 30
0
  0
SPLINE
  5
6A
100
AcDbEntity
  8
0
  6
ByLayer
 62
  256
370
   -1
100
AcDbSpline
210
0
220
0
230
0
 70
    8
 71
    3
 72
    8
 73
    4
 74
    0
 42
1e-007
 43
1e-007
 40
0
 40
0
 40
0
 40
0
 40
1
 40
1
 40
1
 40
1
 10
20.29140005573304
 20
10.44445762643809
 30
0
 10
20.77390428591578
 20
10.48051583334269
 30
0
 10
20.77376828940892
 20
10.47997391570322
 30
0
 10
20.53275352183332
 20
11.42769789227367
 30
0
  0
SPLINE
  5
6B
100
AcDbEntity
  8
0
  6
ByLayer
 62
  256
370
   -1
100
AcDbSpline
210
0
220
0
230
0
 70
    8
 71
    3
 72
    8
 73
    4
 74
    0
 42
1e-007
 43
1e-007
 40
0
 40
0
 40
0
 40
0
 40
1
 40
1
 40
1
 40
1
 10
20.53275352183332
 20
11.42769789227367
 30
0
 10
20.46375675412999
 20
11.69880563594375
 30
0
 10
20.39469224672172
 20
11.94456528544669
 30
0
 10
20.37923880334789
 20
11.97384435088799
 30
0
  0
SPLINE
  5
6C
100
AcDbEntity
  8
0
  6
ByLayer
 62
  256
370
   -1
100
AcDbSpline
210
0
220
0
230
0
 70
    8
 71
    3
 72
    8
 73
    4
 74
    0
 42
1e-007
 43
1e-007
 40
0
 40
0
 40
0
 40
0
 40
1
 40
1
 40
1
 40
1
 10
20.37923880334789
 20
11.97384435088799
 30
0
 10
20.35145052851214
 20
12.0264393193484
 30
0
 10
20.35199244615161
 20
12.0264393193484
 30
0
 10
20.42966506705643
 20
11.97547113800039
 30
0
  0
SPLINE
  5
6D
100
AcDbEntity
  8
0
  6
ByLayer
 62
  256
370
   -1
100
AcDbSpline
210
0
220
0
230
0
 70
    8
 71
    3
 72
    8
 73
    4
 74
    0
 42
1e-007
 43
1e-007
 40
0
 40
0
 40
0
 40
0
 40
1
 40
1
 40
1
 40
1
 10
20.42966506705643
 20
11.97547113800039
 30
0
 10
21.04223315039258
 20
11.57321518880093
 30
0
 10
21.38640411245002
 20
11.49411899989853
 30
0
 10
21.42564711968052
 20
11.74652024306696
 30
0
  0
SPLINE
  5
6E
100
AcDbEntity
  8
0
  6
ByLayer
 62
  256
370
   -1
100
AcDbSpline
210
0
220
0
230
0
 70
    8
 71
    3
 72
    8
 73
    4
 74
    0
 42
1e-007
 43
1e-007
 40
0
 40
0
 40
0
 40
0
 40
1
 40
1
 40
1
 40
1
 10
21.42564711968052
 20
11.74652024306696
 30
0
 10
21.44415040106736
 20
11.86580831216594
 30
0
 10
21.39169091201683
 20
11.91806406500469
 30
0
 10
21.12356526665481
 20
12.04738278140384
 30
0
  0
SPLINE
  5
6F
100
AcDbEntity
  8
0
  6
ByLayer
 62
  256
370
   -1
100
AcDbSpline
210
0
220
0
230
0
 70
    8
 71
    3
 72
    8
 73
    4
 74
    0
 42
1e-007
 43
1e-007
 40
0
 40
0
 40
0
 40
0
 40
1
 40
1
 40
1
 40
1
 10
21.12356526665481
 20
12.04738278140384
 30
0
 10
20.85150865001866
 20
12.17859820954116
 30
0
 10
20.40126661777927
 20
12.44624967696863
 30
0
 10
20.42044729621547
 20
12.46536261569988
 30
0
  0
SPLINE
  5
70
100
AcDbEntity
  8
0
  6
ByLayer
 62
  256
370
   -1
100
AcDbSpline
210
0
220
0
230
0
 70
    8
 71
    3
 72
    8
 73
    4
 74
    0
 42
1e-007
 43
1e-007
 40
0
 40
0
 40
0
 40
0
 40
1
 40
1
 40
1
 40
1
 10
20.42044729621547
 20
12.46536261569988
 30
0
 10
20.42641149283163
 20
12.47139506911796
 30
0
 10
20.50354167899997
 20
12.46170260324548
 30
0
 10
20.59178738194141
 20
12.44394549280688
 30
0
  0
SPLINE
  5
71
100
AcDbEntity
  8
0
  6
ByLayer
 62
  256
370
   -1
100
AcDbSpline
210
0
220
0
230
0
 70
    8
 71
    3
 72
    8
 73
    4
 74
    0
 42
1e-007
 43
1e-007
 40
0
 40
0
 40
0
 40
0
 40
1
 40
1
 40
1
 40
1
 10
20.59178738194141
 20
12.44394549280688
 30
0
 10
21.82878420214111
 20
12.19500052588107
 30
0
 10
22.92067068114013
 20
12.83027382069796
 30
0
 10
22.70547870276321
 20
13.67355454839283
 30
0
  0
SPLINE
  5
72
100
AcDbEntity
  8
0
  6
ByLayer
 62
  256
370
   -1
100
AcDbSpline
210
0
220
0
230
0
 70
    8
 71
    3
 72
    8
 73
    4
 74
    0
 42
1e-007
 43
1e-007
 40
0
 40
0
 40
0
 40
0
 40
1
 40
1
 40
1
 40
1
 10
22.70547870276321
 20
13.67355454839283
 30
0
 10
22.40129588469056
 20
14.86541242154778
 30
0
 10
19.97630494000211
 20
15.58615150591887
 30
0
 10
18.9372166485783
 20
14.79356800075228
 30
0
  0
SPLINE
  5
73
100
AcDbEntity
  8
0
  6
ByLayer
 62
  256
370
   -1
100
AcDbSpline
210
0
220
0
230
0
 70
    8
 71
    3
 72
    8
 73
    4
 74
    0
 42
1e-007
 43
1e-007
 40
0
 40
0
 40
0
 40
0
 40
1
 40
1
 40
1
 40
1
 10
18.9372166485783
 20
14.79356800075228
 30
0
 10
18.82958704808586
 20
14.71149023063878
 30
0
 10
18.84205813460312
 20
14.69901991976699
 30
0
 10
18.75882801386026
 20
14.97222811138704
 30
0
  0
SPLINE
  5
74
100
AcDbEntity
  8
0
  6
ByLayer
 62
  256
370
   -1
100
AcDbSpline
210
0
220
0
230
0
 70
    8
 71
    3
 72
    8
 73
    4
 74
    0
 42
1e-007
 43
1e-007
 40
0
 40
0
 40
0
 40
0
 40
1
 40
1
 40
1
 40
1
 10
18.75882801386026
 20
14.97222811138704
 30
0
 10
18.47023386002283
 20
15.92002137895338
 30
0
 10
18.91112290055988
 20
17.34238764315827
 30
0
 10
19.77412622433042
 20
18.24768484636629
 30
0
  0
SPLINE
  5
75
100
AcDbEntity
  8
0
  6
ByLayer
 62
  256
370
   -1
100
AcDbSpline
210
0
220
0
230
0
 70
    8
 71
    3
 72
    8
 73
    4
 74
    0
 42
1e-007
 43
1e-007
 40
0
 40
0
 40
0
 40
0
 40
1
 40
1
 40
1
 40
1
 10
19.77412622433042
 20
18.24768484636629
 30
0
 10
20.32752496814862
 20
18.82826169057885
 30
0
 10
21.34072273066881
 20
19.46990562024151
 30
0
 10
21.98562023455627
 20
19.64829477205652
 30
0
  0
SPLINE
  5
76
100
AcDbEntity
  8
0
  6
ByLayer
 62
  256
370
   -1
100
AcDbSpline
210
0
220
0
230
0
 70
    8
 71
    3
 72
    8
 73
    4
 74
    0
 42
1e-007
 43
1e-007
 40
0
 40
0
 40
0
 40
0
 40
1
 40
1
 40
1
 40
1
 10
21.98562023455627
 20
19.64829477205652
 30
0
 10
22.12713830300747
 20
19.68747003958209
 30
0
 10
22.25069552480828
 20
19.73199932928242
 30
0
 10
22.26011651476404
 20
19.74724903644447
 30
0
  0
SPLINE
  5
77
100
AcDbEntity
  8
0
  6
ByLayer
 62
  256
370
   -1
100
AcDbSpline
210
0
220
0
230
0
 70
    8
 71
    3
 72
    8
 73
    4
 74
    0
 42
1e-007
 43
1e-007
 40
0
 40
0
 40
0
 40
0
 40
1
 40
1
 40
1
 40
1
 10
22.26011651476404
 20
19.74724903644447
 30
0
 10
22.31454148945165
 20
19.8352915202711
 30
0
 10
23.44295931909586
 20
20.11710782538769
 30
0
 10
23.97060301342032
 20
20.17437941897352
 30
0
  0
SPLINE
  5
78
100
AcDbEntity
  8
0
  6
ByLayer
 62
  256
370
   -1
100
AcDbSpline
210
0
220
0
230
0
 70
    8
 71
    3
 72
    8
 73
    4
 74
    0
 42
1e-007
 43
1e-007
 40
0
 40
0
 40
0
 40
0
 40
1
 40
1
 40
1
 40
1
 10
23.97060301342032
 20
20.17437941897352
 30
0
 10
25.17072926735317
 20
20.30471423094668
 30
0
 10
26.91835780819301
 20
19.99429625743814
 30
0
 10
27.8146399425779
 20
19.49166195875616
 30
0
  0
SPLINE
  5
79
100
AcDbEntity
  8
0
  6
ByLayer
 62
  256
370
   -1
100
AcDbSpline
210
0
220
0
230
0
 70
    8
 71
    3
 72
    8
 73
    4
 74
    0
 42
1e-007
 43
1e-007
 40
0
 40
0
 40
0
 40
0
 40
1
 40
1
 40
1
 40
1
 10
27.8146399425779
 20
19.49166195875616
 30
0
 10
29.18068400326002
 20
18.72551141722964
 30
0
 10
30.59261318193514
 20
16.84504066114009
 30
0
 10
30.57688929683854
 20
15.81272995988863
 30
0
  0
SPLINE
  5
7A
100
AcDbEntity
  8
0
  6
ByLayer
 62
  256
370
   -1
100
AcDbSpline
210
0
220
0
230
0
 70
    8
 71
    3
 72
    8
 73
    4
 74
    0
 42
1e-007
 43
1e-007
 40
0
 40
0
 40
0
 40
0
 40
1
 40
1
 40
1
 40
1
 10
30.57688929683854
 20
15.81272995988863
 30
0
 10
30.57465233528475
 20
15.66680622513176
 30
0
 10
30.58597158826963
 20
15.60723044738419
 30
0
 10
30.62684086551555
 20
15.54826484407801
 30
0
  0
SPLINE
  5
7B
100
AcDbEntity
  8
0
  6
ByLayer
 62
  256
370
   -1
100
AcDbSpline
210
0
220
0
230
0
 70
    8
 71
    3
 72
    8
 73
    4
 74
    0
 42
1e-007
 43
1e-007
 40
0
 40
0
 40
0
 40
0
 40
1
 40
1
 40
1
 40
1
 10
30.62684086551555
 20
15.54826484407801
 30
0
 10
30.70586879761603
 20
15.43446731075763
 30
0
 10
30.89760939356398
 20
14.43536768041559
 30
0
 10
31.00049514632305
 20
13.6015074255795
 30
0
  0
SPLINE
  5
7C
100
AcDbEntity
  8
0
  6
ByLayer
 62
  256
370
   -1
100
AcDbSpline
210
0
220
0
230
0
 70
    8
 71
    3
 72
    8
 73
    4
 74
    0
 42
1e-007
 43
1e-007
 40
0
 40
0
 40
0
 40
0
 40
1
 40
1
 40
1
 40
1
 10
31.00049514632305
 20
13.6015074255795
 30
0
 10
31.02442018958959
 20
13.40766534748763
 30
0
 10
31.06074832111997
 20
13.17586835075298
 30
0
 10
31.08135256755376
 20
13.08640333312272
 30
0
  0
SPLINE
  5
7D
100
AcDbEntity
  8
0
  6
ByLayer
 62
  256
370
   -1
100
AcDbSpline
210
0
220
0
230
0
 70
    8
 71
    3
 72
    8
 73
    4
 74
    0
 42
1e-007
 43
1e-007
 40
0
 40
0
 40
0
 40
0
 40
1
 40
1
 40
1
 40
1
 10
31.08135256755376
 20
13.08640333312272
 30
0
 10
31.1018895913796
 20
12.99693728129849
 30
0
 10
31.12689846992509
 20
12.83833949945804
 30
0
 10
31.13686189461731
 20
12.73396243899644
 30
0
  0
SPLINE
  5
7E
100
AcDbEntity
  8
0
  6
ByLayer
 62
  256
370
   -1
100
AcDbSpline
210
0
220
0
230
0
 70
    8
 71
    3
 72
    8
 73
    4
 74
    0
 42
1e-007
 43
1e-007
 40
0
 40
0
 40
0
 40
0
 40
1
 40
1
 40
1
 40
1
 10
31.13686189461731
 20
12.73396243899644
 30
0
 10
31.18640702506471
 20
12.21479189585564
 30
0
 10
31.53234077074139
 20
12.18117438671662
 30
0
 10
32.39893636726141
 20
12.61135460725868
 30
0
  0
SPLINE
  5
7F
100
AcDbEntity
  8
0
  6
ByLayer
 62
  256
370
   -1
100
AcDbSpline
210
0
220
0
230
0
 70
    8
 71
    3
 72
    8
 73
    4
 74
    0
 42
1e-007
 43
1e-007
 40
0
 40
0
 40
0
 40
0
 40
1
 40
1
 40
1
 40
1
 10
32.39893636726141
 20
12.61135460725868
 30
0
 10
33.11852439374559
 20
12.96853831492435
 30
0
 10
33.45158035612691
 20
13.29813800106306
 30
0
 10
33.67341289397537
 20
13.87261516924958
 30
0
  0
SPLINE
  5
80
100
AcDbEntity
  8
0
  6
ByLayer
 62
  256
370
   -1
100
AcDbSpline
210
0
220
0
230
0
 70
    8
 71
    3
 72
    8
 73
    4
 74
    0
 42
1e-007
 43
1e-007
 40
0
 40
0
 40
0
 40
0
 40
1
 40
1
 40
1
 40
1
 10
33.67341289397537
 20
13.87261516924958
 30
0
 10
34.01948315325589
 20
14.76883008102652
 30
0
 10
33.45876386743189
 20
16.18726537395726
 30
0
 10
32.59555732454655
 20
16.5992137890292
 30
0
  0
SPLINE
  5
81
100
AcDbEntity
  8
0
  6
ByLayer
 62
  256
370
   -1
100
AcDbSpline
210
0
220
0
230
0
 70
    8
 71
    3
 72
    8
 73
    4
 74
    0
 42
1e-007
 43
1e-007
 40
0
 40
0
 40
0
 40
0
 40
1
 40
1
 40
1
 40
1
 10
32.59555732454655
 20
16.5992137890292
 30
0
 10
32.43885625444427
 20
16.67397153423388
 30
0
 10
32.41506772478157
 20
16.69674448541955
 30
0
 10
32.34193573249532
 20
16.84165160750542
 30
0
  0
SPLINE
  5
82
100
AcDbEntity
  8
0
  6
ByLayer
 62
  256
370
   -1
100
AcDbSpline
210
0
220
0
230
0
 70
    8
 71
    3
 72
    8
 73
    4
 74
    0
 42
1e-007
 43
1e-007
 40
0
 40
0
 40
0
 40
0
 40
1
 40
1
 40
1
 40
1
 10
32.34193573249532
 20
16.84165160750542
 30
0
 10
31.97898949603734
 20
17.56062945954821
 30
0
 10
31.48923453194168
 20
18.21596508315941
 30
0
 10
30.81803954382401
 20
18.88072117962939
 30
0
  0
LINE
  5
83
100
AcDbEntity
  8
0
  6
ByLayer
 62
  256
370
   -1
100
AcDbLine
 10
30.81803954382401
 20
18.88072117962939
 11
30.3875201076603
 21
19.30717313091512
  0
LINE
  5
84
100
AcDbEntity
  8
0
  6
ByLayer
 62
  256
370
   -1
100
AcDbLine
 10
30.3875201076603
 20
19.30717313091512
 11
30.69387214758181
 21
19.20137405374687
  0
SPLINE
  5
85
100
AcDbEntity
  8
0
  6
ByLayer
 62
  256
370
   -1
100
AcDbSpline
210
0
220
0
230
0
 70
    8
 71
    3
 72
    8
 73
    4
 74
    0
 42
1e-007
 43
1e-007
 40
0
 40
0
 40
0
 40
0
 40
1
 40
1
 40
1
 40
1
 10
30.69387214758181
 20
19.20137405374687
 30
0
 10
32.98812080787351
 20
18.40892602799014
 30
0
 10
35.12180775197866
 20
16.48324755095694
 30
0
 10
35.72718973852493
 20
14.65862430335863
 30
0
  0
SPLINE
  5
86
100
AcDbEntity
  8
0
  6
ByLayer
 62
  256
370
   -1
100
AcDbSpline
210
0
220
0
230
0
 70
    8
 71
    3
 72
    8
 73
    4
 74
    0
 42
1e-007
 43
1e-007
 40
0
 40
0
 40
0
 40
0
 40
1
 40
1
 40
1
 40
1
 10
35.72718973852493
 20
14.65862430335863
 30
0
 10
36.22487697035874
 20
13.15858490115195
 30
0
 10
36.04614963711602
 20
11.25317248912485
 30
0
 10
35.31110868435499
 20
10.22384336908448
 30
0
  0
SPLINE
  5
87
100
AcDbEntity
  8
0
  6
ByLayer
 62
  256
370
   -1
100
AcDbSpline
210
0
220
0
230
0
 70
    8
 71
    3
 72
    8
 73
    4
 74
    0
 42
1e-007
 43
1e-007
 40
0
 40
0
 40
0
 40
0
 40
1
 40
1
 40
1
 40
1
 10
35.31110868435499
 20
10.22384336908448
 30
0
 10
35.15244264571263
 20
10.00167161561437
 30
0
 10
35.11577426436662
 20
9.884416771857401
 30
0
 10
35.1432238406777
 20
9.687390410536619
 30
0
  0
SPLINE
  5
88
100
AcDbEntity
  8
0
  6
ByLayer
 62
  256
370
   -1
100
AcDbSpline
210
0
220
0
230
0
 70
    8
 71
    3
 72
    8
 73
    4
 74
    0
 42
1e-007
 43
1e-007
 40
0
 40
0
 40
0
 40
0
 40
1
 40
1
 40
1
 40
1
 10
35.1432238406777
 20
9.687390410536619
 30
0
 10
35.16728539754808
 20
9.514489726112259
 30
0
 10
35.1411906153357
 20
9.385782218348472
 30
0
 10
35.08195405320978
 20
9.385782218348472
 30
0
  0
SPLINE
  5
89
100
AcDbEntity
  8
0
  6
ByLayer
 62
  256
370
   -1
100
AcDbSpline
210
0
220
0
230
0
 70
    8
 71
    3
 72
    8
 73
    4
 74
    0
 42
1e-007
 43
1e-007
 40
0
 40
0
 40
0
 40
0
 40
1
 40
1
 40
1
 40
1
 10
35.08195405320978
 20
9.385782218348472
 30
0
 10
35.05226854953887
 20
9.385782218348472
 30
0
 10
34.97188478914573
 20
9.633846052013153
 30
0
 10
34.97188478914573
 20
9.725411517593376
 30
0
  0
SPLINE
  5
8A
100
AcDbEntity
  8
0
  6
ByLayer
 62
  256
370
   -1
100
AcDbSpline
210
0
220
0
230
0
 70
    8
 71
    3
 72
    8
 73
    4
 74
    0
 42
1e-007
 43
1e-007
 40
0
 40
0
 40
0
 40
0
 40
1
 40
1
 40
1
 40
1
 10
34.97188478914573
 20
9.725411517593376
 30
0
 10
34.97188478914573
 20
9.858729462068592
 30
0
 10
34.82426601047453
 20
9.946364990568636
 30
0
 10
34.69250763050377
 20
9.891263135928659
 30
0
  0
SPLINE
  5
8B
100
AcDbEntity
  8
0
  6
ByLayer
 62
  256
370
   -1
100
AcDbSpline
210
0
220
0
230
0
 70
    8
 71
    3
 72
    8
 73
    4
 74
    0
 42
1e-007
 43
1e-007
 40
0
 40
0
 40
0
 40
0
 40
1
 40
1
 40
1
 40
1
 10
34.69250763050377
 20
9.891263135928659
 30
0
 10
34.60222870222032
 20
9.853510919303702
 30
0
 10
34.58935091892496
 20
9.834125987558737
 30
0
 10
34.46789517926807
 20
9.553869764043583
 30
0
  0
SPLINE
  5
8C
100
AcDbEntity
  8
0
  6
ByLayer
 62
  256
370
   -1
100
AcDbSpline
210
0
220
0
230
0
 70
    8
 71
    3
 72
    8
 73
    4
 74
    0
 42
1e-007
 43
1e-007
 40
0
 40
0
 40
0
 40
0
 40
1
 40
1
 40
1
 40
1
 10
34.46789517926807
 20
9.553869764043583
 30
0
 10
34.4030326019537
 20
9.404081246426548
 30
0
 10
34.34149185566604
 20
9.331561496969631
 30
0
 10
34.27913616453122
 20
9.331561496969631
 30
0
  0
SPLINE
  5
8D
100
AcDbEntity
  8
0
  6
ByLayer
 62
  256
370
   -1
100
AcDbSpline
210
0
220
0
230
0
 70
    8
 71
    3
 72
    8
 73
    4
 74
    0
 42
1e-007
 43
1e-007
 40
0
 40
0
 40
0
 40
0
 40
1
 40
1
 40
1
 40
1
 10
34.27913616453122
 20
9.331561496969631
 30
0
 10
34.26897003782118
 20
9.331561496969631
 30
0
 10
34.26897003782118
 20
9.43248021280068
 30
0
 10
34.27927267813506
 20
9.555902989385592
 30
0
  0
SPLINE
  5
8E
100
AcDbEntity
  8
0
  6
ByLayer
 62
  256
370
   -1
100
AcDbSpline
210
0
220
0
230
0
 70
    8
 71
    3
 72
    8
 73
    4
 74
    0
 42
1e-007
 43
1e-007
 40
0
 40
0
 40
0
 40
0
 40
1
 40
1
 40
1
 40
1
 10
34.27927267813506
 20
9.555902989385592
 30
0
 10
34.3105839347244
 20
9.932064156372659
 30
0
 10
34.24741743551831
 20
9.972257070763202
 30
0
 10
33.77656960555419
 20
9.87567369604797
 30
0
  0
SPLINE
  5
8F
100
AcDbEntity
  8
0
  6
ByLayer
 62
  256
370
   -1
100
AcDbSpline
210
0
220
0
230
0
 70
    8
 71
    3
 72
    8
 73
    4
 74
    0
 42
1e-007
 43
1e-007
 40
0
 40
0
 40
0
 40
0
 40
1
 40
1
 40
1
 40
1
 10
33.77656960555419
 20
9.87567369604797
 30
0
 10
33.63627292017974
 20
9.846869325638199
 30
0
 10
33.44825852510019
 20
9.814743124201708
 30
0
 10
33.35879247327596
 20
9.804237781870011
 30
0
  0
LINE
  5
90
100
AcDbEntity
  8
0
  6
ByLayer
 62
  256
370
   -1
100
AcDbLine
 10
33.35879247327596
 20
9.804237781870011
 11
33.1961282407515
 21
9.785192065746704
  0
LINE
  5
91
100
AcDbEntity
  8
0
  6
ByLayer
 62
  256
370
   -1
100
AcDbLine
 10
33.1961282407515
 20
9.785192065746704
 11
33.24913068163548
 21
9.844565141476453
  0
SPLINE
  5
92
100
AcDbEntity
  8
0
  6
ByLayer
 62
  256
370
   -1
100
AcDbSpline
210
0
220
0
230
0
 70
    8
 71
    3
 72
    8
 73
    4
 74
    0
 42
1e-007
 43
1e-007
 40
0
 40
0
 40
0
 40
0
 40
1
 40
1
 40
1
 40
1
 10
33.24913068163548
 20
9.844565141476453
 30
0
 10
33.3110106435448
 20
9.913831316708567
 30
0
 10
33.86840809834208
 20
10.19910544935873
 30
0
 10
33.94194549466397
 20
10.19910544935873
 30
0
  0
SPLINE
  5
93
100
AcDbEntity
  8
0
  6
ByLayer
 62
  256
370
   -1
100
AcDbSpline
210
0
220
0
230
0
 70
    8
 71
    3
 72
    8
 73
    4
 74
    0
 42
1e-007
 43
1e-007
 40
0
 40
0
 40
0
 40
0
 40
1
 40
1
 40
1
 40
1
 10
33.94194549466397
 20
10.19910544935873
 30
0
 10
34.02822622906533
 20
10.19910544935873
 30
0
 10
34.10535641523366
 20
10.326255461006
 30
0
 10
34.08759930479506
 20
10.4392390836732
 30
0
  0
SPLINE
  5
94
100
AcDbEntity
  8
0
  6
ByLayer
 62
  256
370
   -1
100
AcDbSpline
210
0
220
0
230
0
 70
    8
 71
    3
 72
    8
 73
    4
 74
    0
 42
1e-007
 43
1e-007
 40
0
 40
0
 40
0
 40
0
 40
1
 40
1
 40
1
 40
1
 10
34.08759930479506
 20
10.4392390836732
 30
0
 10
34.06753594180679
 20
10.56699926976186
 30
0
 10
34.04584889428801
 20
10.59119527184814
 30
0
 10
33.8244217604752
 20
10.73325629213278
 30
0
  0
SPLINE
  5
95
100
AcDbEntity
  8
0
  6
ByLayer
 62
  256
370
   -1
100
AcDbSpline
210
0
220
0
230
0
 70
    8
 71
    3
 72
    8
 73
    4
 74
    0
 42
1e-007
 43
1e-007
 40
0
 40
0
 40
0
 40
0
 40
1
 40
1
 40
1
 40
1
 10
33.8244217604752
 20
10.73325629213278
 30
0
 10
33.3445598958819
 20
11.04123408497273
 30
0
 10
33.32626086780383
 20
12.21113188340123
 30
0
 10
33.79446322959662
 20
12.65269857953612
 30
0
  0
SPLINE
  5
96
100
AcDbEntity
  8
0
  6
ByLayer
 62
  256
370
   -1
100
AcDbSpline
210
0
220
0
230
0
 70
    8
 71
    3
 72
    8
 73
    4
 74
    0
 42
1e-007
 43
1e-007
 40
0
 40
0
 40
0
 40
0
 40
1
 40
1
 40
1
 40
1
 10
33.79446322959662
 20
12.65269857953612
 30
0
 10
33.94045418696144
 20
12.79035289932112
 30
0
 10
33.87538890762924
 20
12.99151500232181
 30
0
 10
33.6847993695682
 20
12.99151500232181
 30
0
  0
SPLINE
  5
97
100
AcDbEntity
  8
0
  6
ByLayer
 62
  256
370
   -1
100
AcDbSpline
210
0
220
0
230
0
 70
    8
 71
    3
 72
    8
 73
    4
 74
    0
 42
1e-007
 43
1e-007
 40
0
 40
0
 40
0
 40
0
 40
1
 40
1
 40
1
 40
1
 10
33.6847993695682
 20
12.99151500232181
 30
0
 10
33.3649604061039
 20
12.99151500232181
 30
0
 10
33.02682241456153
 20
12.23248178368628
 30
0
 10
33.05135763226946
 20
11.56975891255831
 30
0
  0
SPLINE
  5
98
100
AcDbEntity
  8
0
  6
ByLayer
 62
  256
370
   -1
100
AcDbSpline
210
0
220
0
230
0
 70
    8
 71
    3
 72
    8
 73
    4
 74
    0
 42
1e-007
 43
1e-007
 40
0
 40
0
 40
0
 40
0
 40
1
 40
1
 40
1
 40
1
 10
33.05135763226946
 20
11.56975891255831
 30
0
 10
33.05969323565532
 20
11.34528090653852
 30
0
 10
33.05393277525095
 20
11.28157042130501
 30
0
 10
33.02451823039979
 20
11.27031942512205
 30
0
  0
SPLINE
  5
99
100
AcDbEntity
  8
0
  6
ByLayer
 62
  256
370
   -1
100
AcDbSpline
210
0
220
0
230
0
 70
    8
 71
    3
 72
    8
 73
    4
 74
    0
 42
1e-007
 43
1e-007
 40
0
 40
0
 40
0
 40
0
 40
1
 40
1
 40
1
 40
1
 10
33.02451823039979
 20
11.27031942512205
 30
0
 10
32.97937773206409
 20
11.25296875291306
 30
0
 10
32.12959089011359
 20
11.16329999907101
 30
0
 10
31.36357582799694
 20
11.09498114551401
 30
0
  0
SPLINE
  5
9A
100
AcDbEntity
  8
0
  6
ByLayer
 62
  256
370
   -1
100
AcDbSpline
210
0
220
0
230
0
 70
    8
 71
    3
 72
    8
 73
    4
 74
    0
 42
1e-007
 43
1e-007
 40
0
 40
0
 40
0
 40
0
 40
1
 40
1
 40
1
 40
1
 10
31.36357582799694
 20
11.09498114551401
 30
0
 10
31.05647813422417
 20
11.06759879181088
 30
0
 10
30.78198237111338
 20
11.03174535531203
 30
0
 10
30.75358340473925
 20
11.01527581636418
 30
0
  0
SPLINE
  5
9B
100
AcDbEntity
  8
0
  6
ByLayer
 62
  256
370
   -1
100
AcDbSpline
210
0
220
0
230
0
 70
    8
 71
    3
 72
    8
 73
    4
 74
    0
 42
1e-007
 43
1e-007
 40
0
 40
0
 40
0
 40
0
 40
1
 40
1
 40
1
 40
1
 10
30.75358340473925
 20
11.01527581636418
 30
0
 10
30.72518443836511
 20
10.99880524322235
 30
0
 10
30.66899771425222
 20
10.97365985107302
 30
0
 10
30.62880583405564
 20
10.95942727367897
 30
0
  0
SPLINE
  5
9C
100
AcDbEntity
  8
0
  6
ByLayer
 62
  256
370
   -1
100
AcDbSpline
210
0
220
0
230
0
 70
    8
 71
    3
 72
    8
 73
    4
 74
    0
 42
1e-007
 43
1e-007
 40
0
 40
0
 40
0
 40
0
 40
1
 40
1
 40
1
 40
1
 10
30.62880583405564
 20
10.95942727367897
 30
0
 10
30.49087952125693
 20
10.91055954028091
 30
0
 10
30.47440998230908
 20
10.8490860166012
 30
0
 10
30.46939517575598
 20
10.36244811312651
 30
0
  0
LINE
  5
9D
100
AcDbEntity
  8
0
  6
ByLayer
 62
  256
370
   -1
100
AcDbLine
 10
30.46939517575598
 20
10.36244811312651
 11
30.46471855063056
 21
9.915932798852495
  0
LINE
  5
9E
100
AcDbEntity
  8
0
  6
ByLayer
 62
  256
370
   -1
100
AcDbLine
 10
30.46471855063056
 20
9.915932798852495
 11
30.56299490087218
 21
9.831008926937773
  0
SPLINE
  5
9F
100
AcDbEntity
  8
0
  6
ByLayer
 62
  256
370
   -1
100
AcDbSpline
210
0
220
0
230
0
 70
    8
 71
    3
 72
    8
 73
    4
 74
    0
 42
1e-007
 43
1e-007
 40
0
 40
0
 40
0
 40
0
 40
1
 40
1
 40
1
 40
1
 10
30.56299490087218
 20
9.831008926937773
 30
0
 10
30.80251836074525
 20
9.623950884122852
 30
0
 10
30.62229971980001
 20
9.364024845639843
 30
0
 10
30.36861090514083
 20
9.550616189818783
 30
0
  0
SPLINE
  5
A0
100
AcDbEntity
  8
0
  6
ByLayer
 62
  256
370
   -1
100
AcDbSpline
210
0
220
0
230
0
 70
    8
 71
    3
 72
    8
 73
    4
 74
    0
 42
1e-007
 43
1e-007
 40
0
 40
0
 40
0
 40
0
 40
1
 40
1
 40
1
 40
1
 10
30.36861090514083
 20
9.550616189818783
 30
0
 10
30.16385601229369
 20
9.701215515507098
 30
0
 10
29.95957684867204
 20
9.55657935224097
 30
0
 10
30.05663285003086
 20
9.329662716843526
 30
0
  0
SPLINE
  5
A1
100
AcDbEntity
  8
0
  6
ByLayer
 62
  256
370
   -1
100
AcDbSpline
210
0
220
0
230
0
 70
    8
 71
    3
 72
    8
 73
    4
 74
    0
 42
1e-007
 43
1e-007
 40
0
 40
0
 40
0
 40
0
 40
1
 40
1
 40
1
 40
1
 10
30.05663285003086
 20
9.329662716843526
 30
0
 10
30.10116213973118
 20
9.225490426787676
 30
0
 10
30.09174166687241
 20
8.99518370356159
 30
0
 10
30.0407734855244
 20
8.944214488019613
 30
0
  0
SPLINE
  5
A2
100
AcDbEntity
  8
0
  6
ByLayer
 62
  256
370
   -1
100
AcDbSpline
210
0
220
0
230
0
 70
    8
 71
    3
 72
    8
 73
    4
 74
    0
 42
1e-007
 43
1e-007
 40
0
 40
0
 40
0
 40
0
 40
1
 40
1
 40
1
 40
1
 10
30.0407734855244
 20
8.944214488019613
 30
0
 10
29.96377877876593
 20
8.867220815455106
 30
0
 10
29.81263650124416
 20
9.100034424860755
 30
0
 10
29.78430579167195
 20
9.339286925914088
 30
0
  0
SPLINE
  5
A3
100
AcDbEntity
  8
0
  6
ByLayer
 62
  256
370
   -1
100
AcDbSpline
210
0
220
0
230
0
 70
    8
 71
    3
 72
    8
 73
    4
 74
    0
 42
1e-007
 43
1e-007
 40
0
 40
0
 40
0
 40
0
 40
1
 40
1
 40
1
 40
1
 10
29.78430579167195
 20
9.339286925914088
 30
0
 10
29.74980714927179
 20
9.630524220986434
 30
0
 10
29.58612526988236
 20
9.678647334727188
 30
0
 10
29.35798828560212
 20
9.464606414237171
 30
0
  0
SPLINE
  5
A4
100
AcDbEntity
  8
0
  6
ByLayer
 62
  256
370
   -1
100
AcDbSpline
210
0
220
0
230
0
 70
    8
 71
    3
 72
    8
 73
    4
 74
    0
 42
1e-007
 43
1e-007
 40
0
 40
0
 40
0
 40
0
 40
1
 40
1
 40
1
 40
1
 10
29.35798828560212
 20
9.464606414237171
 30
0
 10
29.10667191190661
 20
9.228810189426458
 30
0
 10
28.85704954793145
 20
9.15534104990649
 30
0
 10
28.62870882743942
 20
9.249957387693692
 30
0
  0
SPLINE
  5
A5
100
AcDbEntity
  8
0
  6
ByLayer
 62
  256
370
   -1
100
AcDbSpline
210
0
220
0
230
0
 70
    8
 71
    3
 72
    8
 73
    4
 74
    0
 42
1e-007
 43
1e-007
 40
0
 40
0
 40
0
 40
0
 40
1
 40
1
 40
1
 40
1
 10
28.62870882743942
 20
9.249957387693692
 30
0
 10
28.37928916548208
 20
9.353248544488405
 30
0
 10
28.69099522757834
 20
9.731715964025158
 30
0
 10
29.15513217288108
 20
9.889093396982814
 30
0
  0
SPLINE
  5
A6
100
AcDbEntity
  8
0
  6
ByLayer
 62
  256
370
   -1
100
AcDbSpline
210
0
220
0
230
0
 70
    8
 71
    3
 72
    8
 73
    4
 74
    0
 42
1e-007
 43
1e-007
 40
0
 40
0
 40
0
 40
0
 40
1
 40
1
 40
1
 40
1
 10
29.15513217288108
 20
9.889093396982814
 30
0
 10
29.52343243151383
 20
10.01400748127026
 30
0
 10
29.53617370120535
 20
10.03454243670816
 30
0
 10
29.53617370120535
 20
10.50593218431176
 30
0
  0
SPLINE
  5
A7
100
AcDbEntity
  8
0
  6
ByLayer
 62
  256
370
   -1
100
AcDbSpline
210
0
220
0
230
0
 70
    8
 71
    3
 72
    8
 73
    4
 74
    0
 42
1e-007
 43
1e-007
 40
0
 40
0
 40
0
 40
0
 40
1
 40
1
 40
1
 40
1
 10
29.53617370120535
 20
10.50593218431176
 30
0
 10
29.53617370120535
 20
11.05438282708782
 30
0
 10
29.48798439905061
 20
11.20342362246566
 30
0
 10
29.31142577055979
 20
11.2013231745157
 30
0
  0
SPLINE
  5
A8
100
AcDbEntity
  8
0
  6
ByLayer
 62
  256
370
   -1
100
AcDbSpline
210
0
220
0
230
0
 70
    8
 71
    3
 72
    8
 73
    4
 74
    0
 42
1e-007
 43
1e-007
 40
0
 40
0
 40
0
 40
0
 40
1
 40
1
 40
1
 40
1
 10
29.31142577055979
 20
11.2013231745157
 30
0
 10
29.14422039231978
 20
11.19935717178164
 30
0
 10
29.12951208570022
 20
11.15977546602647
 30
0
 10
29.12951208570022
 20
10.71217735066747
 30
0
  0
LINE
  5
A9
100
AcDbEntity
  8
0
  6
ByLayer
 62
  256
370
   -1
100
AcDbLine
 10
29.12951208570022
 20
10.71217735066747
 11
29.12951208570022
 21
10.30612590960374
  0
LINE
  5
AA
100
AcDbEntity
  8
0
  6
ByLayer
 62
  256
370
   -1
100
AcDbLine
 10
29.12951208570022
 20
10.30612590960374
 11
28.90611998334732
 21
10.21577872451837
  0
SPLINE
  5
AB
100
AcDbEntity
  8
0
  6
ByLayer
 62
  256
370
   -1
100
AcDbSpline
210
0
220
0
230
0
 70
    8
 71
    3
 72
    8
 73
    4
 74
    0
 42
1e-007
 43
1e-007
 40
0
 40
0
 40
0
 40
0
 40
1
 40
1
 40
1
 40
1
 10
28.90611998334732
 20
10.21577872451837
 30
0
 10
28.56764174198932
 20
10.07887005858463
 30
0
 10
28.30751403568246
 20
9.848563335358552
 30
0
 10
28.18761682633605
 20
9.579557073832392
 30
0
  0
SPLINE
  5
AC
100
AcDbEntity
  8
0
  6
ByLayer
 62
  256
370
   -1
100
AcDbSpline
210
0
220
0
230
0
 70
    8
 71
    3
 72
    8
 73
    4
 74
    0
 42
1e-007
 43
1e-007
 40
0
 40
0
 40
0
 40
0
 40
1
 40
1
 40
1
 40
1
 10
28.18761682633605
 20
9.579557073832392
 30
0
 10
27.92226954307034
 20
8.984475659212075
 30
0
 10
28.70590623621571
 20
8.56737488978923
 30
0
 10
29.35459923196745
 20
8.958449133801608
 30
0
  0
SPLINE
  5
AD
100
AcDbEntity
  8
0
  6
ByLayer
 62
  256
370
   -1
100
AcDbSpline
210
0
220
0
230
0
 70
    8
 71
    3
 72
    8
 73
    4
 74
    0
 42
1e-007
 43
1e-007
 40
0
 40
0
 40
0
 40
0
 40
1
 40
1
 40
1
 40
1
 10
29.35459923196745
 20
8.958449133801608
 30
0
 10
29.40387340359511
 20
8.988134637472513
 30
0
 10
29.44806451186775
 20
9.007993230055039
 30
0
 10
29.45294383901098
 20
9.002571985272327
 30
0
  0
SPLINE
  5
AE
100
AcDbEntity
  8
0
  6
ByLayer
 62
  256
370
   -1
100
AcDbSpline
210
0
220
0
230
0
 70
    8
 71
    3
 72
    8
 73
    4
 74
    0
 42
1e-007
 43
1e-007
 40
0
 40
0
 40
0
 40
0
 40
1
 40
1
 40
1
 40
1
 10
29.45294383901098
 20
9.002571985272327
 30
0
 10
29.45775594354626
 20
8.997148672101682
 30
0
 10
29.48737422460922
 20
8.943877340785892
 30
0
 10
29.5186875495865
 20
8.884233306236403
 30
0
  0
SPLINE
  5
AF
100
AcDbEntity
  8
0
  6
ByLayer
 62
  256
370
   -1
100
AcDbSpline
210
0
220
0
230
0
 70
    8
 71
    3
 72
    8
 73
    4
 74
    0
 42
1e-007
 43
1e-007
 40
0
 40
0
 40
0
 40
0
 40
1
 40
1
 40
1
 40
1
 10
29.5186875495865
 20
8.884233306236403
 30
0
 10
29.77637559232173
 20
8.393392438473853
 30
0
 10
30.32394510183666
 20
8.422875240126938
 30
0
 10
30.47868016920489
 20
8.936015398237597
 30
0
  0
SPLINE
  5
B0
100
AcDbEntity
  8
0
  6
ByLayer
 62
  256
370
   -1
100
AcDbSpline
210
0
220
0
230
0
 70
    8
 71
    3
 72
    8
 73
    4
 74
    0
 42
1e-007
 43
1e-007
 40
0
 40
0
 40
0
 40
0
 40
1
 40
1
 40
1
 40
1
 10
30.47868016920489
 20
8.936015398237597
 30
0
 10
30.50856940908758
 20
9.034900888726638
 30
0
 10
30.52212562362626
 20
9.047710415220083
 30
0
 10
30.60460983196936
 20
9.054352008885584
 30
0
  0
SPLINE
  5
B1
100
AcDbEntity
  8
0
  6
ByLayer
 62
  256
370
   -1
100
AcDbSpline
210
0
220
0
230
0
 70
    8
 71
    3
 72
    8
 73
    4
 74
    0
 42
1e-007
 43
1e-007
 40
0
 40
0
 40
0
 40
0
 40
1
 40
1
 40
1
 40
1
 10
30.60460983196936
 20
9.054352008885584
 30
0
 10
31.00984839657388
 20
9.087088384763472
 30
0
 10
31.23520650166084
 20
9.77597326071178
 30
0
 10
30.93075220767147
 20
10.05148667068754
 30
0
  0
SPLINE
  5
B2
100
AcDbEntity
  8
0
  6
ByLayer
 62
  256
370
   -1
100
AcDbSpline
210
0
220
0
230
0
 70
    8
 71
    3
 72
    8
 73
    4
 74
    0
 42
1e-007
 43
1e-007
 40
0
 40
0
 40
0
 40
0
 40
1
 40
1
 40
1
 40
1
 10
30.93075220767147
 20
10.05148667068754
 30
0
 10
30.88527352790809
 20
10.0926269067532
 30
0
 10
30.87815723921106
 20
10.13634435418828
 30
0
 10
30.87815723921106
 20
10.37552859843969
 30
0
  0
LINE
  5
B3
100
AcDbEntity
  8
0
  6
ByLayer
 62
  256
370
   -1
100
AcDbLine
 10
30.87815723921106
 20
10.37552859843969
 11
30.87815723921106
 21
10.6519913984785
  0
LINE
  5
B4
100
AcDbEntity
  8
0
  6
ByLayer
 62
  256
370
   -1
100
AcDbLine
 10
30.87815723921106
 20
10.6519913984785
 11
31.14248790980577
 21
10.66995121093492
  0
SPLINE
  5
B5
100
AcDbEntity
  8
0
  6
ByLayer
 62
  256
370
   -1
100
AcDbSpline
210
0
220
0
230
0
 70
    8
 71
    3
 72
    8
 73
    4
 74
    0
 42
1e-007
 43
1e-007
 40
0
 40
0
 40
0
 40
0
 40
1
 40
1
 40
1
 40
1
 10
31.14248790980578
 20
10.66995121093492
 30
0
 10
31.60255737023053
 20
10.70119627911027
 30
0
 10
32.80932521782889
 20
10.8252974869385
 30
0
 10
32.99679769526897
 20
10.86060900579787
 30
0
  0
LINE
  5
B6
100
AcDbEntity
  8
0
  6
ByLayer
 62
  256
370
   -1
100
AcDbLine
 10
32.99679769526897
 20
10.86060900579787
 11
33.17701633621421
 21
10.89456469636459
  0
LINE
  5
B7
100
AcDbEntity
  8
0
  6
ByLayer
 62
  256
370
   -1
100
AcDbLine
 10
33.17701633621421
 20
10.89456469636459
 11
33.22073171526135
 21
10.80299819659039
  0
SPLINE
  5
B8
100
AcDbEntity
  8
0
  6
ByLayer
 62
  256
370
   -1
100
AcDbSpline
210
0
220
0
230
0
 70
    8
 71
    3
 72
    8
 73
    4
 74
    0
 42
1e-007
 43
1e-007
 40
0
 40
0
 40
0
 40
0
 40
1
 40
1
 40
1
 40
1
 10
33.22073171526135
 20
10.80299819659039
 30
0
 10
33.24472501532981
 20
10.75257089868789
 30
0
 10
33.31805970963388
 20
10.65402462382051
 30
0
 10
33.38366690660555
 20
10.58387524693932
 30
0
  0
LINE
  5
B9
100
AcDbEntity
  8
0
  6
ByLayer
 62
  256
370
   -1
100
AcDbLine
 10
33.38366690660555
 20
10.58387524693932
 11
33.50288671890261
 21
10.4563860196704
  0
LINE
  5
BA
100
AcDbEntity
  8
0
  6
ByLayer
 62
  256
370
   -1
100
AcDbLine
 10
33.50288671890261
 20
10.4563860196704
 11
33.28173054390953
 21
10.33452280758993
  0
SPLINE
  5
BB
100
AcDbEntity
  8
0
  6
ByLayer
 62
  256
370
   -1
100
AcDbSpline
210
0
220
0
230
0
 70
    8
 71
    3
 72
    8
 73
    4
 74
    0
 42
1e-007
 43
1e-007
 40
0
 40
0
 40
0
 40
0
 40
1
 40
1
 40
1
 40
1
 10
33.28173054390953
 20
10.33452280758993
 30
0
 10
33.16007210223483
 20
10.26749255971765
 30
0
 10
32.98432531600924
 20
10.13891949716976
 30
0
 10
32.89113202912265
 20
10.04884327090413
 30
0
  0
SPLINE
  5
BC
100
AcDbEntity
  8
0
  6
ByLayer
 62
  256
370
   -1
100
AcDbSpline
210
0
220
0
230
0
 70
    8
 71
    3
 72
    8
 73
    4
 74
    0
 42
1e-007
 43
1e-007
 40
0
 40
0
 40
0
 40
0
 40
1
 40
1
 40
1
 40
1
 10
32.89113202912265
 20
10.04884327090413
 30
0
 10
32.42353984177126
 20
9.596772266631513
 30
0
 10
32.99279743299893
 20
9.245822680207759
 30
0
 10
33.80930598143207
 20
9.482839253901263
 30
0
  0
SPLINE
  5
BD
100
AcDbEntity
  8
0
  6
ByLayer
 62
  256
370
   -1
100
AcDbSpline
210
0
220
0
230
0
 70
    8
 71
    3
 72
    8
 73
    4
 74
    0
 42
1e-007
 43
1e-007
 40
0
 40
0
 40
0
 40
0
 40
1
 40
1
 40
1
 40
1
 10
33.80930598143207
 20
9.482839253901263
 30
0
 10
33.8436019218144
 20
9.492802678593485
 30
0
 10
33.85600397588427
 20
9.470232429425636
 30
0
 10
33.86630661619815
 20
9.378598707043494
 30
0
  0
SPLINE
  5
BE
100
AcDbEntity
  8
0
  6
ByLayer
 62
  256
370
   -1
100
AcDbSpline
210
0
220
0
230
0
 70
    8
 71
    3
 72
    8
 73
    4
 74
    0
 42
1e-007
 43
1e-007
 40
0
 40
0
 40
0
 40
0
 40
1
 40
1
 40
1
 40
1
 10
33.86630661619815
 20
9.378598707043494
 30
0
 10
33.91558182201977
 20
8.941504899822228
 30
0
 10
34.28367834444074
 20
8.792870542674001
 30
0
 10
34.61483552669595
 20
9.076380340413955
 30
0
  0
LINE
  5
BF
100
AcDbEntity
  8
0
  6
ByLayer
 62
  256
370
   -1
100
AcDbLine
 10
34.61483552669595
 20
9.076380340413955
 11
34.72870028262428
 21
9.1737765915884
  0
LINE
  5
C0
100
AcDbEntity
  8
0
  6
ByLayer
 62
  256
370
   -1
100
AcDbLine
 10
34.72870028262428
 20
9.1737765915884
 11
34.80644064323402
 21
9.090546729394029
  0
SPLINE
  5
C1
100
AcDbEntity
  8
0
  6
ByLayer
 62
  256
370
   -1
100
AcDbSpline
210
0
220
0
230
0
 70
    8
 71
    3
 72
    8
 73
    4
 74
    0
 42
1e-007
 43
1e-007
 40
0
 40
0
 40
0
 40
0
 40
1
 40
1
 40
1
 40
1
 10
34.80644064323402
 20
9.090546729394029
 30
0
 10
35.12980413974286
 20
8.744408213311591
 30
0
 10
35.66686934112006
 20
9.187398994541061
 30
0
 10
35.53904089822947
 20
9.694913137463255
 30
0
  0
SPLINE
  5
C2
100
AcDbEntity
  8
0
  6
ByLayer
 62
  256
370
   -1
100
AcDbSpline
210
0
220
0
230
0
 70
    8
 71
    3
 72
    8
 73
    4
 74
    0
 42
1e-007
 43
1e-007
 40
0
 40
0
 40
0
 40
0
 40
1
 40
1
 40
1
 40
1
 10
35.53904089822947
 20
9.694913137463255
 30
0
 10
35.51010001421587
 20
9.809929985472458
 30
0
 10
35.51138861990057
 20
9.813454518516998
 30
0
 10
35.66530977661561
 20
10.03901635981575
 30
0
  0
SPLINE
  5
C3
100
AcDbEntity
  8
0
  6
ByLayer
 62
  256
370
   -1
100
AcDbSpline
210
0
220
0
230
0
 70
    8
 71
    3
 72
    8
 73
    4
 74
    0
 42
1e-007
 43
1e-007
 40
0
 40
0
 40
0
 40
0
 40
1
 40
1
 40
1
 40
1
 10
35.66530977661561
 20
10.03901635981575
 30
0
 10
35.81591117069186
 20
10.25956236036743
 30
0
 10
35.93221662438577
 20
10.48566611930566
 30
0
 10
35.99179240213334
 20
10.67354400078138
 30
0
  0
SPLINE
  5
C4
100
AcDbEntity
  8
0
  6
ByLayer
 62
  256
370
   -1
100
AcDbSpline
210
0
220
0
230
0
 70
    8
 71
    3
 72
    8
 73
    4
 74
    0
 42
1e-007
 43
1e-007
 40
0
 40
0
 40
0
 40
0
 40
1
 40
1
 40
1
 40
1
 10
35.99179240213334
 20
10.67354400078138
 30
0
 10
35.99646902725875
 20
10.68845500941875
 30
0
 10
36.04425085698992
 20
10.8226540871551
 30
0
 10
36.09792966072929
 20
10.97176210514088
 30
0
  0
SPLINE
  5
C5
100
AcDbEntity
  8
0
  6
ByLayer
 62
  256
370
   -1
100
AcDbSpline
210
0
220
0
230
0
 70
    8
 71
    3
 72
    8
 73
    4
 74
    0
 42
1e-007
 43
1e-007
 40
0
 40
0
 40
0
 40
0
 40
1
 40
1
 40
1
 40
1
 10
36.09792966072929
 20
10.97176210514088
 30
0
 10
37.12102259113978
 20
13.81473340122237
 30
0
 10
35.76121472008752
 20
16.84626101002288
 30
0
 10
32.62680239272191
 20
18.71005849095279
 30
0
  0
SPLINE
  5
C6
100
AcDbEntity
  8
0
  6
ByLayer
 62
  256
370
   -1
100
AcDbSpline
210
0
220
0
230
0
 70
    8
 71
    3
 72
    8
 73
    4
 74
    0
 42
1e-007
 43
1e-007
 40
0
 40
0
 40
0
 40
0
 40
1
 40
1
 40
1
 40
1
 10
32.62680239272191
 20
18.71005849095279
 30
0
 10
31.6059464238652
 20
19.31706933299939
 30
0
 10
30.18866218882136
 20
19.87765210521955
 30
0
 10
29.67477844524737
 20
19.87765210521955
 30
0
  0
SPLINE
  5
C7
100
AcDbEntity
  8
0
  6
ByLayer
 62
  256
370
   -1
100
AcDbSpline
210
0
220
0
230
0
 70
    8
 71
    3
 72
    8
 73
    4
 74
    0
 42
1e-007
 43
1e-007
 40
0
 40
0
 40
0
 40
0
 40
1
 40
1
 40
1
 40
1
 10
29.67477844524737
 20
19.87765210521955
 30
0
 10
29.65125984021044
 20
19.87765210521955
 30
0
 10
29.55555863295032
 20
19.92421462026189
 30
0
 10
29.46209438724399
 20
19.98121525502797
 30
0
  0
SPLINE
  5
C8
100
AcDbEntity
  8
0
  6
ByLayer
 62
  256
370
   -1
100
AcDbSpline
210
0
220
0
230
0
 70
    8
 71
    3
 72
    8
 73
    4
 74
    0
 42
1e-007
 43
1e-007
 40
0
 40
0
 40
0
 40
0
 40
1
 40
1
 40
1
 40
1
 10
29.46209438724399
 20
19.98121525502797
 30
0
 10
28.80059083080484
 20
20.38428459778363
 30
0
 10
28.14674651489617
 20
20.65715460797598
 30
0
 10
27.40797832707277
 20
20.8385253410021
 30
0
  0
SPLINE
  5
C9
100
AcDbEntity
  8
0
  6
ByLayer
 62
  256
370
   -1
100
AcDbSpline
210
0
220
0
230
0
 70
    8
 71
    3
 72
    8
 73
    4
 74
    0
 42
1e-007
 43
1e-007
 40
0
 40
0
 40
0
 40
0
 40
1
 40
1
 40
1
 40
1
 10
27.40797832707277
 20
20.8385253410021
 30
0
 10
27.05797813071207
 20
20.92446685978179
 30
0
 10
26.86718589063322
 20
20.95937194041155
 30
0
 10
26.2015486609021
 20
21.05900411894583
 30
0
  0
SPLINE
  5
CA
100
AcDbEntity
  8
0
  6
ByLayer
 62
  256
370
   -1
100
AcDbSpline
210
0
220
0
230
0
 70
    8
 71
    3
 72
    8
 73
    4
 74
    0
 42
1e-007
 43
1e-007
 40
0
 40
0
 40
0
 40
0
 40
1
 40
1
 40
1
 40
1
 10
26.2015486609021
 20
21.05900411894583
 30
0
 10
25.91966461608058
 20
21.10122870738742
 30
0
 10
25.05218788629943
 20
21.13118620407204
 30
0
 10
24.77823300663415
 20
21.10814229406663
 30
0
  0
SPLINE
  5
CB
100
AcDbEntity
  8
0
  6
ByLayer
 62
  256
370
   -1
100
AcDbSpline
210
0
220
0
230
0
 70
    8
 71
    3
 72
    8
 73
    4
 74
    0
 42
1e-007
 43
1e-007
 40
0
 40
0
 40
0
 40
0
 40
1
 40
1
 40
1
 40
1
 10
26.05759092887929
 20
20.66887978209348
 30
0
 10
28.04813198322687
 20
20.4788331958659
 30
0
 10
29.46426309199586
 20
19.75924568647869
 30
0
 10
30.90160862164004
 20
18.20735748675985
 30
0
  0
SPLINE
  5
CC
100
AcDbEntity
  8
0
  6
ByLayer
 62
  256
370
   -1
100
AcDbSpline
210
0
220
0
230
0
 70
    8
 71
    3
 72
    8
 73
    4
 74
    0
 42
1e-007
 43
1e-007
 40
0
 40
0
 40
0
 40
0
 40
1
 40
1
 40
1
 40
1
 10
30.90160862164004
 20
18.20735748675985
 30
0
 10
31.30698163146046
 20
17.76965350509719
 30
0
 10
31.59367881501123
 20
17.36610998440699
 30
0
 10
31.97051737904765
 20
16.70311615445928
 30
0
  0
LINE
  5
CD
100
AcDbEntity
  8
0
  6
ByLayer
 62
  256
370
   -1
100
AcDbLine
 10
31.97051737904765
 20
16.70311615445928
 11
32.04127693037023
 21
16.57854128579349
  0
LINE
  5
CE
100
AcDbEntity
  8
0
  6
ByLayer
 62
  256
370
   -1
100
AcDbLine
 10
32.04127693037023
 20
16.57854128579349
 11
31.79822893745262
 21
16.45911877147861
  0
SPLINE
  5
CF
100
AcDbEntity
  8
0
  6
ByLayer
 62
  256
370
   -1
100
AcDbSpline
210
0
220
0
230
0
 70
    8
 71
    3
 72
    8
 73
    4
 74
    0
 42
1e-007
 43
1e-007
 40
0
 40
0
 40
0
 40
0
 40
1
 40
1
 40
1
 40
1
 10
31.79822893745262
 20
16.45911877147861
 30
0
 10
31.50882216570446
 20
16.31692330597807
 30
0
 10
31.43406338630581
 20
16.19831366812241
 30
0
 10
31.55369067102644
 20
16.07095992026335
 30
0
  0
SPLINE
  5
D0
100
AcDbEntity
  8
0
  6
ByLayer
 62
  256
370
   -1
100
AcDbSpline
210
0
220
0
230
0
 70
    8
 71
    3
 72
    8
 73
    4
 74
    0
 42
1e-007
 43
1e-007
 40
0
 40
0
 40
0
 40
0
 40
1
 40
1
 40
1
 40
1
 10
31.55369067102644
 20
16.07095992026335
 30
0
 10
31.6588795737533
 20
15.95899291026716
 30
0
 10
31.72726668411222
 20
15.96671937340558
 30
0
 10
32.04670024354088
 20
16.12660472673677
 30
0
  0
SPLINE
  5
D1
100
AcDbEntity
  8
0
  6
ByLayer
 62
  256
370
   -1
100
AcDbSpline
210
0
220
0
230
0
 70
    8
 71
    3
 72
    8
 73
    4
 74
    0
 42
1e-007
 43
1e-007
 40
0
 40
0
 40
0
 40
0
 40
1
 40
1
 40
1
 40
1
 10
32.04670024354088
 20
16.12660472673677
 30
0
 10
32.38931215819085
 20
16.29808029187259
 30
0
 10
32.40402046481039
 20
16.29760663103503
 30
0
 10
32.62870117284801
 20
16.10762726741538
 30
0
  0
SPLINE
  5
D2
100
AcDbEntity
  8
0
  6
ByLayer
 62
  256
370
   -1
100
AcDbSpline
210
0
220
0
230
0
 70
    8
 71
    3
 72
    8
 73
    4
 74
    0
 42
1e-007
 43
1e-007
 40
0
 40
0
 40
0
 40
0
 40
1
 40
1
 40
1
 40
1
 10
32.62870117284801
 20
16.10762726741538
 30
0
 10
33.55460055410188
 20
15.32473622812127
 30
0
 10
33.62461341737924
 20
13.91877124606231
 30
0
 10
32.76974454626768
 20
13.275771488107
 30
0
  0
SPLINE
  5
D3
100
AcDbEntity
  8
0
  6
ByLayer
 62
  256
370
   -1
100
AcDbSpline
210
0
220
0
230
0
 70
    8
 71
    3
 72
    8
 73
    4
 74
    0
 42
1e-007
 43
1e-007
 40
0
 40
0
 40
0
 40
0
 40
1
 40
1
 40
1
 40
1
 10
32.76974454626768
 20
13.275771488107
 30
0
 10
32.43424788612078
 20
13.02343850174048
 30
0
 10
31.5944244688625
 20
12.65866277615228
 30
0
 10
31.54528577664471
 20
12.74399412049057
 30
0
  0
SPLINE
  5
D4
100
AcDbEntity
  8
0
  6
ByLayer
 62
  256
370
   -1
100
AcDbSpline
210
0
220
0
230
0
 70
    8
 71
    3
 72
    8
 73
    4
 74
    0
 42
1e-007
 43
1e-007
 40
0
 40
0
 40
0
 40
0
 40
1
 40
1
 40
1
 40
1
 10
31.54528577664471
 20
12.74399412049057
 30
0
 10
31.53986349766803
 20
12.7533473707414
 30
0
 10
31.52678301235484
 20
12.85867278707209
 30
0
 10
31.51620941322123
 20
12.9779598219771
 30
0
  0
SPLINE
  5
D5
100
AcDbEntity
  8
0
  6
ByLayer
 62
  256
370
   -1
100
AcDbSpline
210
0
220
0
230
0
 70
    8
 71
    3
 72
    8
 73
    4
 74
    0
 42
1e-007
 43
1e-007
 40
0
 40
0
 40
0
 40
0
 40
1
 40
1
 40
1
 40
1
 10
31.51620941322123
 20
12.9779598219771
 30
0
 10
31.50563581408761
 20
13.09724685688211
 30
0
 10
31.48096511696981
 20
13.24974496269653
 30
0
 10
31.46137748320702
 20
13.3168445015647
 30
0
  0
SPLINE
  5
D6
100
AcDbEntity
  8
0
  6
ByLayer
 62
  256
370
   -1
100
AcDbSpline
210
0
220
0
230
0
 70
    8
 71
    3
 72
    8
 73
    4
 74
    0
 42
1e-007
 43
1e-007
 40
0
 40
0
 40
0
 40
0
 40
1
 40
1
 40
1
 40
1
 10
31.46137748320702
 20
13.3168445015647
 30
0
 10
31.44172262683629
 20
13.38394404043288
 30
0
 10
31.39895560365823
 20
13.64014077546559
 30
0
 10
31.36621922778034
 20
13.88617034959429
 30
0
  0
SPLINE
  5
D7
100
AcDbEntity
  8
0
  6
ByLayer
 62
  256
370
   -1
100
AcDbSpline
210
0
220
0
230
0
 70
    8
 71
    3
 72
    8
 73
    4
 74
    0
 42
1e-007
 43
1e-007
 40
0
 40
0
 40
0
 40
0
 40
1
 40
1
 40
1
 40
1
 10
31.36621922778034
 20
13.88617034959429
 30
0
 10
31.31355600251801
 20
14.28212392074991
 30
0
 10
31.06915321550171
 20
15.62227693543143
 30
0
 10
30.98307621731215
 20
15.98725536303745
 30
0
  0
SPLINE
  5
D8
100
AcDbEntity
  8
0
  6
ByLayer
 62
  256
370
   -1
100
AcDbSpline
210
0
220
0
230
0
 70
    8
 71
    3
 72
    8
 73
    4
 74
    0
 42
1e-007
 43
1e-007
 40
0
 40
0
 40
0
 40
0
 40
1
 40
1
 40
1
 40
1
 10
30.98307621731215
 20
15.98725536303745
 30
0
 10
30.55072729201821
 20
17.81946959436432
 30
0
 10
28.91289705642269
 20
19.63087584304562
 30
0
 10
27.15991449340809
 20
20.21552017213615
 30
0
  0
SPLINE
  5
D9
100
AcDbEntity
  8
0
  6
ByLayer
 62
  256
370
   -1
100
AcDbSpline
210
0
220
0
230
0
 70
    8
 71
    3
 72
    8
 73
    4
 74
    0
 42
1e-007
 43
1e-007
 40
0
 40
0
 40
0
 40
0
 40
1
 40
1
 40
1
 40
1
 10
27.15991449340809
 20
20.21552017213615
 30
0
 10
26.24268993116173
 20
20.52146525673107
 30
0
 10
24.91886994182422
 20
20.6656944646706
 30
0
 10
23.91068802005109
 20
20.569451339771
 30
0
  0
SPLINE
  5
DA
100
AcDbEntity
  8
0
  6
ByLayer
 62
  256
370
   -1
100
AcDbSpline
210
0
220
0
230
0
 70
    8
 71
    3
 72
    8
 73
    4
 74
    0
 42
1e-007
 43
1e-007
 40
0
 40
0
 40
0
 40
0
 40
1
 40
1
 40
1
 40
1
 10
23.91068802005109
 20
20.569451339771
 30
0
 10
23.81390297751201
 20
20.56023356893004
 30
0
 10
23.82515397369497
 20
20.5659945464314
 30
0
 10
23.9649097756239
 20
20.59710413519689
 30
0
  0
SPLINE
  5
DB
100
AcDbEntity
  8
0
  6
ByLayer
 62
  256
370
   -1
100
AcDbSpline
210
0
220
0
230
0
 70
    8
 71
    3
 72
    8
 73
    4
 74
    0
 42
1e-007
 43
1e-007
 40
0
 40
0
 40
0
 40
0
 40
1
 40
1
 40
1
 40
1
 10
23.9649097756239
 20
20.59710413519689
 30
0
 10
24.43473995872306
 20
20.70175163738124
 30
0
 10
25.37487398575892
 20
20.7340133182276
 30
0
 10
26.05759092887929
 20
20.66887978209348
 30
0
  0
SPLINE
  5
DC
100
AcDbEntity
  8
0
  6
ByLayer
 62
  256
370
   -1
100
AcDbSpline
210
0
220
0
230
0
 70
    8
 71
    3
 72
    8
 73
    4
 74
    0
 42
1e-007
 43
1e-007
 40
0
 40
0
 40
0
 40
0
 40
1
 40
1
 40
1
 40
1
 10
20.61672955497594
 20
14.6866840541111
 30
0
 10
21.7290842839019
 20
14.50578801611652
 30
0
 10
22.60001780702265
 20
13.73143631642004
 30
0
 10
22.2677074984926
 20
13.21883911014283
 30
0
  0
SPLINE
  5
DD
100
AcDbEntity
  8
0
  6
ByLayer
 62
  256
370
   -1
100
AcDbSpline
210
0
220
0
230
0
 70
    8
 71
    3
 72
    8
 73
    4
 74
    0
 42
1e-007
 43
1e-007
 40
0
 40
0
 40
0
 40
0
 40
1
 40
1
 40
1
 40
1
 10
22.2677074984926
 20
13.21883911014283
 30
0
 10
21.77713810664677
 20
12.46231277768687
 30
0
 10
19.6293550987514
 20
12.79672456836085
 30
0
 10
19.04626981706833
 20
13.7203880222549
 30
0
  0
SPLINE
  5
DE
100
AcDbEntity
  8
0
  6
ByLayer
 62
  256
370
   -1
100
AcDbSpline
210
0
220
0
230
0
 70
    8
 71
    3
 72
    8
 73
    4
 74
    0
 42
1e-007
 43
1e-007
 40
0
 40
0
 40
0
 40
0
 40
1
 40
1
 40
1
 40
1
 10
19.04626981706833
 20
13.7203880222549
 30
0
 10
18.63499957469122
 20
14.37185989719991
 30
0
 10
19.45408404175132
 20
14.87578228446961
 30
0
 10
20.61672955497594
 20
14.6866840541111
 30
0
  0
SPLINE
  5
DF
100
AcDbEntity
  8
0
  6
ByLayer
 62
  256
370
   -1
100
AcDbSpline
210
0
220
0
230
0
 70
    8
 71
    3
 72
    8
 73
    4
 74
    0
 42
1e-007
 43
1e-007
 40
0
 40
0
 40
0
 40
0
 40
1
 40
1
 40
1
 40
1
 10
27.02469983719471
 20
14.26538238878834
 30
0
 10
24.99539098774513
 20
13.94574716153583
 30
0
 10
24.73817660584745
 20
12.38165805847399
 30
0
 10
26.62176545675194
 20
11.81531379165549
 30
0
  0
SPLINE
  5
E0
100
AcDbEntity
  8
0
  6
ByLayer
 62
  256
370
   -1
100
AcDbSpline
210
0
220
0
230
0
 70
    8
 71
    3
 72
    8
 73
    4
 74
    0
 42
1e-007
 43
1e-007
 40
0
 40
0
 40
0
 40
0
 40
1
 40
1
 40
1
 40
1
 10
26.62176545675194
 20
11.81531379165549
 30
0
 10
28.7176319274302
 20
11.18519181699554
 30
0
 10
30.8869003150205
 20
12.35556431045557
 30
0
 10
29.85580996265183
 20
13.56016345330205
 30
0
  0
SPLINE
  5
E1
100
AcDbEntity
  8
0
  6
ByLayer
 62
  256
370
   -1
100
AcDbSpline
210
0
220
0
230
0
 70
    8
 71
    3
 72
    8
 73
    4
 74
    0
 42
1e-007
 43
1e-007
 40
0
 40
0
 40
0
 40
0
 40
1
 40
1
 40
1
 40
1
 10
29.85580996265183
 20
13.56016345330205
 30
0
 10
29.41153264412559
 20
14.07919955122695
 30
0
 10
28.02895078769369
 20
14.42357373239918
 30
0
 10
27.02469983719471
 20
14.26538238878834
 30
0
  0
SPLINE
  5
E2
100
AcDbEntity
  8
0
  6
ByLayer
 62
  256
370
   -1
100
AcDbSpline
210
0
220
0
230
0
 70
    8
 71
    3
 72
    8
 73
    4
 74
    0
 42
1e-007
 43
1e-007
 40
0
 40
0
 40
0
 40
0
 40
1
 40
1
 40
1
 40
1
 10
20.72008896857257
 20
13.88434086046408
 30
0
 10
20.422955216589
 20
13.79514680165355
 30
0
 10
20.46490884621086
 20
13.43348813668631
 30
0
 10
20.7842741488376
 20
13.33148455138234
 30
0
  0
SPLINE
  5
E3
100
AcDbEntity
  8
0
  6
ByLayer
 62
  256
370
   -1
100
AcDbSpline
210
0
220
0
230
0
 70
    8
 71
    3
 72
    8
 73
    4
 74
    0
 42
1e-007
 43
1e-007
 40
0
 40
0
 40
0
 40
0
 40
1
 40
1
 40
1
 40
1
 10
20.7842741488376
 20
13.33148455138234
 30
0
 10
21.24861379615816
 20
13.1831883756618
 30
0
 10
21.59915591015834
 20
13.42311827376448
 30
0
 10
21.37190005913924
 20
13.73380772318974
 30
0
  0
SPLINE
  5
E4
100
AcDbEntity
  8
0
  6
ByLayer
 62
  256
370
   -1
100
AcDbSpline
210
0
220
0
230
0
 70
    8
 71
    3
 72
    8
 73
    4
 74
    0
 42
1e-007
 43
1e-007
 40
0
 40
0
 40
0
 40
0
 40
1
 40
1
 40
1
 40
1
 10
21.37190005913924
 20
13.73380772318974
 30
0
 10
21.27979112462858
 20
13.85980564275614
 30
0
 10
20.91718462088924
 20
13.94351019998204
 30
0
 10
20.72008896857257
 20
13.88434086046408
 30
0
  0
SPLINE
  5
E5
100
AcDbEntity
  8
0
  6
ByLayer
 62
  256
370
   -1
100
AcDbSpline
210
0
220
0
230
0
 70
    8
 71
    3
 72
    8
 73
    4
 74
    0
 42
1e-007
 43
1e-007
 40
0
 40
0
 40
0
 40
0
 40
1
 40
1
 40
1
 40
1
 10
28.08832282922947
 20
13.88610312698635
 30
0
 10
29.36774797408255
 20
13.73950096098616
 30
0
 10
30.08360876550438
 20
13.03916238683707
 30
0
 10
29.48723874519935
 20
12.51748288912877
 30
0
  0
SPLINE
  5
E6
100
AcDbEntity
  8
0
  6
ByLayer
 62
  256
370
   -1
100
AcDbSpline
210
0
220
0
230
0
 70
    8
 71
    3
 72
    8
 73
    4
 74
    0
 42
1e-007
 43
1e-007
 40
0
 40
0
 40
0
 40
0
 40
1
 40
1
 40
1
 40
1
 10
29.48723874519935
 20
12.51748288912877
 30
0
 10
28.5833656270859
 20
11.72679712989431
 30
0
 10
26.0005902941132
 20
11.99526250797496
 30
0
 10
25.75550907585359
 20
12.90530252472238
 30
0
  0
SPLINE
  5
E7
100
AcDbEntity
  8
0
  6
ByLayer
 62
  256
370
   -1
100
AcDbSpline
210
0
220
0
230
0
 70
    8
 71
    3
 72
    8
 73
    4
 74
    0
 42
1e-007
 43
1e-007
 40
0
 40
0
 40
0
 40
0
 40
1
 40
1
 40
1
 40
1
 10
25.75550907585359
 20
12.90530252472238
 30
0
 10
25.59209815528389
 20
13.51224510996706
 30
0
 10
26.82550373692808
 20
14.03087476966234
 30
0
 10
28.08832282922947
 20
13.88610312698635
 30
0
  0
SPLINE
  5
E8
100
AcDbEntity
  8
0
  6
ByLayer
 62
  256
370
   -1
100
AcDbSpline
210
0
220
0
230
0
 70
    8
 71
    3
 72
    8
 73
    4
 74
    0
 42
1e-007
 43
1e-007
 40
0
 40
0
 40
0
 40
0
 40
1
 40
1
 40
1
 40
1
 10
27.25819084364971
 20
13.06213907423452
 30
0
 10
27.11931617498191
 20
13.0016139064239
 30
0
 10
27.06157092055853
 20
12.77415431919301
 30
0
 10
27.15225628707159
 20
12.64470012338399
 30
0
  0
SPLINE
  5
E9
100
AcDbEntity
  8
0
  6
ByLayer
 62
  256
370
   -1
100
AcDbSpline
210
0
220
0
230
0
 70
    8
 71
    3
 72
    8
 73
    4
 74
    0
 42
1e-007
 43
1e-007
 40
0
 40
0
 40
0
 40
0
 40
1
 40
1
 40
1
 40
1
 10
27.15225628707159
 20
12.64470012338399
 30
0
 10
27.29268948604986
 20
12.4441481948247
 30
0
 10
27.86730213364626
 20
12.42544272851702
 30
0
 10
27.96693431218053
 20
12.61813168033405
 30
0
  0
SPLINE
  5
EA
100
AcDbEntity
  8
0
  6
ByLayer
 62
  256
370
   -1
100
AcDbSpline
210
0
220
0
230
0
 70
    8
 71
    3
 72
    8
 73
    4
 74
    0
 42
1e-007
 43
1e-007
 40
0
 40
0
 40
0
 40
0
 40
1
 40
1
 40
1
 40
1
 10
27.96693431218053
 20
12.61813168033405
 30
0
 10
28.11983989041853
 20
12.91377464171207
 30
0
 10
27.62669483849423
 20
13.22263460200711
 30
0
 10
27.25819084364971
 20
13.06213907423452
 30
0
  0
SPLINE
  5
EB
100
AcDbEntity
  8
0
  6
ByLayer
 62
  256
370
   -1
100
AcDbSpline
210
0
220
0
230
0
 70
    8
 71
    3
 72
    8
 73
    4
 74
    0
 42
1e-007
 43
1e-007
 40
0
 40
0
 40
0
 40
0
 40
1
 40
1
 40
1
 40
1
 10
22.69070369063269
 20
11.73662507517666
 30
0
 10
22.60449121303326
 20
11.69324787755721
 30
0
 10
22.58131182361798
 20
11.52211152804305
 30
0
 10
22.65125746428738
 20
11.44484586246484
 30
0
  0
SPLINE
  5
EC
100
AcDbEntity
  8
0
  6
ByLayer
 62
  256
370
   -1
100
AcDbSpline
210
0
220
0
230
0
 70
    8
 71
    3
 72
    8
 73
    4
 74
    0
 42
1e-007
 43
1e-007
 40
0
 40
0
 40
0
 40
0
 40
1
 40
1
 40
1
 40
1
 10
22.65125746428738
 20
11.44484586246484
 30
0
 10
22.71124019736154
 20
11.37855920005588
 30
0
 10
23.78787645210154
 20
11.20220430777684
 30
0
 10
24.13265810569735
 20
11.20220430777684
 30
0
  0
SPLINE
  5
ED
100
AcDbEntity
  8
0
  6
ByLayer
 62
  256
370
   -1
100
AcDbSpline
210
0
220
0
230
0
 70
    8
 71
    3
 72
    8
 73
    4
 74
    0
 42
1e-007
 43
1e-007
 40
0
 40
0
 40
0
 40
0
 40
1
 40
1
 40
1
 40
1
 10
24.13265810569735
 20
11.20220430777684
 30
0
 10
24.19718146739007
 20
11.20220430777684
 30
0
 10
24.21066942512683
 20
11.18722504233754
 30
0
 10
24.23642395752359
 20
11.08698372355584
 30
0
  0
SPLINE
  5
EE
100
AcDbEntity
  8
0
  6
ByLayer
 62
  256
370
   -1
100
AcDbSpline
210
0
220
0
230
0
 70
    8
 71
    3
 72
    8
 73
    4
 74
    0
 42
1e-007
 43
1e-007
 40
0
 40
0
 40
0
 40
0
 40
1
 40
1
 40
1
 40
1
 10
24.23642395752359
 20
11.08698372355584
 30
0
 10
24.56066962148753
 20
9.825519425353146
 30
0
 10
25.1018684961567
 20
9.414723102362084
 30
0
 10
25.46427178078123
 20
10.15491434108609
 30
0
  0
SPLINE
  5
EF
100
AcDbEntity
  8
0
  6
ByLayer
 62
  256
370
   -1
100
AcDbSpline
210
0
220
0
230
0
 70
    8
 71
    3
 72
    8
 73
    4
 74
    0
 42
1e-007
 43
1e-007
 40
0
 40
0
 40
0
 40
0
 40
1
 40
1
 40
1
 40
1
 10
25.46427178078123
 20
10.15491434108609
 30
0
 10
25.64089763188002
 20
10.51569083859823
 30
0
 10
25.71111526556312
 20
11.39197993518469
 30
0
 10
25.56342926428398
 20
11.39197993518469
 30
0
  0
SPLINE
  5
F0
100
AcDbEntity
  8
0
  6
ByLayer
 62
  256
370
   -1
100
AcDbSpline
210
0
220
0
230
0
 70
    8
 71
    3
 72
    8
 73
    4
 74
    0
 42
1e-007
 43
1e-007
 40
0
 40
0
 40
0
 40
0
 40
1
 40
1
 40
1
 40
1
 10
25.56342926428398
 20
11.39197993518469
 30
0
 10
25.54906017328609
 20
11.39197993518469
 30
0
 10
25.5373344820716
 20
11.4087886897542
 30
0
 10
25.5373344820716
 20
11.42932467938607
 30
0
  0
SPLINE
  5
F1
100
AcDbEntity
  8
0
  6
ByLayer
 62
  256
370
   -1
100
AcDbSpline
210
0
220
0
230
0
 70
    8
 71
    3
 72
    8
 73
    4
 74
    0
 42
1e-007
 43
1e-007
 40
0
 40
0
 40
0
 40
0
 40
1
 40
1
 40
1
 40
1
 10
25.5373344820716
 20
11.42932467938607
 30
0
 10
25.5373344820716
 20
11.49730535151538
 30
0
 10
25.39351222945865
 20
11.52292440450227
 30
0
 10
24.92537709027382
 20
11.53824185136925
 30
0
  0
SPLINE
  5
F2
100
AcDbEntity
  8
0
  6
ByLayer
 62
  256
370
   -1
100
AcDbSpline
210
0
220
0
230
0
 70
    8
 71
    3
 72
    8
 73
    4
 74
    0
 42
1e-007
 43
1e-007
 40
0
 40
0
 40
0
 40
0
 40
1
 40
1
 40
1
 40
1
 10
24.92537709027382
 20
11.53824185136925
 30
0
 10
24.50109280954599
 20
11.55220450413754
 30
0
 10
23.72321761099895
 20
11.63306192536824
 30
0
 10
23.06368005729386
 20
11.73194845005125
 30
0
  0
SPLINE
  5
F3
100
AcDbEntity
  8
0
  6
ByLayer
 62
  256
370
   -1
100
AcDbSpline
210
0
220
0
230
0
 70
    8
 71
    3
 72
    8
 73
    4
 74
    0
 42
1e-007
 43
1e-007
 40
0
 40
0
 40
0
 40
0
 40
1
 40
1
 40
1
 40
1
 10
23.06368005729386
 20
11.73194845005125
 30
0
 10
22.74844946215305
 20
11.7791893963369
 30
0
 10
22.77461146697339
 20
11.77885018071524
 30
0
 10
22.69070369063269
 20
11.73662507517666
 30
0
  0
SPLINE
  5
F4
100
AcDbEntity
  8
0
  6
ByLayer
 62
  256
370
   -1
100
AcDbSpline
210
0
220
0
230
0
 70
    8
 71
    3
 72
    8
 73
    4
 74
    0
 42
1e-007
 43
1e-007
 40
0
 40
0
 40
0
 40
0
 40
1
 40
1
 40
1
 40
1
 10
25.22779712472721
 20
11.11409408424526
 30
0
 10
25.29462570477564
 20
11.0472665383908
 30
0
 10
25.11921916836569
 20
10.26213750334892
 30
0
 10
25.0310406880322
 20
10.23340138974106
 30
0
  0
SPLINE
  5
F5
100
AcDbEntity
  8
0
  6
ByLayer
 62
  256
370
   -1
100
AcDbSpline
210
0
220
0
230
0
 70
    8
 71
    3
 72
    8
 73
    4
 74
    0
 42
1e-007
 43
1e-007
 40
0
 40
0
 40
0
 40
0
 40
1
 40
1
 40
1
 40
1
 10
25.0310406880322
 20
10.23340138974106
 30
0
 10
24.96692376456909
 20
10.21252515029357
 30
0
 10
24.64267913479911
 20
10.94580383653233
 30
0
 10
24.64267913479911
 20
11.11185712269147
 30
0
  0
SPLINE
  5
F6
100
AcDbEntity
  8
0
  6
ByLayer
 62
  256
370
   -1
100
AcDbSpline
210
0
220
0
230
0
 70
    8
 71
    3
 72
    8
 73
    4
 74
    0
 42
1e-007
 43
1e-007
 40
0
 40
0
 40
0
 40
0
 40
1
 40
1
 40
1
 40
1
 10
24.64267913479911
 20
11.11185712269147
 30
0
 10
24.64267913479911
 20
11.15631918978385
 30
0
 10
25.18353879384662
 20
11.15835241512585
 30
0
 10
25.22779712472721
 20
11.11409408424526
 30
0
  0
LWPOLYLINE
  5
F7
100
AcDbEntity
  8
0
  6
ByLayer
 62
    1
370
   -1
100
AcDbPolyline
 90
    9
 70
    1
 43
0
 10
104.5
 20
30
 42
-0.414213562373094
 10
108
 20
26.5
 10
108
 20
3.500000000000001
 42
-0.4142135623730945
 10
104.5
 20
-4.440892098500626e-016
 10
3.5
 20
-4.440892098500626e-016
 42
-0.4142135623730951
 10
0
 20
3.500000000000001
 10
0
 20
26.5
 42
-0.4142135623730947
 10
3.499999999999996
 20
30
 10
3.499999999999996
 20
30
  0
CIRCLE
  5
F8
100
AcDbEntity
  8
0
  6
ByLayer
 62
    1
370
   -1
100
AcDbCircle
 10
5.95
 20
26.45
 40
1.25
  0
CIRCLE
  5
F9
100
AcDbEntity
  8
0
  6
ByLayer
 62
    1
370
   -1
100
AcDbCircle
 10
5.95
 20
5.35
 40
1.25
  0
CIRCLE
  5
FA
100
AcDbEntity
  8
0
  6
ByLayer
 62
    1
370
   -1
100
AcDbCircle
 10
102.05
 20
26.45
 40
1.25
  0
CIRCLE
  5
FB
100
AcDbEntity
  8
0
  6
ByLayer
 62
    1
370
   -1
100
AcDbCircle
 10
102.05
 20
5.35
 40
1.25
  0
LWPOLYLINE
  5
FC
100
AcDbEntity
  8
0
  6
ByLayer
 62
    1
370
   -1
100
AcDbPolyline
 90
    9
 70
    1
 43
0
 10
87.44250000000002
 20
9.299999999999979
 42
-0.4142135623731019
 10
86.34249999999997
 20
10.40000000000002
 10
86.34250000000002
 20
12.31000000000001
 42
-0.4142135623731044
 10
87.44250000000001
 20
13.41000000000001
 10
94.9825
 20
13.40999999999997
 42
-0.4142135623730879
 10
96.0825
 20
12.30999999999997
 10
96.08249999999998
 20
10.4
 42
-0.4142135623730992
 10
94.9825
 20
9.300000000000002
 10
94.9825
 20
9.300000000000002
  0
ENDSEC
  0
SECTION
  2
OBJECTS
  0
DICTIONARY
  5
C
330
0
100
AcDbDictionary
281
    1
  3
ACAD_GROUP
350
D
  0
DICTIONARY
  5
D
330
C
100
AcDbDictionary
281
    1
  0
ENDSEC
  0
EOF
