999
dxfrw 0.6.3
  0
SECTION
  2
HEADER
  9
$ACADVER
  1
AC1021
  9
$DWGCODEPAGE
  3
ANSI_1252
  9
$INSBASE
 10
0
 20
0
 30
0
  9
$EXTMIN
 10
-5.329070518200751e-015
 20
-4.440892098500626e-016
 30
0
  9
$EXTMAX
 10
108
 20
29.99999999999999
 30
0
  9
$LIMMIN
 10
0
 20
0
  9
$LIMMAX
 10
420
 20
297
  9
$ORTHOMODE
 70
    0
  9
$REGENMODE
 70
    1
  9
$FILLMODE
 70
    1
  9
$QTEXTMODE
 70
    0
  9
$MIRRTEXT
 70
    0
  9
$LTSCALE
 40
1
  9
$ATTMODE
 70
    0
  9
$TEXTSIZE
 40
2.5
  9
$TRACEWID
 40
15.68
  9
$TEXTSTYLE
  7
STANDARD
  9
$CLAYER
  8
0
  9
$CELTYPE
  6
BYLAYER
  9
$CECOLOR
 62
  256
  9
$CELTSCALE
 40
1
  9
$DISPSILH
 70
    0
  9
$DIMSCALE
 40
2.5
  9
$DIMASZ
 40
2.5
  9
$DIMEXO
 40
0.625
  9
$DIMDLI
 40
3.75
  9
$DIMRND
 40
0
  9
$DIMDLE
 40
0
  9
$DIMEXE
 40
1.25
  9
$DIMTP
 40
0
  9
$DIMTM
 40
0
  9
$DIMTXT
 40
2.5
  9
$DIMCEN
 40
2.5
  9
$DIMTSZ
 40
0
  9
$DIMTOL
 70
    0
  9
$DIMLIM
 70
    0
  9
$DIMTIH
 70
    0
  9
$DIMTOH
 70
    0
  9
$DIMSE1
 70
    0
  9
$DIMSE2
 70
    0
  9
$DIMTAD
 70
    1
  9
$DIMZIN
 70
    8
  9
$DIMBLK
  1

  9
$DIMASO
 70
    1
  9
$DIMSHO
 70
    1
  9
$DIMPOST
  1

  9
$DIMAPOST
  1

  9
$DIMALT
 70
    0
  9
$DIMALTD
 70
    3
  9
$DIMALTF
 40
0.03937
  9
$DIMLFAC
 40
1
  9
$DIMTOFL
 70
    1
  9
$DIMTVP
 40
0
  9
$DIMTIX
 70
    0
  9
$DIMSOXD
 70
    0
  9
$DIMSAH
 70
    0
  9
$DIMBLK1
  1

  9
$DIMBLK2
  1

  9
$DIMSTYLE
  2
Standard
  9
$DIMCLRD
 70
    0
  9
$DIMCLRE
 70
    0
  9
$DIMCLRT
 70
    0
  9
$DIMTFAC
 40
1
  9
$DIMGAP
 40
0.625
  9
$DIMJUST
 70
    0
  9
$DIMSD1
 70
    0
  9
$DIMSD2
 70
    0
  9
$DIMTOLJ
 70
    0
  9
$DIMTZIN
 70
    8
  9
$DIMALTZ
 70
    0
  9
$DIMALTTZ
 70
    0
  9
$DIMUPT
 70
    0
  9
$DIMDEC
 70
    2
  9
$DIMTDEC
 70
    2
  9
$DIMALTU
 70
    2
  9
$DIMALTTD
 70
    3
  9
$DIMTXSTY
  7
STANDARD
  9
$DIMAUNIT
 70
    0
  9
$DIMADEC
 70
    0
  9
$DIMALTRND
 40
0
  9
$DIMAZIN
 70
    0
  9
$DIMDSEP
 70
   44
  9
$DIMATFIT
 70
    3
  9
$DIMFRAC
 70
    0
  9
$DIMLDRBLK
  1
STANDARD
  9
$DIMLUNIT
 70
    2
  9
$DIMLWD
 70
   -2
  9
$DIMLWE
 70
   -2
  9
$DIMTMOVE
 70
    0
  9
$DIMFXL
 40
1
  9
$DIMFXLON
 70
    0
  9
$DIMJOGANG
 40
0.7854
  9
$DIMTFILL
 70
    0
  9
$DIMTFILLCLR
 70
    0
  9
$DIMARCSYM
 70
    0
  9
$DIMLTYPE
  6

  9
$DIMLTEX1
  6

  9
$DIMLTEX2
  6

  9
$LUNITS
 70
    2
  9
$LUPREC
 70
    4
  9
$SKETCHINC
 40
1
  9
$FILLETRAD
 40
0
  9
$AUNITS
 70
    0
  9
$AUPREC
 70
    2
  9
$MENU
  1
.
  9
$ELEVATION
 40
0
  9
$PELEVATION
 40
0
  9
$THICKNESS
 40
0
  9
$LIMCHECK
 70
    0
  9
$CHAMFERA
 40
0
  9
$CHAMFERB
 40
0
  9
$CHAMFERC
 40
0
  9
$CHAMFERD
 40
0
  9
$SKPOLY
 70
    0
  9
$USRTIMER
 70
    1
  9
$ANGBASE
 50
0
  9
$ANGDIR
 70
    0
  9
$PDMODE
 70
   34
  9
$PDSIZE
 40
0
  9
$PLINEWID
 40
0
  9
$SPLFRAME
 70
    0
  9
$SPLINETYPE
 70
    2
  9
$SPLINESEGS
 70
    8
  9
$HANDSEED
  5
20000
  9
$SURFTAB1
 70
    6
  9
$SURFTAB2
 70
    6
  9
$SURFTYPE
 70
    6
  9
$SURFU
 70
    6
  9
$SURFV
 70
    6
  9
$UCSBASE
  2

  9
$UCSNAME
  2

  9
$UCSORG
 10
0
 20
0
 30
0
  9
$UCSXDIR
 10
1
 20
0
 30
0
  9
$UCSYDIR
 10
0
 20
1
 30
0
  9
$UCSORTHOREF
  2

  9
$UCSORTHOVIEW
 70
    0
  9
$UCSORGTOP
 10
0
 20
0
 30
0
  9
$UCSORGBOTTOM
 10
0
 20
0
 30
0
  9
$UCSORGLEFT
 10
0
 20
0
 30
0
  9
$UCSORGRIGHT
 10
0
 20
0
 30
0
  9
$UCSORGFRONT
 10
0
 20
0
 30
0
  9
$UCSORGBACK
 10
0
 20
0
 30
0
  9
$PUCSBASE
  2

  9
$PUCSNAME
  2

  9
$PUCSORG
 10
0
 20
0
 30
0
  9
$PUCSXDIR
 10
1
 20
0
 30
0
  9
$PUCSYDIR
 10
0
 20
1
 30
0
  9
$PUCSORTHOREF
  2

  9
$PUCSORTHOVIEW
 70
    0
  9
$PUCSORGTOP
 10
0
 20
0
 30
0
  9
$PUCSORGBOTTOM
 10
0
 20
0
 30
0
  9
$PUCSORGLEFT
 10
0
 20
0
 30
0
  9
$PUCSORGRIGHT
 10
0
 20
0
 30
0
  9
$PUCSORGFRONT
 10
0
 20
0
 30
0
  9
$PUCSORGBACK
 10
0
 20
0
 30
0
  9
$USERI1
 70
    0
  9
$USERI2
 70
    0
  9
$USERI3
 70
    0
  9
$USERI4
 70
    0
  9
$USERI5
 70
    0
  9
$USERR1
 40
0
  9
$USERR2
 40
0
  9
$USERR3
 40
0
  9
$USERR4
 40
0
  9
$USERR5
 40
0
  9
$WORLDVIEW
 70
    1
  9
$SHADEDGE
 70
    3
  9
$SHADEDIF
 70
   70
  9
$TILEMODE
 70
    1
  9
$MAXACTVP
 70
   64
  9
$PINSBASE
 10
0
 20
0
 30
0
  9
$PLIMCHECK
 70
    0
  9
$PEXTMIN
 10
0
 20
0
 30
0
  9
$PEXTMAX
 10
0
 20
0
 30
0
  9
$GRIDMODE
 70
    1
  9
$SNAPSTYLE
 70
    0
  9
$PLIMMIN
 10
0
 20
0
  9
$PLIMMAX
 10
210
 20
297
  9
$UNITMODE
 70
    0
  9
$VISRETAIN
 70
    1
  9
$PLINEGEN
 70
    0
  9
$PSLTSCALE
 70
    1
  9
$TREEDEPTH
 70
 3020
  9
$CMLSTYLE
  2
Standard
  9
$CMLJUST
 70
    0
  9
$CMLSCALE
 40
20
  9
$PROXYGRAPHICS
 70
    1
  9
$MEASUREMENT
 70
    1
  9
$CELWEIGHT
370
   -1
  9
$ENDCAPS
280
    0
  9
$JOINSTYLE
280
    0
  9
$LWDISPLAY
290
    0
  9
$INSUNITS
 70
    4
  9
$HYPERLINKBASE
  1

  9
$STYLESHEET
  1

  9
$XEDIT
290
    1
  9
$CEPSNTYPE
380
    0
  9
$PSTYLEMODE
290
    1
  9
$EXTNAMES
290
    1
  9
$PSVPSCALE
 40
1
  9
$OLESTARTUP
290
    0
  9
$SORTENTS
280
  127
  9
$INDEXCTL
280
    0
  9
$HIDETEXT
280
    1
  9
$XCLIPFRAME
290
    0
  9
$HALOGAP
280
    0
  9
$OBSCOLOR
 70
  257
  9
$OBSLTYPE
280
    0
  9
$INTERSECTIONDISPLAY
280
    0
  9
$INTERSECTIONCOLOR
 70
  257
  9
$DIMASSOC
280
    1
  9
$PROJECTNAME
  1

  9
$CAMERADISPLAY
290
    0
  9
$LENSLENGTH
 40
50
  9
$CAMERAHEIGHT
 40
0
  9
$STEPSPERSEC
 40
2
  9
$STEPSIZE
 40
50
  9
$3DDWFPREC
 40
2
  9
$PSOLWIDTH
 40
5
  9
$PSOLHEIGHT
 40
80
  9
$LOFTANG1
 40
1.570796326794897
  9
$LOFTANG2
 40
1.570796326794897
  9
$LOFTMAG1
 40
0
  9
$LOFTMAG2
 40
0
  9
$LOFTPARAM
 70
    7
  9
$LOFTNORMALS
280
    1
  9
$LATITUDE
 40
1
  9
$LONGITUDE
 40
1
  9
$NORTHDIRECTION
 40
0
  9
$TIMEZONE
 70
-8000
  9
$LIGHTGLYPHDISPLAY
280
    1
  9
$TILEMODELIGHTSYNCH
280
    1
  9
$SOLIDHIST
280
    1
  9
$SHOWHIST
280
    1
  9
$DWFFRAME
280
    2
  9
$DGNFRAME
280
    0
  9
$REALWORLDSCALE
290
    1
  9
$INTERFERECOLOR
 62
    1
  9
$CSHADOW
280
    0
  9
$SHADOWPLANELOCATION
 40
0
  0
ENDSEC
  0
SECTION
  2
CLASSES
  0
ENDSEC
  0
SECTION
  2
TABLES
  0
TABLE
  2
VPORT
  5
8
330
0
100
AcDbSymbolTable
 70
    1
  0
VPORT
  5
31
330
2
100
AcDbSymbolTableRecord
100
AcDbViewportTableRecord
  2
*ACTIVE
 70
    0
 10
0
 20
0
 11
1
 21
1
 12
50.2960282559981
 22
18.33115470444091
 13
0
 23
0
 14
10
 24
10
 15
10
 25
10
 16
0
 26
0
 36
1
 17
0
 27
0
 37
0
 40
29.94460430421178
 41
1.855960264900662
 42
50
 43
0
 44
0
 50
0
 51
0
 71
    0
 72
  100
 73
    1
 74
    3
 75
    0
 76
    1
 77
    0
 78
    0
281
    0
 65
    1
110
0
120
0
130
0
111
1
121
0
131
0
112
0
122
1
132
0
 79
    0
146
0
348
10020
 60
    7
 61
    5
292
1
282
    1
141
0
142
0
 63
  250
421
3358443
  0
ENDTAB
  0
TABLE
  2
LTYPE
  5
5
330
0
100
AcDbSymbolTable
 70
    4
  0
LTYPE
  5
14
330
5
100
AcDbSymbolTableRecord
100
AcDbLinetypeTableRecord
  2
ByBlock
 70
    0
  3

 72
   65
 73
    0
 40
0
  0
LTYPE
  5
15
330
5
100
AcDbSymbolTableRecord
100
AcDbLinetypeTableRecord
  2
ByLayer
 70
    0
  3

 72
   65
 73
    0
 40
0
  0
LTYPE
  5
16
330
5
100
AcDbSymbolTableRecord
100
AcDbLinetypeTableRecord
  2
Continuous
 70
    0
  3
Solid line
 72
   65
 73
    0
 40
0
  0
LTYPE
  5
32
330
5
100
AcDbSymbolTableRecord
100
AcDbLinetypeTableRecord
  2
DOT
 70
    0
  3
Dot . . . . . . . . . . . . . . . . . . . . . .
 72
   65
 73
    2
 40
6.35
 49
0
 74
    0
 49
-6.35
 74
    0
  0
LTYPE
  5
33
330
5
100
AcDbSymbolTableRecord
100
AcDbLinetypeTableRecord
  2
DOTTINY
 70
    0
  3
Dot (.15x) .....................................
 72
   65
 73
    2
 40
0.9525
 49
0
 74
    0
 49
-0.9525
 74
    0
  0
LTYPE
  5
34
330
5
100
AcDbSymbolTableRecord
100
AcDbLinetypeTableRecord
  2
DOT2
 70
    0
  3
Dot (.5x) .....................................
 72
   65
 73
    2
 40
3.175
 49
0
 74
    0
 49
-3.175
 74
    0
  0
LTYPE
  5
35
330
5
100
AcDbSymbolTableRecord
100
AcDbLinetypeTableRecord
  2
DOTX2
 70
    0
  3
Dot (2x) .  .  .  .  .  .  .  .  .  .  .  .  .
 72
   65
 73
    2
 40
12.7
 49
0
 74
    0
 49
-12.7
 74
    0
  0
LTYPE
  5
36
330
5
100
AcDbSymbolTableRecord
100
AcDbLinetypeTableRecord
  2
DASHED
 70
    0
  3
Dashed _ _ _ _ _ _ _ _ _ _ _ _ _ _ _ _ _
 72
   65
 73
    2
 40
19.05
 49
12.7
 74
    0
 49
-6.35
 74
    0
  0
LTYPE
  5
37
330
5
100
AcDbSymbolTableRecord
100
AcDbLinetypeTableRecord
  2
DASHEDTINY
 70
    0
  3
Dashed (.15x) _ _ _ _ _ _ _ _ _ _ _ _ _ _ _ _ _
 72
   65
 73
    2
 40
2.8575
 49
1.905
 74
    0
 49
-0.9525
 74
    0
  0
LTYPE
  5
38
330
5
100
AcDbSymbolTableRecord
100
AcDbLinetypeTableRecord
  2
DASHED2
 70
    0
  3
Dashed (.5x) _ _ _ _ _ _ _ _ _ _ _ _ _ _ _ _ _
 72
   65
 73
    2
 40
9.524999999999999
 49
6.35
 74
    0
 49
-3.175
 74
    0
  0
LTYPE
  5
39
330
5
100
AcDbSymbolTableRecord
100
AcDbLinetypeTableRecord
  2
DASHEDX2
 70
    0
  3
Dashed (2x) ____  ____  ____  ____  ____  ___
 72
   65
 73
    2
 40
38.09999999999999
 49
25.4
 74
    0
 49
-12.7
 74
    0
  0
LTYPE
  5
3A
330
5
100
AcDbSymbolTableRecord
100
AcDbLinetypeTableRecord
  2
DASHDOT
 70
    0
  3
Dash dot __ . __ . __ . __ . __ . __ . __ . __
 72
   65
 73
    4
 40
25.4
 49
12.7
 74
    0
 49
-6.35
 74
    0
 49
0
 74
    0
 49
-6.35
 74
    0
  0
LTYPE
  5
3B
330
5
100
AcDbSymbolTableRecord
100
AcDbLinetypeTableRecord
  2
DASHDOTTINY
 70
    0
  3
Dash dot (.15x) _._._._._._._._._._._._._._._.
 72
   65
 73
    4
 40
3.81
 49
1.905
 74
    0
 49
-0.9525
 74
    0
 49
0
 74
    0
 49
-0.9525
 74
    0
  0
LTYPE
  5
3C
330
5
100
AcDbSymbolTableRecord
100
AcDbLinetypeTableRecord
  2
DASHDOT2
 70
    0
  3
Dash dot (.5x) _._._._._._._._._._._._._._._.
 72
   65
 73
    4
 40
12.7
 49
6.35
 74
    0
 49
-3.175
 74
    0
 49
0
 74
    0
 49
-3.175
 74
    0
  0
LTYPE
  5
3D
330
5
100
AcDbSymbolTableRecord
100
AcDbLinetypeTableRecord
  2
DASHDOTX2
 70
    0
  3
Dash dot (2x) ____  .  ____  .  ____  .  ___
 72
   65
 73
    4
 40
50.8
 49
25.4
 74
    0
 49
-12.7
 74
    0
 49
0
 74
    0
 49
-12.7
 74
    0
  0
LTYPE
  5
3E
330
5
100
AcDbSymbolTableRecord
100
AcDbLinetypeTableRecord
  2
DIVIDE
 70
    0
  3
Divide ____ . . ____ . . ____ . . ____ . . ____
 72
   65
 73
    6
 40
31.75
 49
12.7
 74
    0
 49
-6.35
 74
    0
 49
0
 74
    0
 49
-6.35
 74
    0
 49
0
 74
    0
 49
-6.35
 74
    0
  0
LTYPE
  5
3F
330
5
100
AcDbSymbolTableRecord
100
AcDbLinetypeTableRecord
  2
DIVIDETINY
 70
    0
  3
Divide (.15x) __..__..__..__..__..__..__..__.._
 72
   65
 73
    6
 40
4.7625
 49
1.905
 74
    0
 49
-0.9525
 74
    0
 49
0
 74
    0
 49
-0.9525
 74
    0
 49
0
 74
    0
 49
-0.9525
 74
    0
  0
LTYPE
  5
40
330
5
100
AcDbSymbolTableRecord
100
AcDbLinetypeTableRecord
  2
DIVIDE2
 70
    0
  3
Divide (.5x) __..__..__..__..__..__..__..__.._
 72
   65
 73
    6
 40
15.875
 49
6.35
 74
    0
 49
-3.175
 74
    0
 49
0
 74
    0
 49
-3.175
 74
    0
 49
0
 74
    0
 49
-3.175
 74
    0
  0
LTYPE
  5
41
330
5
100
AcDbSymbolTableRecord
100
AcDbLinetypeTableRecord
  2
DIVIDEX2
 70
    0
  3
Divide (2x) ________  .  .  ________  .  .  _
 72
   65
 73
    6
 40
63.5
 49
25.4
 74
    0
 49
-12.7
 74
    0
 49
0
 74
    0
 49
-12.7
 74
    0
 49
0
 74
    0
 49
-12.7
 74
    0
  0
LTYPE
  5
42
330
5
100
AcDbSymbolTableRecord
100
AcDbLinetypeTableRecord
  2
BORDER
 70
    0
  3
Border __ __ . __ __ . __ __ . __ __ . __ __ .
 72
   65
 73
    6
 40
44.45
 49
12.7
 74
    0
 49
-6.35
 74
    0
 49
12.7
 74
    0
 49
-6.35
 74
    0
 49
0
 74
    0
 49
-6.35
 74
    0
  0
LTYPE
  5
43
330
5
100
AcDbSymbolTableRecord
100
AcDbLinetypeTableRecord
  2
BORDERTINY
 70
    0
  3
Border (.15x) __.__.__.__.__.__.__.__.__.__.__.
 72
   65
 73
    6
 40
6.6675
 49
1.905
 74
    0
 49
-0.9525
 74
    0
 49
1.905
 74
    0
 49
-0.9525
 74
    0
 49
0
 74
    0
 49
-0.9525
 74
    0
  0
LTYPE
  5
44
330
5
100
AcDbSymbolTableRecord
100
AcDbLinetypeTableRecord
  2
BORDER2
 70
    0
  3
Border (.5x) __.__.__.__.__.__.__.__.__.__.__.
 72
   65
 73
    6
 40
22.225
 49
6.35
 74
    0
 49
-3.175
 74
    0
 49
6.35
 74
    0
 49
-3.175
 74
    0
 49
0
 74
    0
 49
-3.175
 74
    0
  0
LTYPE
  5
45
330
5
100
AcDbSymbolTableRecord
100
AcDbLinetypeTableRecord
  2
BORDERX2
 70
    0
  3
Border (2x) ____  ____  .  ____  ____  .  ___
 72
   65
 73
    6
 40
88.89999999999999
 49
25.4
 74
    0
 49
-12.7
 74
    0
 49
25.4
 74
    0
 49
-12.7
 74
    0
 49
0
 74
    0
 49
-12.7
 74
    0
  0
LTYPE
  5
46
330
5
100
AcDbSymbolTableRecord
100
AcDbLinetypeTableRecord
  2
CENTER
 70
    0
  3
Center ____ _ ____ _ ____ _ ____ _ ____ _ ____
 72
   65
 73
    4
 40
50.8
 49
31.75
 74
    0
 49
-6.35
 74
    0
 49
6.35
 74
    0
 49
-6.35
 74
    0
  0
LTYPE
  5
47
330
5
100
AcDbSymbolTableRecord
100
AcDbLinetypeTableRecord
  2
CENTERTINY
 70
    0
  3
Center (.15x) ___ _ ___ _ ___ _ ___ _ ___ _ ___
 72
   65
 73
    4
 40
7.62
 49
4.7625
 74
    0
 49
-0.9525
 74
    0
 49
0.9525
 74
    0
 49
-0.9525
 74
    0
  0
LTYPE
  5
48
330
5
100
AcDbSymbolTableRecord
100
AcDbLinetypeTableRecord
  2
CENTER2
 70
    0
  3
Center (.5x) ___ _ ___ _ ___ _ ___ _ ___ _ ___
 72
   65
 73
    4
 40
28.575
 49
19.05
 74
    0
 49
-3.175
 74
    0
 49
3.175
 74
    0
 49
-3.175
 74
    0
  0
LTYPE
  5
49
330
5
100
AcDbSymbolTableRecord
100
AcDbLinetypeTableRecord
  2
CENTERX2
 70
    0
  3
Center (2x) ________  __  ________  __  _____
 72
   65
 73
    4
 40
101.6
 49
63.5
 74
    0
 49
-12.7
 74
    0
 49
12.7
 74
    0
 49
-12.7
 74
    0
  0
ENDTAB
  0
TABLE
  2
LAYER
  5
2
330
0
100
AcDbSymbolTable
 70
    1
  0
LAYER
  5
10
330
2
100
AcDbSymbolTableRecord
100
AcDbLayerTableRecord
  2
0
 70
    0
 62
    7
  6
CONTINUOUS
370
   -3
390
F
  0
ENDTAB
  0
TABLE
  2
STYLE
  5
3
330
0
100
AcDbSymbolTable
 70
    3
  0
STYLE
  5
4A
330
2
100
AcDbSymbolTableRecord
100
AcDbTextStyleTableRecord
  2
Standard
 70
    0
 40
0
 41
1
 50
0
 71
    0
 42
1
  3
txt
  4

  0
ENDTAB
  0
TABLE
  2
VIEW
  5
6
330
0
100
AcDbSymbolTable
 70
    0
  0
ENDTAB
  0
TABLE
  2
UCS
  5
7
330
0
100
AcDbSymbolTable
 70
    0
  0
ENDTAB
  0
TABLE
  2
APPID
  5
9
330
0
100
AcDbSymbolTable
 70
    1
  0
APPID
  5
12
330
9
100
AcDbSymbolTableRecord
100
AcDbRegAppTableRecord
  2
ACAD
 70
    0
  0
APPID
  5
4B
330
9
100
AcDbSymbolTableRecord
100
AcDbRegAppTableRecord
  2
LibreCad
 70
    0
  0
ENDTAB
  0
TABLE
  2
DIMSTYLE
  5
A
330
0
100
AcDbSymbolTable
 70
    1
100
AcDbDimStyleTable
 71
    1
  0
DIMSTYLE
105
4C
330
A
100
AcDbSymbolTableRecord
100
AcDbDimStyleTableRecord
  2
Standard
 70
    0
 40
2.5
 41
2.5
 42
0.625
 43
0.38
 44
1.25
 45
0
 46
0
 47
0
 48
0
 49
1
140
2.5
141
0.09
142
0
143
25.4
144
1
145
0
146
1
147
0.625
148
0
 71
    0
 72
    0
 73
    0
 74
    1
 75
    0
 76
    0
 77
    0
 78
    8
 79
    0
170
    0
171
    2
172
    0
173
    0
174
    0
175
    0
176
    0
177
    0
178
    0
179
    0
271
    2
272
    4
273
    2
274
    2
275
    0
276
    0
277
    2
278
   44
279
    0
280
    0
281
    0
282
    0
283
    1
284
    0
285
    0
286
    0
288
    0
289
    3
340
STANDARD
341

371
   -2
372
   -2
  0
ENDTAB
  0
TABLE
  2
BLOCK_RECORD
  5
1
330
0
100
AcDbSymbolTable
 70
    2
  0
BLOCK_RECORD
  5
1F
330
1
100
AcDbSymbolTableRecord
100
AcDbBlockTableRecord
  2
*Model_Space
 70
    0
280
    1
281
    0
  0
BLOCK_RECORD
  5
1E
330
1
100
AcDbSymbolTableRecord
100
AcDbBlockTableRecord
  2
*Paper_Space
 70
    0
280
    1
281
    0
  0
ENDTAB
  0
ENDSEC
  0
SECTION
  2
BLOCKS
  0
BLOCK
  5
20
330
1F
100
AcDbEntity
  8
0
100
AcDbBlockBegin
  2
*Model_Space
 70
    0
 10
0
 20
0
 30
0
  3
*Model_Space
  1

  0
ENDBLK
  5
21
330
1F
100
AcDbEntity
  8
0
100
AcDbBlockEnd
  0
BLOCK
  5
1C
330
1B
100
AcDbEntity
  8
0
100
AcDbBlockBegin
  2
*Paper_Space
 70
    0
 10
0
 20
0
 30
0
  3
*Paper_Space
  1

  0
ENDBLK
  5
1D
330
1F
100
AcDbEntity
  8
0
100
AcDbBlockEnd
  0
ENDSEC
  0
SECTION
  2
ENTITIES
  0
SPLINE
  5
4D
100
AcDbEntity
  8
0
  6
ByLayer
 62
  256
370
   -1
100
AcDbSpline
210
0
220
0
230
0
 70
    8
 71
    3
 72
    8
 73
    4
 74
    0
 42
1e-007
 43
1e-007
 40
0
 40
0
 40
0
 40
0
 40
1
 40
1
 40
1
 40
1
 10
51.60099078748548
 20
20.48045906656032
 30
0
 10
51.58612393928141
 20
20.45169177147157
 30
0
 10
51.53968189448064
 20
20.37841576096572
 30
0
 10
51.4978428978247
 20
20.31761324539641
 30
0
  0
SPLINE
  5
4E
100
AcDbEntity
  8
0
  6
ByLayer
 62
  256
370
   -1
100
AcDbSpline
210
0
220
0
230
0
 70
    8
 71
    3
 72
    8
 73
    4
 74
    0
 42
1e-007
 43
1e-007
 40
0
 40
0
 40
0
 40
0
 40
1
 40
1
 40
1
 40
1
 10
51.4978428978247
 20
20.31761324539641
 30
0
 10
51.13532897731794
 20
19.79078054938919
 30
0
 10
50.76779798717088
 20
18.66494373093509
 30
0
 10
50.79767004190746
 20
18.17263178903439
 30
0
  0
SPLINE
  5
4F
100
AcDbEntity
  8
0
  6
ByLayer
 62
  256
370
   -1
100
AcDbSpline
210
0
220
0
230
0
 70
    8
 71
    3
 72
    8
 73
    4
 74
    0
 42
1e-007
 43
1e-007
 40
0
 40
0
 40
0
 40
0
 40
1
 40
1
 40
1
 40
1
 10
50.79767004190746
 20
18.17263178903439
 30
0
 10
50.839785404057
 20
17.47733764442902
 30
0
 10
50.90832053483449
 20
17.10718276232759
 30
0
 10
51.01924704209186
 20
16.97535958235481
 30
0
  0
LINE
  5
50
100
AcDbEntity
  8
0
  6
ByLayer
 62
  256
370
   -1
100
AcDbLine
 10
51.01924704209185
 20
16.97535958235481
 11
51.06398594503251
 21
16.9221520259918
  0
LINE
  5
51
100
AcDbEntity
  8
0
  6
ByLayer
 62
  256
370
   -1
100
AcDbLine
 10
51.06398594503251
 20
16.9221520259918
 11
51.07756437519849
 21
16.9720460057379
  0
SPLINE
  5
52
100
AcDbEntity
  8
0
  6
ByLayer
 62
  256
370
   -1
100
AcDbSpline
210
0
220
0
230
0
 70
    8
 71
    3
 72
    8
 73
    4
 74
    0
 42
1e-007
 43
1e-007
 40
0
 40
0
 40
0
 40
0
 40
1
 40
1
 40
1
 40
1
 10
51.07756437519848
 20
16.9720460057379
 30
0
 10
51.08502062491308
 20
16.99947817807364
 30
0
 10
51.09344362711034
 20
17.03961473519601
 30
0
 10
51.09629753100666
 20
17.06120144373723
 30
0
  0
SPLINE
  5
53
100
AcDbEntity
  8
0
  6
ByLayer
 62
  256
370
   -1
100
AcDbSpline
210
0
220
0
230
0
 70
    8
 71
    3
 72
    8
 73
    4
 74
    0
 42
1e-007
 43
1e-007
 40
0
 40
0
 40
0
 40
0
 40
1
 40
1
 40
1
 40
1
 10
51.09629753100666
 20
17.06120144373723
 30
0
 10
51.13689376084962
 20
17.36908068035117
 30
0
 10
51.5840527783142
 20
17.96794644446962
 30
0
 10
51.95940838844621
 20
18.21709432648145
 30
0
  0
SPLINE
  5
54
100
AcDbEntity
  8
0
  6
ByLayer
 62
  256
370
   -1
100
AcDbSpline
210
0
220
0
230
0
 70
    8
 71
    3
 72
    8
 73
    4
 74
    0
 42
1e-007
 43
1e-007
 40
0
 40
0
 40
0
 40
0
 40
1
 40
1
 40
1
 40
1
 10
51.95940838844621
 20
18.21709432648145
 30
0
 10
52.50879454547729
 20
18.58177176389545
 30
0
 10
53.23962184789694
 20
18.71764526102586
 30
0
 10
53.91719559156519
 20
18.58108137690639
 30
0
  0
SPLINE
  5
55
100
AcDbEntity
  8
0
  6
ByLayer
 62
  256
370
   -1
100
AcDbSpline
210
0
220
0
230
0
 70
    8
 71
    3
 72
    8
 73
    4
 74
    0
 42
1e-007
 43
1e-007
 40
0
 40
0
 40
0
 40
0
 40
1
 40
1
 40
1
 40
1
 10
53.91719559156519
 20
18.58108137690639
 30
0
 10
54.19814868211564
 20
18.52451318804825
 30
0
 10
54.20270537670881
 20
18.52842549804073
 30
0
 10
54.07589891521306
 20
18.71792162651945
 30
0
  0
SPLINE
  5
56
100
AcDbEntity
  8
0
  6
ByLayer
 62
  256
370
   -1
100
AcDbSpline
210
0
220
0
230
0
 70
    8
 71
    3
 72
    8
 73
    4
 74
    0
 42
1e-007
 43
1e-007
 40
0
 40
0
 40
0
 40
0
 40
1
 40
1
 40
1
 40
1
 10
54.07589891521306
 20
18.71792162651945
 30
0
 10
53.69193629333025
 20
19.29193240554162
 30
0
 10
52.84465868541416
 20
19.97475323079209
 30
0
 10
51.9969210536142
 20
20.39337478952821
 30
0
  0
SPLINE
  5
57
100
AcDbEntity
  8
0
  6
ByLayer
 62
  256
370
   -1
100
AcDbSpline
210
0
220
0
230
0
 70
    8
 71
    3
 72
    8
 73
    4
 74
    0
 42
1e-007
 43
1e-007
 40
0
 40
0
 40
0
 40
0
 40
1
 40
1
 40
1
 40
1
 10
51.9969210536142
 20
20.39337478952821
 30
0
 10
51.69990435043508
 20
20.54006499328669
 30
0
 10
51.63877946698378
 20
20.55350506512424
 30
0
 10
51.60099078748548
 20
20.48045906656032
 30
0
  0
SPLINE
  5
58
100
AcDbEntity
  8
0
  6
ByLayer
 62
  256
370
   -1
100
AcDbSpline
210
0
220
0
230
0
 70
    8
 71
    3
 72
    8
 73
    4
 74
    0
 42
1e-007
 43
1e-007
 40
0
 40
0
 40
0
 40
0
 40
1
 40
1
 40
1
 40
1
 10
61.15463266323832
 20
20.4675253721583
 30
0
 10
60.31992037945389
 20
20.10307812226786
 30
0
 10
59.32903736152574
 20
19.32663752036495
 30
0
 10
58.92187619169184
 20
18.71792162651945
 30
0
  0
SPLINE
  5
59
100
AcDbEntity
  8
0
  6
ByLayer
 62
  256
370
   -1
100
AcDbSpline
210
0
220
0
230
0
 70
    8
 71
    3
 72
    8
 73
    4
 74
    0
 42
1e-007
 43
1e-007
 40
0
 40
0
 40
0
 40
0
 40
1
 40
1
 40
1
 40
1
 10
58.92187619169184
 20
18.71792162651945
 30
0
 10
58.79506973019609
 20
18.52842549804073
 30
0
 10
58.79962642478925
 20
18.52451318804825
 30
0
 10
59.08057951533971
 20
18.58108137690639
 30
0
  0
SPLINE
  5
5A
100
AcDbEntity
  8
0
  6
ByLayer
 62
  256
370
   -1
100
AcDbSpline
210
0
220
0
230
0
 70
    8
 71
    3
 72
    8
 73
    4
 74
    0
 42
1e-007
 43
1e-007
 40
0
 40
0
 40
0
 40
0
 40
1
 40
1
 40
1
 40
1
 10
59.08057951533971
 20
18.58108137690639
 30
0
 10
59.75815325900795
 20
18.71764526102586
 30
0
 10
60.48898021026432
 20
18.58177176389545
 30
0
 10
61.03836671845869
 20
18.21709432648145
 30
0
  0
SPLINE
  5
5B
100
AcDbEntity
  8
0
  6
ByLayer
 62
  256
370
   -1
100
AcDbSpline
210
0
220
0
230
0
 70
    8
 71
    3
 72
    8
 73
    4
 74
    0
 42
1e-007
 43
1e-007
 40
0
 40
0
 40
0
 40
0
 40
1
 40
1
 40
1
 40
1
 10
61.03836671845869
 20
18.21709432648145
 30
0
 10
61.41372232859069
 20
17.96794644446962
 30
0
 10
61.86088099489201
 20
17.36908068035117
 30
0
 10
61.90147827822479
 20
17.06120144373723
 30
0
  0
SPLINE
  5
5C
100
AcDbEntity
  8
0
  6
ByLayer
 62
  256
370
   -1
100
AcDbSpline
210
0
220
0
230
0
 70
    8
 71
    3
 72
    8
 73
    4
 74
    0
 42
1e-007
 43
1e-007
 40
0
 40
0
 40
0
 40
0
 40
1
 40
1
 40
1
 40
1
 10
61.90147827822479
 20
17.06120144373723
 30
0
 10
61.90433112863129
 20
17.03961473519601
 30
0
 10
61.91275483315508
 20
16.99947817807364
 30
0
 10
61.9202107317064
 20
16.9720460057379
 30
0
  0
LINE
  5
5D
100
AcDbEntity
  8
0
  6
ByLayer
 62
  256
370
   -1
100
AcDbLine
 10
61.92021073170642
 20
16.9720460057379
 11
61.93378951303566
 21
16.9221520259918
  0
LINE
  5
5E
100
AcDbEntity
  8
0
  6
ByLayer
 62
  256
370
   -1
100
AcDbLine
 10
61.93378951303566
 20
16.9221520259918
 11
61.97852771364977
 21
16.97535958235481
  0
SPLINE
  5
5F
100
AcDbEntity
  8
0
  6
ByLayer
 62
  256
370
   -1
100
AcDbSpline
210
0
220
0
230
0
 70
    8
 71
    3
 72
    8
 73
    4
 74
    0
 42
1e-007
 43
1e-007
 40
0
 40
0
 40
0
 40
0
 40
1
 40
1
 40
1
 40
1
 10
61.97852771364977
 20
16.97535958235481
 30
0
 10
62.0894545720704
 20
17.10718276232759
 30
0
 10
62.15799040517444
 20
17.47733764442902
 30
0
 10
62.20010471383416
 20
18.17263178903439
 30
0
  0
SPLINE
  5
60
100
AcDbEntity
  8
0
  6
ByLayer
 62
  256
370
   -1
100
AcDbSpline
210
0
220
0
230
0
 70
    8
 71
    3
 72
    8
 73
    4
 74
    0
 42
1e-007
 43
1e-007
 40
0
 40
0
 40
0
 40
0
 40
1
 40
1
 40
1
 40
1
 10
62.20010471383416
 20
18.17263178903439
 30
0
 10
62.22997747089728
 20
18.66494373093509
 30
0
 10
61.86244577842369
 20
19.79078054938919
 30
0
 10
61.49993291140675
 20
20.31761324539641
 30
0
  0
SPLINE
  5
61
100
AcDbEntity
  8
0
  6
ByLayer
 62
  256
370
   -1
100
AcDbSpline
210
0
220
0
230
0
 70
    8
 71
    3
 72
    8
 73
    4
 74
    0
 42
1e-007
 43
1e-007
 40
0
 40
0
 40
0
 40
0
 40
1
 40
1
 40
1
 40
1
 10
61.49993291140675
 20
20.31761324539641
 30
0
 10
61.45809251009771
 20
20.37841576096572
 30
0
 10
61.41211119150736
 20
20.45090937970572
 30
0
 10
61.39770506951368
 20
20.47871009789347
 30
0
  0
SPLINE
  5
62
100
AcDbEntity
  8
0
  6
ByLayer
 62
  256
370
   -1
100
AcDbSpline
210
0
220
0
230
0
 70
    8
 71
    3
 72
    8
 73
    4
 74
    0
 42
1e-007
 43
1e-007
 40
0
 40
0
 40
0
 40
0
 40
1
 40
1
 40
1
 40
1
 10
61.39770506951368
 20
20.47871009789347
 30
0
 10
61.36373634406782
 20
20.54448368071469
 30
0
 10
61.32700607066567
 20
20.54278053885458
 30
0
 10
61.15463266323832
 20
20.4675253721583
 30
0
  0
SPLINE
  5
63
100
AcDbEntity
  8
0
  6
ByLayer
 62
  256
370
   -1
100
AcDbSpline
210
0
220
0
230
0
 70
    8
 71
    3
 72
    8
 73
    4
 74
    0
 42
1e-007
 43
1e-007
 40
0
 40
0
 40
0
 40
0
 40
1
 40
1
 40
1
 40
1
 10
52.44279095071414
 20
19.97618000715861
 30
0
 10
52.93146694811596
 20
19.6956872916553
 30
0
 10
53.40380261623225
 20
19.32010166958135
 30
0
 10
53.7143053936373
 20
18.96509000117758
 30
0
  0
SPLINE
  5
64
100
AcDbEntity
  8
0
  6
ByLayer
 62
  256
370
   -1
100
AcDbSpline
210
0
220
0
230
0
 70
    8
 71
    3
 72
    8
 73
    4
 74
    0
 42
1e-007
 43
1e-007
 40
0
 40
0
 40
0
 40
0
 40
1
 40
1
 40
1
 40
1
 10
53.7143053936373
 20
18.96509000117758
 30
0
 10
53.90748382016657
 20
18.74420338798226
 30
0
 10
53.90734546183815
 20
18.74466341186612
 30
0
 10
53.76829604409271
 20
18.77471947615625
 30
0
  0
SPLINE
  5
65
100
AcDbEntity
  8
0
  6
ByLayer
 62
  256
370
   -1
100
AcDbSpline
210
0
220
0
230
0
 70
    8
 71
    3
 72
    8
 73
    4
 74
    0
 42
1e-007
 43
1e-007
 40
0
 40
0
 40
0
 40
0
 40
1
 40
1
 40
1
 40
1
 10
53.76829604409271
 20
18.77471947615625
 30
0
 10
52.84742023337043
 20
18.97397337842197
 30
0
 10
51.66446319739756
 20
18.37165532819491
 30
0
 10
51.14876904915548
 20
17.44092973890885
 30
0
  0
LINE
  5
66
100
AcDbEntity
  8
0
  6
ByLayer
 62
  256
370
   -1
100
AcDbLine
 10
51.14876904915548
 20
17.44092973890886
 11
51.05445818318743
 21
17.27081150200225
  0
LINE
  5
67
100
AcDbEntity
  8
0
  6
ByLayer
 62
  256
370
   -1
100
AcDbLine
 10
51.05445818318743
 20
17.27081150200225
 11
51.02431011412055
 21
17.41331320585629
  0
SPLINE
  5
68
100
AcDbEntity
  8
0
  6
ByLayer
 62
  256
370
   -1
100
AcDbSpline
210
0
220
0
230
0
 70
    8
 71
    3
 72
    8
 73
    4
 74
    0
 42
1e-007
 43
1e-007
 40
0
 40
0
 40
0
 40
0
 40
1
 40
1
 40
1
 40
1
 10
51.02431011412054
 20
17.4133132058563
 30
0
 10
50.85847255747677
 20
18.19730241341385
 30
0
 10
51.02274533058885
 20
19.08361146764123
 30
0
 10
51.53438881051002
 20
20.16512358023179
 30
0
  0
LINE
  5
69
100
AcDbEntity
  8
0
  6
ByLayer
 62
  256
370
   -1
100
AcDbLine
 10
51.53438881051002
 20
20.16512358023179
 11
51.63647829407465
 21
20.38090129459168
  0
LINE
  5
6A
100
AcDbEntity
  8
0
  6
ByLayer
 62
  256
370
   -1
100
AcDbLine
 10
51.63647829407465
 20
20.38090129459168
 11
51.94012285281413
 21
20.23563786719972
  0
SPLINE
  5
6B
100
AcDbEntity
  8
0
  6
ByLayer
 62
  256
370
   -1
100
AcDbSpline
210
0
220
0
230
0
 70
    8
 71
    3
 72
    8
 73
    4
 74
    0
 42
1e-007
 43
1e-007
 40
0
 40
0
 40
0
 40
0
 40
1
 40
1
 40
1
 40
1
 10
51.94012285281413
 20
20.23563786719972
 30
0
 10
52.10715717388248
 20
20.15573400113352
 30
0
 10
52.33333722221169
 20
20.03896167891837
 30
0
 10
52.44279095071414
 20
19.97618000715861
 30
0
  0
SPLINE
  5
6C
100
AcDbEntity
  8
0
  6
ByLayer
 62
  256
370
   -1
100
AcDbSpline
210
0
220
0
230
0
 70
    8
 71
    3
 72
    8
 73
    4
 74
    0
 42
1e-007
 43
1e-007
 40
0
 40
0
 40
0
 40
0
 40
1
 40
1
 40
1
 40
1
 10
61.46315628445294
 20
20.16562978208568
 30
0
 10
61.97503012747931
 20
19.08356546525285
 30
0
 10
62.13934925414304
 20
18.1974864229674
 30
0
 10
61.97346534394762
 20
17.4133132058563
 30
0
  0
LINE
  5
6D
100
AcDbEntity
  8
0
  6
ByLayer
 62
  256
370
   -1
100
AcDbLine
 10
61.97346534394762
 20
17.41331320585629
 11
61.94331727488073
 21
17.27081150200225
  0
LINE
  5
6E
100
AcDbEntity
  8
0
  6
ByLayer
 62
  256
370
   -1
100
AcDbLine
 10
61.94331727488073
 20
17.27081150200225
 11
61.84900605774941
 21
17.44092973890885
  0
SPLINE
  5
6F
100
AcDbEntity
  8
0
  6
ByLayer
 62
  256
370
   -1
100
AcDbSpline
210
0
220
0
230
0
 70
    8
 71
    3
 72
    8
 73
    4
 74
    0
 42
1e-007
 43
1e-007
 40
0
 40
0
 40
0
 40
0
 40
1
 40
1
 40
1
 40
1
 10
61.84900605774941
 20
17.44092973890885
 30
0
 10
61.33326660944548
 20
18.37174733297168
 30
0
 10
60.15040122708612
 20
18.97397337842197
 30
0
 10
59.22929575558518
 20
18.77471947615625
 30
0
  0
SPLINE
  5
70
100
AcDbEntity
  8
0
  6
ByLayer
 62
  256
370
   -1
100
AcDbSpline
210
0
220
0
230
0
 70
    8
 71
    3
 72
    8
 73
    4
 74
    0
 42
1e-007
 43
1e-007
 40
0
 40
0
 40
0
 40
0
 40
1
 40
1
 40
1
 40
1
 10
59.22929575558518
 20
18.77471947615625
 30
0
 10
59.10276460609321
 20
18.74733330620889
 30
0
 10
59.10299496919841
 20
18.74645855850301
 30
0
 10
59.20356532045648
 20
18.87211425796255
 30
0
  0
SPLINE
  5
71
100
AcDbEntity
  8
0
  6
ByLayer
 62
  256
370
   -1
100
AcDbSpline
210
0
220
0
230
0
 70
    8
 71
    3
 72
    8
 73
    4
 74
    0
 42
1e-007
 43
1e-007
 40
0
 40
0
 40
0
 40
0
 40
1
 40
1
 40
1
 40
1
 10
59.20356532045648
 20
18.87211425796255
 30
0
 10
59.46753475061053
 20
19.20204057816484
 30
0
 10
59.94516315153417
 20
19.6044603415255
 30
0
 10
60.42965047344993
 20
19.90511334036677
 30
0
  0
SPLINE
  5
72
100
AcDbEntity
  8
0
  6
ByLayer
 62
  256
370
   -1
100
AcDbSpline
210
0
220
0
230
0
 70
    8
 71
    3
 72
    8
 73
    4
 74
    0
 42
1e-007
 43
1e-007
 40
0
 40
0
 40
0
 40
0
 40
1
 40
1
 40
1
 40
1
 10
60.42965047344993
 20
19.90511334036677
 30
0
 10
60.52884005072984
 20
19.96665224531355
 30
0
 10
61.3295836090684
 20
20.37859994610091
 30
0
 10
61.35549805375065
 20
20.38140749644557
 30
0
  0
SPLINE
  5
73
100
AcDbEntity
  8
0
  6
ByLayer
 62
  256
370
   -1
100
AcDbSpline
210
0
220
0
230
0
 70
    8
 71
    3
 72
    8
 73
    4
 74
    0
 42
1e-007
 43
1e-007
 40
0
 40
0
 40
0
 40
0
 40
1
 40
1
 40
1
 40
1
 10
61.35549805375065
 20
20.38140749644557
 30
0
 10
61.35839725770882
 20
20.38168368635752
 30
0
 10
61.40686481225167
 20
20.28461144801483
 30
0
 10
61.46315628445294
 20
20.16562978208568
 30
0
  0
SPLINE
  5
74
100
AcDbEntity
  8
0
  6
ByLayer
 62
  256
370
   -1
100
AcDbSpline
210
0
220
0
230
0
 70
    8
 71
    3
 72
    8
 73
    4
 74
    0
 42
1e-007
 43
1e-007
 40
0
 40
0
 40
0
 40
0
 40
1
 40
1
 40
1
 40
1
 10
51.8106008457505
 20
19.95546734399675
 30
0
 10
51.51123696727385
 20
19.62936132901016
 30
0
 10
51.27737030612485
 20
18.95395145341244
 30
0
 10
51.26775053950301
 20
18.38776494321196
 30
0
  0
SPLINE
  5
75
100
AcDbEntity
  8
0
  6
ByLayer
 62
  256
370
   -1
100
AcDbSpline
210
0
220
0
230
0
 70
    8
 71
    3
 72
    8
 73
    4
 74
    0
 42
1e-007
 43
1e-007
 40
0
 40
0
 40
0
 40
0
 40
1
 40
1
 40
1
 40
1
 10
51.26775053950301
 20
18.38776494321196
 30
0
 10
51.26291747941625
 20
18.10524706912982
 30
0
 10
51.31419258430377
 20
18.08632990376811
 30
0
 10
51.51160533754422
 20
18.29773475750675
 30
0
  0
SPLINE
  5
76
100
AcDbEntity
  8
0
  6
ByLayer
 62
  256
370
   -1
100
AcDbSpline
210
0
220
0
230
0
 70
    8
 71
    3
 72
    8
 73
    4
 74
    0
 42
1e-007
 43
1e-007
 40
0
 40
0
 40
0
 40
0
 40
1
 40
1
 40
1
 40
1
 10
51.51160533754422
 20
18.29773475750675
 30
0
 10
51.7987259086079
 20
18.60515361907355
 30
0
 10
52.1333929329569
 20
18.8244754487372
 30
0
 10
52.48527468313404
 20
18.93586268220496
 30
0
  0
SPLINE
  5
77
100
AcDbEntity
  8
0
  6
ByLayer
 62
  256
370
   -1
100
AcDbSpline
210
0
220
0
230
0
 70
    8
 71
    3
 72
    8
 73
    4
 74
    0
 42
1e-007
 43
1e-007
 40
0
 40
0
 40
0
 40
0
 40
1
 40
1
 40
1
 40
1
 10
52.48527468313404
 20
18.93586268220496
 30
0
 10
52.66119238144678
 20
18.9915561233572
 30
0
 10
53.07539542833653
 20
19.05829610749781
 30
0
 10
53.15267592919326
 20
19.04342925929374
 30
0
  0
SPLINE
  5
78
100
AcDbEntity
  8
0
  6
ByLayer
 62
  256
370
   -1
100
AcDbSpline
210
0
220
0
230
0
 70
    8
 71
    3
 72
    8
 73
    4
 74
    0
 42
1e-007
 43
1e-007
 40
0
 40
0
 40
0
 40
0
 40
1
 40
1
 40
1
 40
1
 10
53.15267592919326
 20
19.04342925929374
 30
0
 10
53.21711438926147
 20
19.03100159116396
 30
0
 10
53.22185509340817
 20
19.08181632100435
 30
0
 10
53.16353846262808
 20
19.15974120646176
 30
0
  0
SPLINE
  5
79
100
AcDbEntity
  8
0
  6
ByLayer
 62
  256
370
   -1
100
AcDbSpline
210
0
220
0
230
0
 70
    8
 71
    3
 72
    8
 73
    4
 74
    0
 42
1e-007
 43
1e-007
 40
0
 40
0
 40
0
 40
0
 40
1
 40
1
 40
1
 40
1
 10
53.16353846262808
 20
19.15974120646176
 30
0
 10
52.83094224808302
 20
19.6040923224184
 30
0
 10
51.95890201101069
 20
20.11697856915255
 30
0
 10
51.8106008457505
 20
19.95546734399675
 30
0
  0
SPLINE
  5
7A
100
AcDbEntity
  8
0
  6
ByLayer
 62
  256
370
   -1
100
AcDbSpline
210
0
220
0
230
0
 70
    8
 71
    3
 72
    8
 73
    4
 74
    0
 42
1e-007
 43
1e-007
 40
0
 40
0
 40
0
 40
0
 40
1
 40
1
 40
1
 40
1
 10
60.98267362846971
 20
19.96697426203225
 30
0
 10
60.82005694133955
 20
19.92237371742003
 30
0
 10
60.48999296513537
 20
19.74687004060277
 30
0
 10
60.30077355331351
 20
19.60441433913711
 30
0
  0
SPLINE
  5
7B
100
AcDbEntity
  8
0
  6
ByLayer
 62
  256
370
   -1
100
AcDbSpline
210
0
220
0
230
0
 70
    8
 71
    3
 72
    8
 73
    4
 74
    0
 42
1e-007
 43
1e-007
 40
0
 40
0
 40
0
 40
0
 40
1
 40
1
 40
1
 40
1
 10
60.30077355331351
 20
19.60441433913711
 30
0
 10
59.9432303488954
 20
19.33524453211575
 30
0
 10
59.68041273426735
 20
19.0116700531435
 30
0
 10
59.84509988003818
 20
19.04342925929374
 30
0
  0
SPLINE
  5
7C
100
AcDbEntity
  8
0
  6
ByLayer
 62
  256
370
   -1
100
AcDbSpline
210
0
220
0
230
0
 70
    8
 71
    3
 72
    8
 73
    4
 74
    0
 42
1e-007
 43
1e-007
 40
0
 40
0
 40
0
 40
0
 40
1
 40
1
 40
1
 40
1
 10
59.84509988003818
 20
19.04342925929374
 30
0
 10
59.92237967856837
 20
19.05829610749781
 30
0
 10
60.33658237429485
 20
18.9915561233572
 30
0
 10
60.5125011260974
 20
18.93586268220496
 30
0
  0
SPLINE
  5
7D
100
AcDbEntity
  8
0
  6
ByLayer
 62
  256
370
   -1
100
AcDbSpline
210
0
220
0
230
0
 70
    8
 71
    3
 72
    8
 73
    4
 74
    0
 42
1e-007
 43
1e-007
 40
0
 40
0
 40
0
 40
0
 40
1
 40
1
 40
1
 40
1
 10
60.5125011260974
 20
18.93586268220496
 30
0
 10
60.86438217394799
 20
18.8244754487372
 30
0
 10
61.19904919829699
 20
18.60515361907355
 30
0
 10
61.48617012052394
 20
18.29773475750675
 30
0
  0
SPLINE
  5
7E
100
AcDbEntity
  8
0
  6
ByLayer
 62
  256
370
   -1
100
AcDbSpline
210
0
220
0
230
0
 70
    8
 71
    3
 72
    8
 73
    4
 74
    0
 42
1e-007
 43
1e-007
 40
0
 40
0
 40
0
 40
0
 40
1
 40
1
 40
1
 40
1
 10
61.48617012052394
 20
18.29773475750675
 30
0
 10
61.68358287376439
 20
18.08632990376811
 30
0
 10
61.7348569251621
 20
18.10524706912982
 30
0
 10
61.73002491856516
 20
18.38776494321196
 30
0
  0
SPLINE
  5
7F
100
AcDbEntity
  8
0
  6
ByLayer
 62
  256
370
   -1
100
AcDbSpline
210
0
220
0
230
0
 70
    8
 71
    3
 72
    8
 73
    4
 74
    0
 42
1e-007
 43
1e-007
 40
0
 40
0
 40
0
 40
0
 40
1
 40
1
 40
1
 40
1
 10
61.73002491856516
 20
18.38776494321196
 30
0
 10
61.72178522359491
 20
18.87395540698782
 30
0
 10
61.57601594551235
 20
19.37326357471926
 30
0
 10
61.33280588323508
 20
19.74866518723966
 30
0
  0
SPLINE
  5
80
100
AcDbEntity
  8
0
  6
ByLayer
 62
  256
370
   -1
100
AcDbSpline
210
0
220
0
230
0
 70
    8
 71
    3
 72
    8
 73
    4
 74
    0
 42
1e-007
 43
1e-007
 40
0
 40
0
 40
0
 40
0
 40
1
 40
1
 40
1
 40
1
 10
61.33280588323508
 20
19.74866518723966
 30
0
 10
61.16043247580772
 20
20.01465907364599
 30
0
 10
61.15923571138313
 20
20.01539546302345
 30
0
 10
60.98267362846971
 20
19.96697426203225
 30
0
  0
SPLINE
  5
81
100
AcDbEntity
  8
0
  6
ByLayer
 62
  256
370
   -1
100
AcDbSpline
210
0
220
0
230
0
 70
    8
 71
    3
 72
    8
 73
    4
 74
    0
 42
1e-007
 43
1e-007
 40
0
 40
0
 40
0
 40
0
 40
1
 40
1
 40
1
 40
1
 10
52.30618071304301
 20
19.70194712810857
 30
0
 10
52.53498430216333
 20
19.59046788986404
 30
0
 10
52.77718196073282
 20
19.42108639349816
 30
0
 10
52.95475679851728
 20
19.24829826224879
 30
0
  0
LINE
  5
82
100
AcDbEntity
  8
0
  6
ByLayer
 62
  256
370
   -1
100
AcDbLine
 10
52.95475679851727
 20
19.24829826224879
 11
53.08363442098023
 21
19.12291892828284
  0
LINE
  5
83
100
AcDbEntity
  8
0
  6
ByLayer
 62
  256
370
   -1
100
AcDbLine
 10
53.08363442098023
 20
19.12291892828284
 11
52.85349606027016
 21
19.10929484689174
  0
SPLINE
  5
84
100
AcDbEntity
  8
0
  6
ByLayer
 62
  256
370
   -1
100
AcDbSpline
210
0
220
0
230
0
 70
    8
 71
    3
 72
    8
 73
    4
 74
    0
 42
1e-007
 43
1e-007
 40
0
 40
0
 40
0
 40
0
 40
1
 40
1
 40
1
 40
1
 10
52.85349606027016
 20
19.10929484689174
 30
0
 10
52.32767576797072
 20
19.07818002534218
 30
0
 10
51.93455340334992
 20
18.90051318278094
 30
0
 10
51.53153525777697
 20
18.51185550797654
 30
0
  0
LINE
  5
85
100
AcDbEntity
  8
0
  6
ByLayer
 62
  256
370
   -1
100
AcDbLine
 10
51.53153525777697
 20
18.51185550797654
 11
51.39644380124913
 21
18.38159711153546
  0
LINE
  5
86
100
AcDbEntity
  8
0
  6
ByLayer
 62
  256
370
   -1
100
AcDbLine
 10
51.39644380124913
 20
18.38159711153546
 11
51.40850309910854
 21
18.4750335809609
  0
SPLINE
  5
87
100
AcDbEntity
  8
0
  6
ByLayer
 62
  256
370
   -1
100
AcDbSpline
210
0
220
0
230
0
 70
    8
 71
    3
 72
    8
 73
    4
 74
    0
 42
1e-007
 43
1e-007
 40
0
 40
0
 40
0
 40
0
 40
1
 40
1
 40
1
 40
1
 10
51.40850309910854
 20
18.4750335809609
 30
0
 10
51.46336814610657
 20
18.90046718039256
 30
0
 10
51.5846511605265
 20
19.29694947518192
 30
0
 10
51.77916400748224
 20
19.68675791202252
 30
0
  0
LINE
  5
88
100
AcDbEntity
  8
0
  6
ByLayer
 62
  256
370
   -1
100
AcDbLine
 10
51.77916400748223
 20
19.68675791202252
 11
51.87784720732664
 21
19.88449268198168
  0
LINE
  5
89
100
AcDbEntity
  8
0
  6
ByLayer
 62
  256
370
   -1
100
AcDbLine
 10
51.87784720732664
 20
19.88449268198168
 11
51.99572428918961
 21
19.84012214931139
  0
SPLINE
  5
8A
100
AcDbEntity
  8
0
  6
ByLayer
 62
  256
370
   -1
100
AcDbSpline
210
0
220
0
230
0
 70
    8
 71
    3
 72
    8
 73
    4
 74
    0
 42
1e-007
 43
1e-007
 40
0
 40
0
 40
0
 40
0
 40
1
 40
1
 40
1
 40
1
 10
51.99572428918961
 20
19.84012214931139
 30
0
 10
52.06053111952818
 20
19.81572753926224
 30
0
 10
52.20027127542594
 20
19.75354424971479
 30
0
 10
52.30618071304301
 20
19.70194712810857
 30
0
  0
SPLINE
  5
8B
100
AcDbEntity
  8
0
  6
ByLayer
 62
  256
370
   -1
100
AcDbSpline
210
0
220
0
230
0
 70
    8
 71
    3
 72
    8
 73
    4
 74
    0
 42
1e-007
 43
1e-007
 40
0
 40
0
 40
0
 40
0
 40
1
 40
1
 40
1
 40
1
 10
61.21851909464588
 20
19.68694192157607
 30
0
 10
61.4131239463784
 20
19.29694947518192
 30
0
 10
61.53440731196159
 20
18.90051318278094
 30
0
 10
61.58927165663307
 20
18.4750335809609
 30
0
  0
LINE
  5
8C
100
AcDbEntity
  8
0
  6
ByLayer
 62
  256
370
   -1
100
AcDbLine
 10
61.58927165663307
 20
18.4750335809609
 11
61.60133060332922
 21
18.38159711153546
  0
LINE
  5
8D
100
AcDbEntity
  8
0
  6
ByLayer
 62
  256
370
   -1
100
AcDbLine
 10
61.60133060332922
 20
18.38159711153546
 11
61.46623949796465
 21
18.51185550797654
  0
SPLINE
  5
8E
100
AcDbEntity
  8
0
  6
ByLayer
 62
  256
370
   -1
100
AcDbSpline
210
0
220
0
230
0
 70
    8
 71
    3
 72
    8
 73
    4
 74
    0
 42
1e-007
 43
1e-007
 40
0
 40
0
 40
0
 40
0
 40
1
 40
1
 40
1
 40
1
 10
61.46623949796465
 20
18.51185550797654
 30
0
 10
61.06322205471824
 20
18.90051318278094
 30
0
 10
60.67009898777091
 20
19.07818002534218
 30
0
 10
60.14427974896128
 20
19.10929484689174
 30
0
  0
LINE
  5
8F
100
AcDbEntity
  8
0
  6
ByLayer
 62
  256
370
   -1
100
AcDbLine
 10
60.14427974896127
 20
19.10929484689174
 11
59.9141413882512
 21
19.12291892828284
  0
LINE
  5
90
100
AcDbEntity
  8
0
  6
ByLayer
 62
  256
370
   -1
100
AcDbLine
 10
59.9141413882512
 20
19.12291892828284
 11
60.04301830838762
 21
19.24829826224879
  0
SPLINE
  5
91
100
AcDbEntity
  8
0
  6
ByLayer
 62
  256
370
   -1
100
AcDbSpline
210
0
220
0
230
0
 70
    8
 71
    3
 72
    8
 73
    4
 74
    0
 42
1e-007
 43
1e-007
 40
0
 40
0
 40
0
 40
0
 40
1
 40
1
 40
1
 40
1
 10
60.04301830838762
 20
19.24829826224879
 30
0
 10
60.29755127914683
 20
19.49592736311732
 30
0
 10
60.86755809456301
 20
19.83386231285812
 30
0
 10
61.11532485143344
 20
19.88394065332104
 30
0
  0
SPLINE
  5
92
100
AcDbEntity
  8
0
  6
ByLayer
 62
  256
370
   -1
100
AcDbSpline
210
0
220
0
230
0
 70
    8
 71
    3
 72
    8
 73
    4
 74
    0
 42
1e-007
 43
1e-007
 40
0
 40
0
 40
0
 40
0
 40
1
 40
1
 40
1
 40
1
 10
61.11532485143344
 20
19.88394065332104
 30
0
 10
61.11776473383428
 20
19.88444667959329
 30
0
 10
61.16420677863505
 20
19.79579761902949
 30
0
 10
61.21851909464588
 20
19.68694192157607
 30
0
  0
SPLINE
  5
93
100
AcDbEntity
  8
0
  6
ByLayer
 62
  256
370
   -1
100
AcDbSpline
210
0
220
0
230
0
 70
    8
 71
    3
 72
    8
 73
    4
 74
    0
 42
1e-007
 43
1e-007
 40
0
 40
0
 40
0
 40
0
 40
1
 40
1
 40
1
 40
1
 10
55.48627876632811
 20
19.73550112973242
 30
0
 10
54.81468884478283
 20
19.68339798185395
 30
0
 10
54.33623169854169
 20
19.62075431725936
 30
0
 10
54.08703781414147
 20
19.55217318409348
 30
0
  0
SPLINE
  5
94
100
AcDbEntity
  8
0
  6
ByLayer
 62
  256
370
   -1
100
AcDbSpline
210
0
220
0
230
0
 70
    8
 71
    3
 72
    8
 73
    4
 74
    0
 42
1e-007
 43
1e-007
 40
0
 40
0
 40
0
 40
0
 40
1
 40
1
 40
1
 40
1
 10
54.08703781414147
 20
19.55217318409348
 30
0
 10
53.6658841926461
 20
19.43632126080933
 30
0
 10
53.67113127422834
 20
19.47793024552334
 30
0
 10
54.01988345734211
 20
19.02313096879062
 30
0
  0
SPLINE
  5
95
100
AcDbEntity
  8
0
  6
ByLayer
 62
  256
370
   -1
100
AcDbSpline
210
0
220
0
230
0
 70
    8
 71
    3
 72
    8
 73
    4
 74
    0
 42
1e-007
 43
1e-007
 40
0
 40
0
 40
0
 40
0
 40
1
 40
1
 40
1
 40
1
 10
54.01988345734211
 20
19.02313096879062
 30
0
 10
54.13094797176463
 20
18.87823573608739
 30
0
 10
54.23501661151968
 20
18.74981848867158
 30
0
 10
54.25108022414834
 20
18.73775954197544
 30
0
  0
SPLINE
  5
96
100
AcDbEntity
  8
0
  6
ByLayer
 62
  256
370
   -1
100
AcDbSpline
210
0
220
0
230
0
 70
    8
 71
    3
 72
    8
 73
    4
 74
    0
 42
1e-007
 43
1e-007
 40
0
 40
0
 40
0
 40
0
 40
1
 40
1
 40
1
 40
1
 10
54.25108022414834
 20
18.73775954197544
 30
0
 10
54.26719019032866
 20
18.72565424172764
 30
0
 10
54.28325380295733
 20
18.69918811954802
 30
0
 10
54.28679774267945
 20
18.67893618259655
 30
0
  0
SPLINE
  5
97
100
AcDbEntity
  8
0
  6
ByLayer
 62
  256
370
   -1
100
AcDbSpline
210
0
220
0
230
0
 70
    8
 71
    3
 72
    8
 73
    4
 74
    0
 42
1e-007
 43
1e-007
 40
0
 40
0
 40
0
 40
0
 40
1
 40
1
 40
1
 40
1
 10
54.28679774267945
 20
18.67893618259655
 30
0
 10
54.30184860043707
 20
18.59286430927221
 30
0
 10
54.3969415070077
 20
18.57900986477591
 30
0
 10
54.56572532348781
 20
18.63829359920193
 30
0
  0
SPLINE
  5
98
100
AcDbEntity
  8
0
  6
ByLayer
 62
  256
370
   -1
100
AcDbSpline
210
0
220
0
230
0
 70
    8
 71
    3
 72
    8
 73
    4
 74
    0
 42
1e-007
 43
1e-007
 40
0
 40
0
 40
0
 40
0
 40
1
 40
1
 40
1
 40
1
 10
54.56572532348781
 20
18.63829359920193
 30
0
 10
54.72309422670921
 20
18.69352666530704
 30
0
 10
54.81192729682655
 20
18.70889989094663
 30
0
 10
55.27455119354423
 20
18.76095738759999
 30
0
  0
SPLINE
  5
99
100
AcDbEntity
  8
0
  6
ByLayer
 62
  256
370
   -1
100
AcDbSpline
210
0
220
0
230
0
 70
    8
 71
    3
 72
    8
 73
    4
 74
    0
 42
1e-007
 43
1e-007
 40
0
 40
0
 40
0
 40
0
 40
1
 40
1
 40
1
 40
1
 10
55.27455119354423
 20
18.76095738759999
 30
0
 10
56.36020615481411
 20
18.88311479856253
 30
0
 10
56.63756895209079
 20
18.88311479856253
 30
0
 10
57.72322391336067
 20
18.76095738759999
 30
0
  0
SPLINE
  5
9A
100
AcDbEntity
  8
0
  6
ByLayer
 62
  256
370
   -1
100
AcDbSpline
210
0
220
0
230
0
 70
    8
 71
    3
 72
    8
 73
    4
 74
    0
 42
1e-007
 43
1e-007
 40
0
 40
0
 40
0
 40
0
 40
1
 40
1
 40
1
 40
1
 10
57.72322391336067
 20
18.76095738759999
 30
0
 10
58.18584781007834
 20
18.70889989094663
 30
0
 10
58.27468088019569
 20
18.69352666530704
 30
0
 10
58.43204978341709
 20
18.63829359920193
 30
0
  0
SPLINE
  5
9B
100
AcDbEntity
  8
0
  6
ByLayer
 62
  256
370
   -1
100
AcDbSpline
210
0
220
0
230
0
 70
    8
 71
    3
 72
    8
 73
    4
 74
    0
 42
1e-007
 43
1e-007
 40
0
 40
0
 40
0
 40
0
 40
1
 40
1
 40
1
 40
1
 10
58.43204978341709
 20
18.63829359920193
 30
0
 10
58.6008335998972
 20
18.57900986477591
 30
0
 10
58.69592650646783
 20
18.59286430927221
 30
0
 10
58.71097736422545
 20
18.67893618259655
 30
0
  0
SPLINE
  5
9C
100
AcDbEntity
  8
0
  6
ByLayer
 62
  256
370
   -1
100
AcDbSpline
210
0
220
0
230
0
 70
    8
 71
    3
 72
    8
 73
    4
 74
    0
 42
1e-007
 43
1e-007
 40
0
 40
0
 40
0
 40
0
 40
1
 40
1
 40
1
 40
1
 10
58.71097736422545
 20
18.67893618259655
 30
0
 10
58.71452130394756
 20
18.69918811954802
 30
0
 10
58.73058491657623
 20
18.72565424172764
 30
0
 10
58.74669488275656
 20
18.73775954197544
 30
0
  0
SPLINE
  5
9D
100
AcDbEntity
  8
0
  6
ByLayer
 62
  256
370
   -1
100
AcDbSpline
210
0
220
0
230
0
 70
    8
 71
    3
 72
    8
 73
    4
 74
    0
 42
1e-007
 43
1e-007
 40
0
 40
0
 40
0
 40
0
 40
1
 40
1
 40
1
 40
1
 10
58.74669488275656
 20
18.73775954197544
 30
0
 10
58.78268841561798
 20
18.7647776928157
 30
0
 10
59.16642067439557
 20
19.26357948311161
 30
0
 10
59.21521129914694
 20
19.34679745253964
 30
0
  0
SPLINE
  5
9E
100
AcDbEntity
  8
0
  6
ByLayer
 62
  256
370
   -1
100
AcDbSpline
210
0
220
0
230
0
 70
    8
 71
    3
 72
    8
 73
    4
 74
    0
 42
1e-007
 43
1e-007
 40
0
 40
0
 40
0
 40
0
 40
1
 40
1
 40
1
 40
1
 10
59.21521129914694
 20
19.34679745253964
 30
0
 10
59.26086954752879
 20
19.4245383284435
 30
0
 10
59.23932919253923
 20
19.46126825068238
 30
0
 10
59.13019748075549
 20
19.49160068046609
 30
0
  0
SPLINE
  5
9F
100
AcDbEntity
  8
0
  6
ByLayer
 62
  256
370
   -1
100
AcDbSpline
210
0
220
0
230
0
 70
    8
 71
    3
 72
    8
 73
    4
 74
    0
 42
1e-007
 43
1e-007
 40
0
 40
0
 40
0
 40
0
 40
1
 40
1
 40
1
 40
1
 10
59.13019748075549
 20
19.49160068046609
 30
0
 10
59.08541292658973
 20
19.5040279974326
 30
0
 10
58.98668337319367
 20
19.53132251376645
 30
0
 10
58.91073729276342
 20
19.55217318409348
 30
0
  0
SPLINE
  5
A0
100
AcDbEntity
  8
0
  6
ByLayer
 62
  256
370
   -1
100
AcDbSpline
210
0
220
0
230
0
 70
    8
 71
    3
 72
    8
 73
    4
 74
    0
 42
1e-007
 43
1e-007
 40
0
 40
0
 40
0
 40
0
 40
1
 40
1
 40
1
 40
1
 10
58.91073729276342
 20
19.55217318409348
 30
0
 10
58.65988662005475
 20
19.6212146923065
 30
0
 10
58.19643397801958
 20
19.68169483999384
 30
0
 10
57.50229094661368
 20
19.73596150477956
 30
0
  0
SPLINE
  5
A1
100
AcDbEntity
  8
0
  6
ByLayer
 62
  256
370
   -1
100
AcDbSpline
210
0
220
0
230
0
 70
    8
 71
    3
 72
    8
 73
    4
 74
    0
 42
1e-007
 43
1e-007
 40
0
 40
0
 40
0
 40
0
 40
1
 40
1
 40
1
 40
1
 10
57.50229094661368
 20
19.73596150477956
 30
0
 10
57.24743560797249
 20
19.7559374274007
 30
0
 10
55.74504606379853
 20
19.75556940829361
 30
0
 10
55.48627876632811
 20
19.73550112973242
 30
0
  0
SPLINE
  5
A2
100
AcDbEntity
  8
0
  6
ByLayer
 62
  256
370
   -1
100
AcDbSpline
210
0
220
0
230
0
 70
    8
 71
    3
 72
    8
 73
    4
 74
    0
 42
1e-007
 43
1e-007
 40
0
 40
0
 40
0
 40
0
 40
1
 40
1
 40
1
 40
1
 10
57.3741037111398
 20
19.58103248395901
 30
0
 10
57.87249147994024
 20
19.53937749685661
 30
0
 10
58.99759190901688
 20
19.37588711551037
 30
0
 10
59.03828049479989
 20
19.33924919804827
 30
0
  0
SPLINE
  5
A3
100
AcDbEntity
  8
0
  6
ByLayer
 62
  256
370
   -1
100
AcDbSpline
210
0
220
0
230
0
 70
    8
 71
    3
 72
    8
 73
    4
 74
    0
 42
1e-007
 43
1e-007
 40
0
 40
0
 40
0
 40
0
 40
1
 40
1
 40
1
 40
1
 10
59.03828049479989
 20
19.33924919804827
 30
0
 10
59.04260682628785
 20
19.33533653689252
 30
0
 10
59.02543845401137
 20
19.30946914808846
 30
0
 10
59.00016944741961
 20
19.28171460787075
 30
0
  0
SPLINE
  5
A4
100
AcDbEntity
  8
0
  6
ByLayer
 62
  256
370
   -1
100
AcDbSpline
210
0
220
0
230
0
 70
    8
 71
    3
 72
    8
 73
    4
 74
    0
 42
1e-007
 43
1e-007
 40
0
 40
0
 40
0
 40
0
 40
1
 40
1
 40
1
 40
1
 10
59.00016944741961
 20
19.28171460787075
 30
0
 10
58.94194447025302
 20
19.21782817646319
 30
0
 10
58.78858023296416
 20
19.01788388720839
 30
0
 10
58.71263415253391
 20
18.90677301923422
 30
0
  0
LINE
  5
A5
100
AcDbEntity
  8
0
  6
ByLayer
 62
  256
370
   -1
100
AcDbLine
 10
58.71263415253391
 20
18.90677301923422
 11
58.65436352414221
 21
18.82162189600415
  0
LINE
  5
A6
100
AcDbEntity
  8
0
  6
ByLayer
 62
  256
370
   -1
100
AcDbLine
 10
58.65436352414221
 20
18.82162189600415
 11
58.54780935076118
 21
18.84555613100616
  0
SPLINE
  5
A7
100
AcDbEntity
  8
0
  6
ByLayer
 62
  256
370
   -1
100
AcDbSpline
210
0
220
0
230
0
 70
    8
 71
    3
 72
    8
 73
    4
 74
    0
 42
1e-007
 43
1e-007
 40
0
 40
0
 40
0
 40
0
 40
1
 40
1
 40
1
 40
1
 10
58.54780935076118
 20
18.84555613100616
 30
0
 10
58.4892163544875
 20
18.85872018851338
 30
0
 10
58.34597826125601
 20
18.87823573608739
 30
0
 10
58.22952830692283
 20
18.88891425996867
 30
0
  0
SPLINE
  5
A8
100
AcDbEntity
  8
0
  6
ByLayer
 62
  256
370
   -1
100
AcDbSpline
210
0
220
0
230
0
 70
    8
 71
    3
 72
    8
 73
    4
 74
    0
 42
1e-007
 43
1e-007
 40
0
 40
0
 40
0
 40
0
 40
1
 40
1
 40
1
 40
1
 10
58.22952830692283
 20
18.88891425996867
 30
0
 10
57.85891340093752
 20
18.92297463902804
 30
0
 10
57.67240918352029
 20
18.94557445360357
 30
0
 10
57.50229094661368
 20
18.97705729426022
 30
0
  0
SPLINE
  5
A9
100
AcDbEntity
  8
0
  6
ByLayer
 62
  256
370
   -1
100
AcDbSpline
210
0
220
0
230
0
 70
    8
 71
    3
 72
    8
 73
    4
 74
    0
 42
1e-007
 43
1e-007
 40
0
 40
0
 40
0
 40
0
 40
1
 40
1
 40
1
 40
1
 10
57.50229094661368
 20
18.97705729426022
 30
0
 10
57.25756175202985
 20
19.0223025746364
 30
0
 10
55.74021335487504
 20
19.0223025746364
 30
0
 10
55.49548416029121
 20
18.97705729426022
 30
0
  0
SPLINE
  5
AA
100
AcDbEntity
  8
0
  6
ByLayer
 62
  256
370
   -1
100
AcDbSpline
210
0
220
0
230
0
 70
    8
 71
    3
 72
    8
 73
    4
 74
    0
 42
1e-007
 43
1e-007
 40
0
 40
0
 40
0
 40
0
 40
1
 40
1
 40
1
 40
1
 10
55.49548416029121
 20
18.97705729426022
 30
0
 10
55.32536592338461
 20
18.94557445360357
 30
0
 10
55.13886170596736
 20
18.92297463902804
 30
0
 10
54.76824679998206
 20
18.88891425996867
 30
0
  0
SPLINE
  5
AB
100
AcDbEntity
  8
0
  6
ByLayer
 62
  256
370
   -1
100
AcDbSpline
210
0
220
0
230
0
 70
    8
 71
    3
 72
    8
 73
    4
 74
    0
 42
1e-007
 43
1e-007
 40
0
 40
0
 40
0
 40
0
 40
1
 40
1
 40
1
 40
1
 10
54.76824679998206
 20
18.88891425996867
 30
0
 10
54.65179684564889
 20
18.87823573608739
 30
0
 10
54.50855875241739
 20
18.85872018851338
 30
0
 10
54.44996575614371
 20
18.84555613100616
 30
0
  0
LINE
  5
AC
100
AcDbEntity
  8
0
  6
ByLayer
 62
  256
370
   -1
100
AcDbLine
 10
54.44996575614371
 20
18.84555613100616
 11
54.3434115827627
 21
18.82162189600414
  0
LINE
  5
AD
100
AcDbEntity
  8
0
  6
ByLayer
 62
  256
370
   -1
100
AcDbLine
 10
54.3434115827627
 20
18.82162189600414
 11
54.28514095437099
 21
18.90677301923422
  0
SPLINE
  5
AE
100
AcDbEntity
  8
0
  6
ByLayer
 62
  256
370
   -1
100
AcDbSpline
210
0
220
0
230
0
 70
    8
 71
    3
 72
    8
 73
    4
 74
    0
 42
1e-007
 43
1e-007
 40
0
 40
0
 40
0
 40
0
 40
1
 40
1
 40
1
 40
1
 10
54.28514095437099
 20
18.90677301923422
 30
0
 10
54.20919487394074
 20
19.01788388720839
 30
0
 10
54.05583063665187
 20
19.21782817646319
 30
0
 10
53.99760565948529
 20
19.28171460787075
 30
0
  0
SPLINE
  5
AF
100
AcDbEntity
  8
0
  6
ByLayer
 62
  256
370
   -1
100
AcDbSpline
210
0
220
0
230
0
 70
    8
 71
    3
 72
    8
 73
    4
 74
    0
 42
1e-007
 43
1e-007
 40
0
 40
0
 40
0
 40
0
 40
1
 40
1
 40
1
 40
1
 10
53.99760565948529
 20
19.28171460787075
 30
0
 10
53.93804626189222
 20
19.34707381803323
 30
0
 10
53.90444555555344
 20
19.33542889283256
 30
0
 10
54.40002542284594
 20
19.42122440066332
 30
0
  0
SPLINE
  5
B0
100
AcDbEntity
  8
0
  6
ByLayer
 62
  256
370
   -1
100
AcDbSpline
210
0
220
0
230
0
 70
    8
 71
    3
 72
    8
 73
    4
 74
    0
 42
1e-007
 43
1e-007
 40
0
 40
0
 40
0
 40
0
 40
1
 40
1
 40
1
 40
1
 10
54.40002542284594
 20
19.42122440066332
 30
0
 10
55.43362323862574
 20
19.60013401003754
 30
0
 10
56.47587371738144
 20
19.65614946790849
 30
0
 10
57.3741037111398
 20
19.58103248395901
 30
0
  0
SPLINE
  5
B1
100
AcDbEntity
  8
0
  6
ByLayer
 62
  256
370
   -1
100
AcDbSpline
210
0
220
0
230
0
 70
    8
 71
    3
 72
    8
 73
    4
 74
    0
 42
1e-007
 43
1e-007
 40
0
 40
0
 40
0
 40
0
 40
1
 40
1
 40
1
 40
1
 10
52.72461843780721
 20
18.3624959366202
 30
0
 10
52.59813434419344
 20
18.3415532615164
 30
0
 10
52.31566247249969
 20
18.23950978034016
 30
0
 10
52.29573255226693
 20
18.20756656463638
 30
0
  0
SPLINE
  5
B2
100
AcDbEntity
  8
0
  6
ByLayer
 62
  256
370
   -1
100
AcDbSpline
210
0
220
0
230
0
 70
    8
 71
    3
 72
    8
 73
    4
 74
    0
 42
1e-007
 43
1e-007
 40
0
 40
0
 40
0
 40
0
 40
1
 40
1
 40
1
 40
1
 10
52.29573255226693
 20
18.20756656463638
 30
0
 10
52.28371925679591
 20
18.18837303378108
 30
0
 10
52.26480209143419
 20
18.17263178903439
 30
0
 10
52.2536171901174
 20
18.17263178903439
 30
0
  0
SPLINE
  5
B3
100
AcDbEntity
  8
0
  6
ByLayer
 62
  256
370
   -1
100
AcDbSpline
210
0
220
0
230
0
 70
    8
 71
    3
 72
    8
 73
    4
 74
    0
 42
1e-007
 43
1e-007
 40
0
 40
0
 40
0
 40
0
 40
1
 40
1
 40
1
 40
1
 10
52.2536171901174
 20
18.17263178903439
 30
0
 10
52.22480389264025
 20
18.17263178903439
 30
0
 10
51.9248876343397
 20
17.96306773315775
 30
0
 10
51.80056705763317
 20
17.85600718234122
 30
0
  0
SPLINE
  5
B4
100
AcDbEntity
  8
0
  6
ByLayer
 62
  256
370
   -1
100
AcDbSpline
210
0
220
0
230
0
 70
    8
 71
    3
 72
    8
 73
    4
 74
    0
 42
1e-007
 43
1e-007
 40
0
 40
0
 40
0
 40
0
 40
1
 40
1
 40
1
 40
1
 10
51.80056705763317
 20
17.85600718234122
 30
0
 10
51.4121393947707
 20
17.52170817709931
 30
0
 10
51.17270328415749
 20
16.89462714655274
 30
0
 10
51.23161899947642
 20
16.36613766223707
 30
0
  0
SPLINE
  5
B5
100
AcDbEntity
  8
0
  6
ByLayer
 62
  256
370
   -1
100
AcDbSpline
210
0
220
0
230
0
 70
    8
 71
    3
 72
    8
 73
    4
 74
    0
 42
1e-007
 43
1e-007
 40
0
 40
0
 40
0
 40
0
 40
1
 40
1
 40
1
 40
1
 10
51.23161899947642
 20
16.36613766223707
 30
0
 10
51.26296383296791
 20
16.08481655257952
 30
0
 10
51.3983309526628
 20
15.69017505565217
 30
0
 10
51.50239959241786
 20
15.57667065882881
 30
0
  0
SPLINE
  5
B6
100
AcDbEntity
  8
0
  6
ByLayer
 62
  256
370
   -1
100
AcDbSpline
210
0
220
0
230
0
 70
    8
 71
    3
 72
    8
 73
    4
 74
    0
 42
1e-007
 43
1e-007
 40
0
 40
0
 40
0
 40
0
 40
1
 40
1
 40
1
 40
1
 10
51.50239959241786
 20
15.57667065882881
 30
0
 10
51.51630003930254
 20
15.5614821450693
 30
0
 10
51.54787488473595
 20
15.52369276324445
 30
0
 10
51.57254586027869
 20
15.49267029763494
 30
0
  0
LINE
  5
B7
100
AcDbEntity
  8
0
  6
ByLayer
 62
  256
370
   -1
100
AcDbLine
 10
51.57254586027869
 20
15.49267029763494
 11
51.61742277038451
 21
15.4362868206569
  0
LINE
  5
B8
100
AcDbEntity
  8
0
  6
ByLayer
 62
  256
370
   -1
100
AcDbLine
 10
51.61742277038451
 20
15.4362868206569
 11
51.54041863502136
 21
15.35196409158105
  0
SPLINE
  5
B9
100
AcDbEntity
  8
0
  6
ByLayer
 62
  256
370
   -1
100
AcDbSpline
210
0
220
0
230
0
 70
    8
 71
    3
 72
    8
 73
    4
 74
    0
 42
1e-007
 43
1e-007
 40
0
 40
0
 40
0
 40
0
 40
1
 40
1
 40
1
 40
1
 10
51.54041863502137
 20
15.35196409158105
 30
0
 10
51.49811891215501
 20
15.30561405155706
 30
0
 10
51.40353203185664
 20
15.20255816667305
 30
0
 10
51.33034820170921
 20
15.12297614174391
 30
0
  0
SPLINE
  5
BA
100
AcDbEntity
  8
0
  6
ByLayer
 62
  256
370
   -1
100
AcDbSpline
210
0
220
0
230
0
 70
    8
 71
    3
 72
    8
 73
    4
 74
    0
 42
1e-007
 43
1e-007
 40
0
 40
0
 40
0
 40
0
 40
1
 40
1
 40
1
 40
1
 10
51.33034820170921
 20
15.12297614174391
 30
0
 10
51.07171856024068
 20
14.84193104641668
 30
0
 10
51.01294120325019
 20
14.77565108615993
 30
0
 10
51.01266518891988
 20
14.7648345551135
 30
0
  0
SPLINE
  5
BB
100
AcDbEntity
  8
0
  6
ByLayer
 62
  256
370
   -1
100
AcDbSpline
210
0
220
0
230
0
 70
    8
 71
    3
 72
    8
 73
    4
 74
    0
 42
1e-007
 43
1e-007
 40
0
 40
0
 40
0
 40
0
 40
1
 40
1
 40
1
 40
1
 10
51.01266518891988
 20
14.7648345551135
 30
0
 10
51.01252718175472
 20
14.75880508176543
 30
0
 10
50.99167651142768
 20
14.72980812589801
 30
0
 10
50.96631550005915
 20
14.70039609504529
 30
0
  0
SPLINE
  5
BC
100
AcDbEntity
  8
0
  6
ByLayer
 62
  256
370
   -1
100
AcDbSpline
210
0
220
0
230
0
 70
    8
 71
    3
 72
    8
 73
    4
 74
    0
 42
1e-007
 43
1e-007
 40
0
 40
0
 40
0
 40
0
 40
1
 40
1
 40
1
 40
1
 10
50.96631550005915
 20
14.70039609504529
 30
0
 10
50.94100013991573
 20
14.67098476651912
 30
0
 10
50.88921900875597
 20
14.60258729174351
 30
0
 10
50.85124631970412
 20
14.54836698050945
 30
0
  0
SPLINE
  5
BD
100
AcDbEntity
  8
0
  6
ByLayer
 62
  256
370
   -1
100
AcDbSpline
210
0
220
0
230
0
 70
    8
 71
    3
 72
    8
 73
    4
 74
    0
 42
1e-007
 43
1e-007
 40
0
 40
0
 40
0
 40
0
 40
1
 40
1
 40
1
 40
1
 10
50.85124631970412
 20
14.54836698050945
 30
0
 10
50.81331928187738
 20
14.4941923205005
 30
0
 10
50.75946698975041
 20
14.42266527866152
 30
0
 10
50.73162009359265
 20
14.38943329375637
 30
0
  0
SPLINE
  5
BE
100
AcDbEntity
  8
0
  6
ByLayer
 62
  256
370
   -1
100
AcDbSpline
210
0
220
0
230
0
 70
    8
 71
    3
 72
    8
 73
    4
 74
    0
 42
1e-007
 43
1e-007
 40
0
 40
0
 40
0
 40
0
 40
1
 40
1
 40
1
 40
1
 10
50.73162009359265
 20
14.38943329375637
 30
0
 10
50.70377354859816
 20
14.35624696007634
 30
0
 10
50.68098972446909
 20
14.32361335738349
 30
0
 10
50.68098972446909
 20
14.31689349704635
 30
0
  0
SPLINE
  5
BF
100
AcDbEntity
  8
0
  6
ByLayer
 62
  256
370
   -1
100
AcDbSpline
210
0
220
0
230
0
 70
    8
 71
    3
 72
    8
 73
    4
 74
    0
 42
1e-007
 43
1e-007
 40
0
 40
0
 40
0
 40
0
 40
1
 40
1
 40
1
 40
1
 10
50.68098972446909
 20
14.31689349704635
 30
0
 10
50.68098972446909
 20
14.31021928793433
 30
0
 10
50.66575450599465
 20
14.28840221628791
 30
0
 10
50.64711335496326
 20
14.26842664483004
 30
0
  0
SPLINE
  5
C0
100
AcDbEntity
  8
0
  6
ByLayer
 62
  256
370
   -1
100
AcDbSpline
210
0
220
0
230
0
 70
    8
 71
    3
 72
    8
 73
    4
 74
    0
 42
1e-007
 43
1e-007
 40
0
 40
0
 40
0
 40
0
 40
1
 40
1
 40
1
 40
1
 10
50.64711335496326
 20
14.26842664483004
 30
0
 10
50.62847220393186
 20
14.24840471982051
 30
0
 10
50.60159206025676
 20
14.20941927589761
 30
0
 10
50.58741559904176
 20
14.18171038690501
 30
0
  0
SPLINE
  5
C1
100
AcDbEntity
  8
0
  6
ByLayer
 62
  256
370
   -1
100
AcDbSpline
210
0
220
0
230
0
 70
    8
 71
    3
 72
    8
 73
    4
 74
    0
 42
1e-007
 43
1e-007
 40
0
 40
0
 40
0
 40
0
 40
1
 40
1
 40
1
 40
1
 10
50.58741559904176
 20
14.18171038690501
 30
0
 10
50.57319313543837
 20
14.15404785146407
 30
0
 10
50.49480787493381
 20
14.03198209411503
 30
0
 10
50.41324669381424
 20
13.91046906775317
 30
0
  0
SPLINE
  5
C2
100
AcDbEntity
  8
0
  6
ByLayer
 62
  256
370
   -1
100
AcDbSpline
210
0
220
0
230
0
 70
    8
 71
    3
 72
    8
 73
    4
 74
    0
 42
1e-007
 43
1e-007
 40
0
 40
0
 40
0
 40
0
 40
1
 40
1
 40
1
 40
1
 10
50.41324669381424
 20
13.91046906775317
 30
0
 10
50.33168586385795
 20
13.78895604139131
 30
0
 10
50.24068892567008
 20
13.648111477009
 30
0
 10
50.2110472340387
 20
13.59748075672216
 30
0
  0
SPLINE
  5
C3
100
AcDbEntity
  8
0
  6
ByLayer
 62
  256
370
   -1
100
AcDbSpline
210
0
220
0
230
0
 70
    8
 71
    3
 72
    8
 73
    4
 74
    0
 42
1e-007
 43
1e-007
 40
0
 40
0
 40
0
 40
0
 40
1
 40
1
 40
1
 40
1
 10
50.2110472340387
 20
13.59748075672216
 30
0
 10
50.18145154479572
 20
13.54685073876187
 30
0
 10
50.14246610087282
 20
13.48057077850512
 30
0
 10
50.12446915886046
 20
13.45019234633302
 30
0
  0
SPLINE
  5
C4
100
AcDbEntity
  8
0
  6
ByLayer
 62
  256
370
   -1
100
AcDbSpline
210
0
220
0
230
0
 70
    8
 71
    3
 72
    8
 73
    4
 74
    0
 42
1e-007
 43
1e-007
 40
0
 40
0
 40
0
 40
0
 40
1
 40
1
 40
1
 40
1
 10
50.12446915886046
 20
13.45019234633302
 30
0
 10
49.99342837065355
 20
13.22884570925383
 30
0
 10
49.8587054599777
 20
12.84235120019341
 30
0
 10
49.88507922621728
 20
12.76327555269979
 30
0
  0
SPLINE
  5
C5
100
AcDbEntity
  8
0
  6
ByLayer
 62
  256
370
   -1
100
AcDbSpline
210
0
220
0
230
0
 70
    8
 71
    3
 72
    8
 73
    4
 74
    0
 42
1e-007
 43
1e-007
 40
0
 40
0
 40
0
 40
0
 40
1
 40
1
 40
1
 40
1
 10
49.88507922621728
 20
12.76327555269979
 30
0
 10
49.90464112734294
 20
12.70459055164934
 30
0
 10
50.49425549510991
 20
12.24537223632535
 30
0
 10
50.83748387998459
 20
12.02149371206855
 30
0
  0
SPLINE
  5
C6
100
AcDbEntity
  8
0
  6
ByLayer
 62
  256
370
   -1
100
AcDbSpline
210
0
220
0
230
0
 70
    8
 71
    3
 72
    8
 73
    4
 74
    0
 42
1e-007
 43
1e-007
 40
0
 40
0
 40
0
 40
0
 40
1
 40
1
 40
1
 40
1
 10
50.83748387998459
 20
12.02149371206855
 30
0
 10
51.32252358172424
 20
11.70509911731731
 30
0
 10
51.53659832980566
 20
11.57958212734947
 30
0
 10
51.98817568353497
 20
11.34677422345989
 30
0
  0
SPLINE
  5
C7
100
AcDbEntity
  8
0
  6
ByLayer
 62
  256
370
   -1
100
AcDbSpline
210
0
220
0
230
0
 70
    8
 71
    3
 72
    8
 73
    4
 74
    0
 42
1e-007
 43
1e-007
 40
0
 40
0
 40
0
 40
0
 40
1
 40
1
 40
1
 40
1
 10
51.98817568353497
 20
11.34677422345989
 30
0
 10
52.11475178192551
 20
11.28150701807419
 30
0
 10
52.24731135127573
 20
11.21310884097204
 30
0
 10
52.28275285547652
 20
11.19474440659751
 30
0
  0
SPLINE
  5
C8
100
AcDbEntity
  8
0
  6
ByLayer
 62
  256
370
   -1
100
AcDbSpline
210
0
220
0
230
0
 70
    8
 71
    3
 72
    8
 73
    4
 74
    0
 42
1e-007
 43
1e-007
 40
0
 40
0
 40
0
 40
0
 40
1
 40
1
 40
1
 40
1
 10
52.28275285547652
 20
11.19474440659751
 30
0
 10
52.63647540351566
 20
11.01160011934883
 30
0
 10
54.09615120332779
 20
10.34134602288311
 30
0
 10
54.28035389667262
 20
10.27750454037412
 30
0
  0
SPLINE
  5
C9
100
AcDbEntity
  8
0
  6
ByLayer
 62
  256
370
   -1
100
AcDbSpline
210
0
220
0
230
0
 70
    8
 71
    3
 72
    8
 73
    4
 74
    0
 42
1e-007
 43
1e-007
 40
0
 40
0
 40
0
 40
0
 40
1
 40
1
 40
1
 40
1
 10
54.28035389667262
 20
10.27750454037412
 30
0
 10
54.31073232884473
 20
10.266964023658
 30
0
 10
54.39772460110007
 20
10.23244326955149
 30
0
 10
54.47366997920378
 20
10.20077677050457
 30
0
  0
SPLINE
  5
CA
100
AcDbEntity
  8
0
  6
ByLayer
 62
  256
370
   -1
100
AcDbSpline
210
0
220
0
230
0
 70
    8
 71
    3
 72
    8
 73
    4
 74
    0
 42
1e-007
 43
1e-007
 40
0
 40
0
 40
0
 40
0
 40
1
 40
1
 40
1
 40
1
 10
54.47366997920378
 20
10.20077677050457
 30
0
 10
54.54961535730749
 20
10.16911027145764
 30
0
 10
54.68217527782099
 20
10.11792752251017
 30
0
 10
54.76824679998206
 20
10.08699706167743
 30
0
  0
SPLINE
  5
CB
100
AcDbEntity
  8
0
  6
ByLayer
 62
  256
370
   -1
100
AcDbSpline
210
0
220
0
230
0
 70
    8
 71
    3
 72
    8
 73
    4
 74
    0
 42
1e-007
 43
1e-007
 40
0
 40
0
 40
0
 40
0
 40
1
 40
1
 40
1
 40
1
 10
54.76824679998206
 20
10.08699706167743
 30
0
 10
54.85431902446968
 20
10.05606660084469
 30
0
 10
55.00344823272081
 20
10.00207595038929
 30
0
 10
55.0996466012658
 20
9.966956814070487
 30
0
  0
SPLINE
  5
CC
100
AcDbEntity
  8
0
  6
ByLayer
 62
  256
370
   -1
100
AcDbSpline
210
0
220
0
230
0
 70
    8
 71
    3
 72
    8
 73
    4
 74
    0
 42
1e-007
 43
1e-007
 40
0
 40
0
 40
0
 40
0
 40
1
 40
1
 40
1
 40
1
 10
55.0996466012658
 20
9.966956814070487
 30
0
 10
55.19584426748425
 20
9.931882626650257
 30
0
 10
55.3076911736726
 20
9.893312257712648
 30
0
 10
55.34819574990208
 20
9.881253311016504
 30
0
  0
SPLINE
  5
CD
100
AcDbEntity
  8
0
  6
ByLayer
 62
  256
370
   -1
100
AcDbSpline
210
0
220
0
230
0
 70
    8
 71
    3
 72
    8
 73
    4
 74
    0
 42
1e-007
 43
1e-007
 40
0
 40
0
 40
0
 40
0
 40
1
 40
1
 40
1
 40
1
 10
55.34819574990208
 20
9.881253311016504
 30
0
 10
55.38870032613153
 20
9.869192959667281
 30
0
 10
55.4839772422557
 20
9.837526460620358
 30
0
 10
55.55992332268595
 20
9.810831028825344
 30
0
  0
SPLINE
  5
CE
100
AcDbEntity
  8
0
  6
ByLayer
 62
  256
370
   -1
100
AcDbSpline
210
0
220
0
230
0
 70
    8
 71
    3
 72
    8
 73
    4
 74
    0
 42
1e-007
 43
1e-007
 40
0
 40
0
 40
0
 40
0
 40
1
 40
1
 40
1
 40
1
 10
55.55992332268595
 20
9.810831028825344
 30
0
 10
55.63586870078966
 20
9.784180545928907
 30
0
 10
55.79328325523618
 20
9.736220071148116
 30
0
 10
55.90973320956935
 20
9.704230501892678
 30
0
  0
SPLINE
  5
CF
100
AcDbEntity
  8
0
  6
ByLayer
 62
  256
370
   -1
100
AcDbSpline
210
0
220
0
230
0
 70
    8
 71
    3
 72
    8
 73
    4
 74
    0
 42
1e-007
 43
1e-007
 40
0
 40
0
 40
0
 40
0
 40
1
 40
1
 40
1
 40
1
 10
55.90973320956935
 20
9.704230501892678
 30
0
 10
56.02618316390252
 20
9.672287286188892
 30
0
 10
56.17945539641462
 20
9.628790798897951
 30
0
 10
56.25033840481619
 20
9.607664816567141
 30
0
  0
SPLINE
  5
D0
100
AcDbEntity
  8
0
  6
ByLayer
 62
  256
370
   -1
100
AcDbSpline
210
0
220
0
230
0
 70
    8
 71
    3
 72
    8
 73
    4
 74
    0
 42
1e-007
 43
1e-007
 40
0
 40
0
 40
0
 40
0
 40
1
 40
1
 40
1
 40
1
 10
56.25033840481619
 20
9.607664816567141
 30
0
 10
56.32352223496362
 20
9.585801391369069
 30
0
 10
56.43090445133559
 20
9.569185750079765
 30
0
 10
56.49888755345245
 20
9.569185750079765
 30
0
  0
SPLINE
  5
D1
100
AcDbEntity
  8
0
  6
ByLayer
 62
  256
370
   -1
100
AcDbSpline
210
0
220
0
230
0
 70
    8
 71
    3
 72
    8
 73
    4
 74
    0
 42
1e-007
 43
1e-007
 40
0
 40
0
 40
0
 40
0
 40
1
 40
1
 40
1
 40
1
 10
56.49888755345245
 20
9.569185750079765
 30
0
 10
56.56687065556931
 20
9.569185750079765
 30
0
 10
56.67425287194128
 20
9.585801391369069
 30
0
 10
56.74743670208871
 20
9.607664816567141
 30
0
  0
SPLINE
  5
D2
100
AcDbEntity
  8
0
  6
ByLayer
 62
  256
370
   -1
100
AcDbSpline
210
0
220
0
230
0
 70
    8
 71
    3
 72
    8
 73
    4
 74
    0
 42
1e-007
 43
1e-007
 40
0
 40
0
 40
0
 40
0
 40
1
 40
1
 40
1
 40
1
 10
56.74743670208871
 20
9.607664816567141
 30
0
 10
56.81831971049028
 20
9.628790798897951
 30
0
 10
56.97159194300237
 20
9.672287286188892
 30
0
 10
57.08804189733555
 20
9.704230501892678
 30
0
  0
SPLINE
  5
D3
100
AcDbEntity
  8
0
  6
ByLayer
 62
  256
370
   -1
100
AcDbSpline
210
0
220
0
230
0
 70
    8
 71
    3
 72
    8
 73
    4
 74
    0
 42
1e-007
 43
1e-007
 40
0
 40
0
 40
0
 40
0
 40
1
 40
1
 40
1
 40
1
 10
57.08804189733555
 20
9.704230501892678
 30
0
 10
57.20449185166872
 20
9.736220071148116
 30
0
 10
57.36190640611524
 20
9.784180545928907
 30
0
 10
57.43785178421894
 20
9.810831028825344
 30
0
  0
SPLINE
  5
D4
100
AcDbEntity
  8
0
  6
ByLayer
 62
  256
370
   -1
100
AcDbSpline
210
0
220
0
230
0
 70
    8
 71
    3
 72
    8
 73
    4
 74
    0
 42
1e-007
 43
1e-007
 40
0
 40
0
 40
0
 40
0
 40
1
 40
1
 40
1
 40
1
 10
57.43785178421894
 20
9.810831028825344
 30
0
 10
57.51379786464919
 20
9.837526460620358
 30
0
 10
57.60907478077335
 20
9.869192959667281
 30
0
 10
57.64957935700282
 20
9.881253311016504
 30
0
  0
SPLINE
  5
D5
100
AcDbEntity
  8
0
  6
ByLayer
 62
  256
370
   -1
100
AcDbSpline
210
0
220
0
230
0
 70
    8
 71
    3
 72
    8
 73
    4
 74
    0
 42
1e-007
 43
1e-007
 40
0
 40
0
 40
0
 40
0
 40
1
 40
1
 40
1
 40
1
 10
57.64957935700282
 20
9.881253311016504
 30
0
 10
57.69008393323229
 20
9.893312257712648
 30
0
 10
57.80193083942065
 20
9.931882626650257
 30
0
 10
57.89812850563909
 20
9.966956814070487
 30
0
  0
SPLINE
  5
D6
100
AcDbEntity
  8
0
  6
ByLayer
 62
  256
370
   -1
100
AcDbSpline
210
0
220
0
230
0
 70
    8
 71
    3
 72
    8
 73
    4
 74
    0
 42
1e-007
 43
1e-007
 40
0
 40
0
 40
0
 40
0
 40
1
 40
1
 40
1
 40
1
 10
57.89812850563909
 20
9.966956814070487
 30
0
 10
57.99432687418407
 20
10.00207595038929
 30
0
 10
58.14345608243521
 20
10.05606660084469
 30
0
 10
58.22952830692283
 20
10.08699706167743
 30
0
  0
SPLINE
  5
D7
100
AcDbEntity
  8
0
  6
ByLayer
 62
  256
370
   -1
100
AcDbSpline
210
0
220
0
230
0
 70
    8
 71
    3
 72
    8
 73
    4
 74
    0
 42
1e-007
 43
1e-007
 40
0
 40
0
 40
0
 40
0
 40
1
 40
1
 40
1
 40
1
 10
58.22952830692283
 20
10.08699706167743
 30
0
 10
58.31559982908391
 20
10.11792752251017
 30
0
 10
58.4481597495974
 20
10.16911027145764
 30
0
 10
58.52410512770112
 20
10.20077677050457
 30
0
  0
SPLINE
  5
D8
100
AcDbEntity
  8
0
  6
ByLayer
 62
  256
370
   -1
100
AcDbSpline
210
0
220
0
230
0
 70
    8
 71
    3
 72
    8
 73
    4
 74
    0
 42
1e-007
 43
1e-007
 40
0
 40
0
 40
0
 40
0
 40
1
 40
1
 40
1
 40
1
 10
58.52410512770112
 20
10.20077677050457
 30
0
 10
58.60005050580482
 20
10.23244326955149
 30
0
 10
58.68704277806017
 20
10.266964023658
 30
0
 10
58.71742121023226
 20
10.27750454037412
 30
0
  0
SPLINE
  5
D9
100
AcDbEntity
  8
0
  6
ByLayer
 62
  256
370
   -1
100
AcDbSpline
210
0
220
0
230
0
 70
    8
 71
    3
 72
    8
 73
    4
 74
    0
 42
1e-007
 43
1e-007
 40
0
 40
0
 40
0
 40
0
 40
1
 40
1
 40
1
 40
1
 10
58.71742121023226
 20
10.27750454037412
 30
0
 10
58.9016239035771
 20
10.34134602288311
 30
0
 10
60.3613000545525
 20
11.01160011934883
 30
0
 10
60.71502260259165
 20
11.19474440659751
 30
0
  0
SPLINE
  5
DA
100
AcDbEntity
  8
0
  6
ByLayer
 62
  256
370
   -1
100
AcDbSpline
210
0
220
0
230
0
 70
    8
 71
    3
 72
    8
 73
    4
 74
    0
 42
1e-007
 43
1e-007
 40
0
 40
0
 40
0
 40
0
 40
1
 40
1
 40
1
 40
1
 10
60.71502260259165
 20
11.19474440659751
 30
0
 10
60.75046340446589
 20
11.21310884097204
 30
0
 10
60.88302332497939
 20
11.28150701807419
 30
0
 10
61.00959942336993
 20
11.34677422345989
 30
0
  0
SPLINE
  5
DB
100
AcDbEntity
  8
0
  6
ByLayer
 62
  256
370
   -1
100
AcDbSpline
210
0
220
0
230
0
 70
    8
 71
    3
 72
    8
 73
    4
 74
    0
 42
1e-007
 43
1e-007
 40
0
 40
0
 40
0
 40
0
 40
1
 40
1
 40
1
 40
1
 10
61.00959942336993
 20
11.34677422345989
 30
0
 10
61.46117712826251
 20
11.57958212734947
 30
0
 10
61.67525187634392
 20
11.70509911731731
 30
0
 10
62.16029122692031
 20
12.02149371206855
 30
0
  0
SPLINE
  5
DC
100
AcDbEntity
  8
0
  6
ByLayer
 62
  256
370
   -1
100
AcDbSpline
210
0
220
0
230
0
 70
    8
 71
    3
 72
    8
 73
    4
 74
    0
 42
1e-007
 43
1e-007
 40
0
 40
0
 40
0
 40
0
 40
1
 40
1
 40
1
 40
1
 10
62.16029122692031
 20
12.02149371206855
 30
0
 10
62.50351961179499
 20
12.24537223632535
 30
0
 10
63.09313397956196
 20
12.70459055164934
 30
0
 10
63.11269517836108
 20
12.76327555269979
 30
0
  0
SPLINE
  5
DD
100
AcDbEntity
  8
0
  6
ByLayer
 62
  256
370
   -1
100
AcDbSpline
210
0
220
0
230
0
 70
    8
 71
    3
 72
    8
 73
    4
 74
    0
 42
1e-007
 43
1e-007
 40
0
 40
0
 40
0
 40
0
 40
1
 40
1
 40
1
 40
1
 10
63.11269517836108
 20
12.76327555269979
 30
0
 10
63.13907034925373
 20
12.84235120019341
 30
0
 10
63.00434726299626
 20
13.22884570925383
 30
0
 10
62.87330577246279
 20
13.45019234633302
 30
0
  0
SPLINE
  5
DE
100
AcDbEntity
  8
0
  6
ByLayer
 62
  256
370
   -1
100
AcDbSpline
210
0
220
0
230
0
 70
    8
 71
    3
 72
    8
 73
    4
 74
    0
 42
1e-007
 43
1e-007
 40
0
 40
0
 40
0
 40
0
 40
1
 40
1
 40
1
 40
1
 10
62.87330577246279
 20
13.45019234633302
 30
0
 10
62.85530935719535
 20
13.48057077850512
 30
0
 10
62.81632321094591
 20
13.54685073876187
 30
0
 10
62.78672717053965
 20
13.59748075672216
 30
0
  0
SPLINE
  5
DF
100
AcDbEntity
  8
0
  6
ByLayer
 62
  256
370
   -1
100
AcDbSpline
210
0
220
0
230
0
 70
    8
 71
    3
 72
    8
 73
    4
 74
    0
 42
1e-007
 43
1e-007
 40
0
 40
0
 40
0
 40
0
 40
1
 40
1
 40
1
 40
1
 10
62.78672717053965
 20
13.59748075672216
 30
0
 10
62.75708618123482
 20
13.648111477009
 30
0
 10
62.66608994537349
 20
13.78895604139131
 30
0
 10
62.58452876425392
 20
13.91046906775317
 30
0
  0
SPLINE
  5
E0
100
AcDbEntity
  8
0
  6
ByLayer
 62
  256
370
   -1
100
AcDbSpline
210
0
220
0
230
0
 70
    8
 71
    3
 72
    8
 73
    4
 74
    0
 42
1e-007
 43
1e-007
 40
0
 40
0
 40
0
 40
0
 40
1
 40
1
 40
1
 40
1
 10
62.58452876425392
 20
13.91046906775317
 30
0
 10
62.50296758313435
 20
14.03198209411503
 30
0
 10
62.4245823226298
 20
14.15404785146407
 30
0
 10
62.41036021018968
 20
14.18171038690501
 30
0
  0
SPLINE
  5
E1
100
AcDbEntity
  8
0
  6
ByLayer
 62
  256
370
   -1
100
AcDbSpline
210
0
220
0
230
0
 70
    8
 71
    3
 72
    8
 73
    4
 74
    0
 42
1e-007
 43
1e-007
 40
0
 40
0
 40
0
 40
0
 40
1
 40
1
 40
1
 40
1
 10
62.41036021018968
 20
14.18171038690501
 30
0
 10
62.39618304664813
 20
14.20941927589761
 30
0
 10
62.36930220064649
 20
14.24840471982051
 30
0
 10
62.3506610496151
 20
14.26842664483004
 30
0
  0
SPLINE
  5
E2
100
AcDbEntity
  8
0
  6
ByLayer
 62
  256
370
   -1
100
AcDbSpline
210
0
220
0
230
0
 70
    8
 71
    3
 72
    8
 73
    4
 74
    0
 42
1e-007
 43
1e-007
 40
0
 40
0
 40
0
 40
0
 40
1
 40
1
 40
1
 40
1
 10
62.3506610496151
 20
14.26842664483004
 30
0
 10
62.33201989858371
 20
14.28840221628791
 30
0
 10
62.31678503127254
 20
14.31021928793433
 30
0
 10
62.31678503127254
 20
14.31689349704635
 30
0
  0
SPLINE
  5
E3
100
AcDbEntity
  8
0
  6
ByLayer
 62
  256
370
   -1
100
AcDbSpline
210
0
220
0
230
0
 70
    8
 71
    3
 72
    8
 73
    4
 74
    0
 42
1e-007
 43
1e-007
 40
0
 40
0
 40
0
 40
0
 40
1
 40
1
 40
1
 40
1
 10
62.31678503127254
 20
14.31689349704635
 30
0
 10
62.31678503127254
 20
14.32361335738349
 30
0
 10
62.29400155830674
 20
14.35624696007634
 30
0
 10
62.26615431098571
 20
14.38943329375637
 30
0
  0
SPLINE
  5
E4
100
AcDbEntity
  8
0
  6
ByLayer
 62
  256
370
   -1
100
AcDbSpline
210
0
220
0
230
0
 70
    8
 71
    3
 72
    8
 73
    4
 74
    0
 42
1e-007
 43
1e-007
 40
0
 40
0
 40
0
 40
0
 40
1
 40
1
 40
1
 40
1
 10
62.26615431098571
 20
14.38943329375637
 30
0
 10
62.23830846831775
 20
14.42266527866152
 30
0
 10
62.18445547386425
 20
14.4941923205005
 30
0
 10
62.14652843603751
 20
14.54836698050945
 30
0
  0
SPLINE
  5
E5
100
AcDbEntity
  8
0
  6
ByLayer
 62
  256
370
   -1
100
AcDbSpline
210
0
220
0
230
0
 70
    8
 71
    3
 72
    8
 73
    4
 74
    0
 42
1e-007
 43
1e-007
 40
0
 40
0
 40
0
 40
0
 40
1
 40
1
 40
1
 40
1
 10
62.14652843603751
 20
14.54836698050945
 30
0
 10
62.1085564493122
 20
14.60258729174351
 30
0
 10
62.05677531815243
 20
14.67098476651912
 30
0
 10
62.03145925568247
 20
14.70039609504529
 30
0
  0
SPLINE
  5
E6
100
AcDbEntity
  8
0
  6
ByLayer
 62
  256
370
   -1
100
AcDbSpline
210
0
220
0
230
0
 70
    8
 71
    3
 72
    8
 73
    4
 74
    0
 42
1e-007
 43
1e-007
 40
0
 40
0
 40
0
 40
0
 40
1
 40
1
 40
1
 40
1
 10
62.03145925568247
 20
14.70039609504529
 30
0
 10
62.00609824431395
 20
14.72980812589801
 30
0
 10
61.98524757398691
 20
14.75880508176543
 30
0
 10
61.98510991798501
 20
14.7648345551135
 30
0
  0
SPLINE
  5
E7
100
AcDbEntity
  8
0
  6
ByLayer
 62
  256
370
   -1
100
AcDbSpline
210
0
220
0
230
0
 70
    8
 71
    3
 72
    8
 73
    4
 74
    0
 42
1e-007
 43
1e-007
 40
0
 40
0
 40
0
 40
0
 40
1
 40
1
 40
1
 40
1
 10
61.98510991798501
 20
14.7648345551135
 30
0
 10
61.98483320132816
 20
14.77565108615993
 30
0
 10
61.92605689782748
 20
14.84193104641668
 30
0
 10
61.66742655403242
 20
15.12297614174391
 30
0
  0
SPLINE
  5
E8
100
AcDbEntity
  8
0
  6
ByLayer
 62
  256
370
   -1
100
AcDbSpline
210
0
220
0
230
0
 70
    8
 71
    3
 72
    8
 73
    4
 74
    0
 42
1e-007
 43
1e-007
 40
0
 40
0
 40
0
 40
0
 40
1
 40
1
 40
1
 40
1
 10
61.66742655403242
 20
15.12297614174391
 30
0
 10
61.59424272388499
 20
15.20255816667305
 30
0
 10
61.49965619474989
 20
15.30561405155706
 30
0
 10
61.45735647188353
 20
15.35196409158105
 30
0
  0
LINE
  5
E9
100
AcDbEntity
  8
0
  6
ByLayer
 62
  256
370
   -1
100
AcDbLine
 10
61.45735647188353
 20
15.35196409158105
 11
61.38035198535712
 21
15.4362868206569
  0
LINE
  5
EA
100
AcDbEntity
  8
0
  6
ByLayer
 62
  256
370
   -1
100
AcDbLine
 10
61.38035198535712
 20
15.4362868206569
 11
61.4252292466262
 21
15.49267029763494
  0
SPLINE
  5
EB
100
AcDbEntity
  8
0
  6
ByLayer
 62
  256
370
   -1
100
AcDbSpline
210
0
220
0
230
0
 70
    8
 71
    3
 72
    8
 73
    4
 74
    0
 42
1e-007
 43
1e-007
 40
0
 40
0
 40
0
 40
0
 40
1
 40
1
 40
1
 40
1
 10
61.4252292466262
 20
15.49267029763494
 30
0
 10
61.44990057333221
 20
15.52369276324445
 30
0
 10
61.4814757699289
 20
15.5614821450693
 30
0
 10
61.49537481216051
 20
15.57667065882881
 30
0
  0
SPLINE
  5
EC
100
AcDbEntity
  8
0
  6
ByLayer
 62
  256
370
   -1
100
AcDbSpline
210
0
220
0
230
0
 70
    8
 71
    3
 72
    8
 73
    4
 74
    0
 42
1e-007
 43
1e-007
 40
0
 40
0
 40
0
 40
0
 40
1
 40
1
 40
1
 40
1
 10
61.49537481216051
 20
15.57667065882881
 30
0
 10
61.59603787052188
 20
15.68649275760162
 30
0
 10
61.73729680756294
 20
16.09788825414671
 30
0
 10
61.76514405488397
 20
16.36254736896329
 30
0
  0
SPLINE
  5
ED
100
AcDbEntity
  8
0
  6
ByLayer
 62
  256
370
   -1
100
AcDbSpline
210
0
220
0
230
0
 70
    8
 71
    3
 72
    8
 73
    4
 74
    0
 42
1e-007
 43
1e-007
 40
0
 40
0
 40
0
 40
0
 40
1
 40
1
 40
1
 40
1
 10
61.76514405488397
 20
16.36254736896329
 30
0
 10
61.82189625329564
 20
16.90111734611122
 30
0
 10
61.58048133765526
 20
17.53270906886257
 30
0
 10
61.19232933795985
 20
17.86134661986349
 30
0
  0
SPLINE
  5
EE
100
AcDbEntity
  8
0
  6
ByLayer
 62
  256
370
   -1
100
AcDbSpline
210
0
220
0
230
0
 70
    8
 71
    3
 72
    8
 73
    4
 74
    0
 42
1e-007
 43
1e-007
 40
0
 40
0
 40
0
 40
0
 40
1
 40
1
 40
1
 40
1
 10
61.19232933795985
 20
17.86134661986349
 30
0
 10
61.07491298230728
 20
17.96076620908534
 30
0
 10
60.77195881055687
 20
18.17263178903439
 30
0
 10
60.74724113029922
 20
18.17263178903439
 30
0
  0
SPLINE
  5
EF
100
AcDbEntity
  8
0
  6
ByLayer
 62
  256
370
   -1
100
AcDbSpline
210
0
220
0
230
0
 70
    8
 71
    3
 72
    8
 73
    4
 74
    0
 42
1e-007
 43
1e-007
 40
0
 40
0
 40
0
 40
0
 40
1
 40
1
 40
1
 40
1
 10
60.74724113029922
 20
18.17263178903439
 30
0
 10
60.73785242910911
 20
18.17263178903439
 30
0
 10
60.71635702301813
 20
18.18915542554692
 30
0
 10
60.69955737217528
 20
18.20940771366165
 30
0
  0
SPLINE
  5
F0
100
AcDbEntity
  8
0
  6
ByLayer
 62
  256
370
   -1
100
AcDbSpline
210
0
220
0
230
0
 70
    8
 71
    3
 72
    8
 73
    4
 74
    0
 42
1e-007
 43
1e-007
 40
0
 40
0
 40
0
 40
0
 40
1
 40
1
 40
1
 40
1
 10
60.69955737217528
 20
18.20940771366165
 30
0
 10
60.59065602349675
 20
18.34035649709181
 30
0
 10
59.91823735663395
 20
18.42306808908431
 30
0
 10
59.57942801035054
 20
18.34716871336899
 30
0
  0
SPLINE
  5
F1
100
AcDbEntity
  8
0
  6
ByLayer
 62
  256
370
   -1
100
AcDbSpline
210
0
220
0
230
0
 70
    8
 71
    3
 72
    8
 73
    4
 74
    0
 42
1e-007
 43
1e-007
 40
0
 40
0
 40
0
 40
0
 40
1
 40
1
 40
1
 40
1
 10
59.57942801035054
 20
18.34716871336899
 30
0
 10
59.5002140045285
 20
18.3294479612686
 30
0
 10
59.37745856251694
 20
18.31646826447818
 30
0
 10
59.30657555411537
 20
18.31835541589184
 30
0
  0
SPLINE
  5
F2
100
AcDbEntity
  8
0
  6
ByLayer
 62
  256
370
   -1
100
AcDbSpline
210
0
220
0
230
0
 70
    8
 71
    3
 72
    8
 73
    4
 74
    0
 42
1e-007
 43
1e-007
 40
0
 40
0
 40
0
 40
0
 40
1
 40
1
 40
1
 40
1
 10
59.30657555411537
 20
18.31835541589184
 30
0
 10
58.88496190873614
 20
18.32949396365698
 30
0
 10
58.24430315035013
 20
18.02267348430247
 30
0
 10
57.8797177177129
 20
17.63498256198073
 30
0
  0
SPLINE
  5
F3
100
AcDbEntity
  8
0
  6
ByLayer
 62
  256
370
   -1
100
AcDbSpline
210
0
220
0
230
0
 70
    8
 71
    3
 72
    8
 73
    4
 74
    0
 42
1e-007
 43
1e-007
 40
0
 40
0
 40
0
 40
0
 40
1
 40
1
 40
1
 40
1
 10
57.8797177177129
 20
17.63498256198073
 30
0
 10
57.74632975420845
 20
17.49317124511575
 30
0
 10
57.58514089693463
 20
17.28765750639676
 30
0
 10
57.58514089693463
 20
17.25939658874352
 30
0
  0
SPLINE
  5
F4
100
AcDbEntity
  8
0
  6
ByLayer
 62
  256
370
   -1
100
AcDbSpline
210
0
220
0
230
0
 70
    8
 71
    3
 72
    8
 73
    4
 74
    0
 42
1e-007
 43
1e-007
 40
0
 40
0
 40
0
 40
0
 40
1
 40
1
 40
1
 40
1
 10
57.58514089693463
 20
17.25939658874352
 30
0
 10
57.58514089693463
 20
17.25207834619408
 30
0
 10
57.55941116413246
 20
17.20600432050041
 30
0
 10
57.52797432586419
 20
17.15703109084858
 30
0
  0
LINE
  5
F5
100
AcDbEntity
  8
0
  6
ByLayer
 62
  256
370
   -1
100
AcDbLine
 10
57.52797432586419
 20
17.15703109084858
 11
57.47085410834543
 21
17.06796765762602
  0
LINE
  5
F6
100
AcDbEntity
  8
0
  6
ByLayer
 62
  256
370
   -1
100
AcDbLine
 10
57.47085410834543
 20
17.06796765762602
 11
56.49888755345245
 21
17.06796765762602
  0
LINE
  5
F7
100
AcDbEntity
  8
0
  6
ByLayer
 62
  256
370
   -1
100
AcDbLine
 10
56.49888755345245
 20
17.06796765762602
 11
55.52692099855947
 21
17.06796765762602
  0
LINE
  5
F8
100
AcDbEntity
  8
0
  6
ByLayer
 62
  256
370
   -1
100
AcDbLine
 10
55.52692099855947
 20
17.06796765762602
 11
55.4698007810407
 21
17.15703109084858
  0
SPLINE
  5
F9
100
AcDbEntity
  8
0
  6
ByLayer
 62
  256
370
   -1
100
AcDbSpline
210
0
220
0
230
0
 70
    8
 71
    3
 72
    8
 73
    4
 74
    0
 42
1e-007
 43
1e-007
 40
0
 40
0
 40
0
 40
0
 40
1
 40
1
 40
1
 40
1
 10
55.4698007810407
 20
17.15703109084858
 30
0
 10
55.43836394277244
 20
17.20600432050041
 30
0
 10
55.41263420997027
 20
17.25207834619408
 30
0
 10
55.41263420997027
 20
17.25939658874352
 30
0
  0
SPLINE
  5
FA
100
AcDbEntity
  8
0
  6
ByLayer
 62
  256
370
   -1
100
AcDbSpline
210
0
220
0
230
0
 70
    8
 71
    3
 72
    8
 73
    4
 74
    0
 42
1e-007
 43
1e-007
 40
0
 40
0
 40
0
 40
0
 40
1
 40
1
 40
1
 40
1
 10
55.41263420997027
 20
17.25939658874352
 30
0
 10
55.41263420997027
 20
17.28765750639676
 30
0
 10
55.25144535269645
 20
17.49317124511575
 30
0
 10
55.118057389192
 20
17.63498256198073
 30
0
  0
SPLINE
  5
FB
100
AcDbEntity
  8
0
  6
ByLayer
 62
  256
370
   -1
100
AcDbSpline
210
0
220
0
230
0
 70
    8
 71
    3
 72
    8
 73
    4
 74
    0
 42
1e-007
 43
1e-007
 40
0
 40
0
 40
0
 40
0
 40
1
 40
1
 40
1
 40
1
 10
55.118057389192
 20
17.63498256198073
 30
0
 10
54.75043439426817
 20
18.02589540730589
 30
0
 10
54.11847465240974
 20
18.32691642525426
 30
0
 10
53.68199415882643
 20
18.31904580288091
 30
0
  0
SPLINE
  5
FC
100
AcDbEntity
  8
0
  6
ByLayer
 62
  256
370
   -1
100
AcDbSpline
210
0
220
0
230
0
 70
    8
 71
    3
 72
    8
 73
    4
 74
    0
 42
1e-007
 43
1e-007
 40
0
 40
0
 40
0
 40
0
 40
1
 40
1
 40
1
 40
1
 10
53.68199415882643
 20
18.31904580288091
 30
0
 10
53.60604807839618
 20
18.3176646777395
 30
0
 10
53.49005885027341
 20
18.32958596843376
 30
0
 10
53.42423891390054
 20
18.34555757628565
 30
0
  0
SPLINE
  5
FD
100
AcDbEntity
  8
0
  6
ByLayer
 62
  256
370
   -1
100
AcDbSpline
210
0
220
0
230
0
 70
    8
 71
    3
 72
    8
 73
    4
 74
    0
 42
1e-007
 43
1e-007
 40
0
 40
0
 40
0
 40
0
 40
1
 40
1
 40
1
 40
1
 10
53.42423891390054
 20
18.34555757628565
 30
0
 10
53.31160961594633
 20
18.37289809500789
 30
0
 10
52.85409444248246
 20
18.38399064038464
 30
0
 10
52.72461843780721
 20
18.3624959366202
 30
0
  0
SPLINE
  5
FE
100
AcDbEntity
  8
0
  6
ByLayer
 62
  256
370
   -1
100
AcDbSpline
210
0
220
0
230
0
 70
    8
 71
    3
 72
    8
 73
    4
 74
    0
 42
1e-007
 43
1e-007
 40
0
 40
0
 40
0
 40
0
 40
1
 40
1
 40
1
 40
1
 10
53.2480448500942
 20
18.15325389746227
 30
0
 10
53.78155175521344
 20
18.0790113100554
 30
0
 10
54.25485452697566
 20
17.76551697275214
 30
0
 10
54.48398013281469
 20
17.33460592863304
 30
0
  0
SPLINE
  5
FF
100
AcDbEntity
  8
0
  6
ByLayer
 62
  256
370
   -1
100
AcDbSpline
210
0
220
0
230
0
 70
    8
 71
    3
 72
    8
 73
    4
 74
    0
 42
1e-007
 43
1e-007
 40
0
 40
0
 40
0
 40
0
 40
1
 40
1
 40
1
 40
1
 10
54.48398013281469
 20
17.33460592863304
 30
0
 10
54.50584355801276
 20
17.29350297019128
 30
0
 10
54.53253969213432
 20
17.24360899044517
 30
0
 10
54.54335622318076
 20
17.22377107498919
 30
0
  0
SPLINE
  5
100
100
AcDbEntity
  8
0
  6
ByLayer
 62
  256
370
   -1
100
AcDbSpline
210
0
220
0
230
0
 70
    8
 71
    3
 72
    8
 73
    4
 74
    0
 42
1e-007
 43
1e-007
 40
0
 40
0
 40
0
 40
0
 40
1
 40
1
 40
1
 40
1
 10
54.54335622318076
 20
17.22377107498919
 30
0
 10
55.07400887324042
 20
16.24780055649023
 30
0
 10
54.2882241678827
 20
14.97186707497579
 30
0
 10
53.13500117948125
 20
14.93688629698542
 30
0
  0
SPLINE
  5
101
100
AcDbEntity
  8
0
  6
ByLayer
 62
  256
370
   -1
100
AcDbSpline
210
0
220
0
230
0
 70
    8
 71
    3
 72
    8
 73
    4
 74
    0
 42
1e-007
 43
1e-007
 40
0
 40
0
 40
0
 40
0
 40
1
 40
1
 40
1
 40
1
 10
53.13500117948125
 20
14.93688629698542
 30
0
 10
51.52440102478109
 20
14.88800507211035
 30
0
 10
50.82956725522286
 20
16.99911015896655
 30
0
 10
52.16487577361355
 20
17.88459046787643
 30
0
  0
SPLINE
  5
102
100
AcDbEntity
  8
0
  6
ByLayer
 62
  256
370
   -1
100
AcDbSpline
210
0
220
0
230
0
 70
    8
 71
    3
 72
    8
 73
    4
 74
    0
 42
1e-007
 43
1e-007
 40
0
 40
0
 40
0
 40
0
 40
1
 40
1
 40
1
 40
1
 10
52.16487577361355
 20
17.88459046787643
 30
0
 10
52.46120208980359
 20
18.08108247102261
 30
0
 10
52.93031618607976
 20
18.19744042057901
 30
0
 10
53.2480448500942
 20
18.15325389746227
 30
0
  0
SPLINE
  5
103
100
AcDbEntity
  8
0
  6
ByLayer
 62
  256
370
   -1
100
AcDbSpline
210
0
220
0
230
0
 70
    8
 71
    3
 72
    8
 73
    4
 74
    0
 42
1e-007
 43
1e-007
 40
0
 40
0
 40
0
 40
0
 40
1
 40
1
 40
1
 40
1
 10
60.30698633388859
 20
18.09981597799404
 30
0
 10
60.98617121464017
 20
17.91791445755835
 30
0
 10
61.37533596920663
 20
17.51185839853553
 30
0
 10
61.50674407419412
 20
16.84795544097332
 30
0
  0
SPLINE
  5
104
100
AcDbEntity
  8
0
  6
ByLayer
 62
  256
370
   -1
100
AcDbSpline
210
0
220
0
230
0
 70
    8
 71
    3
 72
    8
 73
    4
 74
    0
 42
1e-007
 43
1e-007
 40
0
 40
0
 40
0
 40
0
 40
1
 40
1
 40
1
 40
1
 10
61.50674407419412
 20
16.84795544097332
 30
0
 10
61.80030814010135
 20
15.36498943959658
 30
0
 10
60.01618381593762
 20
14.33157633569688
 30
0
 10
58.86470962062141
 20
15.31753534225131
 30
0
  0
SPLINE
  5
105
100
AcDbEntity
  8
0
  6
ByLayer
 62
  256
370
   -1
100
AcDbSpline
210
0
220
0
230
0
 70
    8
 71
    3
 72
    8
 73
    4
 74
    0
 42
1e-007
 43
1e-007
 40
0
 40
0
 40
0
 40
0
 40
1
 40
1
 40
1
 40
1
 10
58.86470962062141
 20
15.31753534225131
 30
0
 10
58.31937413191122
 20
15.78448557045695
 30
0
 10
58.13572346722702
 20
16.63765499571922
 30
0
 10
58.45441888372414
 20
17.22377107498919
 30
0
  0
SPLINE
  5
106
100
AcDbEntity
  8
0
  6
ByLayer
 62
  256
370
   -1
100
AcDbSpline
210
0
220
0
230
0
 70
    8
 71
    3
 72
    8
 73
    4
 74
    0
 42
1e-007
 43
1e-007
 40
0
 40
0
 40
0
 40
0
 40
1
 40
1
 40
1
 40
1
 10
58.45441888372414
 20
17.22377107498919
 30
0
 10
58.46523541477058
 20
17.24360899044517
 30
0
 10
58.49193154889213
 20
17.29350297019128
 30
0
 10
58.5137949740902
 20
17.33460592863304
 30
0
  0
SPLINE
  5
107
100
AcDbEntity
  8
0
  6
ByLayer
 62
  256
370
   -1
100
AcDbSpline
210
0
220
0
230
0
 70
    8
 71
    3
 72
    8
 73
    4
 74
    0
 42
1e-007
 43
1e-007
 40
0
 40
0
 40
0
 40
0
 40
1
 40
1
 40
1
 40
1
 10
58.5137949740902
 20
17.33460592863304
 30
0
 10
58.84790996977856
 20
17.96302173076936
 30
0
 10
59.60745786257205
 20
18.28714858956551
 30
0
 10
60.30698633388859
 20
18.09981597799404
 30
0
  0
SPLINE
  5
108
100
AcDbEntity
  8
0
  6
ByLayer
 62
  256
370
   -1
100
AcDbSpline
210
0
220
0
230
0
 70
    8
 71
    3
 72
    8
 73
    4
 74
    0
 42
1e-007
 43
1e-007
 40
0
 40
0
 40
0
 40
0
 40
1
 40
1
 40
1
 40
1
 10
54.58804877256975
 20
17.77357160467903
 30
0
 10
54.97776485347031
 20
17.57220053905771
 30
0
 10
55.2748735614262
 20
17.29644887886437
 30
0
 10
55.34847176423239
 20
17.06778364807248
 30
0
  0
SPLINE
  5
109
100
AcDbEntity
  8
0
  6
ByLayer
 62
  256
370
   -1
100
AcDbSpline
210
0
220
0
230
0
 70
    8
 71
    3
 72
    8
 73
    4
 74
    0
 42
1e-007
 43
1e-007
 40
0
 40
0
 40
0
 40
0
 40
1
 40
1
 40
1
 40
1
 10
55.34847176423239
 20
17.06778364807248
 30
0
 10
55.36633052349794
 20
17.01218186053374
 30
0
 10
55.38695083071977
 20
16.95427925124912
 30
0
 10
55.39422342204409
 20
16.93909003516307
 30
0
  0
SPLINE
  5
10A
100
AcDbEntity
  8
0
  6
ByLayer
 62
  256
370
   -1
100
AcDbSpline
210
0
220
0
230
0
 70
    8
 71
    3
 72
    8
 73
    4
 74
    0
 42
1e-007
 43
1e-007
 40
0
 40
0
 40
0
 40
0
 40
1
 40
1
 40
1
 40
1
 10
55.39422342204409
 20
16.93909003516307
 30
0
 10
55.41083906333338
 20
16.90438527150302
 30
0
 10
57.5571559936117
 20
16.88979443762926
 30
0
 10
57.59844296160701
 20
16.92408482863057
 30
0
  0
SPLINE
  5
10B
100
AcDbEntity
  8
0
  6
ByLayer
 62
  256
370
   -1
100
AcDbSpline
210
0
220
0
230
0
 70
    8
 71
    3
 72
    8
 73
    4
 74
    0
 42
1e-007
 43
1e-007
 40
0
 40
0
 40
0
 40
0
 40
1
 40
1
 40
1
 40
1
 10
57.59844296160701
 20
16.92408482863057
 30
0
 10
57.61137630484576
 20
16.93480935490023
 30
0
 10
57.621962472787
 20
16.9623798855644
 30
0
 10
57.621962472787
 20
16.98534807041029
 30
0
  0
SPLINE
  5
10C
100
AcDbEntity
  8
0
  6
ByLayer
 62
  256
370
   -1
100
AcDbSpline
210
0
220
0
230
0
 70
    8
 71
    3
 72
    8
 73
    4
 74
    0
 42
1e-007
 43
1e-007
 40
0
 40
0
 40
0
 40
0
 40
1
 40
1
 40
1
 40
1
 10
57.621962472787
 20
16.98534807041029
 30
0
 10
57.621962472787
 20
17.23205607002128
 30
0
 10
58.06419642538805
 20
17.62803233853839
 30
0
 10
58.60870387110728
 20
17.86884887196647
 30
0
  0
LINE
  5
10D
100
AcDbEntity
  8
0
  6
ByLayer
 62
  256
370
   -1
100
AcDbLine
 10
58.60870387110729
 20
17.86884887196647
 11
58.71028697723638
 21
17.91377213562394
  0
LINE
  5
10E
100
AcDbEntity
  8
0
  6
ByLayer
 62
  256
370
   -1
100
AcDbLine
 10
58.71028697723638
 20
17.91377213562394
 11
58.60608068147943
 21
17.79925533509281
  0
SPLINE
  5
10F
100
AcDbEntity
  8
0
  6
ByLayer
 62
  256
370
   -1
100
AcDbSpline
210
0
220
0
230
0
 70
    8
 71
    3
 72
    8
 73
    4
 74
    0
 42
1e-007
 43
1e-007
 40
0
 40
0
 40
0
 40
0
 40
1
 40
1
 40
1
 40
1
 10
58.60608068147943
 20
17.79925533509281
 30
0
 10
57.58435780284223
 20
16.67691645397244
 30
0
 10
58.26298995260665
 20
14.88671630290899
 30
0
 10
59.76975147949369
 20
14.7295777627928
 30
0
  0
SPLINE
  5
110
100
AcDbEntity
  8
0
  6
ByLayer
 62
  256
370
   -1
100
AcDbSpline
210
0
220
0
230
0
 70
    8
 71
    3
 72
    8
 73
    4
 74
    0
 42
1e-007
 43
1e-007
 40
0
 40
0
 40
0
 40
0
 40
1
 40
1
 40
1
 40
1
 10
59.76975147949369
 20
14.7295777627928
 30
0
 10
60.26524004433595
 20
14.67788863640981
 30
0
 10
60.83533816220238
 20
14.86453050982894
 30
0
 10
61.17810722551972
 20
15.19059052242714
 30
0
  0
SPLINE
  5
111
100
AcDbEntity
  8
0
  6
ByLayer
 62
  256
370
   -1
100
AcDbSpline
210
0
220
0
230
0
 70
    8
 71
    3
 72
    8
 73
    4
 74
    0
 42
1e-007
 43
1e-007
 40
0
 40
0
 40
0
 40
0
 40
1
 40
1
 40
1
 40
1
 10
61.17810722551972
 20
15.19059052242714
 30
0
 10
61.22036059483442
 20
15.23077273077463
 30
0
 10
61.26256761059746
 20
15.26368305012434
 30
0
 10
61.27191136288899
 20
15.26368305012434
 30
0
  0
SPLINE
  5
112
100
AcDbEntity
  8
0
  6
ByLayer
 62
  256
370
   -1
100
AcDbSpline
210
0
220
0
230
0
 70
    8
 71
    3
 72
    8
 73
    4
 74
    0
 42
1e-007
 43
1e-007
 40
0
 40
0
 40
0
 40
0
 40
1
 40
1
 40
1
 40
1
 10
61.27191136288899
 20
15.26368305012434
 30
0
 10
61.30578738123155
 20
15.26368305012434
 30
0
 10
61.72362672378345
 20
14.82609779689322
 30
0
 10
61.87561018709418
 20
14.6314929451607
 30
0
  0
SPLINE
  5
113
100
AcDbEntity
  8
0
  6
ByLayer
 62
  256
370
   -1
100
AcDbSpline
210
0
220
0
230
0
 70
    8
 71
    3
 72
    8
 73
    4
 74
    0
 42
1e-007
 43
1e-007
 40
0
 40
0
 40
0
 40
0
 40
1
 40
1
 40
1
 40
1
 10
61.87561018709418
 20
14.6314929451607
 30
0
 10
61.96131369014817
 20
14.52176285116467
 30
0
 10
62.05005545781528
 20
14.40991524264977
 30
0
 10
62.0728389307811
 20
14.38294309419789
 30
0
  0
SPLINE
  5
114
100
AcDbEntity
  8
0
  6
ByLayer
 62
  256
370
   -1
100
AcDbSpline
210
0
220
0
230
0
 70
    8
 71
    3
 72
    8
 73
    4
 74
    0
 42
1e-007
 43
1e-007
 40
0
 40
0
 40
0
 40
0
 40
1
 40
1
 40
1
 40
1
 10
62.0728389307811
 20
14.38294309419789
 30
0
 10
62.09557605019525
 20
14.35597094574602
 30
0
 10
62.11421720122664
 20
14.32425809314744
 30
0
 10
62.11426355477829
 20
14.31242880722996
 30
0
  0
SPLINE
  5
115
100
AcDbEntity
  8
0
  6
ByLayer
 62
  256
370
   -1
100
AcDbSpline
210
0
220
0
230
0
 70
    8
 71
    3
 72
    8
 73
    4
 74
    0
 42
1e-007
 43
1e-007
 40
0
 40
0
 40
0
 40
0
 40
1
 40
1
 40
1
 40
1
 10
62.11426355477829
 20
14.31242880722996
 30
0
 10
62.11426355477829
 20
14.30064587486414
 30
0
 10
62.12121377822064
 20
14.28821820673436
 30
0
 10
62.129682431643
 20
14.28481192301414
 30
0
  0
SPLINE
  5
116
100
AcDbEntity
  8
0
  6
ByLayer
 62
  256
370
   -1
100
AcDbSpline
210
0
220
0
230
0
 70
    8
 71
    3
 72
    8
 73
    4
 74
    0
 42
1e-007
 43
1e-007
 40
0
 40
0
 40
0
 40
0
 40
1
 40
1
 40
1
 40
1
 10
62.129682431643
 20
14.28481192301414
 30
0
 10
62.13815248971845
 20
14.28145199284557
 30
0
 10
62.18473219052111
 20
14.2165535088935
 30
0
 10
62.23319974506396
 20
14.14060742846325
 30
0
  0
SPLINE
  5
117
100
AcDbEntity
  8
0
  6
ByLayer
 62
  256
370
   -1
100
AcDbSpline
210
0
220
0
230
0
 70
    8
 71
    3
 72
    8
 73
    4
 74
    0
 42
1e-007
 43
1e-007
 40
0
 40
0
 40
0
 40
0
 40
1
 40
1
 40
1
 40
1
 10
62.23319974506396
 20
14.14060742846325
 30
0
 10
62.28166589495373
 20
14.06466205035954
 30
0
 10
62.34490759059735
 20
13.9674052757184
 30
0
 10
62.37372123923777
 20
13.92450787296629
 30
0
  0
SPLINE
  5
118
100
AcDbEntity
  8
0
  6
ByLayer
 62
  256
370
   -1
100
AcDbSpline
210
0
220
0
230
0
 70
    8
 71
    3
 72
    8
 73
    4
 74
    0
 42
1e-007
 43
1e-007
 40
0
 40
0
 40
0
 40
0
 40
1
 40
1
 40
1
 40
1
 10
62.37372123923777
 20
13.92450787296629
 30
0
 10
62.46278467246032
 20
13.79199430600445
 30
0
 10
62.73365797250506
 20
13.21839719731449
 30
0
 10
62.77595769537142
 20
13.0727655752338
 30
0
  0
SPLINE
  5
119
100
AcDbEntity
  8
0
  6
ByLayer
 62
  256
370
   -1
100
AcDbSpline
210
0
220
0
230
0
 70
    8
 71
    3
 72
    8
 73
    4
 74
    0
 42
1e-007
 43
1e-007
 40
0
 40
0
 40
0
 40
0
 40
1
 40
1
 40
1
 40
1
 10
62.77595769537142
 20
13.0727655752338
 30
0
 10
62.79800513012304
 20
12.9968201971301
 30
0
 10
62.82060459353529
 20
12.91912532361462
 30
0
 10
62.82612768944784
 20
12.90016180470125
 30
0
  0
SPLINE
  5
11A
100
AcDbEntity
  8
0
  6
ByLayer
 62
  256
370
   -1
100
AcDbSpline
210
0
220
0
230
0
 70
    8
 71
    3
 72
    8
 73
    4
 74
    0
 42
1e-007
 43
1e-007
 40
0
 40
0
 40
0
 40
0
 40
1
 40
1
 40
1
 40
1
 10
62.82612768944784
 20
12.90016180470125
 30
0
 10
62.83169713891205
 20
12.88115263456276
 30
0
 10
62.82911960050932
 20
12.86978337252915
 30
0
 10
62.82046553288033
 20
12.87489279810949
 30
0
  0
SPLINE
  5
11B
100
AcDbEntity
  8
0
  6
ByLayer
 62
  256
370
   -1
100
AcDbSpline
210
0
220
0
230
0
 70
    8
 71
    3
 72
    8
 73
    4
 74
    0
 42
1e-007
 43
1e-007
 40
0
 40
0
 40
0
 40
0
 40
1
 40
1
 40
1
 40
1
 10
62.82046553288033
 20
12.87489279810949
 30
0
 10
62.81176651635275
 20
12.88000152136329
 30
0
 10
62.64726338013547
 20
12.88952928320836
 30
0
 10
62.45486804769858
 20
12.89611148754361
 30
0
  0
SPLINE
  5
11C
100
AcDbEntity
  8
0
  6
ByLayer
 62
  256
370
   -1
100
AcDbSpline
210
0
220
0
230
0
 70
    8
 71
    3
 72
    8
 73
    4
 74
    0
 42
1e-007
 43
1e-007
 40
0
 40
0
 40
0
 40
0
 40
1
 40
1
 40
1
 40
1
 10
62.45486804769858
 20
12.89611148754361
 30
0
 10
62.2624727152617
 20
12.90269298955232
 30
0
 10
62.0346351762975
 20
12.91194473706707
 30
0
 10
61.94856365413642
 20
12.91668544121378
 30
0
  0
SPLINE
  5
11D
100
AcDbEntity
  8
0
  6
ByLayer
 62
  256
370
   -1
100
AcDbSpline
210
0
220
0
230
0
 70
    8
 71
    3
 72
    8
 73
    4
 74
    0
 42
1e-007
 43
1e-007
 40
0
 40
0
 40
0
 40
0
 40
1
 40
1
 40
1
 40
1
 10
61.94856365413642
 20
12.91668544121378
 30
0
 10
61.86249213197534
 20
12.92142684768702
 30
0
 10
61.53937837921351
 20
12.93772012109435
 30
0
 10
61.23053168779037
 20
12.9529093371804
 30
0
  0
SPLINE
  5
11E
100
AcDbEntity
  8
0
  6
ByLayer
 62
  256
370
   -1
100
AcDbSpline
210
0
220
0
230
0
 70
    8
 71
    3
 72
    8
 73
    4
 74
    0
 42
1e-007
 43
1e-007
 40
0
 40
0
 40
0
 40
0
 40
1
 40
1
 40
1
 40
1
 10
61.23053168779037
 20
12.9529093371804
 30
0
 10
60.92168640102031
 20
12.96809855326645
 30
0
 10
60.27545749084355
 20
13.00538085532924
 30
0
 10
59.79446915975134
 20
13.035805641053
 30
0
  0
SPLINE
  5
11F
100
AcDbEntity
  8
0
  6
ByLayer
 62
  256
370
   -1
100
AcDbSpline
210
0
220
0
230
0
 70
    8
 71
    3
 72
    8
 73
    4
 74
    0
 42
1e-007
 43
1e-007
 40
0
 40
0
 40
0
 40
0
 40
1
 40
1
 40
1
 40
1
 10
59.79446915975134
 20
13.035805641053
 30
0
 10
59.31347942400605
 20
13.06618337089855
 30
0
 10
58.50569433977492
 20
13.10392639917175
 30
0
 10
57.99938994621275
 20
13.11966764391844
 30
0
  0
SPLINE
  5
120
100
AcDbEntity
  8
0
  6
ByLayer
 62
  256
370
   -1
100
AcDbSpline
210
0
220
0
230
0
 70
    8
 71
    3
 72
    8
 73
    4
 74
    0
 42
1e-007
 43
1e-007
 40
0
 40
0
 40
0
 40
0
 40
1
 40
1
 40
1
 40
1
 10
57.99938994621275
 20
13.11966764391844
 30
0
 10
57.49308555265059
 20
13.13540888866512
 30
0
 10
56.99184423111711
 20
13.15639791732058
 30
0
 10
56.88551971851476
 20
13.16624804704763
 30
0
  0
SPLINE
  5
121
100
AcDbEntity
  8
0
  6
ByLayer
 62
  256
370
   -1
100
AcDbSpline
210
0
220
0
230
0
 70
    8
 71
    3
 72
    8
 73
    4
 74
    0
 42
1e-007
 43
1e-007
 40
0
 40
0
 40
0
 40
0
 40
1
 40
1
 40
1
 40
1
 10
56.88551971851476
 20
13.16624804704763
 30
0
 10
56.63940974995279
 20
13.18912352479021
 30
0
 10
56.35836535695211
 20
13.18912352479021
 30
0
 10
56.11225538839014
 20
13.16624804704763
 30
0
  0
SPLINE
  5
122
100
AcDbEntity
  8
0
  6
ByLayer
 62
  256
370
   -1
100
AcDbSpline
210
0
220
0
230
0
 70
    8
 71
    3
 72
    8
 73
    4
 74
    0
 42
1e-007
 43
1e-007
 40
0
 40
0
 40
0
 40
0
 40
1
 40
1
 40
1
 40
1
 10
56.11225538839014
 20
13.16624804704763
 30
0
 10
56.00593087578779
 20
13.15639791732058
 30
0
 10
55.50468955425431
 20
13.13540888866512
 30
0
 10
54.99838516069214
 20
13.11966764391844
 30
0
  0
SPLINE
  5
123
100
AcDbEntity
  8
0
  6
ByLayer
 62
  256
370
   -1
100
AcDbSpline
210
0
220
0
230
0
 70
    8
 71
    3
 72
    8
 73
    4
 74
    0
 42
1e-007
 43
1e-007
 40
0
 40
0
 40
0
 40
0
 40
1
 40
1
 40
1
 40
1
 10
54.99838516069214
 20
13.11966764391844
 30
0
 10
54.49208076712998
 20
13.10392639917175
 30
0
 10
53.68429568289884
 20
13.06618337089855
 30
0
 10
53.20330594715355
 20
13.035805641053
 30
0
  0
SPLINE
  5
124
100
AcDbEntity
  8
0
  6
ByLayer
 62
  256
370
   -1
100
AcDbSpline
210
0
220
0
230
0
 70
    8
 71
    3
 72
    8
 73
    4
 74
    0
 42
1e-007
 43
1e-007
 40
0
 40
0
 40
0
 40
0
 40
1
 40
1
 40
1
 40
1
 10
53.20330594715355
 20
13.035805641053
 30
0
 10
52.7223169137348
 20
13.00538085532924
 30
0
 10
52.07608870588459
 20
12.96809855326645
 30
0
 10
51.76724271678799
 20
12.9529093371804
 30
0
  0
SPLINE
  5
125
100
AcDbEntity
  8
0
  6
ByLayer
 62
  256
370
   -1
100
AcDbSpline
210
0
220
0
230
0
 70
    8
 71
    3
 72
    8
 73
    4
 74
    0
 42
1e-007
 43
1e-007
 40
0
 40
0
 40
0
 40
0
 40
1
 40
1
 40
1
 40
1
 10
51.76724271678799
 20
12.9529093371804
 30
0
 10
51.45839707885465
 20
12.93772012109435
 30
0
 10
51.13528297492955
 20
12.92142684768702
 30
0
 10
51.04921110160521
 20
12.91668544121378
 30
0
  0
SPLINE
  5
126
100
AcDbEntity
  8
0
  6
ByLayer
 62
  256
370
   -1
100
AcDbSpline
210
0
220
0
230
0
 70
    8
 71
    3
 72
    8
 73
    4
 74
    0
 42
1e-007
 43
1e-007
 40
0
 40
0
 40
0
 40
0
 40
1
 40
1
 40
1
 40
1
 10
51.04921110160521
 20
12.91668544121378
 30
0
 10
50.96313957944413
 20
12.91194473706707
 30
0
 10
50.7353023916432
 20
12.90269298955232
 30
0
 10
50.54290670804303
 20
12.89611148754361
 30
0
  0
SPLINE
  5
127
100
AcDbEntity
  8
0
  6
ByLayer
 62
  256
370
   -1
100
AcDbSpline
210
0
220
0
230
0
 70
    8
 71
    3
 72
    8
 73
    4
 74
    0
 42
1e-007
 43
1e-007
 40
0
 40
0
 40
0
 40
0
 40
1
 40
1
 40
1
 40
1
 10
50.54290670804303
 20
12.89611148754361
 30
0
 10
50.35051102444289
 20
12.88952928320836
 30
0
 10
50.18600823938888
 20
12.88000152136329
 30
0
 10
50.17730904727966
 20
12.87489279810949
 30
0
  0
SPLINE
  5
128
100
AcDbEntity
  8
0
  6
ByLayer
 62
  256
370
   -1
100
AcDbSpline
210
0
220
0
230
0
 70
    8
 71
    3
 72
    8
 73
    4
 74
    0
 42
1e-007
 43
1e-007
 40
0
 40
0
 40
0
 40
0
 40
1
 40
1
 40
1
 40
1
 10
50.17730904727966
 20
12.87489279810949
 30
0
 10
50.16865585755885
 20
12.86978337252915
 30
0
 10
50.16607814357449
 20
12.88115263456276
 30
0
 10
50.17164759303868
 20
12.90016180470125
 30
0
  0
SPLINE
  5
129
100
AcDbEntity
  8
0
  6
ByLayer
 62
  256
370
   -1
100
AcDbSpline
210
0
220
0
230
0
 70
    8
 71
    3
 72
    8
 73
    4
 74
    0
 42
1e-007
 43
1e-007
 40
0
 40
0
 40
0
 40
0
 40
1
 40
1
 40
1
 40
1
 10
50.17164759303868
 20
12.90016180470125
 30
0
 10
50.17717086453288
 20
12.91912532361462
 30
0
 10
50.19977050352676
 20
12.9968201971301
 30
0
 10
50.22181776269675
 20
13.0727655752338
 30
0
  0
SPLINE
  5
12A
100
AcDbEntity
  8
0
  6
ByLayer
 62
  256
370
   -1
100
AcDbSpline
210
0
220
0
230
0
 70
    8
 71
    3
 72
    8
 73
    4
 74
    0
 42
1e-007
 43
1e-007
 40
0
 40
0
 40
0
 40
0
 40
1
 40
1
 40
1
 40
1
 10
50.22181776269675
 20
13.0727655752338
 30
0
 10
50.26411713439983
 20
13.21839719731449
 30
0
 10
50.53499008328131
 20
13.79199430600445
 30
0
 10
50.62405351650386
 20
13.92450787296629
 30
0
  0
SPLINE
  5
12B
100
AcDbEntity
  8
0
  6
ByLayer
 62
  256
370
   -1
100
AcDbSpline
210
0
220
0
230
0
 70
    8
 71
    3
 72
    8
 73
    4
 74
    0
 42
1e-007
 43
1e-007
 40
0
 40
0
 40
0
 40
0
 40
1
 40
1
 40
1
 40
1
 10
50.62405351650386
 20
13.92450787296629
 30
0
 10
50.65286681398101
 20
13.9674052757184
 30
0
 10
50.71610886078788
 20
14.06466205035954
 30
0
 10
50.76457606416747
 20
14.14060742846325
 30
0
  0
SPLINE
  5
12C
100
AcDbEntity
  8
0
  6
ByLayer
 62
  256
370
   -1
100
AcDbSpline
210
0
220
0
230
0
 70
    8
 71
    3
 72
    8
 73
    4
 74
    0
 42
1e-007
 43
1e-007
 40
0
 40
0
 40
0
 40
0
 40
1
 40
1
 40
1
 40
1
 10
50.76457606416747
 20
14.14060742846325
 30
0
 10
50.81304326754706
 20
14.2165535088935
 30
0
 10
50.85962331951298
 20
14.28145199284557
 30
0
 10
50.86809232409863
 20
14.28481192301414
 30
0
  0
SPLINE
  5
12D
100
AcDbEntity
  8
0
  6
ByLayer
 62
  256
370
   -1
100
AcDbSpline
210
0
220
0
230
0
 70
    8
 71
    3
 72
    8
 73
    4
 74
    0
 42
1e-007
 43
1e-007
 40
0
 40
0
 40
0
 40
0
 40
1
 40
1
 40
1
 40
1
 10
50.86809232409863
 20
14.28481192301414
 30
0
 10
50.87656132868426
 20
14.28821820673436
 30
0
 10
50.88351155212661
 20
14.30064587486414
 30
0
 10
50.88351155212661
 20
14.31242880722996
 30
0
  0
SPLINE
  5
12E
100
AcDbEntity
  8
0
  6
ByLayer
 62
  256
370
   -1
100
AcDbSpline
210
0
220
0
230
0
 70
    8
 71
    3
 72
    8
 73
    4
 74
    0
 42
1e-007
 43
1e-007
 40
0
 40
0
 40
0
 40
0
 40
1
 40
1
 40
1
 40
1
 10
50.88351155212661
 20
14.31242880722996
 30
0
 10
50.88355755451499
 20
14.32425809314744
 30
0
 10
50.90219870554638
 20
14.35597094574602
 30
0
 10
50.92493652728707
 20
14.38294309419789
 30
0
  0
SPLINE
  5
12F
100
AcDbEntity
  8
0
  6
ByLayer
 62
  256
370
   -1
100
AcDbSpline
210
0
220
0
230
0
 70
    8
 71
    3
 72
    8
 73
    4
 74
    0
 42
1e-007
 43
1e-007
 40
0
 40
0
 40
0
 40
0
 40
1
 40
1
 40
1
 40
1
 10
50.92493652728707
 20
14.38294309419789
 30
0
 10
50.94772000025288
 20
14.40991524264977
 30
0
 10
51.03646141675672
 20
14.52176285116467
 30
0
 10
51.12216491981071
 20
14.6314929451607
 30
0
  0
SPLINE
  5
130
100
AcDbEntity
  8
0
  6
ByLayer
 62
  256
370
   -1
100
AcDbSpline
210
0
220
0
230
0
 70
    8
 71
    3
 72
    8
 73
    4
 74
    0
 42
1e-007
 43
1e-007
 40
0
 40
0
 40
0
 40
0
 40
1
 40
1
 40
1
 40
1
 10
51.12216491981071
 20
14.6314929451607
 30
0
 10
51.27414838312144
 20
14.82609779689322
 30
0
 10
51.69198772567334
 20
15.26368305012434
 30
0
 10
51.72586409517918
 20
15.26368305012434
 30
0
  0
SPLINE
  5
131
100
AcDbEntity
  8
0
  6
ByLayer
 62
  256
370
   -1
100
AcDbSpline
210
0
220
0
230
0
 70
    8
 71
    3
 72
    8
 73
    4
 74
    0
 42
1e-007
 43
1e-007
 40
0
 40
0
 40
0
 40
0
 40
1
 40
1
 40
1
 40
1
 10
51.72586409517918
 20
15.26368305012434
 30
0
 10
51.73520749630743
 20
15.26368305012434
 30
0
 10
51.77741486323374
 20
15.23077273077463
 30
0
 10
51.81966823254844
 20
15.19059052242714
 30
0
  0
SPLINE
  5
132
100
AcDbEntity
  8
0
  6
ByLayer
 62
  256
370
   -1
100
AcDbSpline
210
0
220
0
230
0
 70
    8
 71
    3
 72
    8
 73
    4
 74
    0
 42
1e-007
 43
1e-007
 40
0
 40
0
 40
0
 40
0
 40
1
 40
1
 40
1
 40
1
 10
51.81966823254844
 20
15.19059052242714
 30
0
 10
52.16243659353925
 20
14.86453050982894
 30
0
 10
52.73253506256894
 20
14.67788863640981
 30
0
 10
53.22802292508467
 20
14.7295777627928
 30
0
  0
SPLINE
  5
133
100
AcDbEntity
  8
0
  6
ByLayer
 62
  256
370
   -1
100
AcDbSpline
210
0
220
0
230
0
 70
    8
 71
    3
 72
    8
 73
    4
 74
    0
 42
1e-007
 43
1e-007
 40
0
 40
0
 40
0
 40
0
 40
1
 40
1
 40
1
 40
1
 10
53.22802292508467
 20
14.7295777627928
 30
0
 10
54.73441643286462
 20
14.88666994935733
 30
0
 10
55.41318694095746
 20
16.67719246830276
 30
0
 10
54.39169442542546
 20
17.79925533509281
 30
0
  0
LINE
  5
134
100
AcDbEntity
  8
0
  6
ByLayer
 62
  256
370
   -1
100
AcDbLine
 10
54.39169442542546
 20
17.79925533509281
 11
54.28748812966852
 21
17.91377213562394
  0
LINE
  5
135
100
AcDbEntity
  8
0
  6
ByLayer
 62
  256
370
   -1
100
AcDbLine
 10
54.28748812966852
 20
17.91377213562394
 11
54.38907123579762
 21
17.86884887196647
  0
SPLINE
  5
136
100
AcDbEntity
  8
0
  6
ByLayer
 62
  256
370
   -1
100
AcDbSpline
210
0
220
0
230
0
 70
    8
 71
    3
 72
    8
 73
    4
 74
    0
 42
1e-007
 43
1e-007
 40
0
 40
0
 40
0
 40
0
 40
1
 40
1
 40
1
 40
1
 10
54.38907123579762
 20
17.86884887196647
 30
0
 10
54.4449946888918
 20
17.84413224519862
 30
0
 10
54.53451884832475
 20
17.80123449128324
 30
0
 10
54.58804877256975
 20
17.77357160467903
 30
0
  0
SPLINE
  5
137
100
AcDbEntity
  8
0
  6
ByLayer
 62
  256
370
   -1
100
AcDbSpline
210
0
220
0
230
0
 70
    8
 71
    3
 72
    8
 73
    4
 74
    0
 42
1e-007
 43
1e-007
 40
0
 40
0
 40
0
 40
0
 40
1
 40
1
 40
1
 40
1
 10
52.14117155055347
 20
17.32111985440711
 30
0
 10
52.12358915678151
 20
17.29396334523842
 30
0
 10
52.10987271945037
 20
15.87175455936915
 30
0
 10
52.1263047023494
 20
15.78264477259495
 30
0
  0
SPLINE
  5
138
100
AcDbEntity
  8
0
  6
ByLayer
 62
  256
370
   -1
100
AcDbSpline
210
0
220
0
230
0
 70
    8
 71
    3
 72
    8
 73
    4
 74
    0
 42
1e-007
 43
1e-007
 40
0
 40
0
 40
0
 40
0
 40
1
 40
1
 40
1
 40
1
 10
52.1263047023494
 20
15.78264477259495
 30
0
 10
52.13546409392411
 20
15.73298115595404
 30
0
 10
52.14508386054595
 20
15.7227630071199
 30
0
 10
52.177947826344
 20
15.72741170648984
 30
0
  0
LINE
  5
139
100
AcDbEntity
  8
0
  6
ByLayer
 62
  256
370
   -1
100
AcDbLine
 10
52.177947826344
 20
15.72741170648984
 11
52.21831404424505
 21
15.73316516550759
  0
LINE
  5
13A
100
AcDbEntity
  8
0
  6
ByLayer
 62
  256
370
   -1
100
AcDbLine
 10
52.21831404424505
 20
15.73316516550759
 11
52.22342311866211
 21
16.49722410166912
  0
SPLINE
  5
13B
100
AcDbEntity
  8
0
  6
ByLayer
 62
  256
370
   -1
100
AcDbSpline
210
0
220
0
230
0
 70
    8
 71
    3
 72
    8
 73
    4
 74
    0
 42
1e-007
 43
1e-007
 40
0
 40
0
 40
0
 40
0
 40
1
 40
1
 40
1
 40
1
 10
52.22342311866211
 20
16.49722410166911
 30
0
 10
52.22623066900677
 20
16.91745697307021
 30
0
 10
52.22402150087441
 20
17.27992489118857
 30
0
 10
52.21849805379858
 20
17.30270871531765
 30
0
  0
SPLINE
  5
13C
100
AcDbEntity
  8
0
  6
ByLayer
 62
  256
370
   -1
100
AcDbSpline
210
0
220
0
230
0
 70
    8
 71
    3
 72
    8
 73
    4
 74
    0
 42
1e-007
 43
1e-007
 40
0
 40
0
 40
0
 40
0
 40
1
 40
1
 40
1
 40
1
 10
52.21849805379858
 20
17.30270871531765
 30
0
 10
52.207543515587
 20
17.34776963497701
 30
0
 10
52.16496812955359
 20
17.35789577903437
 30
0
 10
52.14117155055347
 20
17.32111985440711
 30
0
  0
SPLINE
  5
13D
100
AcDbEntity
  8
0
  6
ByLayer
 62
  256
370
   -1
100
AcDbSpline
210
0
220
0
230
0
 70
    8
 71
    3
 72
    8
 73
    4
 74
    0
 42
1e-007
 43
1e-007
 40
0
 40
0
 40
0
 40
0
 40
1
 40
1
 40
1
 40
1
 10
60.77959871866174
 20
17.30395148213062
 30
0
 10
60.74466359189648
 20
17.16034536979203
 30
0
 10
60.7798754353186
 20
15.73311881195593
 30
0
 10
60.81849215780787
 20
15.72759571604338
 30
0
  0
SPLINE
  5
13E
100
AcDbEntity
  8
0
  6
ByLayer
 62
  256
370
   -1
100
AcDbSpline
210
0
220
0
230
0
 70
    8
 71
    3
 72
    8
 73
    4
 74
    0
 42
1e-007
 43
1e-007
 40
0
 40
0
 40
0
 40
0
 40
1
 40
1
 40
1
 40
1
 10
60.81849215780787
 20
15.72759571604338
 30
0
 10
60.846201749127
 20
15.72363740366252
 30
0
 10
60.86079188067422
 20
15.73431557638052
 30
0
 10
60.86884616143784
 20
15.7644179942223
 30
0
  0
SPLINE
  5
13F
100
AcDbEntity
  8
0
  6
ByLayer
 62
  256
370
   -1
100
AcDbSpline
210
0
220
0
230
0
 70
    8
 71
    3
 72
    8
 73
    4
 74
    0
 42
1e-007
 43
1e-007
 40
0
 40
0
 40
0
 40
0
 40
1
 40
1
 40
1
 40
1
 10
60.86884616143784
 20
15.7644179942223
 30
0
 10
60.88445045250918
 20
15.82255096661211
 30
0
 10
60.8801690699198
 20
17.23159604613742
 30
0
 10
60.86428946684468
 20
17.28880826843296
 30
0
  0
SPLINE
  5
140
100
AcDbEntity
  8
0
  6
ByLayer
 62
  256
370
   -1
100
AcDbSpline
210
0
220
0
230
0
 70
    8
 71
    3
 72
    8
 73
    4
 74
    0
 42
1e-007
 43
1e-007
 40
0
 40
0
 40
0
 40
0
 40
1
 40
1
 40
1
 40
1
 10
60.86428946684468
 20
17.28880826843296
 30
0
 10
60.84725945289662
 20
17.35002515666103
 30
0
 10
60.79317749999099
 20
17.35969092567126
 30
0
 10
60.77959871866174
 20
17.30395148213062
 30
0
  0
SPLINE
  5
141
100
AcDbEntity
  8
0
  6
ByLayer
 62
  256
370
   -1
100
AcDbSpline
210
0
220
0
230
0
 70
    8
 71
    3
 72
    8
 73
    4
 74
    0
 42
1e-007
 43
1e-007
 40
0
 40
0
 40
0
 40
0
 40
1
 40
1
 40
1
 40
1
 10
51.92935232415608
 20
16.58467710013486
 30
0
 10
51.92369086991511
 20
16.18980524010231
 30
0
 10
51.93151548990006
 20
16.13388178700813
 30
0
 10
51.98951045512472
 20
16.15615958486495
 30
0
  0
SPLINE
  5
142
100
AcDbEntity
  8
0
  6
ByLayer
 62
  256
370
   -1
100
AcDbSpline
210
0
220
0
230
0
 70
    8
 71
    3
 72
    8
 73
    4
 74
    0
 42
1e-007
 43
1e-007
 40
0
 40
0
 40
0
 40
0
 40
1
 40
1
 40
1
 40
1
 10
51.98951045512472
 20
16.15615958486495
 30
0
 10
52.01114351721759
 20
16.16444422873378
 30
0
 10
52.01556220464559
 20
16.23219696774543
 30
0
 10
52.01454944977455
 20
16.5388334375464
 30
0
  0
SPLINE
  5
143
100
AcDbEntity
  8
0
  6
ByLayer
 62
  256
370
   -1
100
AcDbSpline
210
0
220
0
230
0
 70
    8
 71
    3
 72
    8
 73
    4
 74
    0
 42
1e-007
 43
1e-007
 40
0
 40
0
 40
0
 40
0
 40
1
 40
1
 40
1
 40
1
 10
52.01454944977455
 20
16.5388334375464
 30
0
 10
52.01303066863125
 20
16.9933566999488
 30
0
 10
52.01477981287975
 20
16.97591231334199
 30
0
 10
51.97077729931655
 20
16.97591231334199
 30
0
  0
SPLINE
  5
144
100
AcDbEntity
  8
0
  6
ByLayer
 62
  256
370
   -1
100
AcDbSpline
210
0
220
0
230
0
 70
    8
 71
    3
 72
    8
 73
    4
 74
    0
 42
1e-007
 43
1e-007
 40
0
 40
0
 40
0
 40
0
 40
1
 40
1
 40
1
 40
1
 10
51.97077729931655
 20
16.97591231334199
 30
0
 10
51.93667056670552
 20
16.97591231334199
 30
0
 10
51.93473741290347
 20
16.95796154929967
 30
0
 10
51.92935232415608
 20
16.58467710013486
 30
0
  0
SPLINE
  5
145
100
AcDbEntity
  8
0
  6
ByLayer
 62
  256
370
   -1
100
AcDbSpline
210
0
220
0
230
0
 70
    8
 71
    3
 72
    8
 73
    4
 74
    0
 42
1e-007
 43
1e-007
 40
0
 40
0
 40
0
 40
0
 40
1
 40
1
 40
1
 40
1
 10
52.36371530322052
 20
16.94995221743462
 30
0
 10
52.33195644823356
 20
16.86728697899377
 30
0
 10
52.36753560843623
 20
16.1197973305699
 30
0
 10
52.40320712457894
 20
16.1197973305699
 30
0
  0
SPLINE
  5
146
100
AcDbEntity
  8
0
  6
ByLayer
 62
  256
370
   -1
100
AcDbSpline
210
0
220
0
230
0
 70
    8
 71
    3
 72
    8
 73
    4
 74
    0
 42
1e-007
 43
1e-007
 40
0
 40
0
 40
0
 40
0
 40
1
 40
1
 40
1
 40
1
 10
52.40320712457894
 20
16.1197973305699
 30
0
 10
52.44191655417153
 20
16.1197973305699
 30
0
 10
52.4594529455551
 20
16.30984548770926
 30
0
 10
52.46474602952571
 20
16.78719857662912
 30
0
  0
LINE
  5
147
100
AcDbEntity
  8
0
  6
ByLayer
 62
  256
370
   -1
100
AcDbLine
 10
52.46474602952571
 20
16.78719857662912
 11
52.46686354404459
 21
16.97591231334199
  0
LINE
  5
148
100
AcDbEntity
  8
0
  6
ByLayer
 62
  256
370
   -1
100
AcDbLine
 10
52.46686354404459
 20
16.97591231334199
 11
52.42023748969027
 21
16.97591231334199
  0
SPLINE
  5
149
100
AcDbEntity
  8
0
  6
ByLayer
 62
  256
370
   -1
100
AcDbSpline
210
0
220
0
230
0
 70
    8
 71
    3
 72
    8
 73
    4
 74
    0
 42
1e-007
 43
1e-007
 40
0
 40
0
 40
0
 40
0
 40
1
 40
1
 40
1
 40
1
 10
52.42023748969027
 20
16.97591231334199
 30
0
 10
52.39464611521653
 20
16.97591231334199
 30
0
 10
52.36919274790796
 20
16.96422138575294
 30
0
 10
52.36371530322052
 20
16.94995221743462
 30
0
  0
SPLINE
  5
14A
100
AcDbEntity
  8
0
  6
ByLayer
 62
  256
370
   -1
100
AcDbSpline
210
0
220
0
230
0
 70
    8
 71
    3
 72
    8
 73
    4
 74
    0
 42
1e-007
 43
1e-007
 40
0
 40
0
 40
0
 40
0
 40
1
 40
1
 40
1
 40
1
 10
60.53924291144406
 20
16.55853299467395
 30
0
 10
60.55236096656291
 20
16.14456066205268
 30
0
 10
60.55981686511424
 20
16.09655383372023
 30
0
 10
60.60796134944857
 20
16.11501027287153
 30
0
  0
SPLINE
  5
14B
100
AcDbEntity
  8
0
  6
ByLayer
 62
  256
370
   -1
100
AcDbSpline
210
0
220
0
230
0
 70
    8
 71
    3
 72
    8
 73
    4
 74
    0
 42
1e-007
 43
1e-007
 40
0
 40
0
 40
0
 40
0
 40
1
 40
1
 40
1
 40
1
 10
60.60796134944857
 20
16.11501027287153
 30
0
 10
60.62715593379369
 20
16.12237486897262
 30
0
 10
60.63226465704749
 20
16.2136021702657
 30
0
 10
60.63221830349583
 20
16.54555329788354
 30
0
  0
LINE
  5
14C
100
AcDbEntity
  8
0
  6
ByLayer
 62
  256
370
   -1
100
AcDbLine
 10
60.63221830349583
 20
16.54555329788354
 11
60.63217194994418
 21
16.9667069193789
  0
LINE
  5
14D
100
AcDbEntity
  8
0
  6
ByLayer
 62
  256
370
   -1
100
AcDbLine
 10
60.63217194994418
 20
16.9667069193789
 11
60.57905639835792
 21
16.97278204395209
  0
LINE
  5
14E
100
AcDbEntity
  8
0
  6
ByLayer
 62
  256
370
   -1
100
AcDbLine
 10
60.57905639835792
 20
16.97278204395209
 11
60.52594084677168
 21
16.97885787085181
  0
LINE
  5
14F
100
AcDbEntity
  8
0
  6
ByLayer
 62
  256
370
   -1
100
AcDbLine
 10
60.52594084677168
 20
16.97885787085181
 11
60.53924291144406
 21
16.55853299467395
  0
SPLINE
  5
150
100
AcDbEntity
  8
0
  6
ByLayer
 62
  256
370
   -1
100
AcDbSpline
210
0
220
0
230
0
 70
    8
 71
    3
 72
    8
 73
    4
 74
    0
 42
1e-007
 43
1e-007
 40
0
 40
0
 40
0
 40
0
 40
1
 40
1
 40
1
 40
1
 10
60.98782870527516
 20
16.94369308330789
 30
0
 10
60.95059135211095
 20
16.58674826110207
 30
0
 10
60.99275341897542
 20
16.09590909795628
 30
0
 10
61.05429267508546
 20
16.16973766386766
 30
0
  0
SPLINE
  5
151
100
AcDbEntity
  8
0
  6
ByLayer
 62
  256
370
   -1
100
AcDbSpline
210
0
220
0
230
0
 70
    8
 71
    3
 72
    8
 73
    4
 74
    0
 42
1e-007
 43
1e-007
 40
0
 40
0
 40
0
 40
0
 40
1
 40
1
 40
1
 40
1
 10
61.05429267508546
 20
16.16973766386766
 30
0
 10
61.09475089776328
 20
16.21829652086075
 30
0
 10
61.06911316973788
 20
16.97591231334199
 30
0
 10
61.02699745642507
 20
16.97591231334199
 30
0
  0
SPLINE
  5
152
100
AcDbEntity
  8
0
  6
ByLayer
 62
  256
370
   -1
100
AcDbSpline
210
0
220
0
230
0
 70
    8
 71
    3
 72
    8
 73
    4
 74
    0
 42
1e-007
 43
1e-007
 40
0
 40
0
 40
0
 40
0
 40
1
 40
1
 40
1
 40
1
 10
61.02699745642507
 20
16.97591231334199
 30
0
 10
61.00646985630655
 20
16.97591231334199
 30
0
 10
60.98976150791394
 20
16.96219587601086
 30
0
 10
60.98782870527516
 20
16.94369308330789
 30
0
  0
SPLINE
  5
153
100
AcDbEntity
  8
0
  6
ByLayer
 62
  256
370
   -1
100
AcDbSpline
210
0
220
0
230
0
 70
    8
 71
    3
 72
    8
 73
    4
 74
    0
 42
1e-007
 43
1e-007
 40
0
 40
0
 40
0
 40
0
 40
1
 40
1
 40
1
 40
1
 10
51.76089087555794
 20
16.71447477036555
 30
0
 10
51.73318233772861
 20
16.48406039532515
 30
0
 10
51.74818754426111
 20
16.3683471815327
 30
0
 10
51.80567613205024
 20
16.3683471815327
 30
0
  0
SPLINE
  5
154
100
AcDbEntity
  8
0
  6
ByLayer
 62
  256
370
   -1
100
AcDbSpline
210
0
220
0
230
0
 70
    8
 71
    3
 72
    8
 73
    4
 74
    0
 42
1e-007
 43
1e-007
 40
0
 40
0
 40
0
 40
0
 40
1
 40
1
 40
1
 40
1
 10
51.80567613205024
 20
16.3683471815327
 30
0
 10
51.87770920016148
 20
16.3683471815327
 30
0
 10
51.88323264723729
 20
16.79626631459032
 30
0
 10
51.81133723512795
 20
16.80653011464958
 30
0
  0
SPLINE
  5
155
100
AcDbEntity
  8
0
  6
ByLayer
 62
  256
370
   -1
100
AcDbSpline
210
0
220
0
230
0
 70
    8
 71
    3
 72
    8
 73
    4
 74
    0
 42
1e-007
 43
1e-007
 40
0
 40
0
 40
0
 40
0
 40
1
 40
1
 40
1
 40
1
 10
51.81133723512795
 20
16.80653011464958
 30
0
 10
51.77727685606858
 20
16.81140917712472
 30
0
 10
51.77115537794373
 20
16.80022462697119
 30
0
 10
51.76089087555794
 20
16.71447477036555
 30
0
  0
SPLINE
  5
156
100
AcDbEntity
  8
0
  6
ByLayer
 62
  256
370
   -1
100
AcDbSpline
210
0
220
0
230
0
 70
    8
 71
    3
 72
    8
 73
    4
 74
    0
 42
1e-007
 43
1e-007
 40
0
 40
0
 40
0
 40
0
 40
1
 40
1
 40
1
 40
1
 10
61.15076565330768
 20
16.79792310289878
 30
0
 10
61.13539312999463
 20
16.78259623081084
 30
0
 10
61.1344730822269
 20
16.43706632186375
 30
0
 10
61.14966159598641
 20
16.39748249572855
 30
0
  0
SPLINE
  5
157
100
AcDbEntity
  8
0
  6
ByLayer
 62
  256
370
   -1
100
AcDbSpline
210
0
220
0
230
0
 70
    8
 71
    3
 72
    8
 73
    4
 74
    0
 42
1e-007
 43
1e-007
 40
0
 40
0
 40
0
 40
0
 40
1
 40
1
 40
1
 40
1
 10
61.14966159598641
 20
16.39748249572855
 30
0
 10
61.18611515273169
 20
16.30243524038305
 30
0
 10
61.24903518281987
 20
16.38128052477146
 30
0
 10
61.24880481971466
 20
16.52175707004669
 30
0
  0
SPLINE
  5
158
100
AcDbEntity
  8
0
  6
ByLayer
 62
  256
370
   -1
100
AcDbSpline
210
0
220
0
230
0
 70
    8
 71
    3
 72
    8
 73
    4
 74
    0
 42
1e-007
 43
1e-007
 40
0
 40
0
 40
0
 40
0
 40
1
 40
1
 40
1
 40
1
 10
61.24880481971466
 20
16.52175707004669
 30
0
 10
61.24839044705592
 20
16.75884565419911
 30
0
 10
61.21258162607458
 20
16.85973837333914
 30
0
 10
61.15076565330768
 20
16.79792310289878
 30
0
  0
SPLINE
  5
159
100
AcDbEntity
  8
0
  6
ByLayer
 62
  256
370
   -1
100
AcDbSpline
210
0
220
0
230
0
 70
    8
 71
    3
 72
    8
 73
    4
 74
    0
 42
1e-007
 43
1e-007
 40
0
 40
0
 40
0
 40
0
 40
1
 40
1
 40
1
 40
1
 10
50.52159601383215
 20
16.74738508971526
 30
0
 10
49.83721058063162
 20
16.61684997661731
 30
0
 10
49.33224095865921
 20
16.14635510636302
 30
0
 10
49.12092793411571
 20
15.44231629400497
 30
0
  0
SPLINE
  5
15A
100
AcDbEntity
  8
0
  6
ByLayer
 62
  256
370
   -1
100
AcDbSpline
210
0
220
0
230
0
 70
    8
 71
    3
 72
    8
 73
    4
 74
    0
 42
1e-007
 43
1e-007
 40
0
 40
0
 40
0
 40
0
 40
1
 40
1
 40
1
 40
1
 10
49.12092793411571
 20
15.44231629400497
 30
0
 10
48.8958064674643
 20
14.69234111195513
 30
0
 10
49.19360556240925
 20
13.81648092083037
 30
0
 10
49.76618974064653
 20
13.54445720991269
 30
0
  0
SPLINE
  5
15B
100
AcDbEntity
  8
0
  6
ByLayer
 62
  256
370
   -1
100
AcDbSpline
210
0
220
0
230
0
 70
    8
 71
    3
 72
    8
 73
    4
 74
    0
 42
1e-007
 43
1e-007
 40
0
 40
0
 40
0
 40
0
 40
1
 40
1
 40
1
 40
1
 10
49.76618974064653
 20
13.54445720991269
 30
0
 10
49.93667634782349
 20
13.4634487597803
 30
0
 10
49.92213151633813
 20
13.45184913464148
 30
0
 10
50.10320446703795
 20
13.81348900976889
 30
0
  0
SPLINE
  5
15C
100
AcDbEntity
  8
0
  6
ByLayer
 62
  256
370
   -1
100
AcDbSpline
210
0
220
0
230
0
 70
    8
 71
    3
 72
    8
 73
    4
 74
    0
 42
1e-007
 43
1e-007
 40
0
 40
0
 40
0
 40
0
 40
1
 40
1
 40
1
 40
1
 10
50.10320446703795
 20
13.81348900976889
 30
0
 10
50.36247831752553
 20
14.33143797736845
 30
0
 10
50.62428352844579
 20
14.71208702263434
 30
0
 10
51.05634533460109
 20
15.19924388772959
 30
0
  0
SPLINE
  5
15D
100
AcDbEntity
  8
0
  6
ByLayer
 62
  256
370
   -1
100
AcDbSpline
210
0
220
0
230
0
 70
    8
 71
    3
 72
    8
 73
    4
 74
    0
 42
1e-007
 43
1e-007
 40
0
 40
0
 40
0
 40
0
 40
1
 40
1
 40
1
 40
1
 10
51.05634533460109
 20
15.19924388772959
 30
0
 10
51.2975765918512
 20
15.47126759864727
 30
0
 10
51.2996477528184
 20
15.47715941599346
 30
0
 10
51.21592340595485
 20
15.65487190977981
 30
0
  0
SPLINE
  5
15E
100
AcDbEntity
  8
0
  6
ByLayer
 62
  256
370
   -1
100
AcDbSpline
210
0
220
0
230
0
 70
    8
 71
    3
 72
    8
 73
    4
 74
    0
 42
1e-007
 43
1e-007
 40
0
 40
0
 40
0
 40
0
 40
1
 40
1
 40
1
 40
1
 10
51.21592340595485
 20
15.65487190977981
 30
0
 10
51.08759816331581
 20
15.92726363980458
 30
0
 10
51.01303355919023
 20
16.24061996994268
 30
0
 10
51.01266518891988
 20
16.50877737325627
 30
0
  0
SPLINE
  5
15F
100
AcDbEntity
  8
0
  6
ByLayer
 62
  256
370
   -1
100
AcDbSpline
210
0
220
0
230
0
 70
    8
 71
    3
 72
    8
 73
    4
 74
    0
 42
1e-007
 43
1e-007
 40
0
 40
0
 40
0
 40
0
 40
1
 40
1
 40
1
 40
1
 10
51.01266518891988
 20
16.50877737325627
 30
0
 10
51.01243517697795
 20
16.66186559621482
 30
0
 10
51.00585297264269
 20
16.71907781851036
 30
0
 10
50.98656743701062
 20
16.73509507758737
 30
0
  0
SPLINE
  5
160
100
AcDbEntity
  8
0
  6
ByLayer
 62
  256
370
   -1
100
AcDbSpline
210
0
220
0
230
0
 70
    8
 71
    3
 72
    8
 73
    4
 74
    0
 42
1e-007
 43
1e-007
 40
0
 40
0
 40
0
 40
0
 40
1
 40
1
 40
1
 40
1
 10
50.98656743701062
 20
16.73509507758737
 30
0
 10
50.9464772334399
 20
16.76832706249252
 30
0
 10
50.66994318148072
 20
16.77564600736849
 30
0
 10
50.52159601383215
 20
16.74738508971526
 30
0
  0
SPLINE
  5
161
100
AcDbEntity
  8
0
  6
ByLayer
 62
  256
370
   -1
100
AcDbSpline
210
0
220
0
230
0
 70
    8
 71
    3
 72
    8
 73
    4
 74
    0
 42
1e-007
 43
1e-007
 40
0
 40
0
 40
0
 40
0
 40
1
 40
1
 40
1
 40
1
 10
62.08664667056247
 20
16.75981205551849
 30
0
 10
61.99164576876861
 20
16.74591160863381
 30
0
 10
61.98538663464188
 20
16.73044637821744
 30
0
 10
61.98510991798501
 20
16.50877737325627
 30
0
  0
SPLINE
  5
162
100
AcDbEntity
  8
0
  6
ByLayer
 62
  256
370
   -1
100
AcDbSpline
210
0
220
0
230
0
 70
    8
 71
    3
 72
    8
 73
    4
 74
    0
 42
1e-007
 43
1e-007
 40
0
 40
0
 40
0
 40
0
 40
1
 40
1
 40
1
 40
1
 10
61.98510991798501
 20
16.50877737325627
 30
0
 10
61.98474189887793
 20
16.24061996994268
 30
0
 10
61.91017729475235
 20
15.92726363980458
 30
0
 10
61.78185240327658
 20
15.65487190977981
 30
0
  0
SPLINE
  5
163
100
AcDbEntity
  8
0
  6
ByLayer
 62
  256
370
   -1
100
AcDbSpline
210
0
220
0
230
0
 70
    8
 71
    3
 72
    8
 73
    4
 74
    0
 42
1e-007
 43
1e-007
 40
0
 40
0
 40
0
 40
0
 40
1
 40
1
 40
1
 40
1
 10
61.78185240327658
 20
15.65487190977981
 30
0
 10
61.69812805641303
 20
15.47715941599346
 30
0
 10
61.7001985150537
 20
15.47126759864727
 30
0
 10
61.94142942114053
 20
15.19924388772959
 30
0
  0
SPLINE
  5
164
100
AcDbEntity
  8
0
  6
ByLayer
 62
  256
370
   -1
100
AcDbSpline
210
0
220
0
230
0
 70
    8
 71
    3
 72
    8
 73
    4
 74
    0
 42
1e-007
 43
1e-007
 40
0
 40
0
 40
0
 40
0
 40
1
 40
1
 40
1
 40
1
 10
61.94142942114053
 20
15.19924388772959
 30
0
 10
62.37349087613256
 20
14.71208702263434
 30
0
 10
62.63529714054264
 20
14.33143797736845
 30
0
 10
62.89457081544857
 20
13.81348900976889
 30
0
  0
SPLINE
  5
165
100
AcDbEntity
  8
0
  6
ByLayer
 62
  256
370
   -1
100
AcDbSpline
210
0
220
0
230
0
 70
    8
 71
    3
 72
    8
 73
    4
 74
    0
 42
1e-007
 43
1e-007
 40
0
 40
0
 40
0
 40
0
 40
1
 40
1
 40
1
 40
1
 10
62.89457081544857
 20
13.81348900976889
 30
0
 10
63.07564323940349
 20
13.45184913464148
 30
0
 10
63.06109946140793
 20
13.4634487597803
 30
0
 10
63.23158501509509
 20
13.54445720991269
 30
0
  0
SPLINE
  5
166
100
AcDbEntity
  8
0
  6
ByLayer
 62
  256
370
   -1
100
AcDbSpline
210
0
220
0
230
0
 70
    8
 71
    3
 72
    8
 73
    4
 74
    0
 42
1e-007
 43
1e-007
 40
0
 40
0
 40
0
 40
0
 40
1
 40
1
 40
1
 40
1
 10
63.23158501509509
 20
13.54445720991269
 30
0
 10
63.91007880653106
 20
13.86678927323522
 30
0
 10
64.16217329954253
 20
14.96744873871106
 30
0
 10
63.74631311318105
 20
15.79212618088836
 30
0
  0
SPLINE
  5
167
100
AcDbEntity
  8
0
  6
ByLayer
 62
  256
370
   -1
100
AcDbSpline
210
0
220
0
230
0
 70
    8
 71
    3
 72
    8
 73
    4
 74
    0
 42
1e-007
 43
1e-007
 40
0
 40
0
 40
0
 40
0
 40
1
 40
1
 40
1
 40
1
 10
63.74631311318105
 20
15.79212618088836
 30
0
 10
63.43134494363306
 20
16.41672202897224
 30
0
 10
62.69131189608706
 20
16.84823145530363
 30
0
 10
62.08664667056247
 20
16.75981205551849
 30
0
  0
SPLINE
  5
168
100
AcDbEntity
  8
0
  6
ByLayer
 62
  256
370
   -1
100
AcDbSpline
210
0
220
0
230
0
 70
    8
 71
    3
 72
    8
 73
    4
 74
    0
 42
1e-007
 43
1e-007
 40
0
 40
0
 40
0
 40
0
 40
1
 40
1
 40
1
 40
1
 10
52.52274099475037
 20
16.68253155466176
 30
0
 10
52.46852033235303
 20
16.58122516518952
 30
0
 10
52.51293721857498
 20
16.38869147442421
 30
0
 10
52.58418789492037
 20
16.41603164198317
 30
0
  0
SPLINE
  5
169
100
AcDbEntity
  8
0
  6
ByLayer
 62
  256
370
   -1
100
AcDbSpline
210
0
220
0
230
0
 70
    8
 71
    3
 72
    8
 73
    4
 74
    0
 42
1e-007
 43
1e-007
 40
0
 40
0
 40
0
 40
0
 40
1
 40
1
 40
1
 40
1
 10
52.58418789492037
 20
16.41603164198317
 30
0
 10
52.63375985794777
 20
16.43504081212166
 30
0
 10
52.62791439415324
 20
16.71815706841609
 30
0
 10
52.57797441201875
 20
16.71815706841609
 30
0
  0
SPLINE
  5
16A
100
AcDbEntity
  8
0
  6
ByLayer
 62
  256
370
   -1
100
AcDbSpline
210
0
220
0
230
0
 70
    8
 71
    3
 72
    8
 73
    4
 74
    0
 42
1e-007
 43
1e-007
 40
0
 40
0
 40
0
 40
0
 40
1
 40
1
 40
1
 40
1
 10
52.57797441201875
 20
16.71815706841609
 30
0
 10
52.55809049417438
 20
16.71815706841609
 30
0
 10
52.5332355090781
 20
16.70213980933908
 30
0
 10
52.52274099475037
 20
16.68253155466176
 30
0
  0
SPLINE
  5
16B
100
AcDbEntity
  8
0
  6
ByLayer
 62
  256
370
   -1
100
AcDbSpline
210
0
220
0
230
0
 70
    8
 71
    3
 72
    8
 73
    4
 74
    0
 42
1e-007
 43
1e-007
 40
0
 40
0
 40
0
 40
0
 40
1
 40
1
 40
1
 40
1
 10
60.38362280130791
 20
16.57284781421739
 30
0
 10
60.38362280130791
 20
16.42081869968154
 30
0
 10
60.40939818533519
 20
16.37621745274278
 30
0
 10
60.46882062925291
 20
16.42551305027659
 30
0
  0
SPLINE
  5
16C
100
AcDbEntity
  8
0
  6
ByLayer
 62
  256
370
   -1
100
AcDbSpline
210
0
220
0
230
0
 70
    8
 71
    3
 72
    8
 73
    4
 74
    0
 42
1e-007
 43
1e-007
 40
0
 40
0
 40
0
 40
0
 40
1
 40
1
 40
1
 40
1
 10
60.46882062925291
 20
16.42551305027659
 30
0
 10
60.53045118781318
 20
16.47669579922406
 30
0
 10
60.49003931868703
 20
16.71815706841609
 30
0
 10
60.41980104604941
 20
16.71815706841609
 30
0
  0
SPLINE
  5
16D
100
AcDbEntity
  8
0
  6
ByLayer
 62
  256
370
   -1
100
AcDbSpline
210
0
220
0
230
0
 70
    8
 71
    3
 72
    8
 73
    4
 74
    0
 42
1e-007
 43
1e-007
 40
0
 40
0
 40
0
 40
0
 40
1
 40
1
 40
1
 40
1
 10
60.41980104604941
 20
16.71815706841609
 30
0
 10
60.38689142902625
 20
16.71815706841609
 30
0
 10
60.38362280130791
 20
16.70499336207213
 30
0
 10
60.38362280130791
 20
16.57284781421739
 30
0
  0
SPLINE
  5
16E
100
AcDbEntity
  8
0
  6
ByLayer
 62
  256
370
   -1
100
AcDbSpline
210
0
220
0
230
0
 70
    8
 71
    3
 72
    8
 73
    4
 74
    0
 42
1e-007
 43
1e-007
 40
0
 40
0
 40
0
 40
0
 40
1
 40
1
 40
1
 40
1
 10
50.90910292660034
 20
16.43738868974573
 30
0
 10
50.92350975092054
 20
16.26193066415358
 30
0
 10
51.0438720152462
 20
15.76814594349796
 30
0
 10
51.11194677097657
 20
15.60543795391757
 30
0
  0
LINE
  5
16F
100
AcDbEntity
  8
0
  6
ByLayer
 62
  256
370
   -1
100
AcDbLine
 10
51.11194677097657
 20
15.60543795391757
 11
51.14227920076027
 21
15.5329445107592
  0
LINE
  5
170
100
AcDbEntity
  8
0
  6
ByLayer
 62
  256
370
   -1
100
AcDbLine
 10
51.14227920076027
 20
15.5329445107592
 11
51.0615927673466
 21
15.44894414956533
  0
SPLINE
  5
171
100
AcDbEntity
  8
0
  6
ByLayer
 62
  256
370
   -1
100
AcDbSpline
210
0
220
0
230
0
 70
    8
 71
    3
 72
    8
 73
    4
 74
    0
 42
1e-007
 43
1e-007
 40
0
 40
0
 40
0
 40
0
 40
1
 40
1
 40
1
 40
1
 10
51.06159276734659
 20
15.44894414956533
 30
0
 10
50.80314713543163
 20
15.17986669848402
 30
0
 10
50.24791551460601
 20
14.34451038126218
 30
0
 10
49.96806718370337
 20
13.80377723837027
 30
0
  0
LINE
  5
172
100
AcDbEntity
  8
0
  6
ByLayer
 62
  256
370
   -1
100
AcDbLine
 10
49.96806718370337
 20
13.80377723837027
 11
49.90054463221527
 21
13.67328847882398
  0
LINE
  5
173
100
AcDbEntity
  8
0
  6
ByLayer
 62
  256
370
   -1
100
AcDbLine
 10
49.90054463221527
 20
13.67328847882398
 11
49.75113870730728
 21
13.83309656211967
  0
SPLINE
  5
174
100
AcDbEntity
  8
0
  6
ByLayer
 62
  256
370
   -1
100
AcDbSpline
210
0
220
0
230
0
 70
    8
 71
    3
 72
    8
 73
    4
 74
    0
 42
1e-007
 43
1e-007
 40
0
 40
0
 40
0
 40
0
 40
1
 40
1
 40
1
 40
1
 10
49.75113870730728
 20
13.83309656211967
 30
0
 10
48.85277070638375
 20
14.79415458118944
 30
0
 10
49.39861274811109
 20
16.349613323398
 30
0
 10
50.71155216619473
 20
16.56999426148434
 30
0
  0
SPLINE
  5
175
100
AcDbEntity
  8
0
  6
ByLayer
 62
  256
370
   -1
100
AcDbSpline
210
0
220
0
230
0
 70
    8
 71
    3
 72
    8
 73
    4
 74
    0
 42
1e-007
 43
1e-007
 40
0
 40
0
 40
0
 40
0
 40
1
 40
1
 40
1
 40
1
 10
50.71155216619473
 20
16.56999426148434
 30
0
 10
50.90486824872588
 20
16.60244385462364
 30
0
 10
50.89501847016211
 20
16.60902535663235
 30
0
 10
50.90910292660034
 20
16.43738868974573
 30
0
  0
SPLINE
  5
176
100
AcDbEntity
  8
0
  6
ByLayer
 62
  256
370
   -1
100
AcDbSpline
210
0
220
0
230
0
 70
    8
 71
    3
 72
    8
 73
    4
 74
    0
 42
1e-007
 43
1e-007
 40
0
 40
0
 40
0
 40
0
 40
1
 40
1
 40
1
 40
1
 10
62.48248493191441
 20
16.52148105571637
 30
0
 10
63.67685723230927
 20
16.1772862695223
 30
0
 10
64.08746963476199
 20
14.73266167863105
 30
0
 10
63.24663587285271
 20
13.83309656211967
 30
0
  0
LINE
  5
177
100
AcDbEntity
  8
0
  6
ByLayer
 62
  256
370
   -1
100
AcDbLine
 10
63.24663587285271
 20
13.83309656211967
 11
63.0972299479447
 21
13.67328847882398
  0
LINE
  5
178
100
AcDbEntity
  8
0
  6
ByLayer
 62
  256
370
   -1
100
AcDbLine
 10
63.0972299479447
 20
13.67328847882398
 11
63.02970827436479
 21
13.80377723837027
  0
SPLINE
  5
179
100
AcDbEntity
  8
0
  6
ByLayer
 62
  256
370
   -1
100
AcDbSpline
210
0
220
0
230
0
 70
    8
 71
    3
 72
    8
 73
    4
 74
    0
 42
1e-007
 43
1e-007
 40
0
 40
0
 40
0
 40
0
 40
1
 40
1
 40
1
 40
1
 10
63.02970827436479
 20
13.80377723837027
 30
0
 10
62.74985924113562
 20
14.34451038126218
 30
0
 10
62.19462797147327
 20
15.17986669848402
 30
0
 10
61.93618304188484
 20
15.44894414956533
 30
0
  0
LINE
  5
17A
100
AcDbEntity
  8
0
  6
ByLayer
 62
  256
370
   -1
100
AcDbLine
 10
61.93618304188485
 20
15.44894414956533
 11
61.85549555498135
 21
15.5329445107592
  0
LINE
  5
17B
100
AcDbEntity
  8
0
  6
ByLayer
 62
  256
370
   -1
100
AcDbLine
 10
61.85549555498135
 20
15.5329445107592
 11
61.88582763360179
 21
15.60543795391757
  0
SPLINE
  5
17C
100
AcDbEntity
  8
0
  6
ByLayer
 62
  256
370
   -1
100
AcDbSpline
210
0
220
0
230
0
 70
    8
 71
    3
 72
    8
 73
    4
 74
    0
 42
1e-007
 43
1e-007
 40
0
 40
0
 40
0
 40
0
 40
1
 40
1
 40
1
 40
1
 10
61.88582763360179
 20
15.60543795391757
 30
0
 10
61.95413310360063
 20
15.76879067926192
 30
0
 10
62.07431100720946
 20
16.26211537603367
 30
0
 10
62.08880983630644
 20
16.43886146850064
 30
0
  0
LINE
  5
17D
100
AcDbEntity
  8
0
  6
ByLayer
 62
  256
370
   -1
100
AcDbLine
 10
62.08880983630645
 20
16.43886146850064
 11
62.10137586276466
 21
16.59227135701462
  0
LINE
  5
17E
100
AcDbEntity
  8
0
  6
ByLayer
 62
  256
370
   -1
100
AcDbLine
 10
62.10137586276466
 20
16.59227135701462
 11
62.21368349516341
 21
16.57943001855264
  0
SPLINE
  5
17F
100
AcDbEntity
  8
0
  6
ByLayer
 62
  256
370
   -1
100
AcDbSpline
210
0
220
0
230
0
 70
    8
 71
    3
 72
    8
 73
    4
 74
    0
 42
1e-007
 43
1e-007
 40
0
 40
0
 40
0
 40
0
 40
1
 40
1
 40
1
 40
1
 10
62.21368349516341
 20
16.57943001855264
 30
0
 10
62.27545311437866
 20
16.57234143678186
 30
0
 10
62.39641340975334
 20
16.54629003842426
 30
0
 10
62.48248493191441
 20
16.52148105571637
 30
0
  0
SPLINE
  5
180
100
AcDbEntity
  8
0
  6
ByLayer
 62
  256
370
   -1
100
AcDbSpline
210
0
220
0
230
0
 70
    8
 71
    3
 72
    8
 73
    4
 74
    0
 42
1e-007
 43
1e-007
 40
0
 40
0
 40
0
 40
0
 40
1
 40
1
 40
1
 40
1
 10
58.18234952158134
 20
12.99718821623719
 30
0
 10
58.19786110554936
 20
12.98167663226916
 30
0
 10
58.00265787160455
 20
12.4331188693923
 30
0
 10
57.89173101318393
 20
12.18047305004674
 30
0
  0
SPLINE
  5
181
100
AcDbEntity
  8
0
  6
ByLayer
 62
  256
370
   -1
100
AcDbSpline
210
0
220
0
230
0
 70
    8
 71
    3
 72
    8
 73
    4
 74
    0
 42
1e-007
 43
1e-007
 40
0
 40
0
 40
0
 40
0
 40
1
 40
1
 40
1
 40
1
 10
57.89173101318393
 20
12.18047305004674
 30
0
 10
57.58546256249005
 20
11.4830157396974
 30
0
 10
57.22106184173291
 20
11.04437208037012
 30
0
 10
56.70808323905872
 20
10.75559507216124
 30
0
  0
SPLINE
  5
182
100
AcDbEntity
  8
0
  6
ByLayer
 62
  256
370
   -1
100
AcDbSpline
210
0
220
0
230
0
 70
    8
 71
    3
 72
    8
 73
    4
 74
    0
 42
1e-007
 43
1e-007
 40
0
 40
0
 40
0
 40
0
 40
1
 40
1
 40
1
 40
1
 10
56.70808323905872
 20
10.75559507216124
 30
0
 10
56.61556787089083
 20
10.70353722434462
 30
0
 10
56.52144136563959
 20
10.66091583592283
 30
0
 10
56.49888755345245
 20
10.66091583592283
 30
0
  0
SPLINE
  5
183
100
AcDbEntity
  8
0
  6
ByLayer
 62
  256
370
   -1
100
AcDbSpline
210
0
220
0
230
0
 70
    8
 71
    3
 72
    8
 73
    4
 74
    0
 42
1e-007
 43
1e-007
 40
0
 40
0
 40
0
 40
0
 40
1
 40
1
 40
1
 40
1
 10
56.49888755345245
 20
10.66091583592283
 30
0
 10
56.44678405441071
 20
10.66091583592283
 30
0
 10
56.15478477203516
 20
10.8247278828245
 30
0
 10
56.01361783977086
 20
10.93312355639405
 30
0
  0
SPLINE
  5
184
100
AcDbEntity
  8
0
  6
ByLayer
 62
  256
370
   -1
100
AcDbSpline
210
0
220
0
230
0
 70
    8
 71
    3
 72
    8
 73
    4
 74
    0
 42
1e-007
 43
1e-007
 40
0
 40
0
 40
0
 40
0
 40
1
 40
1
 40
1
 40
1
 10
56.01361783977086
 20
10.93312355639405
 30
0
 10
55.51233016468572
 20
11.31805328192279
 30
0
 10
55.10572172583899
 20
12.00487736845271
 30
0
 10
54.81537923177189
 20
12.95714436621813
 30
0
  0
SPLINE
  5
185
100
AcDbEntity
  8
0
  6
ByLayer
 62
  256
370
   -1
100
AcDbSpline
210
0
220
0
230
0
 70
    8
 71
    3
 72
    8
 73
    4
 74
    0
 42
1e-007
 43
1e-007
 40
0
 40
0
 40
0
 40
0
 40
1
 40
1
 40
1
 40
1
 10
54.81537923177189
 20
12.95714436621813
 30
0
 10
54.80299791719378
 20
12.99774024489783
 30
0
 10
54.80465470550223
 20
12.9980626127798
 30
0
 10
55.04795747488281
 20
13.00464481711505
 30
0
  0
SPLINE
  5
186
100
AcDbEntity
  8
0
  6
ByLayer
 62
  256
370
   -1
100
AcDbSpline
210
0
220
0
230
0
 70
    8
 71
    3
 72
    8
 73
    4
 74
    0
 42
1e-007
 43
1e-007
 40
0
 40
0
 40
0
 40
0
 40
1
 40
1
 40
1
 40
1
 10
55.04795747488281
 20
13.00464481711505
 30
0
 10
55.43127536100167
 20
13.01495497072597
 30
0
 10
58.17111861787616
 20
13.00846477116749
 30
0
 10
58.18234952158134
 20
12.99718821623719
 30
0
  0
SPLINE
  5
187
100
AcDbEntity
  8
0
  6
ByLayer
 62
  256
370
   -1
100
AcDbSpline
210
0
220
0
230
0
 70
    8
 71
    3
 72
    8
 73
    4
 74
    0
 42
1e-007
 43
1e-007
 40
0
 40
0
 40
0
 40
0
 40
1
 40
1
 40
1
 40
1
 10
54.65133682176503
 20
12.98094059405498
 30
0
 10
54.66298209812896
 20
12.98080223572655
 30
0
 10
54.68277366003328
 20
12.93721374365883
 30
0
 10
54.69533898416495
 20
12.88405183852093
 30
0
  0
SPLINE
  5
188
100
AcDbEntity
  8
0
  6
ByLayer
 62
  256
370
   -1
100
AcDbSpline
210
0
220
0
230
0
 70
    8
 71
    3
 72
    8
 73
    4
 74
    0
 42
1e-007
 43
1e-007
 40
0
 40
0
 40
0
 40
0
 40
1
 40
1
 40
1
 40
1
 10
54.69533898416495
 20
12.88405183852093
 30
0
 10
54.9865565771012
 20
11.65133882996711
 30
0
 10
55.83277507659459
 20
10.55965439534917
 30
0
 10
56.49713876036721
 20
10.55965439534917
 30
0
  0
SPLINE
  5
189
100
AcDbEntity
  8
0
  6
ByLayer
 62
  256
370
   -1
100
AcDbSpline
210
0
220
0
230
0
 70
    8
 71
    3
 72
    8
 73
    4
 74
    0
 42
1e-007
 43
1e-007
 40
0
 40
0
 40
0
 40
0
 40
1
 40
1
 40
1
 40
1
 10
56.49713876036721
 20
10.55965439534917
 30
0
 10
57.16384961943737
 20
10.55965439534917
 30
0
 10
58.01103452025015
 20
11.65041878219938
 30
0
 10
58.30243612273995
 20
12.88405183852093
 30
0
  0
SPLINE
  5
18A
100
AcDbEntity
  8
0
  6
ByLayer
 62
  256
370
   -1
100
AcDbSpline
210
0
220
0
230
0
 70
    8
 71
    3
 72
    8
 73
    4
 74
    0
 42
1e-007
 43
1e-007
 40
0
 40
0
 40
0
 40
0
 40
1
 40
1
 40
1
 40
1
 10
58.30243612273995
 20
12.88405183852093
 30
0
 10
58.32089326421779
 20
12.96216108469515
 30
0
 10
58.33286020613716
 20
12.98117025483364
 30
0
 10
58.36484907306606
 20
12.98310375979896
 30
0
  0
SPLINE
  5
18B
100
AcDbEntity
  8
0
  6
ByLayer
 62
  256
370
   -1
100
AcDbSpline
210
0
220
0
230
0
 70
    8
 71
    3
 72
    8
 73
    4
 74
    0
 42
1e-007
 43
1e-007
 40
0
 40
0
 40
0
 40
0
 40
1
 40
1
 40
1
 40
1
 10
58.36484907306606
 20
12.98310375979896
 30
0
 10
58.46113944638782
 20
12.98890287004182
 30
0
 10
58.74107978206723
 20
12.97596952680307
 30
0
 10
59.02120412730018
 20
12.95267967640174
 30
0
  0
SPLINE
  5
18C
100
AcDbEntity
  8
0
  6
ByLayer
 62
  256
370
   -1
100
AcDbSpline
210
0
220
0
230
0
 70
    8
 71
    3
 72
    8
 73
    4
 74
    0
 42
1e-007
 43
1e-007
 40
0
 40
0
 40
0
 40
0
 40
1
 40
1
 40
1
 40
1
 10
59.02120412730018
 20
12.95267967640174
 30
0
 10
59.18828409959366
 20
12.93882488074217
 30
0
 10
59.44097697481741
 20
12.91820457352035
 30
0
 10
59.58274158696746
 20
12.90683601381327
 30
0
  0
SPLINE
  5
18D
100
AcDbEntity
  8
0
  6
ByLayer
 62
  256
370
   -1
100
AcDbSpline
210
0
220
0
230
0
 70
    8
 71
    3
 72
    8
 73
    4
 74
    0
 42
1e-007
 43
1e-007
 40
0
 40
0
 40
0
 40
0
 40
1
 40
1
 40
1
 40
1
 10
59.58274158696746
 20
12.90683601381327
 30
0
 10
59.81347832988983
 20
12.88833251878377
 30
0
 10
60.43572700267619
 20
12.82960116418166
 30
0
 10
61.24894388036964
 20
12.74951346414354
 30
0
  0
SPLINE
  5
18E
100
AcDbEntity
  8
0
  6
ByLayer
 62
  256
370
   -1
100
AcDbSpline
210
0
220
0
230
0
 70
    8
 71
    3
 72
    8
 73
    4
 74
    0
 42
1e-007
 43
1e-007
 40
0
 40
0
 40
0
 40
0
 40
1
 40
1
 40
1
 40
1
 10
61.24894388036964
 20
12.74951346414354
 30
0
 10
61.79322026065712
 20
12.69589083279523
 30
0
 10
61.92297227966268
 20
12.68682379716056
 30
0
 10
62.32511602869302
 20
12.67425777070236
 30
0
  0
LINE
  5
18F
100
AcDbEntity
  8
0
  6
ByLayer
 62
  256
370
   -1
100
AcDbLine
 10
62.32511602869302
 20
12.67425777070236
 11
62.7293316410171
 21
12.66164609301904
  0
LINE
  5
190
100
AcDbEntity
  8
0
  6
ByLayer
 62
  256
370
   -1
100
AcDbLine
 10
62.7293316410171
 20
12.66164609301904
 11
62.63810504205057
 21
12.58026962377955
  0
SPLINE
  5
191
100
AcDbEntity
  8
0
  6
ByLayer
 62
  256
370
   -1
100
AcDbSpline
210
0
220
0
230
0
 70
    8
 71
    3
 72
    8
 73
    4
 74
    0
 42
1e-007
 43
1e-007
 40
0
 40
0
 40
0
 40
0
 40
1
 40
1
 40
1
 40
1
 10
62.63810504205058
 20
12.58026962377955
 30
0
 10
62.58797999687272
 20
12.53548436728724
 30
0
 10
62.47650110979146
 20
12.44388974921362
 30
0
 10
62.39042958763038
 20
12.3766890388626
 30
0
  0
SPLINE
  5
192
100
AcDbEntity
  8
0
  6
ByLayer
 62
  256
370
   -1
100
AcDbSpline
210
0
220
0
230
0
 70
    8
 71
    3
 72
    8
 73
    4
 74
    0
 42
1e-007
 43
1e-007
 40
0
 40
0
 40
0
 40
0
 40
1
 40
1
 40
1
 40
1
 10
62.39042958763038
 20
12.3766890388626
 30
0
 10
62.3043580654693
 20
12.30948903083812
 30
0
 10
62.22979346134373
 20
12.25011294047206
 30
0
 10
62.22472968698851
 20
12.24477385411306
 30
0
  0
SPLINE
  5
193
100
AcDbEntity
  8
0
  6
ByLayer
 62
  256
370
   -1
100
AcDbSpline
210
0
220
0
230
0
 70
    8
 71
    3
 72
    8
 73
    4
 74
    0
 42
1e-007
 43
1e-007
 40
0
 40
0
 40
0
 40
0
 40
1
 40
1
 40
1
 40
1
 10
62.22472968698851
 20
12.24477385411306
 30
0
 10
62.21966731728637
 20
12.23943476775405
 30
0
 10
62.20249824268335
 20
12.22677673651907
 30
0
 10
62.186527337158
 20
12.21665059246171
 30
0
  0
SPLINE
  5
194
100
AcDbEntity
  8
0
  6
ByLayer
 62
  256
370
   -1
100
AcDbSpline
210
0
220
0
230
0
 70
    8
 71
    3
 72
    8
 73
    4
 74
    0
 42
1e-007
 43
1e-007
 40
0
 40
0
 40
0
 40
0
 40
1
 40
1
 40
1
 40
1
 10
62.186527337158
 20
12.21665059246171
 30
0
 10
62.17060138053122
 20
12.20652444840434
 30
0
 10
62.07237820457068
 20
12.14024519047413
 30
0
 10
61.96826391359052
 20
12.06936218207257
 30
0
  0
SPLINE
  5
195
100
AcDbEntity
  8
0
  6
ByLayer
 62
  256
370
   -1
100
AcDbSpline
210
0
220
0
230
0
 70
    8
 71
    3
 72
    8
 73
    4
 74
    0
 42
1e-007
 43
1e-007
 40
0
 40
0
 40
0
 40
0
 40
1
 40
1
 40
1
 40
1
 10
61.96826391359052
 20
12.06936218207257
 30
0
 10
61.86410326905868
 20
11.99847987599754
 30
0
 10
61.75704342056869
 20
11.92704483893534
 30
0
 10
61.73025528167037
 20
11.91056685364792
 30
0
  0
SPLINE
  5
196
100
AcDbEntity
  8
0
  6
ByLayer
 62
  256
370
   -1
100
AcDbSpline
210
0
220
0
230
0
 70
    8
 71
    3
 72
    8
 73
    4
 74
    0
 42
1e-007
 43
1e-007
 40
0
 40
0
 40
0
 40
0
 40
1
 40
1
 40
1
 40
1
 10
61.73025528167037
 20
11.91056685364792
 30
0
 10
61.70351209167062
 20
11.89413522191217
 30
0
 10
61.62775072312045
 20
11.84658841746358
 30
0
 10
61.56193148907411
 20
11.80488707680953
 30
0
  0
SPLINE
  5
197
100
AcDbEntity
  8
0
  6
ByLayer
 62
  256
370
   -1
100
AcDbSpline
210
0
220
0
230
0
 70
    8
 71
    3
 72
    8
 73
    4
 74
    0
 42
1e-007
 43
1e-007
 40
0
 40
0
 40
0
 40
0
 40
1
 40
1
 40
1
 40
1
 10
61.56193148907411
 20
11.80488707680953
 30
0
 10
61.49611225502777
 20
11.76318643848201
 30
0
 10
61.40497695851147
 20
11.70822938670722
 30
0
 10
61.35941001257986
 20
11.68277566823537
 30
0
  0
SPLINE
  5
198
100
AcDbEntity
  8
0
  6
ByLayer
 62
  256
370
   -1
100
AcDbSpline
210
0
220
0
230
0
 70
    8
 71
    3
 72
    8
 73
    4
 74
    0
 42
1e-007
 43
1e-007
 40
0
 40
0
 40
0
 40
0
 40
1
 40
1
 40
1
 40
1
 10
61.35941001257986
 20
11.68277566823537
 30
0
 10
61.31384166199517
 20
11.65732265209007
 30
0
 10
61.21856544819754
 20
11.6034703599631
 30
0
 10
61.14768243979597
 20
11.56319614683883
 30
0
  0
SPLINE
  5
199
100
AcDbEntity
  8
0
  6
ByLayer
 62
  256
370
   -1
100
AcDbSpline
210
0
220
0
230
0
 70
    8
 71
    3
 72
    8
 73
    4
 74
    0
 42
1e-007
 43
1e-007
 40
0
 40
0
 40
0
 40
0
 40
1
 40
1
 40
1
 40
1
 10
61.14768243979597
 20
11.56319614683883
 30
0
 10
61.01733203857811
 20
11.48909156659712
 30
0
 10
60.2097759127991
 20
11.08455358639107
 30
0
 10
60.00619673253523
 20
10.99139418478576
 30
0
  0
SPLINE
  5
19A
100
AcDbEntity
  8
0
  6
ByLayer
 62
  256
370
   -1
100
AcDbSpline
210
0
220
0
230
0
 70
    8
 71
    3
 72
    8
 73
    4
 74
    0
 42
1e-007
 43
1e-007
 40
0
 40
0
 40
0
 40
0
 40
1
 40
1
 40
1
 40
1
 10
60.00619673253523
 20
10.99139418478576
 30
0
 10
59.94543986819103
 20
10.96359329101639
 30
0
 10
59.82530691348077
 20
10.91006336677139
 30
0
 10
59.7392353913197
 20
10.87245939915317
 30
0
  0
SPLINE
  5
19B
100
AcDbEntity
  8
0
  6
ByLayer
 62
  256
370
   -1
100
AcDbSpline
210
0
220
0
230
0
 70
    8
 71
    3
 72
    8
 73
    4
 74
    0
 42
1e-007
 43
1e-007
 40
0
 40
0
 40
0
 40
0
 40
1
 40
1
 40
1
 40
1
 10
59.7392353913197
 20
10.87245939915317
 30
0
 10
59.65316386915862
 20
10.83480767333021
 30
0
 10
59.54131696297026
 20
10.78500569836088
 30
0
 10
59.49068624268343
 20
10.76180785273632
 30
0
  0
SPLINE
  5
19C
100
AcDbEntity
  8
0
  6
ByLayer
 62
  256
370
   -1
100
AcDbSpline
210
0
220
0
230
0
 70
    8
 71
    3
 72
    8
 73
    4
 74
    0
 42
1e-007
 43
1e-007
 40
0
 40
0
 40
0
 40
0
 40
1
 40
1
 40
1
 40
1
 10
59.49068624268343
 20
10.76180785273632
 30
0
 10
59.4400555223966
 20
10.73856365356011
 30
0
 10
59.34892163053338
 20
10.69851980354105
 30
0
 10
59.28816476618918
 20
10.67279077306543
 30
0
  0
SPLINE
  5
19D
100
AcDbEntity
  8
0
  6
ByLayer
 62
  256
370
   -1
100
AcDbSpline
210
0
220
0
230
0
 70
    8
 71
    3
 72
    8
 73
    4
 74
    0
 42
1e-007
 43
1e-007
 40
0
 40
0
 40
0
 40
0
 40
1
 40
1
 40
1
 40
1
 10
59.28816476618918
 20
10.67279077306543
 30
0
 10
59.06175435475476
 20
10.57700747950573
 30
0
 10
58.87985318548233
 20
10.49940461076703
 30
0
 10
58.7703534545915
 20
10.45199616464688
 30
0
  0
SPLINE
  5
19E
100
AcDbEntity
  8
0
  6
ByLayer
 62
  256
370
   -1
100
AcDbSpline
210
0
220
0
230
0
 70
    8
 71
    3
 72
    8
 73
    4
 74
    0
 42
1e-007
 43
1e-007
 40
0
 40
0
 40
0
 40
0
 40
1
 40
1
 40
1
 40
1
 10
58.7703534545915
 20
10.45199616464688
 30
0
 10
58.70830782104594
 20
10.42516167219689
 30
0
 10
58.64930045211352
 20
10.40316059099693
 30
0
 10
58.63917430805615
 20
10.40316059099693
 30
0
  0
SPLINE
  5
19F
100
AcDbEntity
  8
0
  6
ByLayer
 62
  256
370
   -1
100
AcDbSpline
210
0
220
0
230
0
 70
    8
 71
    3
 72
    8
 73
    4
 74
    0
 42
1e-007
 43
1e-007
 40
0
 40
0
 40
0
 40
0
 40
1
 40
1
 40
1
 40
1
 10
58.63917430805615
 20
10.40316059099693
 30
0
 10
58.62904816399877
 20
10.40316059099693
 30
0
 10
58.57206630480844
 20
10.38138987290217
 30
0
 10
58.51259820966561
 20
10.35473939000573
 30
0
  0
SPLINE
  5
1A0
100
AcDbEntity
  8
0
  6
ByLayer
 62
  256
370
   -1
100
AcDbSpline
210
0
220
0
230
0
 70
    8
 71
    3
 72
    8
 73
    4
 74
    0
 42
1e-007
 43
1e-007
 40
0
 40
0
 40
0
 40
0
 40
1
 40
1
 40
1
 40
1
 10
58.51259820966561
 20
10.35473939000573
 30
0
 10
58.45308446329766
 20
10.32813526066095
 30
0
 10
58.36715059713847
 20
10.29564001629653
 30
0
 10
58.32158365120686
 20
10.28252196117769
 30
0
  0
SPLINE
  5
1A1
100
AcDbEntity
  8
0
  6
ByLayer
 62
  256
370
   -1
100
AcDbSpline
210
0
220
0
230
0
 70
    8
 71
    3
 72
    8
 73
    4
 74
    0
 42
1e-007
 43
1e-007
 40
0
 40
0
 40
0
 40
0
 40
1
 40
1
 40
1
 40
1
 10
58.32158365120686
 20
10.28252196117769
 30
0
 10
58.27601600294871
 20
10.26940390605884
 30
0
 10
58.13102911663198
 20
10.2202003133018
 30
0
 10
57.99938994621275
 20
10.17315988628874
 30
0
  0
SPLINE
  5
1A2
100
AcDbEntity
  8
0
  6
ByLayer
 62
  256
370
   -1
100
AcDbSpline
210
0
220
0
230
0
 70
    8
 71
    3
 72
    8
 73
    4
 74
    0
 42
1e-007
 43
1e-007
 40
0
 40
0
 40
0
 40
0
 40
1
 40
1
 40
1
 40
1
 10
57.99938994621275
 20
10.17315988628874
 30
0
 10
57.86775077579353
 20
10.12616581282734
 30
0
 10
57.72276318715026
 20
10.07682456406841
 30
0
 10
57.67719624121865
 20
10.06352249939602
 30
0
  0
SPLINE
  5
1A3
100
AcDbEntity
  8
0
  6
ByLayer
 62
  256
370
   -1
100
AcDbSpline
210
0
220
0
230
0
 70
    8
 71
    3
 72
    8
 73
    4
 74
    0
 42
1e-007
 43
1e-007
 40
0
 40
0
 40
0
 40
0
 40
1
 40
1
 40
1
 40
1
 10
57.67719624121865
 20
10.06352249939602
 30
0
 10
57.6316285929605
 20
10.05022043472363
 30
0
 10
57.54463632070515
 20
10.02223553140071
 30
0
 10
57.48387945636096
 20
10.00133850752203
 30
0
  0
SPLINE
  5
1A4
100
AcDbEntity
  8
0
  6
ByLayer
 62
  256
370
   -1
100
AcDbSpline
210
0
220
0
230
0
 70
    8
 71
    3
 72
    8
 73
    4
 74
    0
 42
1e-007
 43
1e-007
 40
0
 40
0
 40
0
 40
0
 40
1
 40
1
 40
1
 40
1
 10
57.48387945636096
 20
10.00133850752203
 30
0
 10
57.23984135109274
 20
9.917385202206354
 30
0
 10
56.59572995543484
 20
9.758773181008717
 30
0
 10
56.49888755345245
 20
9.758773181008717
 30
0
  0
SPLINE
  5
1A5
100
AcDbEntity
  8
0
  6
ByLayer
 62
  256
370
   -1
100
AcDbSpline
210
0
220
0
230
0
 70
    8
 71
    3
 72
    8
 73
    4
 74
    0
 42
1e-007
 43
1e-007
 40
0
 40
0
 40
0
 40
0
 40
1
 40
1
 40
1
 40
1
 10
56.49888755345245
 20
9.758773181008717
 30
0
 10
56.40204515147006
 20
9.758773181008717
 30
0
 10
55.75793375581216
 20
9.917385202206354
 30
0
 10
55.51389565054394
 20
10.00133850752203
 30
0
  0
SPLINE
  5
1A6
100
AcDbEntity
  8
0
  6
ByLayer
 62
  256
370
   -1
100
AcDbSpline
210
0
220
0
230
0
 70
    8
 71
    3
 72
    8
 73
    4
 74
    0
 42
1e-007
 43
1e-007
 40
0
 40
0
 40
0
 40
0
 40
1
 40
1
 40
1
 40
1
 10
55.51389565054394
 20
10.00133850752203
 30
0
 10
55.45313878619974
 20
10.02223553140071
 30
0
 10
55.36614651394439
 20
10.05022043472363
 30
0
 10
55.32057886568624
 20
10.06352249939602
 30
0
  0
SPLINE
  5
1A7
100
AcDbEntity
  8
0
  6
ByLayer
 62
  256
370
   -1
100
AcDbSpline
210
0
220
0
230
0
 70
    8
 71
    3
 72
    8
 73
    4
 74
    0
 42
1e-007
 43
1e-007
 40
0
 40
0
 40
0
 40
0
 40
1
 40
1
 40
1
 40
1
 10
55.32057886568624
 20
10.06352249939602
 30
0
 10
55.27501191975464
 20
10.07682456406841
 30
0
 10
55.13002433111136
 20
10.12616581282734
 30
0
 10
54.99838516069214
 20
10.17315988628874
 30
0
  0
SPLINE
  5
1A8
100
AcDbEntity
  8
0
  6
ByLayer
 62
  256
370
   -1
100
AcDbSpline
210
0
220
0
230
0
 70
    8
 71
    3
 72
    8
 73
    4
 74
    0
 42
1e-007
 43
1e-007
 40
0
 40
0
 40
0
 40
0
 40
1
 40
1
 40
1
 40
1
 10
54.99838516069214
 20
10.17315988628874
 30
0
 10
54.86674599027292
 20
10.2202003133018
 30
0
 10
54.72175910395619
 20
10.26940390605884
 30
0
 10
54.67619145569803
 20
10.28252196117769
 30
0
  0
SPLINE
  5
1A9
100
AcDbEntity
  8
0
  6
ByLayer
 62
  256
370
   -1
100
AcDbSpline
210
0
220
0
230
0
 70
    8
 71
    3
 72
    8
 73
    4
 74
    0
 42
1e-007
 43
1e-007
 40
0
 40
0
 40
0
 40
0
 40
1
 40
1
 40
1
 40
1
 10
54.67619145569803
 20
10.28252196117769
 30
0
 10
54.63062450976643
 20
10.29564001629653
 30
0
 10
54.54469064360724
 20
10.32813526066095
 30
0
 10
54.48517689723928
 20
10.35473939000573
 30
0
  0
SPLINE
  5
1AA
100
AcDbEntity
  8
0
  6
ByLayer
 62
  256
370
   -1
100
AcDbSpline
210
0
220
0
230
0
 70
    8
 71
    3
 72
    8
 73
    4
 74
    0
 42
1e-007
 43
1e-007
 40
0
 40
0
 40
0
 40
0
 40
1
 40
1
 40
1
 40
1
 10
54.48517689723928
 20
10.35473939000573
 30
0
 10
54.42570880209645
 20
10.38138987290217
 30
0
 10
54.36872694290611
 20
10.40316059099693
 30
0
 10
54.35860079884875
 20
10.40316059099693
 30
0
  0
SPLINE
  5
1AB
100
AcDbEntity
  8
0
  6
ByLayer
 62
  256
370
   -1
100
AcDbSpline
210
0
220
0
230
0
 70
    8
 71
    3
 72
    8
 73
    4
 74
    0
 42
1e-007
 43
1e-007
 40
0
 40
0
 40
0
 40
0
 40
1
 40
1
 40
1
 40
1
 10
54.35860079884875
 20
10.40316059099693
 30
0
 10
54.34847465479137
 20
10.40316059099693
 30
0
 10
54.28946728585895
 20
10.42516167219689
 30
0
 10
54.22742165231338
 20
10.45199616464688
 30
0
  0
SPLINE
  5
1AC
100
AcDbEntity
  8
0
  6
ByLayer
 62
  256
370
   -1
100
AcDbSpline
210
0
220
0
230
0
 70
    8
 71
    3
 72
    8
 73
    4
 74
    0
 42
1e-007
 43
1e-007
 40
0
 40
0
 40
0
 40
0
 40
1
 40
1
 40
1
 40
1
 10
54.22742165231338
 20
10.45199616464688
 30
0
 10
54.11792192142255
 20
10.49940461076703
 30
0
 10
53.93602075215013
 20
10.57700747950573
 30
0
 10
53.70961034071571
 20
10.67279077306543
 30
0
  0
SPLINE
  5
1AD
100
AcDbEntity
  8
0
  6
ByLayer
 62
  256
370
   -1
100
AcDbSpline
210
0
220
0
230
0
 70
    8
 71
    3
 72
    8
 73
    4
 74
    0
 42
1e-007
 43
1e-007
 40
0
 40
0
 40
0
 40
0
 40
1
 40
1
 40
1
 40
1
 10
53.70961034071571
 20
10.67279077306543
 30
0
 10
53.64885417869806
 20
10.69851980354105
 30
0
 10
53.5577195845083
 20
10.73856365356011
 30
0
 10
53.50708886422147
 20
10.76180785273632
 30
0
  0
SPLINE
  5
1AE
100
AcDbEntity
  8
0
  6
ByLayer
 62
  256
370
   -1
100
AcDbSpline
210
0
220
0
230
0
 70
    8
 71
    3
 72
    8
 73
    4
 74
    0
 42
1e-007
 43
1e-007
 40
0
 40
0
 40
0
 40
0
 40
1
 40
1
 40
1
 40
1
 10
53.50708886422147
 20
10.76180785273632
 30
0
 10
53.45645814393463
 20
10.78500569836088
 30
0
 10
53.34461123774627
 20
10.83480767333021
 30
0
 10
53.2585397155852
 20
10.87245939915317
 30
0
  0
SPLINE
  5
1AF
100
AcDbEntity
  8
0
  6
ByLayer
 62
  256
370
   -1
100
AcDbSpline
210
0
220
0
230
0
 70
    8
 71
    3
 72
    8
 73
    4
 74
    0
 42
1e-007
 43
1e-007
 40
0
 40
0
 40
0
 40
0
 40
1
 40
1
 40
1
 40
1
 10
53.2585397155852
 20
10.87245939915317
 30
0
 10
53.17246784226086
 20
10.91006336677139
 30
0
 10
53.05233558987713
 20
10.96359329101639
 30
0
 10
52.9915790766962
 20
10.99139418478576
 30
0
  0
SPLINE
  5
1B0
100
AcDbEntity
  8
0
  6
ByLayer
 62
  256
370
   -1
100
AcDbSpline
210
0
220
0
230
0
 70
    8
 71
    3
 72
    8
 73
    4
 74
    0
 42
1e-007
 43
1e-007
 40
0
 40
0
 40
0
 40
0
 40
1
 40
1
 40
1
 40
1
 10
52.9915790766962
 20
10.99139418478576
 30
0
 10
52.78799849177926
 20
11.08455358639107
 30
0
 10
51.98044306832678
 20
11.48909156659712
 30
0
 10
51.85009266710892
 20
11.56319614683883
 30
0
  0
SPLINE
  5
1B1
100
AcDbEntity
  8
0
  6
ByLayer
 62
  256
370
   -1
100
AcDbSpline
210
0
220
0
230
0
 70
    8
 71
    3
 72
    8
 73
    4
 74
    0
 42
1e-007
 43
1e-007
 40
0
 40
0
 40
0
 40
0
 40
1
 40
1
 40
1
 40
1
 10
51.85009266710892
 20
11.56319614683883
 30
0
 10
51.77921000987062
 20
11.6034703599631
 30
0
 10
51.68393274258318
 20
11.65732265209007
 30
0
 10
51.6383654454883
 20
11.68277566823537
 30
0
  0
SPLINE
  5
1B2
100
AcDbEntity
  8
0
  6
ByLayer
 62
  256
370
   -1
100
AcDbSpline
210
0
220
0
230
0
 70
    8
 71
    3
 72
    8
 73
    4
 74
    0
 42
1e-007
 43
1e-007
 40
0
 40
0
 40
0
 40
0
 40
1
 40
1
 40
1
 40
1
 10
51.6383654454883
 20
11.68277566823537
 30
0
 10
51.59279814839343
 20
11.70822938670722
 30
0
 10
51.50166320304039
 20
11.76318643848201
 30
0
 10
51.43584361783078
 20
11.80488707680953
 30
0
  0
SPLINE
  5
1B3
100
AcDbEntity
  8
0
  6
ByLayer
 62
  256
370
   -1
100
AcDbSpline
210
0
220
0
230
0
 70
    8
 71
    3
 72
    8
 73
    4
 74
    0
 42
1e-007
 43
1e-007
 40
0
 40
0
 40
0
 40
0
 40
1
 40
1
 40
1
 40
1
 10
51.43584361783078
 20
11.80488707680953
 30
0
 10
51.37002403262117
 20
11.84658841746358
 30
0
 10
51.29426266407101
 20
11.89413522191217
 30
0
 10
51.26752052756107
 20
11.91056685364792
 30
0
  0
SPLINE
  5
1B4
100
AcDbEntity
  8
0
  6
ByLayer
 62
  256
370
   -1
100
AcDbSpline
210
0
220
0
230
0
 70
    8
 71
    3
 72
    8
 73
    4
 74
    0
 42
1e-007
 43
1e-007
 40
0
 40
0
 40
0
 40
0
 40
1
 40
1
 40
1
 40
1
 10
51.26752052756107
 20
11.91056685364792
 30
0
 10
51.24073238866274
 20
11.92704483893534
 30
0
 10
51.13367183784621
 20
11.99847987599754
 30
0
 10
51.02951119331438
 20
12.06936218207257
 30
0
  0
SPLINE
  5
1B5
100
AcDbEntity
  8
0
  6
ByLayer
 62
  256
370
   -1
100
AcDbSpline
210
0
220
0
230
0
 70
    8
 71
    3
 72
    8
 73
    4
 74
    0
 42
1e-007
 43
1e-007
 40
0
 40
0
 40
0
 40
0
 40
1
 40
1
 40
1
 40
1
 10
51.02951119331438
 20
12.06936218207257
 30
0
 10
50.92539690233421
 20
12.14024519047413
 30
0
 10
50.82717372637368
 20
12.20652444840434
 30
0
 10
50.81124812091018
 20
12.21665059246171
 30
0
  0
SPLINE
  5
1B6
100
AcDbEntity
  8
0
  6
ByLayer
 62
  256
370
   -1
100
AcDbSpline
210
0
220
0
230
0
 70
    8
 71
    3
 72
    8
 73
    4
 74
    0
 42
1e-007
 43
1e-007
 40
0
 40
0
 40
0
 40
0
 40
1
 40
1
 40
1
 40
1
 10
50.81124812091018
 20
12.21665059246171
 30
0
 10
50.79527651305828
 20
12.22677673651907
 30
0
 10
50.7781081407818
 20
12.23943476775405
 30
0
 10
50.77304506875311
 20
12.24477385411306
 30
0
  0
SPLINE
  5
1B7
100
AcDbEntity
  8
0
  6
ByLayer
 62
  256
370
   -1
100
AcDbSpline
210
0
220
0
230
0
 70
    8
 71
    3
 72
    8
 73
    4
 74
    0
 42
1e-007
 43
1e-007
 40
0
 40
0
 40
0
 40
0
 40
1
 40
1
 40
1
 40
1
 10
50.77304506875311
 20
12.24477385411306
 30
0
 10
50.76798199672443
 20
12.25011294047206
 30
0
 10
50.69341739259886
 20
12.30948903083812
 30
0
 10
50.60734551927452
 20
12.3766890388626
 30
0
  0
SPLINE
  5
1B8
100
AcDbEntity
  8
0
  6
ByLayer
 62
  256
370
   -1
100
AcDbSpline
210
0
220
0
230
0
 70
    8
 71
    3
 72
    8
 73
    4
 74
    0
 42
1e-007
 43
1e-007
 40
0
 40
0
 40
0
 40
0
 40
1
 40
1
 40
1
 40
1
 10
50.60734551927452
 20
12.3766890388626
 30
0
 10
50.52127364595017
 20
12.44388974921362
 30
0
 10
50.4097947588689
 20
12.53548436728724
 30
0
 10
50.35967076718087
 20
12.58026962377955
 30
0
  0
LINE
  5
1B9
100
AcDbEntity
  8
0
  6
ByLayer
 62
  256
370
   -1
100
AcDbLine
 10
50.35967076718087
 20
12.58026962377955
 11
50.26844381705106
 21
12.66164609301904
  0
LINE
  5
1BA
100
AcDbEntity
  8
0
  6
ByLayer
 62
  256
370
   -1
100
AcDbLine
 10
50.26844381705106
 20
12.66164609301904
 11
50.6726587270486
 21
12.67425777070236
  0
SPLINE
  5
1BB
100
AcDbEntity
  8
0
  6
ByLayer
 62
  256
370
   -1
100
AcDbSpline
210
0
220
0
230
0
 70
    8
 71
    3
 72
    8
 73
    4
 74
    0
 42
1e-007
 43
1e-007
 40
0
 40
0
 40
0
 40
0
 40
1
 40
1
 40
1
 40
1
 10
50.6726587270486
 20
12.67425777070236
 30
0
 10
51.07480247607894
 20
12.68682379716056
 30
0
 10
51.20455449508451
 20
12.69589083279523
 30
0
 10
51.74883192886179
 20
12.74951346414354
 30
0
  0
SPLINE
  5
1BC
100
AcDbEntity
  8
0
  6
ByLayer
 62
  256
370
   -1
100
AcDbSpline
210
0
220
0
230
0
 70
    8
 71
    3
 72
    8
 73
    4
 74
    0
 42
1e-007
 43
1e-007
 40
0
 40
0
 40
0
 40
0
 40
1
 40
1
 40
1
 40
1
 10
51.74883192886179
 20
12.74951346414354
 30
0
 10
52.55031152541454
 20
12.82845075330872
 30
0
 10
53.18291600303692
 20
12.88819486278188
 30
0
 10
53.40582812597434
 20
12.90605362204743
 30
0
  0
SPLINE
  5
1BD
100
AcDbEntity
  8
0
  6
ByLayer
 62
  256
370
   -1
100
AcDbSpline
210
0
220
0
230
0
 70
    8
 71
    3
 72
    8
 73
    4
 74
    0
 42
1e-007
 43
1e-007
 40
0
 40
0
 40
0
 40
0
 40
1
 40
1
 40
1
 40
1
 10
53.40582812597434
 20
12.90605362204743
 30
0
 10
53.54253036842225
 20
12.91700780909576
 30
0
 10
53.80350718518829
 20
12.93822649852988
 30
0
 10
53.9857763735678
 20
12.95318535151072
 30
0
  0
SPLINE
  5
1BE
100
AcDbEntity
  8
0
  6
ByLayer
 62
  256
370
   -1
100
AcDbSpline
210
0
220
0
230
0
 70
    8
 71
    3
 72
    8
 73
    4
 74
    0
 42
1e-007
 43
1e-007
 40
0
 40
0
 40
0
 40
0
 40
1
 40
1
 40
1
 40
1
 10
53.9857763735678
 20
12.95318535151072
 30
0
 10
54.38170663969652
 20
12.98568129820169
 30
0
 10
54.54376989351297
 20
12.99470268261123
 30
0
 10
54.59334220770364
 20
12.98697006740305
 30
0
  0
SPLINE
  5
1BF
100
AcDbEntity
  8
0
  6
ByLayer
 62
  256
370
   -1
100
AcDbSpline
210
0
220
0
230
0
 70
    8
 71
    3
 72
    8
 73
    4
 74
    0
 42
1e-007
 43
1e-007
 40
0
 40
0
 40
0
 40
0
 40
1
 40
1
 40
1
 40
1
 10
54.59334220770364
 20
12.98697006740305
 30
0
 10
54.61359379349183
 20
12.98379414678802
 30
0
 10
54.63969154540109
 20
12.98107825005687
 30
0
 10
54.65133682176503
 20
12.98094059405498
 30
0
  0
SPLINE
  5
1C0
100
AcDbEntity
  8
0
  6
ByLayer
 62
  256
370
   -1
100
AcDbSpline
210
0
220
0
230
0
 70
    8
 71
    2
 72
    6
 73
    3
 74
    0
 42
1e-007
 43
1e-007
 40
0
 40
0
 40
0
 40
1
 40
1
 40
1
 10
70.37052073779816
 20
22.65613796599736
 30
0
 10
70.36777314987854
 20
22.22537740429189
 30
0
 10
70.19107071600961
 20
21.85854829746259
 30
0
  0
SPLINE
  5
1C1
100
AcDbEntity
  8
0
  6
ByLayer
 62
  256
370
   -1
100
AcDbSpline
210
0
220
0
230
0
 70
    8
 71
    2
 72
    6
 73
    3
 74
    0
 42
1e-007
 43
1e-007
 40
0
 40
0
 40
0
 40
1
 40
1
 40
1
 10
70.19107071600961
 20
21.85854829746259
 30
0
 10
70.01436828214068
 20
21.49171919063329
 30
0
 10
69.70665609578444
 20
21.28854955407417
 30
0
  0
SPLINE
  5
1C2
100
AcDbEntity
  8
0
  6
ByLayer
 62
  256
370
   -1
100
AcDbSpline
210
0
220
0
230
0
 70
    8
 71
    2
 72
    6
 73
    3
 74
    0
 42
1e-007
 43
1e-007
 40
0
 40
0
 40
0
 40
1
 40
1
 40
1
 10
69.70665609578444
 20
21.28854955407417
 30
0
 10
69.39894361141101
 20
21.08537991941594
 30
0
 10
69.04766869695271
 20
21.08762051151567
 30
0
  0
SPLINE
  5
1C3
100
AcDbEntity
  8
0
  6
ByLayer
 62
  256
370
   -1
100
AcDbSpline
210
0
220
0
230
0
 70
    8
 71
    2
 72
    6
 73
    3
 74
    0
 42
1e-007
 43
1e-007
 40
0
 40
0
 40
0
 40
1
 40
1
 40
1
 10
69.04766869695271
 20
21.08762051151567
 30
0
 10
68.52716645089767
 20
21.09094051295159
 30
0
 10
68.13384176527678
 20
21.53576590665496
 30
0
  0
SPLINE
  5
1C4
100
AcDbEntity
  8
0
  6
ByLayer
 62
  256
370
   -1
100
AcDbSpline
210
0
220
0
230
0
 70
    8
 71
    2
 72
    6
 73
    3
 74
    0
 42
1e-007
 43
1e-007
 40
0
 40
0
 40
0
 40
1
 40
1
 40
1
 10
68.13384176527678
 20
21.53576590665496
 30
0
 10
67.74051713743502
 20
21.98059159801907
 30
0
 10
67.74493290251242
 20
22.67288516632039
 30
0
  0
SPLINE
  5
1C5
100
AcDbEntity
  8
0
  6
ByLayer
 62
  256
370
   -1
100
AcDbSpline
210
0
220
0
230
0
 70
    8
 71
    2
 72
    6
 73
    3
 74
    0
 42
1e-007
 43
1e-007
 40
0
 40
0
 40
0
 40
1
 40
1
 40
1
 10
67.74493290251242
 20
22.67288516632039
 30
0
 10
67.74936502284555
 20
23.36774287427983
 30
0
 10
68.14832384239857
 20
23.8062328973863
 30
0
  0
SPLINE
  5
1C6
100
AcDbEntity
  8
0
  6
ByLayer
 62
  256
370
   -1
100
AcDbSpline
210
0
220
0
230
0
 70
    8
 71
    2
 72
    6
 73
    3
 74
    0
 42
1e-007
 43
1e-007
 40
0
 40
0
 40
0
 40
1
 40
1
 40
1
 10
68.14832384239857
 20
23.8062328973863
 30
0
 10
68.54728271592892
 20
24.24472262211919
 30
0
 10
69.06778496198396
 20
24.24140262068328
 30
0
  0
SPLINE
  5
1C7
100
AcDbEntity
  8
0
  6
ByLayer
 62
  256
370
   -1
100
AcDbSpline
210
0
220
0
230
0
 70
    8
 71
    2
 72
    6
 73
    3
 74
    0
 42
1e-007
 43
1e-007
 40
0
 40
0
 40
0
 40
1
 40
1
 40
1
 10
69.06778496198396
 20
24.24140262068328
 30
0
 10
69.41905987644226
 20
24.23916202858355
 30
0
 10
69.72287354131113
 20
24.03209180039479
 30
0
  0
SPLINE
  5
1C8
100
AcDbEntity
  8
0
  6
ByLayer
 62
  256
370
   -1
100
AcDbSpline
210
0
220
0
230
0
 70
    8
 71
    2
 72
    6
 73
    3
 74
    0
 42
1e-007
 43
1e-007
 40
0
 40
0
 40
0
 40
1
 40
1
 40
1
 10
69.72287354131113
 20
24.03209180039479
 30
0
 10
70.02668720617999
 20
23.82502157220604
 30
0
 10
70.19998579456818
 20
23.45724212073393
 30
0
  0
SPLINE
  5
1C9
100
AcDbEntity
  8
0
  6
ByLayer
 62
  256
370
   -1
100
AcDbSpline
210
0
220
0
230
0
 70
    8
 71
    2
 72
    6
 73
    3
 74
    0
 42
1e-007
 43
1e-007
 40
0
 40
0
 40
0
 40
1
 40
1
 40
1
 10
70.19998579456818
 20
23.45724212073393
 30
0
 10
70.37328468002309
 20
23.08946251835236
 30
0
 10
70.37052073779816
 20
22.65613796599736
 30
0
  0
SPLINE
  5
1CA
100
AcDbEntity
  8
0
  6
ByLayer
 62
  256
370
   -1
100
AcDbSpline
210
0
220
0
230
0
 70
    8
 71
    2
 72
    6
 73
    3
 74
    0
 42
1e-007
 43
1e-007
 40
0
 40
0
 40
0
 40
1
 40
1
 40
1
 10
70.15257631728731
 20
22.65752811521291
 30
0
 10
70.15592902875949
 20
23.1831585660799
 30
0
 10
69.85347295160328
 20
23.60304493451282
 30
0
  0
SPLINE
  5
1CB
100
AcDbEntity
  8
0
  6
ByLayer
 62
  256
370
   -1
100
AcDbSpline
210
0
220
0
230
0
 70
    8
 71
    2
 72
    6
 73
    3
 74
    0
 42
1e-007
 43
1e-007
 40
0
 40
0
 40
0
 40
1
 40
1
 40
1
 10
69.85347295160328
 20
23.60304493451282
 30
0
 10
69.55101672733939
 20
24.02293160191336
 30
0
 10
69.06641116992503
 20
24.02602263784771
 30
0
  0
SPLINE
  5
1CC
100
AcDbEntity
  8
0
  6
ByLayer
 62
  256
370
   -1
100
AcDbSpline
210
0
220
0
230
0
 70
    8
 71
    2
 72
    6
 73
    3
 74
    0
 42
1e-007
 43
1e-007
 40
0
 40
0
 40
0
 40
1
 40
1
 40
1
 10
69.06641116992503
 20
24.02602263784771
 30
0
 10
68.612574245348
 20
24.02891741736631
 30
0
 10
68.28824266456724
 20
23.63225992310573
 30
0
  0
SPLINE
  5
1CD
100
AcDbEntity
  8
0
  6
ByLayer
 62
  256
370
   -1
100
AcDbSpline
210
0
220
0
230
0
 70
    8
 71
    2
 72
    6
 73
    3
 74
    0
 42
1e-007
 43
1e-007
 40
0
 40
0
 40
0
 40
1
 40
1
 40
1
 10
68.28824266456724
 20
23.63225992310573
 30
0
 10
67.96391115924119
 20
23.2356025773785
 30
0
 10
67.96031312748694
 20
22.671511372717
 30
0
  0
SPLINE
  5
1CE
100
AcDbEntity
  8
0
  6
ByLayer
 62
  256
370
   -1
100
AcDbSpline
210
0
220
0
230
0
 70
    8
 71
    2
 72
    6
 73
    3
 74
    0
 42
1e-007
 43
1e-007
 40
0
 40
0
 40
0
 40
1
 40
1
 40
1
 10
67.96031312748694
 20
22.671511372717
 30
0
 10
67.95648613070635
 20
22.07152355391909
 30
0
 10
68.29123012673699
 20
21.6886112859242
 30
0
  0
SPLINE
  5
1CF
100
AcDbEntity
  8
0
  6
ByLayer
 62
  256
370
   -1
100
AcDbSpline
210
0
220
0
230
0
 70
    8
 71
    2
 72
    6
 73
    3
 74
    0
 42
1e-007
 43
1e-007
 40
0
 40
0
 40
0
 40
1
 40
1
 40
1
 10
68.29123012673699
 20
21.6886112859242
 30
0
 10
68.62597412466853
 20
21.30569931594648
 30
0
 10
69.04904249091251
 20
21.3030007923684
 30
0
  0
SPLINE
  5
1D0
100
AcDbEntity
  8
0
  6
ByLayer
 62
  256
370
   -1
100
AcDbSpline
210
0
220
0
230
0
 70
    8
 71
    2
 72
    6
 73
    3
 74
    0
 42
1e-007
 43
1e-007
 40
0
 40
0
 40
0
 40
1
 40
1
 40
1
 10
69.04904249091251
 20
21.3030007923684
 30
0
 10
69.53364804832687
 20
21.29990975643405
 30
0
 10
69.84142772394743
 20
21.7146216400857
 30
0
  0
SPLINE
  5
1D1
100
AcDbEntity
  8
0
  6
ByLayer
 62
  256
370
   -1
100
AcDbSpline
210
0
220
0
230
0
 70
    8
 71
    2
 72
    6
 73
    3
 74
    0
 42
1e-007
 43
1e-007
 40
0
 40
0
 40
0
 40
1
 40
1
 40
1
 10
69.84142772394743
 20
21.7146216400857
 30
0
 10
70.1492072524603
 20
22.12933382270496
 30
0
 10
70.15257631728731
 20
22.65752811521291
 30
0
  0
LINE
  5
1D2
100
AcDbEntity
  8
0
  6
ByLayer
 62
  256
370
   -1
100
AcDbLine
 10
72.93274527967239
 20
21.14745678681983
 11
72.93475690579533
 21
21.46283493813316
  0
SPLINE
  5
1D3
100
AcDbEntity
  8
0
  6
ByLayer
 62
  256
370
   -1
100
AcDbSpline
210
0
220
0
230
0
 70
    8
 71
    2
 72
    6
 73
    3
 74
    0
 42
1e-007
 43
1e-007
 40
0
 40
0
 40
0
 40
1
 40
1
 40
1
 10
72.93475690579533
 20
21.46283493813316
 30
0
 10
72.49118905093829
 20
21.06565616341441
 30
0
 10
71.97837870232756
 20
21.06892710240967
 30
0
  0
SPLINE
  5
1D4
100
AcDbEntity
  8
0
  6
ByLayer
 62
  256
370
   -1
100
AcDbSpline
210
0
220
0
230
0
 70
    8
 71
    2
 72
    6
 73
    3
 74
    0
 42
1e-007
 43
1e-007
 40
0
 40
0
 40
0
 40
1
 40
1
 40
1
 10
71.97837870232756
 20
21.06892710240967
 30
0
 10
71.66300055101424
 20
21.07093872853262
 30
0
 10
71.49999703933756
 20
21.24377682553355
 30
0
  0
SPLINE
  5
1D5
100
AcDbEntity
  8
0
  6
ByLayer
 62
  256
370
   -1
100
AcDbSpline
210
0
220
0
230
0
 70
    8
 71
    2
 72
    6
 73
    3
 74
    0
 42
1e-007
 43
1e-007
 40
0
 40
0
 40
0
 40
1
 40
1
 40
1
 10
71.49999703933756
 20
21.24377682553355
 30
0
 10
71.28862011122482
 20
21.47077080570566
 30
0
 10
71.29053360961512
 20
21.77076471510461
 30
0
  0
LINE
  5
1D6
100
AcDbEntity
  8
0
  6
ByLayer
 62
  256
370
   -1
100
AcDbLine
 10
71.29053360961512
 20
21.77076471510461
 11
71.29939785028139
 21
23.16048013102348
  0
LINE
  5
1D7
100
AcDbEntity
  8
0
  6
ByLayer
 62
  256
370
   -1
100
AcDbLine
 10
71.29939785028139
 20
23.16048013102348
 11
71.00965990348057
 21
23.16232821219261
  0
SPLINE
  5
1D8
100
AcDbEntity
  8
0
  6
ByLayer
 62
  256
370
   -1
100
AcDbSpline
210
0
220
0
230
0
 70
    8
 71
    2
 72
    6
 73
    3
 74
    0
 42
1e-007
 43
1e-007
 40
0
 40
0
 40
0
 40
1
 40
1
 40
1
 10
71.00965990348057
 20
23.1623282121926
 30
0
 10
70.93273839589153
 20
23.16281885275675
 30
0
 10
70.89960202786997
 20
23.19379994730655
 30
0
  0
SPLINE
  5
1D9
100
AcDbEntity
  8
0
  6
ByLayer
 62
  256
370
   -1
100
AcDbSpline
210
0
220
0
230
0
 70
    8
 71
    2
 72
    6
 73
    3
 74
    0
 42
1e-007
 43
1e-007
 40
0
 40
0
 40
0
 40
1
 40
1
 40
1
 10
70.89960202786997
 20
23.19379994730655
 30
0
 10
70.86646566079887
 20
23.22478119086492
 30
0
 10
70.86677640020301
 20
23.27349820527475
 30
0
  0
SPLINE
  5
1DA
100
AcDbEntity
  8
0
  6
ByLayer
 62
  256
370
   -1
100
AcDbSpline
210
0
220
0
230
0
 70
    8
 71
    2
 72
    6
 73
    3
 74
    0
 42
1e-007
 43
1e-007
 40
0
 40
0
 40
0
 40
1
 40
1
 40
1
 10
70.86677640020301
 20
23.27349820527475
 30
0
 10
70.86707078435141
 20
23.31965108002645
 30
0
 10
70.90059966425403
 20
23.35020710214274
 30
0
  0
SPLINE
  5
1DB
100
AcDbEntity
  8
0
  6
ByLayer
 62
  256
370
   -1
100
AcDbSpline
210
0
220
0
230
0
 70
    8
 71
    2
 72
    6
 73
    3
 74
    0
 42
1e-007
 43
1e-007
 40
0
 40
0
 40
0
 40
1
 40
1
 40
1
 10
70.90059966425403
 20
23.35020710214274
 30
0
 10
70.93412854415664
 20
23.38076312425903
 30
0
 10
71.01105005174568
 20
23.38027248369487
 30
0
  0
LINE
  5
1DC
100
AcDbEntity
  8
0
  6
ByLayer
 62
  256
370
   -1
100
AcDbLine
 10
71.01105005174568
 20
23.38027248369487
 11
71.51616798138205
 21
23.37705061046683
  0
LINE
  5
1DD
100
AcDbEntity
  8
0
  6
ByLayer
 62
  256
370
   -1
100
AcDbLine
 10
71.51616798138205
 20
23.37705061046683
 11
71.50591359245068
 21
21.76939092304569
  0
SPLINE
  5
1DE
100
AcDbEntity
  8
0
  6
ByLayer
 62
  256
370
   -1
100
AcDbSpline
210
0
220
0
230
0
 70
    8
 71
    2
 72
    6
 73
    3
 74
    0
 42
1e-007
 43
1e-007
 40
0
 40
0
 40
0
 40
1
 40
1
 40
1
 10
71.50591359245068
 20
21.76939092304569
 30
0
 10
71.50457250710146
 20
21.55913862349203
 30
0
 10
71.63703650092617
 20
21.42239354510138
 30
0
  0
SPLINE
  5
1DF
100
AcDbEntity
  8
0
  6
ByLayer
 62
  256
370
   -1
100
AcDbSpline
210
0
220
0
230
0
 70
    8
 71
    2
 72
    6
 73
    3
 74
    0
 42
1e-007
 43
1e-007
 40
0
 40
0
 40
0
 40
1
 40
1
 40
1
 10
71.63703650092617
 20
21.42239354510138
 30
0
 10
71.76950019673372
 20
21.28564846861163
 30
0
 10
71.96949623567207
 20
21.28437280238447
 30
0
  0
SPLINE
  5
1E0
100
AcDbEntity
  8
0
  6
ByLayer
 62
  256
370
   -1
100
AcDbSpline
210
0
220
0
230
0
 70
    8
 71
    2
 72
    6
 73
    3
 74
    0
 42
1e-007
 43
1e-007
 40
0
 40
0
 40
0
 40
1
 40
1
 40
1
 10
71.96949623567207
 20
21.28437280238447
 30
0
 10
72.49512698455622
 20
21.28102008901141
 30
0
 10
72.93665405083077
 20
21.76026500589116
 30
0
  0
LINE
  5
1E1
100
AcDbEntity
  8
0
  6
ByLayer
 62
  256
370
   -1
100
AcDbLine
 10
72.93665405083077
 20
21.76026500589116
 11
72.94551829149704
 21
23.14998042181003
  0
LINE
  5
1E2
100
AcDbEntity
  8
0
  6
ByLayer
 62
  256
370
   -1
100
AcDbLine
 10
72.94551829149704
 20
23.14998042181003
 11
72.54809035327844
 21
23.15251539900861
  0
SPLINE
  5
1E3
100
AcDbEntity
  8
0
  6
ByLayer
 62
  256
370
   -1
100
AcDbSpline
210
0
220
0
230
0
 70
    8
 71
    2
 72
    6
 73
    3
 74
    0
 42
1e-007
 43
1e-007
 40
0
 40
0
 40
0
 40
1
 40
1
 40
1
 10
72.54809035327844
 20
23.15251539900861
 30
0
 10
72.47116884568941
 20
23.15300603957276
 30
0
 10
72.43803247766785
 20
23.18398713412256
 30
0
  0
SPLINE
  5
1E4
100
AcDbEntity
  8
0
  6
ByLayer
 62
  256
370
   -1
100
AcDbSpline
210
0
220
0
230
0
 70
    8
 71
    2
 72
    6
 73
    3
 74
    0
 42
1e-007
 43
1e-007
 40
0
 40
0
 40
0
 40
1
 40
1
 40
1
 10
72.43803247766785
 20
23.18398713412256
 30
0
 10
72.40489581257958
 20
23.21496837958183
 30
0
 10
72.40520655198371
 20
23.26368539399164
 30
0
  0
SPLINE
  5
1E5
100
AcDbEntity
  8
0
  6
ByLayer
 62
  256
370
   -1
100
AcDbSpline
210
0
220
0
230
0
 70
    8
 71
    2
 72
    6
 73
    3
 74
    0
 42
1e-007
 43
1e-007
 40
0
 40
0
 40
0
 40
1
 40
1
 40
1
 10
72.40520655198371
 20
23.26368539399164
 30
0
 10
72.40550093613211
 20
23.30983826874335
 30
0
 10
72.43903011405189
 20
23.34039428895874
 30
0
  0
SPLINE
  5
1E6
100
AcDbEntity
  8
0
  6
ByLayer
 62
  256
370
   -1
100
AcDbSpline
210
0
220
0
230
0
 70
    8
 71
    2
 72
    6
 73
    3
 74
    0
 42
1e-007
 43
1e-007
 40
0
 40
0
 40
0
 40
1
 40
1
 40
1
 10
72.43903011405189
 20
23.34039428895874
 30
0
 10
72.47255899395452
 20
23.37095031107503
 30
0
 10
72.54948050154356
 20
23.37045967051088
 30
0
  0
LINE
  5
1E7
100
AcDbEntity
  8
0
  6
ByLayer
 62
  256
370
   -1
100
AcDbLine
 10
72.54948050154356
 20
23.37045967051088
 11
73.16228842259773
 21
23.36655090125337
  0
LINE
  5
1E8
100
AcDbEntity
  8
0
  6
ByLayer
 62
  256
370
   -1
100
AcDbLine
 10
73.16228842259773
 20
23.36655090125337
 11
73.14949905646776
 21
21.36146327561364
  0
LINE
  5
1E9
100
AcDbEntity
  8
0
  6
ByLayer
 62
  256
370
   -1
100
AcDbLine
 10
73.14949905646776
 20
21.36146327561364
 11
73.33154701185079
 21
21.36030209047398
  0
SPLINE
  5
1EA
100
AcDbEntity
  8
0
  6
ByLayer
 62
  256
370
   -1
100
AcDbSpline
210
0
220
0
230
0
 70
    8
 71
    2
 72
    6
 73
    3
 74
    0
 42
1e-007
 43
1e-007
 40
0
 40
0
 40
0
 40
1
 40
1
 40
1
 10
73.33154701185079
 20
21.36030209047398
 30
0
 10
73.40846822142267
 20
21.35981145181072
 30
0
 10
73.4416127651712
 20
21.33011212907282
 30
0
  0
SPLINE
  5
1EB
100
AcDbEntity
  8
0
  6
ByLayer
 62
  256
370
   -1
100
AcDbSpline
210
0
220
0
230
0
 70
    8
 71
    2
 72
    6
 73
    3
 74
    0
 42
1e-007
 43
1e-007
 40
0
 40
0
 40
0
 40
1
 40
1
 40
1
 10
73.4416127651712
 20
21.33011212907282
 30
0
 10
73.47475731082064
 20
21.30041310435209
 30
0
 10
73.47444657046604
 20
21.25169594093368
 30
0
  0
SPLINE
  5
1EC
100
AcDbEntity
  8
0
  6
ByLayer
 62
  256
370
   -1
100
AcDbSpline
210
0
220
0
230
0
 70
    8
 71
    2
 72
    6
 73
    3
 74
    0
 42
1e-007
 43
1e-007
 40
0
 40
0
 40
0
 40
1
 40
1
 40
1
 10
73.47444657046604
 20
21.25169594093368
 30
0
 10
73.47415218726807
 20
21.20554321519056
 30
0
 10
73.44062330641502
 20
21.17498704406569
 30
0
  0
SPLINE
  5
1ED
100
AcDbEntity
  8
0
  6
ByLayer
 62
  256
370
   -1
100
AcDbSpline
210
0
220
0
230
0
 70
    8
 71
    2
 72
    6
 73
    3
 74
    0
 42
1e-007
 43
1e-007
 40
0
 40
0
 40
0
 40
1
 40
1
 40
1
 10
73.44062330641502
 20
21.17498704406569
 30
0
 10
73.40709442746285
 20
21.14443117095799
 30
0
 10
73.33017321789097
 20
21.14492180962125
 30
0
  0
LINE
  5
1EE
100
AcDbEntity
  8
0
  6
ByLayer
 62
  256
370
   -1
100
AcDbLine
 10
73.33017321789097
 20
21.14492180962125
 11
72.93274527967239
 21
21.14745678681983
  0
LINE
  5
1EF
100
AcDbEntity
  8
0
  6
ByLayer
 62
  256
370
   -1
100
AcDbLine
 10
74.91866329290643
 20
23.35534793885383
 11
76.08787044667349
 21
23.34789020075796
  0
SPLINE
  5
1F0
100
AcDbEntity
  8
0
  6
ByLayer
 62
  256
370
   -1
100
AcDbSpline
210
0
220
0
230
0
 70
    8
 71
    2
 72
    6
 73
    3
 74
    0
 42
1e-007
 43
1e-007
 40
0
 40
0
 40
0
 40
1
 40
1
 40
1
 10
76.08787044667349
 20
23.34789020075796
 30
0
 10
76.16479165624537
 20
23.3473995620947
 30
0
 10
76.19792802331648
 20
23.31641831853632
 30
0
  0
SPLINE
  5
1F1
100
AcDbEntity
  8
0
  6
ByLayer
 62
  256
370
   -1
100
AcDbSpline
210
0
220
0
230
0
 70
    8
 71
    2
 72
    6
 73
    3
 74
    0
 42
1e-007
 43
1e-007
 40
0
 40
0
 40
0
 40
1
 40
1
 40
1
 10
76.19792802331648
 20
23.31641831853632
 30
0
 10
76.2310643903876
 20
23.28543707497794
 30
0
 10
76.23075365098346
 20
23.23672006056812
 30
0
  0
SPLINE
  5
1F2
100
AcDbEntity
  8
0
  6
ByLayer
 62
  256
370
   -1
100
AcDbSpline
210
0
220
0
230
0
 70
    8
 71
    2
 72
    6
 73
    3
 74
    0
 42
1e-007
 43
1e-007
 40
0
 40
0
 40
0
 40
1
 40
1
 40
1
 10
76.23075365098346
 20
23.23672006056812
 30
0
 10
76.23045926683506
 20
23.19056718581642
 30
0
 10
76.19693038693244
 20
23.16001116370014
 30
0
  0
SPLINE
  5
1F3
100
AcDbEntity
  8
0
  6
ByLayer
 62
  256
370
   -1
100
AcDbSpline
210
0
220
0
230
0
 70
    8
 71
    2
 72
    6
 73
    3
 74
    0
 42
1e-007
 43
1e-007
 40
0
 40
0
 40
0
 40
1
 40
1
 40
1
 10
76.19693038693244
 20
23.16001116370014
 30
0
 10
76.16340150798027
 20
23.12945529059243
 30
0
 10
76.08648029840839
 20
23.12994592925569
 30
0
  0
LINE
  5
1F4
100
AcDbEntity
  8
0
  6
ByLayer
 62
  256
370
   -1
100
AcDbLine
 10
76.08648029840839
 20
23.12994592925569
 11
74.91727314464131
 21
23.13740366735156
  0
LINE
  5
1F5
100
AcDbEntity
  8
0
  6
ByLayer
 62
  256
370
   -1
100
AcDbLine
 10
74.91727314464131
 20
23.13740366735157
 11
74.90813087413194
 21
21.70409936733053
  0
SPLINE
  5
1F6
100
AcDbEntity
  8
0
  6
ByLayer
 62
  256
370
   -1
100
AcDbSpline
210
0
220
0
230
0
 70
    8
 71
    2
 72
    6
 73
    3
 74
    0
 42
1e-007
 43
1e-007
 40
0
 40
0
 40
0
 40
1
 40
1
 40
1
 10
74.90813087413194
 20
21.70409936733053
 30
0
 10
74.90693698228259
 20
21.51692372866559
 30
0
 10
75.05613240705475
 20
21.39032830941345
 30
0
  0
SPLINE
  5
1F7
100
AcDbEntity
  8
0
  6
ByLayer
 62
  256
370
   -1
100
AcDbSpline
210
0
220
0
230
0
 70
    8
 71
    2
 72
    6
 73
    3
 74
    0
 42
1e-007
 43
1e-007
 40
0
 40
0
 40
0
 40
1
 40
1
 40
1
 10
75.05613240705475
 20
21.39032830941345
 30
0
 10
75.20532783372778
 20
21.26373318817847
 30
0
 10
75.49506548251144
 20
21.26188510891024
 30
0
  0
SPLINE
  5
1F8
100
AcDbEntity
  8
0
  6
ByLayer
 62
  256
370
   -1
100
AcDbSpline
210
0
220
0
230
0
 70
    8
 71
    2
 72
    6
 73
    3
 74
    0
 42
1e-007
 43
1e-007
 40
0
 40
0
 40
0
 40
1
 40
1
 40
1
 10
75.49506548251144
 20
21.26188510891024
 30
0
 10
75.71301020103945
 20
21.2604949577938
 30
0
 10
75.96726813049233
 20
21.32425902164703
 30
0
  0
SPLINE
  5
1F9
100
AcDbEntity
  8
0
  6
ByLayer
 62
  256
370
   -1
100
AcDbSpline
210
0
220
0
230
0
 70
    8
 71
    2
 72
    6
 73
    3
 74
    0
 42
1e-007
 43
1e-007
 40
0
 40
0
 40
0
 40
1
 40
1
 40
1
 10
75.96726813049233
 20
21.32425902164703
 30
0
 10
76.22152606184612
 20
21.38802338351742
 30
0
 10
76.36307232394267
 20
21.46917336375413
 30
0
  0
SPLINE
  5
1FA
100
AcDbEntity
  8
0
  6
ByLayer
 62
  256
370
   -1
100
AcDbSpline
210
0
220
0
230
0
 70
    8
 71
    2
 72
    6
 73
    3
 74
    0
 42
1e-007
 43
1e-007
 40
0
 40
0
 40
0
 40
1
 40
1
 40
1
 10
76.36307232394267
 20
21.46917336375413
 30
0
 10
76.41456593972308
 20
21.50217889353156
 30
0
 10
76.44789856320995
 20
21.50196628281051
 30
0
  0
SPLINE
  5
1FB
100
AcDbEntity
  8
0
  6
ByLayer
 62
  256
370
   -1
100
AcDbSpline
210
0
220
0
230
0
 70
    8
 71
    2
 72
    6
 73
    3
 74
    0
 42
1e-007
 43
1e-007
 40
0
 40
0
 40
0
 40
1
 40
1
 40
1
 10
76.44789856320995
 20
21.50196628281051
 30
0
 10
76.48892300963682
 20
21.50170461012404
 30
0
 10
76.51948765640672
 20
21.46945779719914
 30
0
  0
SPLINE
  5
1FC
100
AcDbEntity
  8
0
  6
ByLayer
 62
  256
370
   -1
100
AcDbSpline
210
0
220
0
230
0
 70
    8
 71
    2
 72
    6
 73
    3
 74
    0
 42
1e-007
 43
1e-007
 40
0
 40
0
 40
0
 40
1
 40
1
 40
1
 10
76.51948765640672
 20
21.46945779719914
 30
0
 10
76.5500517071423
 20
21.43721098807603
 30
0
 10
76.54977367729919
 20
21.39362210397386
 30
0
  0
SPLINE
  5
1FD
100
AcDbEntity
  8
0
  6
ByLayer
 62
  256
370
   -1
100
AcDbSpline
210
0
220
0
230
0
 70
    8
 71
    2
 72
    6
 73
    3
 74
    0
 42
1e-007
 43
1e-007
 40
0
 40
0
 40
0
 40
1
 40
1
 40
1
 10
76.54977367729919
 20
21.39362210397386
 30
0
 10
76.54952835606666
 20
21.35516120117076
 30
0
 10
76.51598312185875
 20
21.32204118840494
 30
0
  0
SPLINE
  5
1FE
100
AcDbEntity
  8
0
  6
ByLayer
 62
  256
370
   -1
100
AcDbSpline
210
0
220
0
230
0
 70
    8
 71
    2
 72
    6
 73
    3
 74
    0
 42
1e-007
 43
1e-007
 40
0
 40
0
 40
0
 40
1
 40
1
 40
1
 10
76.51598312185875
 20
21.32204118840494
 30
0
 10
76.43339392854017
 20
21.23795090903346
 30
0
 10
76.11610375294447
 20
21.14125461603646
 30
0
  0
SPLINE
  5
1FF
100
AcDbEntity
  8
0
  6
ByLayer
 62
  256
370
   -1
100
AcDbSpline
210
0
220
0
230
0
 70
    8
 71
    2
 72
    6
 73
    3
 74
    0
 42
1e-007
 43
1e-007
 40
0
 40
0
 40
0
 40
1
 40
1
 40
1
 10
76.11610375294447
 20
21.14125461603646
 30
0
 10
75.79881417528398
 20
21.04455861725485
 30
0
 10
75.50907652650032
 20
21.04640669652308
 30
0
  0
SPLINE
  5
200
100
AcDbEntity
  8
0
  6
ByLayer
 62
  256
370
   -1
100
AcDbSpline
210
0
220
0
230
0
 70
    8
 71
    2
 72
    6
 73
    3
 74
    0
 42
1e-007
 43
1e-007
 40
0
 40
0
 40
0
 40
1
 40
1
 40
1
 10
75.50907652650032
 20
21.04640669652308
 30
0
 10
75.13216110951234
 20
21.04881083547753
 30
0
 10
74.91021658439539
 20
21.22715307515508
 30
0
  0
SPLINE
  5
201
100
AcDbEntity
  8
0
  6
ByLayer
 62
  256
370
   -1
100
AcDbSpline
210
0
220
0
230
0
 70
    8
 71
    2
 72
    6
 73
    3
 74
    0
 42
1e-007
 43
1e-007
 40
0
 40
0
 40
0
 40
1
 40
1
 40
1
 10
74.91021658439539
 20
21.22715307515508
 30
0
 10
74.68827325324797
 20
21.40549560524623
 30
0
 10
74.69018675163827
 20
21.70548951464519
 30
0
  0
LINE
  5
202
100
AcDbEntity
  8
0
  6
ByLayer
 62
  256
370
   -1
100
AcDbLine
 10
74.69018675163827
 20
21.70548951464519
 11
74.69932902214764
 21
23.13879381466623
  0
LINE
  5
203
100
AcDbEntity
  8
0
  6
ByLayer
 62
  256
370
   -1
100
AcDbLine
 10
74.69932902214764
 20
23.13879381466623
 11
74.30190108392904
 21
23.14132879186481
  0
SPLINE
  5
204
100
AcDbEntity
  8
0
  6
ByLayer
 62
  256
370
   -1
100
AcDbSpline
210
0
220
0
230
0
 70
    8
 71
    2
 72
    6
 73
    3
 74
    0
 42
1e-007
 43
1e-007
 40
0
 40
0
 40
0
 40
1
 40
1
 40
1
 10
74.30190108392904
 20
23.1413287918648
 30
0
 10
74.22497927832285
 20
23.14181943432985
 30
0
 10
74.19184291030129
 20
23.17280052887964
 30
0
  0
SPLINE
  5
205
100
AcDbEntity
  8
0
  6
ByLayer
 62
  256
370
   -1
100
AcDbSpline
210
0
220
0
230
0
 70
    8
 71
    2
 72
    6
 73
    3
 74
    0
 42
1e-007
 43
1e-007
 40
0
 40
0
 40
0
 40
1
 40
1
 40
1
 10
74.19184291030129
 20
23.17280052887964
 30
0
 10
74.15870654323017
 20
23.20378177243802
 30
0
 10
74.15901728263432
 20
23.25249878684784
 30
0
  0
SPLINE
  5
206
100
AcDbEntity
  8
0
  6
ByLayer
 62
  256
370
   -1
100
AcDbSpline
210
0
220
0
230
0
 70
    8
 71
    2
 72
    6
 73
    3
 74
    0
 42
1e-007
 43
1e-007
 40
0
 40
0
 40
0
 40
1
 40
1
 40
1
 10
74.15901728263432
 20
23.25249878684784
 30
0
 10
74.15931166678271
 20
23.29865166159955
 30
0
 10
74.19284054668533
 20
23.32920768371583
 30
0
  0
SPLINE
  5
207
100
AcDbEntity
  8
0
  6
ByLayer
 62
  256
370
   -1
100
AcDbSpline
210
0
220
0
230
0
 70
    8
 71
    2
 72
    6
 73
    3
 74
    0
 42
1e-007
 43
1e-007
 40
0
 40
0
 40
0
 40
1
 40
1
 40
1
 10
74.19284054668533
 20
23.32920768371583
 30
0
 10
74.22636942658795
 20
23.35976370583212
 30
0
 10
74.30329123219414
 20
23.35927306336707
 30
0
  0
LINE
  5
208
100
AcDbEntity
  8
0
  6
ByLayer
 62
  256
370
   -1
100
AcDbLine
 10
74.30329123219414
 20
23.35927306336707
 11
74.70071917041274
 21
23.35673808616849
  0
LINE
  5
209
100
AcDbEntity
  8
0
  6
ByLayer
 62
  256
370
   -1
100
AcDbLine
 10
74.70071917041274
 20
23.35673808616849
 11
74.70477513221967
 21
23.9926225191028
  0
SPLINE
  5
20A
100
AcDbEntity
  8
0
  6
ByLayer
 62
  256
370
   -1
100
AcDbSpline
210
0
220
0
230
0
 70
    8
 71
    2
 72
    6
 73
    3
 74
    0
 42
1e-007
 43
1e-007
 40
0
 40
0
 40
0
 40
1
 40
1
 40
1
 10
74.70477513221967
 20
23.9926225191028
 30
0
 10
74.70526577278383
 20
24.06954402669184
 30
0
 10
74.73624686733362
 20
24.1026803947134
 30
0
  0
SPLINE
  5
20B
100
AcDbEntity
  8
0
  6
ByLayer
 62
  256
370
   -1
100
AcDbSpline
210
0
220
0
230
0
 70
    8
 71
    2
 72
    6
 73
    3
 74
    0
 42
1e-007
 43
1e-007
 40
0
 40
0
 40
0
 40
1
 40
1
 40
1
 10
74.73624686733362
 20
24.1026803947134
 30
0
 10
74.76722796378431
 20
24.13581706075212
 30
0
 10
74.81338068952743
 20
24.13552267755416
 30
0
  0
SPLINE
  5
20C
100
AcDbEntity
  8
0
  6
ByLayer
 62
  256
370
   -1
100
AcDbSpline
210
0
220
0
230
0
 70
    8
 71
    2
 72
    6
 73
    3
 74
    0
 42
1e-007
 43
1e-007
 40
0
 40
0
 40
0
 40
1
 40
1
 40
1
 10
74.81338068952743
 20
24.13552267755416
 30
0
 10
74.86209755492867
 20
24.13521193910046
 30
0
 10
74.89265402216981
 20
24.10168275832935
 30
0
  0
SPLINE
  5
20D
100
AcDbEntity
  8
0
  6
ByLayer
 62
  256
370
   -1
100
AcDbSpline
210
0
220
0
230
0
 70
    8
 71
    2
 72
    6
 73
    3
 74
    0
 42
1e-007
 43
1e-007
 40
0
 40
0
 40
0
 40
1
 40
1
 40
1
 10
74.89265402216981
 20
24.10168275832935
 30
0
 10
74.92320989527752
 20
24.06815387937717
 30
0
 10
74.92271925471336
 20
23.99123237178814
 30
0
  0
LINE
  5
20E
100
AcDbEntity
  8
0
  6
ByLayer
 62
  256
370
   -1
100
AcDbLine
 10
74.92271925471336
 20
23.99123237178814
 11
74.91866329290643
 21
23.35534793885383
  0
LWPOLYLINE
  5
20F
100
AcDbEntity
  8
0
  6
ByLayer
 62
    1
370
   -1
100
AcDbPolyline
 90
    9
 70
    1
 43
0
 10
3.499999999999996
 20
-4.440892098500626e-016
 42
-0.414213562373095
 10
-5.329070518200751e-015
 20
3.500000000000002
 10
-5.329070518200751e-015
 20
26.49999999999999
 42
-0.414213562373095
 10
3.499999999999996
 20
29.99999999999999
 10
104.5
 20
29.99999999999999
 42
-0.4142135623730947
 10
108
 20
26.49999999999999
 10
108
 20
3.5
 42
-0.4142135623730948
 10
104.5
 20
4.440892098500626e-016
 10
104.5
 20
0
  0
CIRCLE
  5
210
100
AcDbEntity
  8
0
  6
ByLayer
 62
    1
370
   -1
100
AcDbCircle
 10
5.95
 20
26.45
 40
1.25
  0
CIRCLE
  5
211
100
AcDbEntity
  8
0
  6
ByLayer
 62
    1
370
   -1
100
AcDbCircle
 10
5.95
 20
5.35
 40
1.25
  0
LWPOLYLINE
  5
212
100
AcDbEntity
  8
0
  6
ByLayer
 62
    1
370
   -1
100
AcDbPolyline
 90
    5
 70
    1
 43
0
 10
44.3
 20
21.29999999999999
 10
13.69999999999999
 20
21.29999999999999
 10
13.69999999999999
 20
8.699999999999996
 10
44.3
 20
8.699999999999996
 10
44.3
 20
8.699999999999996
  0
CIRCLE
  5
213
100
AcDbEntity
  8
0
  6
ByLayer
 62
    1
370
   -1
100
AcDbCircle
 10
72.2625
 20
16.1
 40
3.7
  0
CIRCLE
  5
214
100
AcDbEntity
  8
0
  6
ByLayer
 62
    1
370
   -1
100
AcDbCircle
 10
102.05
 20
26.45
 40
1.25
  0
CIRCLE
  5
215
100
AcDbEntity
  8
0
  6
ByLayer
 62
    1
370
   -1
100
AcDbCircle
 10
102.05
 20
5.35
 40
1.25
  0
ENDSEC
  0
SECTION
  2
OBJECTS
  0
DICTIONARY
  5
C
330
0
100
AcDbDictionary
281
    1
  3
ACAD_GROUP
350
D
  0
DICTIONARY
  5
D
330
C
100
AcDbDictionary
281
    1
  0
ENDSEC
  0
EOF
