G04 #@! TF.GenerationSoftware,KiCad,Pcbnew,(6.0.0)*
G04 #@! TF.CreationDate,2022-06-03T20:07:36-07:00*
G04 #@! TF.ProjectId,steDAC,73746544-4143-42e6-9b69-6361645f7063,rev?*
G04 #@! TF.SameCoordinates,Original*
G04 #@! TF.FileFunction,Soldermask,Bot*
G04 #@! TF.FilePolarity,Negative*
%FSLAX46Y46*%
G04 Gerber Fmt 4.6, Leading zero omitted, Abs format (unit mm)*
G04 Created by KiCad (PCBNEW (6.0.0)) date 2022-06-03 20:07:36*
%MOMM*%
%LPD*%
G01*
G04 APERTURE LIST*
%ADD10R,1.700000X1.700000*%
%ADD11O,1.700000X1.700000*%
%ADD12R,1.200000X1.200000*%
%ADD13C,1.200000*%
%ADD14C,1.950000*%
%ADD15C,2.400000*%
%ADD16C,0.650000*%
%ADD17O,1.000000X1.600000*%
%ADD18O,1.000000X2.100000*%
%ADD19R,1.600000X1.600000*%
%ADD20C,1.600000*%
G04 APERTURE END LIST*
D10*
X114162500Y-68175000D03*
D11*
X114162500Y-65635000D03*
X114162500Y-63095000D03*
D12*
X135700000Y-111500000D03*
D13*
X135700000Y-113000000D03*
D12*
X120650000Y-110750000D03*
D13*
X120650000Y-112250000D03*
D10*
X128337500Y-60425000D03*
D11*
X128337500Y-57885000D03*
X130877500Y-60425000D03*
X130877500Y-57885000D03*
X133417500Y-60425000D03*
X133417500Y-57885000D03*
X135957500Y-60425000D03*
X135957500Y-57885000D03*
X138497500Y-60425000D03*
X138497500Y-57885000D03*
D10*
X93862500Y-121150000D03*
D11*
X96402500Y-121150000D03*
X98942500Y-121150000D03*
X101482500Y-121150000D03*
D14*
X156162500Y-131650000D03*
X151162500Y-126650000D03*
X153662500Y-126650000D03*
X158662500Y-126650000D03*
X161162500Y-126650000D03*
D15*
X161162500Y-131650000D03*
X151162500Y-131650000D03*
X156162500Y-126650000D03*
D16*
X103577500Y-59365000D03*
X97797500Y-59365000D03*
D17*
X96367500Y-55715000D03*
D18*
X105007500Y-59895000D03*
D17*
X105007500Y-55715000D03*
D18*
X96367500Y-59895000D03*
D10*
X114162500Y-58650000D03*
D11*
X116702500Y-58650000D03*
D19*
X125412500Y-120400000D03*
D20*
X125412500Y-118400000D03*
D10*
X138412500Y-67175000D03*
D11*
X138412500Y-64635000D03*
D19*
X180912500Y-98650000D03*
D20*
X183412500Y-98650000D03*
D19*
X117662500Y-75400000D03*
D20*
X117662500Y-72900000D03*
D19*
X144662500Y-99400000D03*
D20*
X142162500Y-99400000D03*
D19*
X96312500Y-107850000D03*
D20*
X93812500Y-107850000D03*
D19*
X173412500Y-98750000D03*
D20*
X175912500Y-98750000D03*
D12*
X138200000Y-106100000D03*
D13*
X138200000Y-107600000D03*
D10*
X123812500Y-83550000D03*
D11*
X123812500Y-81010000D03*
M02*
