G04 #@! TF.GenerationSoftware,KiCad,Pcbnew,(6.0.0)*
G04 #@! TF.CreationDate,2022-07-02T21:46:00-07:00*
G04 #@! TF.ProjectId,steDAC,73746544-4143-42e6-9b69-6361645f7063,rev?*
G04 #@! TF.SameCoordinates,Original*
G04 #@! TF.FileFunction,Paste,Top*
G04 #@! TF.FilePolarity,Positive*
%FSLAX46Y46*%
G04 Gerber Fmt 4.6, Leading zero omitted, Abs format (unit mm)*
G04 Created by KiCad (PCBNEW (6.0.0)) date 2022-07-02 21:46:00*
%MOMM*%
%LPD*%
G01*
G04 APERTURE LIST*
G04 Aperture macros list*
%AMRoundRect*
0 Rectangle with rounded corners*
0 $1 Rounding radius*
0 $2 $3 $4 $5 $6 $7 $8 $9 X,Y pos of 4 corners*
0 Add a 4 corners polygon primitive as box body*
4,1,4,$2,$3,$4,$5,$6,$7,$8,$9,$2,$3,0*
0 Add four circle primitives for the rounded corners*
1,1,$1+$1,$2,$3*
1,1,$1+$1,$4,$5*
1,1,$1+$1,$6,$7*
1,1,$1+$1,$8,$9*
0 Add four rect primitives between the rounded corners*
20,1,$1+$1,$2,$3,$4,$5,0*
20,1,$1+$1,$4,$5,$6,$7,0*
20,1,$1+$1,$6,$7,$8,$9,0*
20,1,$1+$1,$8,$9,$2,$3,0*%
G04 Aperture macros list end*
%ADD10RoundRect,0.250000X0.337500X0.475000X-0.337500X0.475000X-0.337500X-0.475000X0.337500X-0.475000X0*%
%ADD11RoundRect,0.250000X-0.350000X-0.450000X0.350000X-0.450000X0.350000X0.450000X-0.350000X0.450000X0*%
%ADD12RoundRect,0.250000X-0.475000X0.337500X-0.475000X-0.337500X0.475000X-0.337500X0.475000X0.337500X0*%
%ADD13R,0.600000X1.150000*%
%ADD14R,0.600000X0.350000*%
%ADD15R,1.100000X1.700000*%
%ADD16RoundRect,0.250000X0.350000X0.450000X-0.350000X0.450000X-0.350000X-0.450000X0.350000X-0.450000X0*%
%ADD17RoundRect,0.250000X-0.450000X0.350000X-0.450000X-0.350000X0.450000X-0.350000X0.450000X0.350000X0*%
%ADD18R,1.800000X1.200000*%
%ADD19RoundRect,0.250000X-0.337500X-0.475000X0.337500X-0.475000X0.337500X0.475000X-0.337500X0.475000X0*%
%ADD20RoundRect,0.250000X0.450000X-0.350000X0.450000X0.350000X-0.450000X0.350000X-0.450000X-0.350000X0*%
%ADD21R,1.200000X1.400000*%
%ADD22RoundRect,0.250000X0.475000X-0.337500X0.475000X0.337500X-0.475000X0.337500X-0.475000X-0.337500X0*%
%ADD23R,1.150000X0.600000*%
%ADD24R,1.528000X0.650000*%
%ADD25R,1.526000X0.650000*%
%ADD26R,1.400000X1.200000*%
%ADD27R,1.475000X0.300000*%
%ADD28R,0.300000X1.475000*%
%ADD29R,0.600000X2.450000*%
%ADD30R,0.300000X2.450000*%
%ADD31RoundRect,0.250000X0.450000X-0.325000X0.450000X0.325000X-0.450000X0.325000X-0.450000X-0.325000X0*%
%ADD32R,0.200000X0.750000*%
%ADD33R,0.750000X0.200000*%
%ADD34R,3.850000X1.850000*%
%ADD35R,0.650000X1.525000*%
%ADD36R,2.290000X2.290000*%
%ADD37RoundRect,0.250000X-0.625000X0.375000X-0.625000X-0.375000X0.625000X-0.375000X0.625000X0.375000X0*%
%ADD38R,0.300000X0.850000*%
%ADD39R,2.500000X1.750000*%
G04 APERTURE END LIST*
D10*
X174350000Y-88750000D03*
X172275000Y-88750000D03*
D11*
X171412500Y-82900000D03*
X173412500Y-82900000D03*
D10*
X158800000Y-82700000D03*
X156725000Y-82700000D03*
D12*
X144412500Y-107862500D03*
X144412500Y-109937500D03*
D13*
X96200000Y-101200000D03*
X95250000Y-101200000D03*
X94300000Y-101200000D03*
X94300000Y-103700000D03*
X96200000Y-103700000D03*
D14*
X129350000Y-115525000D03*
X129350000Y-114875000D03*
X129350000Y-114225000D03*
X127250000Y-114225000D03*
X127250000Y-114875000D03*
X127250000Y-115525000D03*
D15*
X128300000Y-114875000D03*
D10*
X154700000Y-102900000D03*
X152625000Y-102900000D03*
D12*
X160012500Y-96712500D03*
X160012500Y-98787500D03*
D16*
X150562500Y-105200000D03*
X148562500Y-105200000D03*
D17*
X147162500Y-107900000D03*
X147162500Y-109900000D03*
D16*
X154662500Y-105200000D03*
X152662500Y-105200000D03*
D18*
X99862500Y-76750000D03*
X95862500Y-76750000D03*
X95862500Y-79150000D03*
X99862500Y-79150000D03*
D19*
X163625000Y-94400000D03*
X165700000Y-94400000D03*
D20*
X158912500Y-112150000D03*
X158912500Y-110150000D03*
X142412500Y-60150000D03*
X142412500Y-58150000D03*
D17*
X138400000Y-101200000D03*
X138400000Y-103200000D03*
D21*
X127812500Y-95650000D03*
X129512500Y-95650000D03*
D22*
X133000000Y-103237500D03*
X133000000Y-101162500D03*
D23*
X124650000Y-74050000D03*
X124650000Y-73100000D03*
X124650000Y-72150000D03*
X122150000Y-72150000D03*
X122150000Y-74050000D03*
D12*
X158162500Y-105612500D03*
X158162500Y-107687500D03*
D24*
X150240500Y-108050000D03*
X150240500Y-109320000D03*
X150240500Y-110590000D03*
X150240500Y-111860000D03*
X155662500Y-111860000D03*
X155662500Y-110590000D03*
X155662500Y-109320000D03*
X155662500Y-108050000D03*
D22*
X181012500Y-131187500D03*
X181012500Y-129112500D03*
D16*
X171662500Y-105150000D03*
X169662500Y-105150000D03*
D21*
X127812500Y-102400000D03*
X129512500Y-102400000D03*
D22*
X181662500Y-111937500D03*
X181662500Y-109862500D03*
D20*
X154162500Y-117900000D03*
X154162500Y-115900000D03*
D21*
X127812500Y-97900000D03*
X129512500Y-97900000D03*
D20*
X179162500Y-111900000D03*
X179162500Y-109900000D03*
D25*
X120374500Y-119305000D03*
X120374500Y-118035000D03*
X120374500Y-116765000D03*
X120374500Y-115495000D03*
X114950500Y-115495000D03*
X114950500Y-116765000D03*
X114950500Y-118035000D03*
X114950500Y-119305000D03*
D21*
X127812500Y-106850000D03*
X129512500Y-106850000D03*
D10*
X98187500Y-91700000D03*
X96112500Y-91700000D03*
D26*
X148012500Y-92550000D03*
X148012500Y-94250000D03*
D12*
X181662500Y-105612500D03*
X181662500Y-107687500D03*
X152562500Y-96512500D03*
X152562500Y-98587500D03*
D22*
X112550000Y-118837500D03*
X112550000Y-116762500D03*
D27*
X100874500Y-83750000D03*
X100874500Y-84250000D03*
X100874500Y-84750000D03*
X100874500Y-85250000D03*
X100874500Y-85750000D03*
X100874500Y-86250000D03*
X100874500Y-86750000D03*
X100874500Y-87250000D03*
X100874500Y-87750000D03*
X100874500Y-88250000D03*
X100874500Y-88750000D03*
X100874500Y-89250000D03*
X100874500Y-89750000D03*
X100874500Y-90250000D03*
X100874500Y-90750000D03*
X100874500Y-91250000D03*
X100874500Y-91750000D03*
X100874500Y-92250000D03*
X100874500Y-92750000D03*
X100874500Y-93250000D03*
X100874500Y-93750000D03*
X100874500Y-94250000D03*
X100874500Y-94750000D03*
X100874500Y-95250000D03*
X100874500Y-95750000D03*
D28*
X102612500Y-97488000D03*
X103112500Y-97488000D03*
X103612500Y-97488000D03*
X104112500Y-97488000D03*
X104612500Y-97488000D03*
X105112500Y-97488000D03*
X105612500Y-97488000D03*
X106112500Y-97488000D03*
X106612500Y-97488000D03*
X107112500Y-97488000D03*
X107612500Y-97488000D03*
X108112500Y-97488000D03*
X108612500Y-97488000D03*
X109112500Y-97488000D03*
X109612500Y-97488000D03*
X110112500Y-97488000D03*
X110612500Y-97488000D03*
X111112500Y-97488000D03*
X111612500Y-97488000D03*
X112112500Y-97488000D03*
X112612500Y-97488000D03*
X113112500Y-97488000D03*
X113612500Y-97488000D03*
X114112500Y-97488000D03*
X114612500Y-97488000D03*
D27*
X116350500Y-95750000D03*
X116350500Y-95250000D03*
X116350500Y-94750000D03*
X116350500Y-94250000D03*
X116350500Y-93750000D03*
X116350500Y-93250000D03*
X116350500Y-92750000D03*
X116350500Y-92250000D03*
X116350500Y-91750000D03*
X116350500Y-91250000D03*
X116350500Y-90750000D03*
X116350500Y-90250000D03*
X116350500Y-89750000D03*
X116350500Y-89250000D03*
X116350500Y-88750000D03*
X116350500Y-88250000D03*
X116350500Y-87750000D03*
X116350500Y-87250000D03*
X116350500Y-86750000D03*
X116350500Y-86250000D03*
X116350500Y-85750000D03*
X116350500Y-85250000D03*
X116350500Y-84750000D03*
X116350500Y-84250000D03*
X116350500Y-83750000D03*
D28*
X114612500Y-82012000D03*
X114112500Y-82012000D03*
X113612500Y-82012000D03*
X113112500Y-82012000D03*
X112612500Y-82012000D03*
X112112500Y-82012000D03*
X111612500Y-82012000D03*
X111112500Y-82012000D03*
X110612500Y-82012000D03*
X110112500Y-82012000D03*
X109612500Y-82012000D03*
X109112500Y-82012000D03*
X108612500Y-82012000D03*
X108112500Y-82012000D03*
X107612500Y-82012000D03*
X107112500Y-82012000D03*
X106612500Y-82012000D03*
X106112500Y-82012000D03*
X105612500Y-82012000D03*
X105112500Y-82012000D03*
X104612500Y-82012000D03*
X104112500Y-82012000D03*
X103612500Y-82012000D03*
X103112500Y-82012000D03*
X102612500Y-82012000D03*
D16*
X175662500Y-105150000D03*
X173662500Y-105150000D03*
D29*
X103912500Y-61310000D03*
X103137500Y-61310000D03*
D30*
X102437500Y-61310000D03*
X101937500Y-61310000D03*
X101437500Y-61310000D03*
X100937500Y-61310000D03*
X100437500Y-61310000D03*
X99937500Y-61310000D03*
X99437500Y-61310000D03*
X98937500Y-61310000D03*
D29*
X98237500Y-61310000D03*
X97462500Y-61310000D03*
D12*
X179162500Y-105652500D03*
X179162500Y-107727500D03*
D10*
X108700000Y-77250000D03*
X106625000Y-77250000D03*
D12*
X154812500Y-96512500D03*
X154812500Y-98587500D03*
D19*
X151125000Y-86400000D03*
X153200000Y-86400000D03*
D11*
X126162500Y-70150000D03*
X128162500Y-70150000D03*
D22*
X92862500Y-78987500D03*
X92862500Y-76912500D03*
D31*
X93412500Y-93925000D03*
X93412500Y-91875000D03*
D20*
X178512500Y-131150000D03*
X178512500Y-129150000D03*
D17*
X131700000Y-111500000D03*
X131700000Y-113500000D03*
D13*
X174300000Y-92100000D03*
X173350000Y-92100000D03*
X172400000Y-92100000D03*
X172400000Y-94600000D03*
X174300000Y-94600000D03*
D22*
X119512500Y-84587500D03*
X119512500Y-82512500D03*
X111900000Y-79387500D03*
X111900000Y-77312500D03*
X112412500Y-75187500D03*
X112412500Y-73112500D03*
D10*
X180450000Y-125900000D03*
X178375000Y-125900000D03*
D21*
X127812500Y-100150000D03*
X129512500Y-100150000D03*
D17*
X178412500Y-117400000D03*
X178412500Y-119400000D03*
D19*
X141875000Y-85650000D03*
X143950000Y-85650000D03*
D16*
X107162500Y-101900000D03*
X105162500Y-101900000D03*
D24*
X175873500Y-111805000D03*
X175873500Y-110535000D03*
X175873500Y-109265000D03*
X175873500Y-107995000D03*
X170451500Y-107995000D03*
X170451500Y-109265000D03*
X170451500Y-110535000D03*
X170451500Y-111805000D03*
D22*
X165412500Y-114187500D03*
X165412500Y-112112500D03*
D13*
X182050000Y-92100000D03*
X181100000Y-92100000D03*
X180150000Y-92100000D03*
X180150000Y-94600000D03*
X182050000Y-94600000D03*
D17*
X135700000Y-101200000D03*
X135700000Y-103200000D03*
D16*
X163762500Y-82700000D03*
X161762500Y-82700000D03*
D17*
X147912500Y-86900000D03*
X147912500Y-88900000D03*
D12*
X150312500Y-96512500D03*
X150312500Y-98587500D03*
D10*
X180450000Y-123400000D03*
X178375000Y-123400000D03*
D17*
X98162500Y-66455000D03*
X98162500Y-68455000D03*
D22*
X108687500Y-68492500D03*
X108687500Y-66417500D03*
D17*
X123912500Y-58400000D03*
X123912500Y-60400000D03*
D11*
X114662500Y-99900000D03*
X116662500Y-99900000D03*
D17*
X131650000Y-115700000D03*
X131650000Y-117700000D03*
D21*
X119862500Y-65850000D03*
X121562500Y-65850000D03*
D10*
X98187500Y-95050000D03*
X96112500Y-95050000D03*
D17*
X167600000Y-107900000D03*
X167600000Y-109900000D03*
D22*
X134412500Y-99187500D03*
X134412500Y-97112500D03*
D10*
X126700000Y-67900000D03*
X124625000Y-67900000D03*
D22*
X161162500Y-112187500D03*
X161162500Y-110112500D03*
X165262500Y-89450000D03*
X165262500Y-87375000D03*
D26*
X141912500Y-78300000D03*
X141912500Y-80000000D03*
D12*
X165100000Y-107862500D03*
X165100000Y-109937500D03*
D19*
X162725000Y-91700000D03*
X164800000Y-91700000D03*
D16*
X159912500Y-118650000D03*
X157912500Y-118650000D03*
D17*
X105687500Y-66455000D03*
X105687500Y-68455000D03*
D20*
X151662500Y-117900000D03*
X151662500Y-115900000D03*
D10*
X96200000Y-117650000D03*
X94125000Y-117650000D03*
D20*
X180912500Y-119400000D03*
X180912500Y-117400000D03*
D22*
X107412500Y-75187500D03*
X107412500Y-73112500D03*
D19*
X175625000Y-82900000D03*
X177700000Y-82900000D03*
D22*
X167912500Y-114187500D03*
X167912500Y-112112500D03*
D16*
X175712500Y-118050000D03*
X173712500Y-118050000D03*
D12*
X160662500Y-105612500D03*
X160662500Y-107687500D03*
X95800000Y-82112500D03*
X95800000Y-84187500D03*
D22*
X144662500Y-114187500D03*
X144662500Y-112112500D03*
D17*
X136912500Y-97150000D03*
X136912500Y-99150000D03*
D22*
X133412500Y-86437500D03*
X133412500Y-84362500D03*
D12*
X110400000Y-99762500D03*
X110400000Y-101837500D03*
D32*
X156412500Y-94450000D03*
X156812500Y-94450000D03*
X157212500Y-94450000D03*
X157612500Y-94450000D03*
X158012500Y-94450000D03*
X158412500Y-94450000D03*
X158812500Y-94450000D03*
X159212500Y-94450000D03*
X159612500Y-94450000D03*
X160012500Y-94450000D03*
D33*
X160712500Y-93750000D03*
X160712500Y-93350000D03*
X160712500Y-92950000D03*
X160712500Y-92550000D03*
X160712500Y-92150000D03*
D32*
X160012500Y-91450000D03*
X159612500Y-91450000D03*
X159212500Y-91450000D03*
X158812500Y-91450000D03*
X158412500Y-91450000D03*
X158012500Y-91450000D03*
X157612500Y-91450000D03*
X157212500Y-91450000D03*
X156812500Y-91450000D03*
X156412500Y-91450000D03*
D33*
X155712500Y-92150000D03*
X155712500Y-92550000D03*
X155712500Y-92950000D03*
X155712500Y-93350000D03*
X155712500Y-93750000D03*
D34*
X158212500Y-92950000D03*
D10*
X144550000Y-89250000D03*
X142475000Y-89250000D03*
X182050000Y-89400000D03*
X179975000Y-89400000D03*
D19*
X117112500Y-79650000D03*
X119187500Y-79650000D03*
D17*
X122412500Y-92150000D03*
X122412500Y-94150000D03*
D22*
X109912500Y-75187500D03*
X109912500Y-73112500D03*
D16*
X121412500Y-88900000D03*
X119412500Y-88900000D03*
D19*
X163625000Y-98950000D03*
X165700000Y-98950000D03*
D22*
X147412500Y-114187500D03*
X147412500Y-112112500D03*
D17*
X93412500Y-87400000D03*
X93412500Y-89400000D03*
D10*
X102150000Y-99950000D03*
X100075000Y-99950000D03*
D22*
X162912500Y-89437500D03*
X162912500Y-87362500D03*
D10*
X175700000Y-102850000D03*
X173625000Y-102850000D03*
X96200000Y-112650000D03*
X94125000Y-112650000D03*
X98187500Y-89200000D03*
X96112500Y-89200000D03*
D35*
X133507500Y-94612000D03*
X134777500Y-94612000D03*
X136047500Y-94612000D03*
X137317500Y-94612000D03*
X137317500Y-89188000D03*
X136047500Y-89188000D03*
X134777500Y-89188000D03*
X133507500Y-89188000D03*
D36*
X135412500Y-91900000D03*
D10*
X96200000Y-115150000D03*
X94125000Y-115150000D03*
D19*
X163625000Y-96650000D03*
X165700000Y-96650000D03*
X173675000Y-115550000D03*
X175750000Y-115550000D03*
X127775000Y-72750000D03*
X129850000Y-72750000D03*
D13*
X102637500Y-66205000D03*
X101687500Y-66205000D03*
X100737500Y-66205000D03*
X100737500Y-68705000D03*
X101687500Y-68705000D03*
X102637500Y-68705000D03*
D19*
X168975000Y-121650000D03*
X171050000Y-121650000D03*
D22*
X98500000Y-85837500D03*
X98500000Y-83762500D03*
D17*
X92800000Y-82150000D03*
X92800000Y-84150000D03*
D19*
X163625000Y-101350000D03*
X165700000Y-101350000D03*
D10*
X96200000Y-98600000D03*
X94125000Y-98600000D03*
X172450000Y-128650000D03*
X170375000Y-128650000D03*
D19*
X168975000Y-124150000D03*
X171050000Y-124150000D03*
D37*
X94687500Y-65750000D03*
X94687500Y-68550000D03*
D22*
X136412500Y-86437500D03*
X136412500Y-84362500D03*
D10*
X108700000Y-79400000D03*
X106625000Y-79400000D03*
D20*
X92100000Y-101900000D03*
X92100000Y-99900000D03*
D10*
X138537500Y-115800000D03*
X136462500Y-115800000D03*
D12*
X102662500Y-76862500D03*
X102662500Y-78937500D03*
D38*
X176412500Y-123400000D03*
X175912500Y-123400000D03*
X175412500Y-123400000D03*
X174912500Y-123400000D03*
X174412500Y-123400000D03*
X174412500Y-126400000D03*
X174912500Y-126400000D03*
X175412500Y-126400000D03*
X175912500Y-126400000D03*
X176412500Y-126400000D03*
D39*
X175412500Y-124900000D03*
D21*
X151012500Y-89600000D03*
X151012500Y-91800000D03*
X152912500Y-91800000D03*
X152912500Y-89600000D03*
D10*
X143950000Y-82650000D03*
X141875000Y-82650000D03*
D20*
X134200000Y-117700000D03*
X134200000Y-115700000D03*
D19*
X157875000Y-116400000D03*
X159950000Y-116400000D03*
D21*
X127812500Y-104600000D03*
X129512500Y-104600000D03*
D13*
X144550000Y-92200000D03*
X143600000Y-92200000D03*
X142650000Y-92200000D03*
X142650000Y-94700000D03*
X144550000Y-94700000D03*
D16*
X172412500Y-131150000D03*
X170412500Y-131150000D03*
D19*
X124625000Y-65850000D03*
X126700000Y-65850000D03*
M02*
