%TF.GenerationSoftware,KiCad,Pcbnew,(6.0.0)*%
%TF.CreationDate,2022-05-19T20:01:10-07:00*%
%TF.ProjectId,steDAC,73746544-4143-42e6-9b69-6361645f7063,rev?*%
%TF.SameCoordinates,Original*%
%TF.FileFunction,Soldermask,Top*%
%TF.FilePolarity,Negative*%
%FSLAX46Y46*%
G04 Gerber Fmt 4.6, Leading zero omitted, Abs format (unit mm)*
G04 Created by KiCad (PCBNEW (6.0.0)) date 2022-05-19 20:01:10*
%MOMM*%
%LPD*%
G01*
G04 APERTURE LIST*
G04 Aperture macros list*
%AMRoundRect*
0 Rectangle with rounded corners*
0 $1 Rounding radius*
0 $2 $3 $4 $5 $6 $7 $8 $9 X,Y pos of 4 corners*
0 Add a 4 corners polygon primitive as box body*
4,1,4,$2,$3,$4,$5,$6,$7,$8,$9,$2,$3,0*
0 Add four circle primitives for the rounded corners*
1,1,$1+$1,$2,$3*
1,1,$1+$1,$4,$5*
1,1,$1+$1,$6,$7*
1,1,$1+$1,$8,$9*
0 Add four rect primitives between the rounded corners*
20,1,$1+$1,$2,$3,$4,$5,0*
20,1,$1+$1,$4,$5,$6,$7,0*
20,1,$1+$1,$6,$7,$8,$9,0*
20,1,$1+$1,$8,$9,$2,$3,0*%
G04 Aperture macros list end*
%TA.AperFunction,Profile*%
%ADD10C,0.100000*%
%TD*%
%ADD11RoundRect,0.250000X0.337500X0.475000X-0.337500X0.475000X-0.337500X-0.475000X0.337500X-0.475000X0*%
%ADD12RoundRect,0.250000X-0.350000X-0.450000X0.350000X-0.450000X0.350000X0.450000X-0.350000X0.450000X0*%
%ADD13R,1.700000X1.700000*%
%ADD14O,1.700000X1.700000*%
%ADD15RoundRect,0.250000X-0.475000X0.337500X-0.475000X-0.337500X0.475000X-0.337500X0.475000X0.337500X0*%
%ADD16R,1.200000X1.200000*%
%ADD17C,1.200000*%
%ADD18R,0.600000X0.350000*%
%ADD19R,1.100000X1.700000*%
%ADD20RoundRect,0.250000X0.350000X0.450000X-0.350000X0.450000X-0.350000X-0.450000X0.350000X-0.450000X0*%
%ADD21RoundRect,0.250000X-0.450000X0.350000X-0.450000X-0.350000X0.450000X-0.350000X0.450000X0.350000X0*%
%ADD22R,1.800000X1.200000*%
%ADD23RoundRect,0.250000X-0.337500X-0.475000X0.337500X-0.475000X0.337500X0.475000X-0.337500X0.475000X0*%
%ADD24RoundRect,0.250000X0.450000X-0.350000X0.450000X0.350000X-0.450000X0.350000X-0.450000X-0.350000X0*%
%ADD25R,1.200000X1.400000*%
%ADD26RoundRect,0.250000X0.475000X-0.337500X0.475000X0.337500X-0.475000X0.337500X-0.475000X-0.337500X0*%
%ADD27R,1.528000X0.650000*%
%ADD28R,0.600000X1.150000*%
%ADD29R,1.526000X0.650000*%
%ADD30R,1.400000X1.200000*%
%ADD31C,1.950000*%
%ADD32C,2.400000*%
%ADD33R,1.475000X0.300000*%
%ADD34R,0.300000X1.475000*%
%ADD35C,0.650000*%
%ADD36R,0.600000X2.450000*%
%ADD37R,0.300000X2.450000*%
%ADD38RoundRect,0.250000X0.450000X-0.325000X0.450000X0.325000X-0.450000X0.325000X-0.450000X-0.325000X0*%
%ADD39R,1.600000X1.600000*%
%ADD40C,1.600000*%
%ADD41R,1.150000X0.600000*%
%ADD42R,0.200000X0.750000*%
%ADD43R,0.750000X0.200000*%
%ADD44R,3.850000X1.850000*%
%ADD45R,0.650000X1.525000*%
%ADD46R,2.290000X2.290000*%
%ADD47RoundRect,0.250000X-0.625000X0.375000X-0.625000X-0.375000X0.625000X-0.375000X0.625000X0.375000X0*%
%ADD48R,0.300000X0.850000*%
%ADD49R,2.500000X1.750000*%
%ADD50C,1.000000*%
G04 APERTURE END LIST*
D10*
X87912500Y-54650000D02*
X87912500Y-126650000D01*
X142912500Y-134650000D02*
X187912500Y-134650000D01*
X187912500Y-134650000D02*
X187912500Y-124650000D01*
X187912500Y-124650000D02*
X187912500Y-54650000D01*
X142912500Y-126650000D02*
X87912500Y-126650000D01*
X142912500Y-134650000D02*
X142912500Y-126650000D01*
X187912500Y-54650000D02*
X87912500Y-54650000D01*
D11*
X174350000Y-88750000D03*
X172275000Y-88750000D03*
D12*
X171412500Y-82900000D03*
X173412500Y-82900000D03*
D11*
X158800000Y-82700000D03*
X156725000Y-82700000D03*
D13*
X114162500Y-68175000D03*
D14*
X114162500Y-65635000D03*
X114162500Y-63095000D03*
D15*
X144412500Y-107862500D03*
X144412500Y-109937500D03*
D16*
X135700000Y-111500000D03*
D17*
X135700000Y-113000000D03*
D18*
X129350000Y-115525000D03*
X129350000Y-114875000D03*
X129350000Y-114225000D03*
X127250000Y-114225000D03*
X127250000Y-114875000D03*
X127250000Y-115525000D03*
D19*
X128300000Y-114875000D03*
D11*
X154700000Y-102900000D03*
X152625000Y-102900000D03*
D15*
X160012500Y-96712500D03*
X160012500Y-98787500D03*
D20*
X150562500Y-105200000D03*
X148562500Y-105200000D03*
D21*
X147162500Y-107900000D03*
X147162500Y-109900000D03*
D20*
X154662500Y-105200000D03*
X152662500Y-105200000D03*
D22*
X99862500Y-76750000D03*
X95862500Y-76750000D03*
X95862500Y-79150000D03*
X99862500Y-79150000D03*
D23*
X163625000Y-94400000D03*
X165700000Y-94400000D03*
D24*
X158912500Y-112150000D03*
X158912500Y-110150000D03*
X142412500Y-60150000D03*
X142412500Y-58150000D03*
D21*
X138400000Y-101200000D03*
X138400000Y-103200000D03*
D16*
X120650000Y-110750000D03*
D17*
X120650000Y-112250000D03*
D25*
X127812500Y-95650000D03*
X129512500Y-95650000D03*
D26*
X133000000Y-103237500D03*
X133000000Y-101162500D03*
D13*
X128337500Y-60425000D03*
D14*
X128337500Y-57885000D03*
X130877500Y-60425000D03*
X130877500Y-57885000D03*
X133417500Y-60425000D03*
X133417500Y-57885000D03*
X135957500Y-60425000D03*
X135957500Y-57885000D03*
X138497500Y-60425000D03*
X138497500Y-57885000D03*
D15*
X158162500Y-105612500D03*
X158162500Y-107687500D03*
D13*
X93862500Y-121150000D03*
D14*
X96402500Y-121150000D03*
X98942500Y-121150000D03*
X101482500Y-121150000D03*
D27*
X150240500Y-108050000D03*
X150240500Y-109320000D03*
X150240500Y-110590000D03*
X150240500Y-111860000D03*
X155662500Y-111860000D03*
X155662500Y-110590000D03*
X155662500Y-109320000D03*
X155662500Y-108050000D03*
D26*
X181012500Y-131187500D03*
X181012500Y-129112500D03*
D20*
X171662500Y-105150000D03*
X169662500Y-105150000D03*
D25*
X127812500Y-102400000D03*
X129512500Y-102400000D03*
D26*
X181662500Y-111937500D03*
X181662500Y-109862500D03*
D24*
X154162500Y-117900000D03*
X154162500Y-115900000D03*
D25*
X127812500Y-97900000D03*
X129512500Y-97900000D03*
D28*
X182012500Y-92100000D03*
X181062500Y-92100000D03*
X180112500Y-92100000D03*
X180112500Y-94600000D03*
X182012500Y-94600000D03*
D24*
X179162500Y-111900000D03*
X179162500Y-109900000D03*
D29*
X120374500Y-119305000D03*
X120374500Y-118035000D03*
X120374500Y-116765000D03*
X120374500Y-115495000D03*
X114950500Y-115495000D03*
X114950500Y-116765000D03*
X114950500Y-118035000D03*
X114950500Y-119305000D03*
D25*
X127812500Y-106850000D03*
X129512500Y-106850000D03*
D26*
X98162500Y-93687500D03*
X98162500Y-91612500D03*
D30*
X148012500Y-92550000D03*
X148012500Y-94250000D03*
D15*
X181662500Y-105612500D03*
X181662500Y-107687500D03*
D31*
X156162500Y-131650000D03*
X151162500Y-126650000D03*
X153662500Y-126650000D03*
X158662500Y-126650000D03*
X161162500Y-126650000D03*
D32*
X161162500Y-131650000D03*
X151162500Y-131650000D03*
X156162500Y-126650000D03*
D15*
X152562500Y-96512500D03*
X152562500Y-98587500D03*
D26*
X112550000Y-118837500D03*
X112550000Y-116762500D03*
D33*
X100874500Y-83750000D03*
X100874500Y-84250000D03*
X100874500Y-84750000D03*
X100874500Y-85250000D03*
X100874500Y-85750000D03*
X100874500Y-86250000D03*
X100874500Y-86750000D03*
X100874500Y-87250000D03*
X100874500Y-87750000D03*
X100874500Y-88250000D03*
X100874500Y-88750000D03*
X100874500Y-89250000D03*
X100874500Y-89750000D03*
X100874500Y-90250000D03*
X100874500Y-90750000D03*
X100874500Y-91250000D03*
X100874500Y-91750000D03*
X100874500Y-92250000D03*
X100874500Y-92750000D03*
X100874500Y-93250000D03*
X100874500Y-93750000D03*
X100874500Y-94250000D03*
X100874500Y-94750000D03*
X100874500Y-95250000D03*
X100874500Y-95750000D03*
D34*
X102612500Y-97488000D03*
X103112500Y-97488000D03*
X103612500Y-97488000D03*
X104112500Y-97488000D03*
X104612500Y-97488000D03*
X105112500Y-97488000D03*
X105612500Y-97488000D03*
X106112500Y-97488000D03*
X106612500Y-97488000D03*
X107112500Y-97488000D03*
X107612500Y-97488000D03*
X108112500Y-97488000D03*
X108612500Y-97488000D03*
X109112500Y-97488000D03*
X109612500Y-97488000D03*
X110112500Y-97488000D03*
X110612500Y-97488000D03*
X111112500Y-97488000D03*
X111612500Y-97488000D03*
X112112500Y-97488000D03*
X112612500Y-97488000D03*
X113112500Y-97488000D03*
X113612500Y-97488000D03*
X114112500Y-97488000D03*
X114612500Y-97488000D03*
D33*
X116350500Y-95750000D03*
X116350500Y-95250000D03*
X116350500Y-94750000D03*
X116350500Y-94250000D03*
X116350500Y-93750000D03*
X116350500Y-93250000D03*
X116350500Y-92750000D03*
X116350500Y-92250000D03*
X116350500Y-91750000D03*
X116350500Y-91250000D03*
X116350500Y-90750000D03*
X116350500Y-90250000D03*
X116350500Y-89750000D03*
X116350500Y-89250000D03*
X116350500Y-88750000D03*
X116350500Y-88250000D03*
X116350500Y-87750000D03*
X116350500Y-87250000D03*
X116350500Y-86750000D03*
X116350500Y-86250000D03*
X116350500Y-85750000D03*
X116350500Y-85250000D03*
X116350500Y-84750000D03*
X116350500Y-84250000D03*
X116350500Y-83750000D03*
D34*
X114612500Y-82012000D03*
X114112500Y-82012000D03*
X113612500Y-82012000D03*
X113112500Y-82012000D03*
X112612500Y-82012000D03*
X112112500Y-82012000D03*
X111612500Y-82012000D03*
X111112500Y-82012000D03*
X110612500Y-82012000D03*
X110112500Y-82012000D03*
X109612500Y-82012000D03*
X109112500Y-82012000D03*
X108612500Y-82012000D03*
X108112500Y-82012000D03*
X107612500Y-82012000D03*
X107112500Y-82012000D03*
X106612500Y-82012000D03*
X106112500Y-82012000D03*
X105612500Y-82012000D03*
X105112500Y-82012000D03*
X104612500Y-82012000D03*
X104112500Y-82012000D03*
X103612500Y-82012000D03*
X103112500Y-82012000D03*
X102612500Y-82012000D03*
D20*
X175662500Y-105150000D03*
X173662500Y-105150000D03*
D35*
X103577500Y-59365000D03*
X97797500Y-59365000D03*
D36*
X103912500Y-61310000D03*
X103137500Y-61310000D03*
D37*
X102437500Y-61310000D03*
X101937500Y-61310000D03*
X101437500Y-61310000D03*
X100937500Y-61310000D03*
X100437500Y-61310000D03*
X99937500Y-61310000D03*
X99437500Y-61310000D03*
X98937500Y-61310000D03*
D36*
X98237500Y-61310000D03*
X97462500Y-61310000D03*
D15*
X179162500Y-105652500D03*
X179162500Y-107727500D03*
D11*
X108700000Y-77250000D03*
X106625000Y-77250000D03*
D15*
X154812500Y-96512500D03*
X154812500Y-98587500D03*
D23*
X151125000Y-86400000D03*
X153200000Y-86400000D03*
D12*
X126162500Y-70150000D03*
X128162500Y-70150000D03*
D26*
X92862500Y-78987500D03*
X92862500Y-76912500D03*
D38*
X93412500Y-93925000D03*
X93412500Y-91875000D03*
D13*
X114162500Y-58650000D03*
D14*
X116702500Y-58650000D03*
D24*
X178512500Y-131150000D03*
X178512500Y-129150000D03*
D21*
X131700000Y-111500000D03*
X131700000Y-113500000D03*
D26*
X119512500Y-84587500D03*
X119512500Y-82512500D03*
D23*
X112125000Y-79400000D03*
X114200000Y-79400000D03*
D26*
X112412500Y-75187500D03*
X112412500Y-73112500D03*
D11*
X180450000Y-125900000D03*
X178375000Y-125900000D03*
D25*
X127812500Y-100150000D03*
X129512500Y-100150000D03*
D21*
X178412500Y-117400000D03*
X178412500Y-119400000D03*
D23*
X141875000Y-85650000D03*
X143950000Y-85650000D03*
D39*
X125412500Y-120400000D03*
D40*
X125412500Y-118400000D03*
D13*
X138412500Y-67175000D03*
D14*
X138412500Y-64635000D03*
D20*
X107162500Y-101900000D03*
X105162500Y-101900000D03*
D27*
X175873500Y-111805000D03*
X175873500Y-110535000D03*
X175873500Y-109265000D03*
X175873500Y-107995000D03*
X170451500Y-107995000D03*
X170451500Y-109265000D03*
X170451500Y-110535000D03*
X170451500Y-111805000D03*
D26*
X165412500Y-114187500D03*
X165412500Y-112112500D03*
D21*
X135700000Y-101200000D03*
X135700000Y-103200000D03*
D20*
X163762500Y-82700000D03*
X161762500Y-82700000D03*
D21*
X147912500Y-86900000D03*
X147912500Y-88900000D03*
D15*
X150312500Y-96512500D03*
X150312500Y-98587500D03*
D11*
X180450000Y-123400000D03*
X178375000Y-123400000D03*
D21*
X98162500Y-66455000D03*
X98162500Y-68455000D03*
D26*
X108687500Y-68492500D03*
X108687500Y-66417500D03*
D21*
X123912500Y-58400000D03*
X123912500Y-60400000D03*
D12*
X114662500Y-99900000D03*
X116662500Y-99900000D03*
D21*
X131650000Y-115700000D03*
X131650000Y-117700000D03*
D25*
X119862500Y-65850000D03*
X121562500Y-65850000D03*
D21*
X167912500Y-107900000D03*
X167912500Y-109900000D03*
D39*
X180912500Y-98650000D03*
D40*
X183412500Y-98650000D03*
D26*
X134412500Y-99187500D03*
X134412500Y-97112500D03*
D11*
X126700000Y-67900000D03*
X124625000Y-67900000D03*
D26*
X161162500Y-112187500D03*
X161162500Y-110112500D03*
X165262500Y-89450000D03*
X165262500Y-87375000D03*
D30*
X141912500Y-78300000D03*
X141912500Y-80000000D03*
D15*
X165412500Y-107862500D03*
X165412500Y-109937500D03*
D23*
X162725000Y-91700000D03*
X164800000Y-91700000D03*
D20*
X159912500Y-118650000D03*
X157912500Y-118650000D03*
D21*
X105687500Y-66455000D03*
X105687500Y-68455000D03*
D28*
X96162500Y-101150000D03*
X95212500Y-101150000D03*
X94262500Y-101150000D03*
X94262500Y-103650000D03*
X96162500Y-103650000D03*
D24*
X151662500Y-117900000D03*
X151662500Y-115900000D03*
D11*
X96200000Y-117650000D03*
X94125000Y-117650000D03*
D24*
X180912500Y-119400000D03*
X180912500Y-117400000D03*
D26*
X107412500Y-75187500D03*
X107412500Y-73112500D03*
D23*
X175625000Y-82900000D03*
X177700000Y-82900000D03*
D41*
X124662500Y-74100000D03*
X124662500Y-73150000D03*
X124662500Y-72200000D03*
X122162500Y-72200000D03*
X122162500Y-74100000D03*
D26*
X167912500Y-114187500D03*
X167912500Y-112112500D03*
D20*
X175712500Y-118050000D03*
X173712500Y-118050000D03*
D15*
X160662500Y-105612500D03*
X160662500Y-107687500D03*
D28*
X144612500Y-92150000D03*
X143662500Y-92150000D03*
X142712500Y-92150000D03*
X142712500Y-94650000D03*
X144612500Y-94650000D03*
D15*
X98162500Y-82362500D03*
X98162500Y-84437500D03*
D26*
X144662500Y-114187500D03*
X144662500Y-112112500D03*
D21*
X136912500Y-97150000D03*
X136912500Y-99150000D03*
D26*
X133412500Y-86437500D03*
X133412500Y-84362500D03*
D23*
X109875000Y-99900000D03*
X111950000Y-99900000D03*
D42*
X156412500Y-94450000D03*
X156812500Y-94450000D03*
X157212500Y-94450000D03*
X157612500Y-94450000D03*
X158012500Y-94450000D03*
X158412500Y-94450000D03*
X158812500Y-94450000D03*
X159212500Y-94450000D03*
X159612500Y-94450000D03*
X160012500Y-94450000D03*
D43*
X160712500Y-93750000D03*
X160712500Y-93350000D03*
X160712500Y-92950000D03*
X160712500Y-92550000D03*
X160712500Y-92150000D03*
D42*
X160012500Y-91450000D03*
X159612500Y-91450000D03*
X159212500Y-91450000D03*
X158812500Y-91450000D03*
X158412500Y-91450000D03*
X158012500Y-91450000D03*
X157612500Y-91450000D03*
X157212500Y-91450000D03*
X156812500Y-91450000D03*
X156412500Y-91450000D03*
D43*
X155712500Y-92150000D03*
X155712500Y-92550000D03*
X155712500Y-92950000D03*
X155712500Y-93350000D03*
X155712500Y-93750000D03*
D44*
X158212500Y-92950000D03*
D11*
X144550000Y-89250000D03*
X142475000Y-89250000D03*
X182050000Y-89400000D03*
X179975000Y-89400000D03*
D39*
X117662500Y-75400000D03*
D40*
X117662500Y-72900000D03*
D21*
X122412500Y-92150000D03*
X122412500Y-94150000D03*
D26*
X109912500Y-75187500D03*
X109912500Y-73112500D03*
D20*
X121412500Y-88900000D03*
X119412500Y-88900000D03*
D23*
X163625000Y-98950000D03*
X165700000Y-98950000D03*
D26*
X147412500Y-114187500D03*
X147412500Y-112112500D03*
D21*
X93412500Y-87400000D03*
X93412500Y-89400000D03*
D11*
X102150000Y-99950000D03*
X100075000Y-99950000D03*
D26*
X162912500Y-89437500D03*
X162912500Y-87362500D03*
D11*
X175700000Y-102850000D03*
X173625000Y-102850000D03*
X96200000Y-112650000D03*
X94125000Y-112650000D03*
D39*
X144662500Y-99400000D03*
D40*
X142162500Y-99400000D03*
D45*
X133507500Y-94612000D03*
X134777500Y-94612000D03*
X136047500Y-94612000D03*
X137317500Y-94612000D03*
X137317500Y-89188000D03*
X136047500Y-89188000D03*
X134777500Y-89188000D03*
X133507500Y-89188000D03*
D46*
X135412500Y-91900000D03*
D11*
X96200000Y-115150000D03*
X94125000Y-115150000D03*
D23*
X163625000Y-96650000D03*
X165700000Y-96650000D03*
X173675000Y-115550000D03*
X175750000Y-115550000D03*
D39*
X96312500Y-107850000D03*
D40*
X93812500Y-107850000D03*
D23*
X127775000Y-72750000D03*
X129850000Y-72750000D03*
D28*
X102637500Y-66205000D03*
X101687500Y-66205000D03*
X100737500Y-66205000D03*
X100737500Y-68705000D03*
X101687500Y-68705000D03*
X102637500Y-68705000D03*
D23*
X168975000Y-121650000D03*
X171050000Y-121650000D03*
D15*
X98162500Y-87362500D03*
X98162500Y-89437500D03*
D21*
X95662500Y-82400000D03*
X95662500Y-84400000D03*
D23*
X163625000Y-101350000D03*
X165700000Y-101350000D03*
D39*
X173412500Y-98750000D03*
D40*
X175912500Y-98750000D03*
D11*
X96200000Y-98600000D03*
X94125000Y-98600000D03*
X172450000Y-128650000D03*
X170375000Y-128650000D03*
D23*
X168975000Y-124150000D03*
X171050000Y-124150000D03*
D47*
X94687500Y-65750000D03*
X94687500Y-68550000D03*
D26*
X136412500Y-86437500D03*
X136412500Y-84362500D03*
D16*
X138200000Y-106100000D03*
D17*
X138200000Y-107600000D03*
D11*
X108700000Y-79400000D03*
X106625000Y-79400000D03*
D24*
X91212500Y-100850000D03*
X91212500Y-98850000D03*
D11*
X138537500Y-115800000D03*
X136462500Y-115800000D03*
D15*
X102662500Y-76862500D03*
X102662500Y-78937500D03*
D48*
X176412500Y-123400000D03*
X175912500Y-123400000D03*
X175412500Y-123400000D03*
X174912500Y-123400000D03*
X174412500Y-123400000D03*
X174412500Y-126400000D03*
X174912500Y-126400000D03*
X175412500Y-126400000D03*
X175912500Y-126400000D03*
X176412500Y-126400000D03*
D49*
X175412500Y-124900000D03*
D25*
X151012500Y-89600000D03*
X151012500Y-91800000D03*
X152912500Y-91800000D03*
X152912500Y-89600000D03*
D11*
X143950000Y-82650000D03*
X141875000Y-82650000D03*
D24*
X134200000Y-117700000D03*
X134200000Y-115700000D03*
D28*
X174362500Y-92100000D03*
X173412500Y-92100000D03*
X172462500Y-92100000D03*
X172462500Y-94600000D03*
X174362500Y-94600000D03*
D23*
X157875000Y-116400000D03*
X159950000Y-116400000D03*
D13*
X123812500Y-83550000D03*
D14*
X123812500Y-81010000D03*
D25*
X127812500Y-104600000D03*
X129512500Y-104600000D03*
D50*
X155162500Y-85400000D03*
D20*
X172412500Y-131150000D03*
X170412500Y-131150000D03*
D23*
X124625000Y-65850000D03*
X126700000Y-65850000D03*
M02*
