M48
; DRILL file {KiCad (6.0.0)} date Thu May 19 20:01:56 2022
; FORMAT={-:-/ absolute / metric / decimal}
; #@! TF.CreationDate,2022-05-19T20:01:56-07:00
; #@! TF.GenerationSoftware,Kicad,Pcbnew,(6.0.0)
; #@! TF.FileFunction,Plated,1,2,PTH
FMAT,2
METRIC
; #@! TA.AperFunction,Plated,PTH,ViaDrill
T1C0.300
; #@! TA.AperFunction,Plated,PTH,ComponentDrill
T2C0.600
; #@! TA.AperFunction,Plated,PTH,ComponentDrill
T3C0.800
; #@! TA.AperFunction,Plated,PTH,ComponentDrill
T4C1.000
; #@! TA.AperFunction,Plated,PTH,ComponentDrill
T5C1.300
; #@! TA.AperFunction,Plated,PTH,ComponentDrill
T6C1.600
%
G90
G05
T1
X92.812Y-96.55
X93.412Y-95.15
X95.412Y-70.15
X99.412Y-94.85
X101.662Y-70.15
X104.662Y-99.9
X104.812Y-103.35
X106.662Y-100.15
X107.162Y-70.15
X108.6Y-116.75
X115.512Y-101.399
X117.912Y-83.85
X117.912Y-84.75
X117.912Y-86.15
X118.012Y-89.801
X118.212Y-91.55
X118.712Y-92.45
X119.212Y-90.55
X119.812Y-69.15
X120.162Y-94.474
X120.162Y-95.474
X120.162Y-96.65
X120.912Y-67.55
X121.412Y-87.25
X121.612Y-77.799
X122.662Y-90.9
X123.112Y-65.85
X123.157Y-115.495
X123.412Y-89.637
X123.452Y-88.801
X124.662Y-93.65
X124.812Y-88.25
X125.412Y-89.55
X125.487Y-61.975
X126.212Y-71.95
X128.412Y-76.699
X129.6Y-113.0
X130.612Y-80.05
X131.012Y-87.45
X131.012Y-89.95
X131.612Y-84.05
X131.713Y-80.05
X132.612Y-80.05
X138.312Y-72.35
X138.612Y-75.275
X138.812Y-82.45
X140.213Y-91.35
X140.861Y-70.75
X142.85Y-112.112
X143.512Y-80.05
X147.112Y-104.999
X147.512Y-97.25
X148.582Y-109.32
X148.662Y-110.65
X150.312Y-115.45
X151.112Y-81.95
X151.112Y-84.15
X152.662Y-106.65
X154.662Y-106.65
X155.662Y-113.65
X155.812Y-87.45
X155.812Y-90.25
X156.714Y-96.681
X156.9Y-87.662
X157.102Y-110.59
X157.412Y-85.65
X157.412Y-97.65
X158.213Y-84.95
X158.713Y-120.25
X159.358Y-87.318
X159.512Y-120.05
X159.912Y-88.15
X160.012Y-95.45
X160.262Y-82.7
X160.812Y-88.45
X161.412Y-89.148
X162.412Y-93.35
X165.512Y-82.95
X167.012Y-89.75
X167.312Y-97.65
X167.412Y-92.05
X169.162Y-106.65
X170.512Y-113.05
X171.412Y-106.65
X172.688Y-121.625
X173.631Y-127.469
X174.361Y-122.25
X175.112Y-86.65
X175.612Y-119.45
X175.912Y-106.75
X175.912Y-120.95
X176.612Y-122.15
X176.612Y-127.499
X176.612Y-130.85
X177.012Y-90.75
X177.512Y-127.35
X178.812Y-127.95
X179.213Y-86.65
X180.512Y-120.75
X181.713Y-83.05
T2
X120.65Y-110.75
X120.65Y-112.25
X135.7Y-111.5
X135.7Y-113.0
X138.2Y-106.1
X138.2Y-107.6
T3
X93.812Y-107.85
X96.312Y-107.85
X117.662Y-72.9
X117.662Y-75.4
X125.412Y-118.4
X125.412Y-120.4
X142.162Y-99.4
X144.662Y-99.4
X173.412Y-98.75
X175.912Y-98.75
X180.912Y-98.65
X183.412Y-98.65
T4
X93.862Y-121.15
X96.402Y-121.15
X98.942Y-121.15
X101.483Y-121.15
X114.162Y-58.65
X114.162Y-63.095
X114.162Y-65.635
X114.162Y-68.175
X116.703Y-58.65
X123.812Y-81.01
X123.812Y-83.55
X128.338Y-57.885
X128.338Y-60.425
X130.877Y-57.885
X130.877Y-60.425
X133.417Y-57.885
X133.417Y-60.425
X135.957Y-57.885
X135.957Y-60.425
X138.412Y-64.635
X138.412Y-67.175
X138.498Y-57.885
X138.498Y-60.425
T5
X151.162Y-126.65
X153.662Y-126.65
X156.162Y-131.65
X158.662Y-126.65
X161.162Y-126.65
T6
X151.162Y-131.65
X156.162Y-126.65
X161.162Y-131.65
T2
X96.367Y-56.015G85X96.367Y-55.415
G05
X96.367Y-60.445G85X96.367Y-59.345
G05
X105.007Y-56.015G85X105.007Y-55.415
G05
X105.007Y-60.445G85X105.007Y-59.345
G05
T0
M30
