%FSLAX45Y45*%
G04 Gerber Fmt 4.5, Leading zero omitted, Abs format (unit mm)*
G04 Created by KiCad (PCBNEW (6.0.0)) date 2022-06-03 20:08:22*
%MOMM*%
%LPD*%
G01*
G04 APERTURE LIST*
%TA.AperFunction,Profile*%
%ADD10C,0.100000*%
%TD*%
%ADD11C,0.200000*%
%ADD12C,0.030000*%
%ADD13C,0.060000*%
%ADD14C,0.080000*%
%ADD15C,0.100000*%
%ADD16C,0.130000*%
%ADD17C,0.160000*%
G04 APERTURE END LIST*
D10*
X8791250Y-5465000D02*
X8791250Y-12665000D01*
X14291250Y-13465000D02*
X18791250Y-13465000D01*
X18791250Y-13465000D02*
X18791250Y-12465000D01*
X18791250Y-12465000D02*
X18791250Y-5465000D01*
X14291250Y-12665000D02*
X8791250Y-12665000D01*
X14291250Y-13465000D02*
X14291250Y-12665000D01*
X18791250Y-5465000D02*
X8791250Y-5465000D01*
D11*
D12*
X9205000Y-9640000D02*
X9235000Y-9670000D01*
X9235000Y-9640000D02*
X9205000Y-9670000D01*
X9326250Y-9500000D02*
X9356250Y-9530000D01*
X9356250Y-9500000D02*
X9326250Y-9530000D01*
X9526250Y-7000000D02*
X9556250Y-7030000D01*
X9556250Y-7000000D02*
X9526250Y-7030000D01*
X9926250Y-9470000D02*
X9956250Y-9500000D01*
X9956250Y-9470000D02*
X9926250Y-9500000D01*
X10151250Y-7000000D02*
X10181250Y-7030000D01*
X10181250Y-7000000D02*
X10151250Y-7030000D01*
X10451250Y-9975000D02*
X10481250Y-10005000D01*
X10481250Y-9975000D02*
X10451250Y-10005000D01*
X10466250Y-10320000D02*
X10496250Y-10350000D01*
X10496250Y-10320000D02*
X10466250Y-10350000D01*
X10651250Y-10000000D02*
X10681250Y-10030000D01*
X10681250Y-10000000D02*
X10651250Y-10030000D01*
X10701250Y-7000000D02*
X10731250Y-7030000D01*
X10731250Y-7000000D02*
X10701250Y-7030000D01*
X10845000Y-11660000D02*
X10875000Y-11690000D01*
X10875000Y-11660000D02*
X10845000Y-11690000D01*
X11536250Y-10124901D02*
X11566250Y-10154901D01*
X11566250Y-10124901D02*
X11536250Y-10154901D01*
X11685000Y-10195000D02*
X11715000Y-10225000D01*
X11715000Y-10195000D02*
X11685000Y-10225000D01*
X11776250Y-8370000D02*
X11806250Y-8400000D01*
X11806250Y-8370000D02*
X11776250Y-8400000D01*
X11776250Y-8460000D02*
X11806250Y-8490000D01*
X11806250Y-8460000D02*
X11776250Y-8490000D01*
X11776250Y-8600000D02*
X11806250Y-8630000D01*
X11806250Y-8600000D02*
X11776250Y-8630000D01*
X11786250Y-8965110D02*
X11816250Y-8995110D01*
X11816250Y-8965110D02*
X11786250Y-8995110D01*
X11806250Y-9140000D02*
X11836250Y-9170000D01*
X11836250Y-9140000D02*
X11806250Y-9170000D01*
X11856250Y-9230000D02*
X11886250Y-9260000D01*
X11886250Y-9230000D02*
X11856250Y-9260000D01*
X11906250Y-9040001D02*
X11936250Y-9070001D01*
X11936250Y-9040001D02*
X11906250Y-9070001D01*
X11966250Y-6900000D02*
X11996250Y-6930000D01*
X11996250Y-6900000D02*
X11966250Y-6930000D01*
X12001250Y-9432450D02*
X12031250Y-9462450D01*
X12031250Y-9432450D02*
X12001250Y-9462450D01*
X12001250Y-9532400D02*
X12031250Y-9562400D01*
X12031250Y-9532400D02*
X12001250Y-9562400D01*
X12001250Y-9650000D02*
X12031250Y-9680000D01*
X12031250Y-9650000D02*
X12001250Y-9680000D01*
X12076250Y-6740000D02*
X12106250Y-6770000D01*
X12106250Y-6740000D02*
X12076250Y-6770000D01*
X12126250Y-8710000D02*
X12156250Y-8740000D01*
X12156250Y-8710000D02*
X12126250Y-8740000D01*
X12146250Y-7764890D02*
X12176250Y-7794890D01*
X12176250Y-7764890D02*
X12146250Y-7794890D01*
X12251250Y-9075000D02*
X12281250Y-9105000D01*
X12281250Y-9075000D02*
X12251250Y-9105000D01*
X12296250Y-6570000D02*
X12326250Y-6600000D01*
X12326250Y-6570000D02*
X12296250Y-6600000D01*
X12300750Y-11534500D02*
X12330750Y-11564500D01*
X12330750Y-11534500D02*
X12300750Y-11564500D01*
X12326250Y-8948700D02*
X12356250Y-8978700D01*
X12356250Y-8948700D02*
X12326250Y-8978700D01*
X12330219Y-8865110D02*
X12360219Y-8895110D01*
X12360219Y-8865110D02*
X12330219Y-8895110D01*
X12451250Y-9350000D02*
X12481250Y-9380000D01*
X12481250Y-9350000D02*
X12451250Y-9380000D01*
X12466250Y-8810000D02*
X12496250Y-8840000D01*
X12496250Y-8810000D02*
X12466250Y-8840000D01*
X12526250Y-8940000D02*
X12556250Y-8970000D01*
X12556250Y-8940000D02*
X12526250Y-8970000D01*
X12533750Y-6182500D02*
X12563750Y-6212500D01*
X12563750Y-6182500D02*
X12533750Y-6212500D01*
X12606250Y-7180000D02*
X12636250Y-7210000D01*
X12636250Y-7180000D02*
X12606250Y-7210000D01*
X12826250Y-7654890D02*
X12856250Y-7684890D01*
X12856250Y-7654890D02*
X12826250Y-7684890D01*
X12945000Y-11285000D02*
X12975000Y-11315000D01*
X12975000Y-11285000D02*
X12945000Y-11315000D01*
X13046250Y-7990000D02*
X13076250Y-8020000D01*
X13076250Y-7990000D02*
X13046250Y-8020000D01*
X13086250Y-8730000D02*
X13116250Y-8760000D01*
X13116250Y-8730000D02*
X13086250Y-8760000D01*
X13146250Y-8390000D02*
X13176250Y-8420000D01*
X13176250Y-8390000D02*
X13146250Y-8420000D01*
X13156250Y-7990000D02*
X13186250Y-8020000D01*
X13186250Y-7990000D02*
X13156250Y-8020000D01*
X13246250Y-7990000D02*
X13276250Y-8020000D01*
X13276250Y-7990000D02*
X13246250Y-8020000D01*
X13816250Y-7220000D02*
X13846250Y-7250000D01*
X13846250Y-7220000D02*
X13816250Y-7250000D01*
X13866250Y-8230000D02*
X13896250Y-8260000D01*
X13896250Y-8230000D02*
X13866250Y-8260000D01*
X13965000Y-8985000D02*
X13995000Y-9015000D01*
X13995000Y-8985000D02*
X13965000Y-9015000D01*
X14071140Y-7060000D02*
X14101140Y-7090000D01*
X14101140Y-7060000D02*
X14071140Y-7090000D01*
X14250000Y-7110000D02*
X14280000Y-7140000D01*
X14280000Y-7110000D02*
X14250000Y-7140000D01*
X14270000Y-11196250D02*
X14300000Y-11226250D01*
X14300000Y-11196250D02*
X14270000Y-11226250D01*
X14336250Y-7990000D02*
X14366250Y-8020000D01*
X14366250Y-7990000D02*
X14336250Y-8020000D01*
X14696250Y-10484890D02*
X14726250Y-10514890D01*
X14726250Y-10484890D02*
X14696250Y-10514890D01*
X14736250Y-9710000D02*
X14766250Y-9740000D01*
X14766250Y-9710000D02*
X14736250Y-9740000D01*
X14843250Y-10917000D02*
X14873250Y-10947000D01*
X14873250Y-10917000D02*
X14843250Y-10947000D01*
X14851250Y-11050000D02*
X14881250Y-11080000D01*
X14881250Y-11050000D02*
X14851250Y-11080000D01*
X15016250Y-11530000D02*
X15046250Y-11560000D01*
X15046250Y-11530000D02*
X15016250Y-11560000D01*
X15096250Y-8180000D02*
X15126250Y-8210000D01*
X15126250Y-8180000D02*
X15096250Y-8210000D01*
X15096250Y-8400000D02*
X15126250Y-8430000D01*
X15126250Y-8400000D02*
X15096250Y-8430000D01*
X15251250Y-10650000D02*
X15281250Y-10680000D01*
X15281250Y-10650000D02*
X15251250Y-10680000D01*
X15451250Y-10650000D02*
X15481250Y-10680000D01*
X15481250Y-10650000D02*
X15451250Y-10680000D01*
X15551250Y-11350000D02*
X15581250Y-11380000D01*
X15581250Y-11350000D02*
X15551250Y-11380000D01*
X15566250Y-8730000D02*
X15596250Y-8760000D01*
X15596250Y-8730000D02*
X15566250Y-8760000D01*
X15566250Y-9010000D02*
X15596250Y-9040000D01*
X15596250Y-9010000D02*
X15566250Y-9040000D01*
X15656369Y-9653121D02*
X15686369Y-9683121D01*
X15686369Y-9653121D02*
X15656369Y-9683121D01*
X15675025Y-8751225D02*
X15705025Y-8781225D01*
X15705025Y-8751225D02*
X15675025Y-8781225D01*
X15695250Y-11044000D02*
X15725250Y-11074000D01*
X15725250Y-11044000D02*
X15695250Y-11074000D01*
X15726250Y-8550000D02*
X15756250Y-8580000D01*
X15756250Y-8550000D02*
X15726250Y-8580000D01*
X15726250Y-9750000D02*
X15756250Y-9780000D01*
X15756250Y-9750000D02*
X15726250Y-9780000D01*
X15806250Y-8480000D02*
X15836250Y-8510000D01*
X15836250Y-8480000D02*
X15806250Y-8510000D01*
X15856250Y-12010000D02*
X15886250Y-12040000D01*
X15886250Y-12010000D02*
X15856250Y-12040000D01*
X15920808Y-8716836D02*
X15950808Y-8746836D01*
X15950808Y-8716836D02*
X15920808Y-8746836D01*
X15976250Y-8800000D02*
X16006250Y-8830000D01*
X16006250Y-8800000D02*
X15976250Y-8830000D01*
X15986250Y-9530000D02*
X16016250Y-9560000D01*
X16016250Y-9530000D02*
X15986250Y-9560000D01*
X16011250Y-8255000D02*
X16041250Y-8285000D01*
X16041250Y-8255000D02*
X16011250Y-8285000D01*
X16040000Y-12010000D02*
X16070000Y-12040000D01*
X16070000Y-12010000D02*
X16040000Y-12040000D01*
X16066250Y-8830000D02*
X16096250Y-8860000D01*
X16096250Y-8830000D02*
X16066250Y-8860000D01*
X16126250Y-8899779D02*
X16156250Y-8929779D01*
X16156250Y-8899779D02*
X16126250Y-8929779D01*
X16226250Y-9320000D02*
X16256250Y-9350000D01*
X16256250Y-9320000D02*
X16226250Y-9350000D01*
X16536250Y-8280000D02*
X16566250Y-8310000D01*
X16566250Y-8280000D02*
X16536250Y-8310000D01*
X16686250Y-8960000D02*
X16716250Y-8990000D01*
X16716250Y-8960000D02*
X16686250Y-8990000D01*
X16716250Y-9750000D02*
X16746250Y-9780000D01*
X16746250Y-9750000D02*
X16716250Y-9780000D01*
X16726250Y-9190000D02*
X16756250Y-9220000D01*
X16756250Y-9190000D02*
X16726250Y-9220000D01*
X16885000Y-10785000D02*
X16915000Y-10815000D01*
X16915000Y-10785000D02*
X16885000Y-10815000D01*
X17036250Y-11290000D02*
X17066250Y-11320000D01*
X17066250Y-11290000D02*
X17036250Y-11320000D01*
X17190660Y-10627652D02*
X17220660Y-10657652D01*
X17220660Y-10627652D02*
X17190660Y-10657652D01*
X17253750Y-12147500D02*
X17283750Y-12177500D01*
X17283750Y-12147500D02*
X17253750Y-12177500D01*
X17350056Y-12729946D02*
X17380056Y-12759946D01*
X17380056Y-12729946D02*
X17350056Y-12759946D01*
X17421140Y-12210000D02*
X17451140Y-12240000D01*
X17451140Y-12210000D02*
X17421140Y-12240000D01*
X17496250Y-8650000D02*
X17526250Y-8680000D01*
X17526250Y-8650000D02*
X17496250Y-8680000D01*
X17546250Y-11930000D02*
X17576250Y-11960000D01*
X17576250Y-11930000D02*
X17546250Y-11960000D01*
X17576250Y-10660000D02*
X17606250Y-10690000D01*
X17606250Y-10660000D02*
X17576250Y-10690000D01*
X17576250Y-12080000D02*
X17606250Y-12110000D01*
X17606250Y-12080000D02*
X17576250Y-12110000D01*
X17646250Y-12200000D02*
X17676250Y-12230000D01*
X17676250Y-12200000D02*
X17646250Y-12230000D01*
X17646250Y-12734890D02*
X17676250Y-12764890D01*
X17676250Y-12734890D02*
X17646250Y-12764890D01*
X17646250Y-13070000D02*
X17676250Y-13100000D01*
X17676250Y-13070000D02*
X17646250Y-13100000D01*
X17686250Y-9060000D02*
X17716250Y-9090000D01*
X17716250Y-9060000D02*
X17686250Y-9090000D01*
X17736250Y-12720000D02*
X17766250Y-12750000D01*
X17766250Y-12720000D02*
X17736250Y-12750000D01*
X17866250Y-12780000D02*
X17896250Y-12810000D01*
X17896250Y-12780000D02*
X17866250Y-12810000D01*
X17906250Y-8650000D02*
X17936250Y-8680000D01*
X17936250Y-8650000D02*
X17906250Y-8680000D01*
X18036250Y-12060000D02*
X18066250Y-12090000D01*
X18066250Y-12060000D02*
X18036250Y-12090000D01*
X18156250Y-8290000D02*
X18186250Y-8320000D01*
X18186250Y-8290000D02*
X18156250Y-8320000D01*
D13*
X9666750Y-5571500D02*
G75*
G03*
X9666750Y-5571500I-30000J0D01*
G01*
D11*
X9656750Y-5601500D02*
X9656750Y-5541500D01*
X9616750Y-5601500D02*
X9616750Y-5541500D01*
X9656750Y-5541500D02*
G75*
G03*
X9616750Y-5541500I-20000J0D01*
G01*
X9616750Y-5601500D02*
G75*
G03*
X9656750Y-5601500I20000J0D01*
G01*
D13*
X9666750Y-5989500D02*
G75*
G03*
X9666750Y-5989500I-30000J0D01*
G01*
D11*
X9656750Y-6044500D02*
X9656750Y-5934500D01*
X9616750Y-6044500D02*
X9616750Y-5934500D01*
X9656750Y-5934500D02*
G75*
G03*
X9616750Y-5934500I-20000J0D01*
G01*
X9616750Y-6044500D02*
G75*
G03*
X9656750Y-6044500I20000J0D01*
G01*
D13*
X10530750Y-5571500D02*
G75*
G03*
X10530750Y-5571500I-30000J0D01*
G01*
D11*
X10520750Y-5601500D02*
X10520750Y-5541500D01*
X10480750Y-5601500D02*
X10480750Y-5541500D01*
X10520750Y-5541500D02*
G75*
G03*
X10480750Y-5541500I-20000J0D01*
G01*
X10480750Y-5601500D02*
G75*
G03*
X10520750Y-5601500I20000J0D01*
G01*
D13*
X10530750Y-5989500D02*
G75*
G03*
X10530750Y-5989500I-30000J0D01*
G01*
D11*
X10520750Y-6044500D02*
X10520750Y-5934500D01*
X10480750Y-6044500D02*
X10480750Y-5934500D01*
X10520750Y-5934500D02*
G75*
G03*
X10480750Y-5934500I-20000J0D01*
G01*
X10480750Y-6044500D02*
G75*
G03*
X10520750Y-6044500I20000J0D01*
G01*
D13*
X12095000Y-11075000D02*
G75*
G03*
X12095000Y-11075000I-30000J0D01*
G01*
X12095000Y-11225000D02*
G75*
G03*
X12095000Y-11225000I-30000J0D01*
G01*
X13600000Y-11150000D02*
G75*
G03*
X13600000Y-11150000I-30000J0D01*
G01*
X13600000Y-11300000D02*
G75*
G03*
X13600000Y-11300000I-30000J0D01*
G01*
X13850000Y-10610000D02*
G75*
G03*
X13850000Y-10610000I-30000J0D01*
G01*
X13850000Y-10760000D02*
G75*
G03*
X13850000Y-10760000I-30000J0D01*
G01*
D14*
X9381250Y-10745000D02*
X9381250Y-10825000D01*
X9341250Y-10785000D02*
X9421250Y-10785000D01*
X9631250Y-10745000D02*
X9631250Y-10825000D01*
X9591250Y-10785000D02*
X9671250Y-10785000D01*
X11766250Y-7250000D02*
X11766250Y-7330000D01*
X11726250Y-7290000D02*
X11806250Y-7290000D01*
X11766250Y-7500000D02*
X11766250Y-7580000D01*
X11726250Y-7540000D02*
X11806250Y-7540000D01*
X12541250Y-11800000D02*
X12541250Y-11880000D01*
X12501250Y-11840000D02*
X12581250Y-11840000D01*
X12541250Y-12000000D02*
X12541250Y-12080000D01*
X12501250Y-12040000D02*
X12581250Y-12040000D01*
X14216250Y-9900000D02*
X14216250Y-9980000D01*
X14176250Y-9940000D02*
X14256250Y-9940000D01*
X14466250Y-9900000D02*
X14466250Y-9980000D01*
X14426250Y-9940000D02*
X14506250Y-9940000D01*
X17341250Y-9835000D02*
X17341250Y-9915000D01*
X17301250Y-9875000D02*
X17381250Y-9875000D01*
X17591250Y-9835000D02*
X17591250Y-9915000D01*
X17551250Y-9875000D02*
X17631250Y-9875000D01*
X18091250Y-9825000D02*
X18091250Y-9905000D01*
X18051250Y-9865000D02*
X18131250Y-9865000D01*
X18341250Y-9825000D02*
X18341250Y-9905000D01*
X18301250Y-9865000D02*
X18381250Y-9865000D01*
D15*
X9421606Y-12150356D02*
X9421606Y-12079644D01*
X9350894Y-12079644D01*
X9350894Y-12150356D01*
X9421606Y-12150356D01*
X9675606Y-12150356D02*
X9675606Y-12079644D01*
X9604894Y-12079644D01*
X9604894Y-12150356D01*
X9675606Y-12150356D01*
X9929606Y-12150356D02*
X9929606Y-12079644D01*
X9858894Y-12079644D01*
X9858894Y-12150356D01*
X9929606Y-12150356D01*
X10183606Y-12150356D02*
X10183606Y-12079644D01*
X10112894Y-12079644D01*
X10112894Y-12150356D01*
X10183606Y-12150356D01*
X11451606Y-5900356D02*
X11451606Y-5829644D01*
X11380894Y-5829644D01*
X11380894Y-5900356D01*
X11451606Y-5900356D01*
X11451606Y-6344856D02*
X11451606Y-6274144D01*
X11380894Y-6274144D01*
X11380894Y-6344856D01*
X11451606Y-6344856D01*
X11451606Y-6598856D02*
X11451606Y-6528144D01*
X11380894Y-6528144D01*
X11380894Y-6598856D01*
X11451606Y-6598856D01*
X11451606Y-6852856D02*
X11451606Y-6782144D01*
X11380894Y-6782144D01*
X11380894Y-6852856D01*
X11451606Y-6852856D01*
X11705606Y-5900356D02*
X11705606Y-5829644D01*
X11634894Y-5829644D01*
X11634894Y-5900356D01*
X11705606Y-5900356D01*
X12416606Y-8136356D02*
X12416606Y-8065644D01*
X12345894Y-8065644D01*
X12345894Y-8136356D01*
X12416606Y-8136356D01*
X12416606Y-8390356D02*
X12416606Y-8319644D01*
X12345894Y-8319644D01*
X12345894Y-8390356D01*
X12416606Y-8390356D01*
X12869106Y-5823856D02*
X12869106Y-5753144D01*
X12798394Y-5753144D01*
X12798394Y-5823856D01*
X12869106Y-5823856D01*
X12869106Y-6077856D02*
X12869106Y-6007144D01*
X12798394Y-6007144D01*
X12798394Y-6077856D01*
X12869106Y-6077856D01*
X13123106Y-5823856D02*
X13123106Y-5753144D01*
X13052394Y-5753144D01*
X13052394Y-5823856D01*
X13123106Y-5823856D01*
X13123106Y-6077856D02*
X13123106Y-6007144D01*
X13052394Y-6007144D01*
X13052394Y-6077856D01*
X13123106Y-6077856D01*
X13377106Y-5823856D02*
X13377106Y-5753144D01*
X13306394Y-5753144D01*
X13306394Y-5823856D01*
X13377106Y-5823856D01*
X13377106Y-6077856D02*
X13377106Y-6007144D01*
X13306394Y-6007144D01*
X13306394Y-6077856D01*
X13377106Y-6077856D01*
X13631106Y-5823856D02*
X13631106Y-5753144D01*
X13560394Y-5753144D01*
X13560394Y-5823856D01*
X13631106Y-5823856D01*
X13631106Y-6077856D02*
X13631106Y-6007144D01*
X13560394Y-6007144D01*
X13560394Y-6077856D01*
X13631106Y-6077856D01*
X13876606Y-6498856D02*
X13876606Y-6428144D01*
X13805894Y-6428144D01*
X13805894Y-6498856D01*
X13876606Y-6498856D01*
X13876606Y-6752856D02*
X13876606Y-6682144D01*
X13805894Y-6682144D01*
X13805894Y-6752856D01*
X13876606Y-6752856D01*
X13885106Y-5823856D02*
X13885106Y-5753144D01*
X13814394Y-5753144D01*
X13814394Y-5823856D01*
X13885106Y-5823856D01*
X13885106Y-6077856D02*
X13885106Y-6007144D01*
X13814394Y-6007144D01*
X13814394Y-6077856D01*
X13885106Y-6077856D01*
D16*
X15116250Y-12730000D02*
X15181250Y-12665000D01*
X15116250Y-12600000D01*
X15051250Y-12665000D01*
X15116250Y-12730000D01*
X15366250Y-12730000D02*
X15431250Y-12665000D01*
X15366250Y-12600000D01*
X15301250Y-12665000D01*
X15366250Y-12730000D01*
X15616250Y-13230000D02*
X15681250Y-13165000D01*
X15616250Y-13100000D01*
X15551250Y-13165000D01*
X15616250Y-13230000D01*
X15866250Y-12730000D02*
X15931250Y-12665000D01*
X15866250Y-12600000D01*
X15801250Y-12665000D01*
X15866250Y-12730000D01*
X16116250Y-12730000D02*
X16181250Y-12665000D01*
X16116250Y-12600000D01*
X16051250Y-12665000D01*
X16116250Y-12730000D01*
D17*
X15036250Y-13085000D02*
X15196250Y-13245000D01*
X15196250Y-13085000D02*
X15036250Y-13245000D01*
X15196250Y-13165000D02*
G75*
G03*
X15196250Y-13165000I-80000J0D01*
G01*
X15536250Y-12585000D02*
X15696250Y-12745000D01*
X15696250Y-12585000D02*
X15536250Y-12745000D01*
X15696250Y-12665000D02*
G75*
G03*
X15696250Y-12665000I-80000J0D01*
G01*
X16036250Y-13085000D02*
X16196250Y-13245000D01*
X16196250Y-13085000D02*
X16036250Y-13245000D01*
X16196250Y-13165000D02*
G75*
G03*
X16196250Y-13165000I-80000J0D01*
G01*
D11*
X9043869Y-13780476D02*
X9043869Y-13580476D01*
X9091488Y-13580476D01*
X9120060Y-13590000D01*
X9139107Y-13609048D01*
X9148631Y-13628095D01*
X9158155Y-13666190D01*
X9158155Y-13694762D01*
X9148631Y-13732857D01*
X9139107Y-13751905D01*
X9120060Y-13770952D01*
X9091488Y-13780476D01*
X9043869Y-13780476D01*
X9243869Y-13780476D02*
X9243869Y-13647143D01*
X9243869Y-13685238D02*
X9253393Y-13666190D01*
X9262917Y-13656667D01*
X9281964Y-13647143D01*
X9301012Y-13647143D01*
X9367679Y-13780476D02*
X9367679Y-13647143D01*
X9367679Y-13580476D02*
X9358155Y-13590000D01*
X9367679Y-13599524D01*
X9377202Y-13590000D01*
X9367679Y-13580476D01*
X9367679Y-13599524D01*
X9491488Y-13780476D02*
X9472440Y-13770952D01*
X9462917Y-13751905D01*
X9462917Y-13580476D01*
X9596250Y-13780476D02*
X9577202Y-13770952D01*
X9567679Y-13751905D01*
X9567679Y-13580476D01*
X9824821Y-13780476D02*
X9824821Y-13580476D01*
X9891488Y-13723333D01*
X9958155Y-13580476D01*
X9958155Y-13780476D01*
X10139107Y-13780476D02*
X10139107Y-13675714D01*
X10129583Y-13656667D01*
X10110536Y-13647143D01*
X10072440Y-13647143D01*
X10053393Y-13656667D01*
X10139107Y-13770952D02*
X10120060Y-13780476D01*
X10072440Y-13780476D01*
X10053393Y-13770952D01*
X10043869Y-13751905D01*
X10043869Y-13732857D01*
X10053393Y-13713809D01*
X10072440Y-13704286D01*
X10120060Y-13704286D01*
X10139107Y-13694762D01*
X10234345Y-13647143D02*
X10234345Y-13847143D01*
X10234345Y-13656667D02*
X10253393Y-13647143D01*
X10291488Y-13647143D01*
X10310536Y-13656667D01*
X10320060Y-13666190D01*
X10329583Y-13685238D01*
X10329583Y-13742381D01*
X10320060Y-13761428D01*
X10310536Y-13770952D01*
X10291488Y-13780476D01*
X10253393Y-13780476D01*
X10234345Y-13770952D01*
X10415298Y-13761428D02*
X10424821Y-13770952D01*
X10415298Y-13780476D01*
X10405774Y-13770952D01*
X10415298Y-13761428D01*
X10415298Y-13780476D01*
X10415298Y-13656667D02*
X10424821Y-13666190D01*
X10415298Y-13675714D01*
X10405774Y-13666190D01*
X10415298Y-13656667D01*
X10415298Y-13675714D01*
D12*
X8756250Y-14095000D02*
X8786250Y-14125000D01*
X8786250Y-14095000D02*
X8756250Y-14125000D01*
D11*
X9081964Y-14000476D02*
X9101012Y-14000476D01*
X9120060Y-14010000D01*
X9129583Y-14019524D01*
X9139107Y-14038571D01*
X9148631Y-14076667D01*
X9148631Y-14124286D01*
X9139107Y-14162381D01*
X9129583Y-14181428D01*
X9120060Y-14190952D01*
X9101012Y-14200476D01*
X9081964Y-14200476D01*
X9062917Y-14190952D01*
X9053393Y-14181428D01*
X9043869Y-14162381D01*
X9034345Y-14124286D01*
X9034345Y-14076667D01*
X9043869Y-14038571D01*
X9053393Y-14019524D01*
X9062917Y-14010000D01*
X9081964Y-14000476D01*
X9234345Y-14181428D02*
X9243869Y-14190952D01*
X9234345Y-14200476D01*
X9224821Y-14190952D01*
X9234345Y-14181428D01*
X9234345Y-14200476D01*
X9310536Y-14000476D02*
X9434345Y-14000476D01*
X9367679Y-14076667D01*
X9396250Y-14076667D01*
X9415298Y-14086190D01*
X9424821Y-14095714D01*
X9434345Y-14114762D01*
X9434345Y-14162381D01*
X9424821Y-14181428D01*
X9415298Y-14190952D01*
X9396250Y-14200476D01*
X9339107Y-14200476D01*
X9320060Y-14190952D01*
X9310536Y-14181428D01*
X9558155Y-14000476D02*
X9577202Y-14000476D01*
X9596250Y-14010000D01*
X9605774Y-14019524D01*
X9615298Y-14038571D01*
X9624821Y-14076667D01*
X9624821Y-14124286D01*
X9615298Y-14162381D01*
X9605774Y-14181428D01*
X9596250Y-14190952D01*
X9577202Y-14200476D01*
X9558155Y-14200476D01*
X9539107Y-14190952D01*
X9529583Y-14181428D01*
X9520060Y-14162381D01*
X9510536Y-14124286D01*
X9510536Y-14076667D01*
X9520060Y-14038571D01*
X9529583Y-14019524D01*
X9539107Y-14010000D01*
X9558155Y-14000476D01*
X9748631Y-14000476D02*
X9767679Y-14000476D01*
X9786726Y-14010000D01*
X9796250Y-14019524D01*
X9805774Y-14038571D01*
X9815298Y-14076667D01*
X9815298Y-14124286D01*
X9805774Y-14162381D01*
X9796250Y-14181428D01*
X9786726Y-14190952D01*
X9767679Y-14200476D01*
X9748631Y-14200476D01*
X9729583Y-14190952D01*
X9720060Y-14181428D01*
X9710536Y-14162381D01*
X9701012Y-14124286D01*
X9701012Y-14076667D01*
X9710536Y-14038571D01*
X9720060Y-14019524D01*
X9729583Y-14010000D01*
X9748631Y-14000476D01*
X9901012Y-14200476D02*
X9901012Y-14067143D01*
X9901012Y-14086190D02*
X9910536Y-14076667D01*
X9929583Y-14067143D01*
X9958155Y-14067143D01*
X9977202Y-14076667D01*
X9986726Y-14095714D01*
X9986726Y-14200476D01*
X9986726Y-14095714D02*
X9996250Y-14076667D01*
X10015298Y-14067143D01*
X10043869Y-14067143D01*
X10062917Y-14076667D01*
X10072440Y-14095714D01*
X10072440Y-14200476D01*
X10167679Y-14200476D02*
X10167679Y-14067143D01*
X10167679Y-14086190D02*
X10177202Y-14076667D01*
X10196250Y-14067143D01*
X10224821Y-14067143D01*
X10243869Y-14076667D01*
X10253393Y-14095714D01*
X10253393Y-14200476D01*
X10253393Y-14095714D02*
X10262917Y-14076667D01*
X10281964Y-14067143D01*
X10310536Y-14067143D01*
X10329583Y-14076667D01*
X10339107Y-14095714D01*
X10339107Y-14200476D01*
X10729583Y-13990952D02*
X10558155Y-14248095D01*
X10986726Y-14000476D02*
X11005774Y-14000476D01*
X11024821Y-14010000D01*
X11034345Y-14019524D01*
X11043869Y-14038571D01*
X11053393Y-14076667D01*
X11053393Y-14124286D01*
X11043869Y-14162381D01*
X11034345Y-14181428D01*
X11024821Y-14190952D01*
X11005774Y-14200476D01*
X10986726Y-14200476D01*
X10967679Y-14190952D01*
X10958155Y-14181428D01*
X10948631Y-14162381D01*
X10939107Y-14124286D01*
X10939107Y-14076667D01*
X10948631Y-14038571D01*
X10958155Y-14019524D01*
X10967679Y-14010000D01*
X10986726Y-14000476D01*
X11139107Y-14181428D02*
X11148631Y-14190952D01*
X11139107Y-14200476D01*
X11129583Y-14190952D01*
X11139107Y-14181428D01*
X11139107Y-14200476D01*
X11272440Y-14000476D02*
X11291488Y-14000476D01*
X11310536Y-14010000D01*
X11320059Y-14019524D01*
X11329583Y-14038571D01*
X11339107Y-14076667D01*
X11339107Y-14124286D01*
X11329583Y-14162381D01*
X11320059Y-14181428D01*
X11310536Y-14190952D01*
X11291488Y-14200476D01*
X11272440Y-14200476D01*
X11253393Y-14190952D01*
X11243869Y-14181428D01*
X11234345Y-14162381D01*
X11224821Y-14124286D01*
X11224821Y-14076667D01*
X11234345Y-14038571D01*
X11243869Y-14019524D01*
X11253393Y-14010000D01*
X11272440Y-14000476D01*
X11529583Y-14200476D02*
X11415298Y-14200476D01*
X11472440Y-14200476D02*
X11472440Y-14000476D01*
X11453393Y-14029048D01*
X11434345Y-14048095D01*
X11415298Y-14057619D01*
X11720059Y-14200476D02*
X11605774Y-14200476D01*
X11662917Y-14200476D02*
X11662917Y-14000476D01*
X11643869Y-14029048D01*
X11624821Y-14048095D01*
X11605774Y-14057619D01*
X11834345Y-14086190D02*
X11815298Y-14076667D01*
X11805774Y-14067143D01*
X11796250Y-14048095D01*
X11796250Y-14038571D01*
X11805774Y-14019524D01*
X11815298Y-14010000D01*
X11834345Y-14000476D01*
X11872440Y-14000476D01*
X11891488Y-14010000D01*
X11901012Y-14019524D01*
X11910536Y-14038571D01*
X11910536Y-14048095D01*
X11901012Y-14067143D01*
X11891488Y-14076667D01*
X11872440Y-14086190D01*
X11834345Y-14086190D01*
X11815298Y-14095714D01*
X11805774Y-14105238D01*
X11796250Y-14124286D01*
X11796250Y-14162381D01*
X11805774Y-14181428D01*
X11815298Y-14190952D01*
X11834345Y-14200476D01*
X11872440Y-14200476D01*
X11891488Y-14190952D01*
X11901012Y-14181428D01*
X11910536Y-14162381D01*
X11910536Y-14124286D01*
X11901012Y-14105238D01*
X11891488Y-14095714D01*
X11872440Y-14086190D01*
X11986726Y-14000476D02*
X11986726Y-14038571D01*
X12062917Y-14000476D02*
X12062917Y-14038571D01*
X12358155Y-14276667D02*
X12348631Y-14267143D01*
X12329583Y-14238571D01*
X12320059Y-14219524D01*
X12310536Y-14190952D01*
X12301012Y-14143333D01*
X12301012Y-14105238D01*
X12310536Y-14057619D01*
X12320059Y-14029048D01*
X12329583Y-14010000D01*
X12348631Y-13981428D01*
X12358155Y-13971905D01*
X12539107Y-14200476D02*
X12424821Y-14200476D01*
X12481964Y-14200476D02*
X12481964Y-14000476D01*
X12462917Y-14029048D01*
X12443869Y-14048095D01*
X12424821Y-14057619D01*
X12662917Y-14000476D02*
X12681964Y-14000476D01*
X12701012Y-14010000D01*
X12710536Y-14019524D01*
X12720059Y-14038571D01*
X12729583Y-14076667D01*
X12729583Y-14124286D01*
X12720059Y-14162381D01*
X12710536Y-14181428D01*
X12701012Y-14190952D01*
X12681964Y-14200476D01*
X12662917Y-14200476D01*
X12643869Y-14190952D01*
X12634345Y-14181428D01*
X12624821Y-14162381D01*
X12615298Y-14124286D01*
X12615298Y-14076667D01*
X12624821Y-14038571D01*
X12634345Y-14019524D01*
X12643869Y-14010000D01*
X12662917Y-14000476D01*
X12853393Y-14000476D02*
X12872440Y-14000476D01*
X12891488Y-14010000D01*
X12901012Y-14019524D01*
X12910536Y-14038571D01*
X12920059Y-14076667D01*
X12920059Y-14124286D01*
X12910536Y-14162381D01*
X12901012Y-14181428D01*
X12891488Y-14190952D01*
X12872440Y-14200476D01*
X12853393Y-14200476D01*
X12834345Y-14190952D01*
X12824821Y-14181428D01*
X12815298Y-14162381D01*
X12805774Y-14124286D01*
X12805774Y-14076667D01*
X12815298Y-14038571D01*
X12824821Y-14019524D01*
X12834345Y-14010000D01*
X12853393Y-14000476D01*
X13158155Y-14200476D02*
X13158155Y-14000476D01*
X13243869Y-14200476D02*
X13243869Y-14095714D01*
X13234345Y-14076667D01*
X13215298Y-14067143D01*
X13186726Y-14067143D01*
X13167678Y-14076667D01*
X13158155Y-14086190D01*
X13367678Y-14200476D02*
X13348631Y-14190952D01*
X13339107Y-14181428D01*
X13329583Y-14162381D01*
X13329583Y-14105238D01*
X13339107Y-14086190D01*
X13348631Y-14076667D01*
X13367678Y-14067143D01*
X13396250Y-14067143D01*
X13415298Y-14076667D01*
X13424821Y-14086190D01*
X13434345Y-14105238D01*
X13434345Y-14162381D01*
X13424821Y-14181428D01*
X13415298Y-14190952D01*
X13396250Y-14200476D01*
X13367678Y-14200476D01*
X13548631Y-14200476D02*
X13529583Y-14190952D01*
X13520059Y-14171905D01*
X13520059Y-14000476D01*
X13701012Y-14190952D02*
X13681964Y-14200476D01*
X13643869Y-14200476D01*
X13624821Y-14190952D01*
X13615298Y-14171905D01*
X13615298Y-14095714D01*
X13624821Y-14076667D01*
X13643869Y-14067143D01*
X13681964Y-14067143D01*
X13701012Y-14076667D01*
X13710536Y-14095714D01*
X13710536Y-14114762D01*
X13615298Y-14133809D01*
X13786726Y-14190952D02*
X13805774Y-14200476D01*
X13843869Y-14200476D01*
X13862917Y-14190952D01*
X13872440Y-14171905D01*
X13872440Y-14162381D01*
X13862917Y-14143333D01*
X13843869Y-14133809D01*
X13815298Y-14133809D01*
X13796250Y-14124286D01*
X13786726Y-14105238D01*
X13786726Y-14095714D01*
X13796250Y-14076667D01*
X13815298Y-14067143D01*
X13843869Y-14067143D01*
X13862917Y-14076667D01*
X13939107Y-14276667D02*
X13948631Y-14267143D01*
X13967678Y-14238571D01*
X13977202Y-14219524D01*
X13986726Y-14190952D01*
X13996250Y-14143333D01*
X13996250Y-14105238D01*
X13986726Y-14057619D01*
X13977202Y-14029048D01*
X13967678Y-14010000D01*
X13948631Y-13981428D01*
X13939107Y-13971905D01*
D13*
X8786250Y-14374000D02*
G75*
G03*
X8786250Y-14374000I-30000J0D01*
G01*
D11*
X9081964Y-14264476D02*
X9101012Y-14264476D01*
X9120060Y-14274000D01*
X9129583Y-14283524D01*
X9139107Y-14302571D01*
X9148631Y-14340667D01*
X9148631Y-14388286D01*
X9139107Y-14426381D01*
X9129583Y-14445428D01*
X9120060Y-14454952D01*
X9101012Y-14464476D01*
X9081964Y-14464476D01*
X9062917Y-14454952D01*
X9053393Y-14445428D01*
X9043869Y-14426381D01*
X9034345Y-14388286D01*
X9034345Y-14340667D01*
X9043869Y-14302571D01*
X9053393Y-14283524D01*
X9062917Y-14274000D01*
X9081964Y-14264476D01*
X9234345Y-14445428D02*
X9243869Y-14454952D01*
X9234345Y-14464476D01*
X9224821Y-14454952D01*
X9234345Y-14445428D01*
X9234345Y-14464476D01*
X9415298Y-14264476D02*
X9377202Y-14264476D01*
X9358155Y-14274000D01*
X9348631Y-14283524D01*
X9329583Y-14312095D01*
X9320060Y-14350190D01*
X9320060Y-14426381D01*
X9329583Y-14445428D01*
X9339107Y-14454952D01*
X9358155Y-14464476D01*
X9396250Y-14464476D01*
X9415298Y-14454952D01*
X9424821Y-14445428D01*
X9434345Y-14426381D01*
X9434345Y-14378762D01*
X9424821Y-14359714D01*
X9415298Y-14350190D01*
X9396250Y-14340667D01*
X9358155Y-14340667D01*
X9339107Y-14350190D01*
X9329583Y-14359714D01*
X9320060Y-14378762D01*
X9558155Y-14264476D02*
X9577202Y-14264476D01*
X9596250Y-14274000D01*
X9605774Y-14283524D01*
X9615298Y-14302571D01*
X9624821Y-14340667D01*
X9624821Y-14388286D01*
X9615298Y-14426381D01*
X9605774Y-14445428D01*
X9596250Y-14454952D01*
X9577202Y-14464476D01*
X9558155Y-14464476D01*
X9539107Y-14454952D01*
X9529583Y-14445428D01*
X9520060Y-14426381D01*
X9510536Y-14388286D01*
X9510536Y-14340667D01*
X9520060Y-14302571D01*
X9529583Y-14283524D01*
X9539107Y-14274000D01*
X9558155Y-14264476D01*
X9748631Y-14264476D02*
X9767679Y-14264476D01*
X9786726Y-14274000D01*
X9796250Y-14283524D01*
X9805774Y-14302571D01*
X9815298Y-14340667D01*
X9815298Y-14388286D01*
X9805774Y-14426381D01*
X9796250Y-14445428D01*
X9786726Y-14454952D01*
X9767679Y-14464476D01*
X9748631Y-14464476D01*
X9729583Y-14454952D01*
X9720060Y-14445428D01*
X9710536Y-14426381D01*
X9701012Y-14388286D01*
X9701012Y-14340667D01*
X9710536Y-14302571D01*
X9720060Y-14283524D01*
X9729583Y-14274000D01*
X9748631Y-14264476D01*
X9901012Y-14464476D02*
X9901012Y-14331143D01*
X9901012Y-14350190D02*
X9910536Y-14340667D01*
X9929583Y-14331143D01*
X9958155Y-14331143D01*
X9977202Y-14340667D01*
X9986726Y-14359714D01*
X9986726Y-14464476D01*
X9986726Y-14359714D02*
X9996250Y-14340667D01*
X10015298Y-14331143D01*
X10043869Y-14331143D01*
X10062917Y-14340667D01*
X10072440Y-14359714D01*
X10072440Y-14464476D01*
X10167679Y-14464476D02*
X10167679Y-14331143D01*
X10167679Y-14350190D02*
X10177202Y-14340667D01*
X10196250Y-14331143D01*
X10224821Y-14331143D01*
X10243869Y-14340667D01*
X10253393Y-14359714D01*
X10253393Y-14464476D01*
X10253393Y-14359714D02*
X10262917Y-14340667D01*
X10281964Y-14331143D01*
X10310536Y-14331143D01*
X10329583Y-14340667D01*
X10339107Y-14359714D01*
X10339107Y-14464476D01*
X10729583Y-14254952D02*
X10558155Y-14512095D01*
X10986726Y-14264476D02*
X11005774Y-14264476D01*
X11024821Y-14274000D01*
X11034345Y-14283524D01*
X11043869Y-14302571D01*
X11053393Y-14340667D01*
X11053393Y-14388286D01*
X11043869Y-14426381D01*
X11034345Y-14445428D01*
X11024821Y-14454952D01*
X11005774Y-14464476D01*
X10986726Y-14464476D01*
X10967679Y-14454952D01*
X10958155Y-14445428D01*
X10948631Y-14426381D01*
X10939107Y-14388286D01*
X10939107Y-14340667D01*
X10948631Y-14302571D01*
X10958155Y-14283524D01*
X10967679Y-14274000D01*
X10986726Y-14264476D01*
X11139107Y-14445428D02*
X11148631Y-14454952D01*
X11139107Y-14464476D01*
X11129583Y-14454952D01*
X11139107Y-14445428D01*
X11139107Y-14464476D01*
X11272440Y-14264476D02*
X11291488Y-14264476D01*
X11310536Y-14274000D01*
X11320059Y-14283524D01*
X11329583Y-14302571D01*
X11339107Y-14340667D01*
X11339107Y-14388286D01*
X11329583Y-14426381D01*
X11320059Y-14445428D01*
X11310536Y-14454952D01*
X11291488Y-14464476D01*
X11272440Y-14464476D01*
X11253393Y-14454952D01*
X11243869Y-14445428D01*
X11234345Y-14426381D01*
X11224821Y-14388286D01*
X11224821Y-14340667D01*
X11234345Y-14302571D01*
X11243869Y-14283524D01*
X11253393Y-14274000D01*
X11272440Y-14264476D01*
X11415298Y-14283524D02*
X11424821Y-14274000D01*
X11443869Y-14264476D01*
X11491488Y-14264476D01*
X11510536Y-14274000D01*
X11520059Y-14283524D01*
X11529583Y-14302571D01*
X11529583Y-14321619D01*
X11520059Y-14350190D01*
X11405774Y-14464476D01*
X11529583Y-14464476D01*
X11596250Y-14264476D02*
X11720059Y-14264476D01*
X11653393Y-14340667D01*
X11681964Y-14340667D01*
X11701012Y-14350190D01*
X11710536Y-14359714D01*
X11720059Y-14378762D01*
X11720059Y-14426381D01*
X11710536Y-14445428D01*
X11701012Y-14454952D01*
X11681964Y-14464476D01*
X11624821Y-14464476D01*
X11605774Y-14454952D01*
X11596250Y-14445428D01*
X11891488Y-14264476D02*
X11853393Y-14264476D01*
X11834345Y-14274000D01*
X11824821Y-14283524D01*
X11805774Y-14312095D01*
X11796250Y-14350190D01*
X11796250Y-14426381D01*
X11805774Y-14445428D01*
X11815298Y-14454952D01*
X11834345Y-14464476D01*
X11872440Y-14464476D01*
X11891488Y-14454952D01*
X11901012Y-14445428D01*
X11910536Y-14426381D01*
X11910536Y-14378762D01*
X11901012Y-14359714D01*
X11891488Y-14350190D01*
X11872440Y-14340667D01*
X11834345Y-14340667D01*
X11815298Y-14350190D01*
X11805774Y-14359714D01*
X11796250Y-14378762D01*
X11986726Y-14264476D02*
X11986726Y-14302571D01*
X12062917Y-14264476D02*
X12062917Y-14302571D01*
X12358155Y-14540667D02*
X12348631Y-14531143D01*
X12329583Y-14502571D01*
X12320059Y-14483524D01*
X12310536Y-14454952D01*
X12301012Y-14407333D01*
X12301012Y-14369238D01*
X12310536Y-14321619D01*
X12320059Y-14293048D01*
X12329583Y-14274000D01*
X12348631Y-14245428D01*
X12358155Y-14235905D01*
X12520059Y-14264476D02*
X12481964Y-14264476D01*
X12462917Y-14274000D01*
X12453393Y-14283524D01*
X12434345Y-14312095D01*
X12424821Y-14350190D01*
X12424821Y-14426381D01*
X12434345Y-14445428D01*
X12443869Y-14454952D01*
X12462917Y-14464476D01*
X12501012Y-14464476D01*
X12520059Y-14454952D01*
X12529583Y-14445428D01*
X12539107Y-14426381D01*
X12539107Y-14378762D01*
X12529583Y-14359714D01*
X12520059Y-14350190D01*
X12501012Y-14340667D01*
X12462917Y-14340667D01*
X12443869Y-14350190D01*
X12434345Y-14359714D01*
X12424821Y-14378762D01*
X12777202Y-14464476D02*
X12777202Y-14264476D01*
X12862917Y-14464476D02*
X12862917Y-14359714D01*
X12853393Y-14340667D01*
X12834345Y-14331143D01*
X12805774Y-14331143D01*
X12786726Y-14340667D01*
X12777202Y-14350190D01*
X12986726Y-14464476D02*
X12967678Y-14454952D01*
X12958155Y-14445428D01*
X12948631Y-14426381D01*
X12948631Y-14369238D01*
X12958155Y-14350190D01*
X12967678Y-14340667D01*
X12986726Y-14331143D01*
X13015298Y-14331143D01*
X13034345Y-14340667D01*
X13043869Y-14350190D01*
X13053393Y-14369238D01*
X13053393Y-14426381D01*
X13043869Y-14445428D01*
X13034345Y-14454952D01*
X13015298Y-14464476D01*
X12986726Y-14464476D01*
X13167678Y-14464476D02*
X13148631Y-14454952D01*
X13139107Y-14435905D01*
X13139107Y-14264476D01*
X13320059Y-14454952D02*
X13301012Y-14464476D01*
X13262917Y-14464476D01*
X13243869Y-14454952D01*
X13234345Y-14435905D01*
X13234345Y-14359714D01*
X13243869Y-14340667D01*
X13262917Y-14331143D01*
X13301012Y-14331143D01*
X13320059Y-14340667D01*
X13329583Y-14359714D01*
X13329583Y-14378762D01*
X13234345Y-14397809D01*
X13405774Y-14454952D02*
X13424821Y-14464476D01*
X13462917Y-14464476D01*
X13481964Y-14454952D01*
X13491488Y-14435905D01*
X13491488Y-14426381D01*
X13481964Y-14407333D01*
X13462917Y-14397809D01*
X13434345Y-14397809D01*
X13415298Y-14388286D01*
X13405774Y-14369238D01*
X13405774Y-14359714D01*
X13415298Y-14340667D01*
X13434345Y-14331143D01*
X13462917Y-14331143D01*
X13481964Y-14340667D01*
X13729583Y-14388286D02*
X13881964Y-14388286D01*
X13805774Y-14464476D02*
X13805774Y-14312095D01*
X14215298Y-14331143D02*
X14215298Y-14464476D01*
X14167678Y-14254952D02*
X14120059Y-14397809D01*
X14243869Y-14397809D01*
X14462917Y-14454952D02*
X14481964Y-14464476D01*
X14520059Y-14464476D01*
X14539107Y-14454952D01*
X14548631Y-14435905D01*
X14548631Y-14426381D01*
X14539107Y-14407333D01*
X14520059Y-14397809D01*
X14491488Y-14397809D01*
X14472440Y-14388286D01*
X14462917Y-14369238D01*
X14462917Y-14359714D01*
X14472440Y-14340667D01*
X14491488Y-14331143D01*
X14520059Y-14331143D01*
X14539107Y-14340667D01*
X14662917Y-14464476D02*
X14643869Y-14454952D01*
X14634345Y-14435905D01*
X14634345Y-14264476D01*
X14767678Y-14464476D02*
X14748631Y-14454952D01*
X14739107Y-14445428D01*
X14729583Y-14426381D01*
X14729583Y-14369238D01*
X14739107Y-14350190D01*
X14748631Y-14340667D01*
X14767678Y-14331143D01*
X14796250Y-14331143D01*
X14815298Y-14340667D01*
X14824821Y-14350190D01*
X14834345Y-14369238D01*
X14834345Y-14426381D01*
X14824821Y-14445428D01*
X14815298Y-14454952D01*
X14796250Y-14464476D01*
X14767678Y-14464476D01*
X14891488Y-14331143D02*
X14967678Y-14331143D01*
X14920059Y-14264476D02*
X14920059Y-14435905D01*
X14929583Y-14454952D01*
X14948631Y-14464476D01*
X14967678Y-14464476D01*
X15024821Y-14454952D02*
X15043869Y-14464476D01*
X15081964Y-14464476D01*
X15101012Y-14454952D01*
X15110536Y-14435905D01*
X15110536Y-14426381D01*
X15101012Y-14407333D01*
X15081964Y-14397809D01*
X15053393Y-14397809D01*
X15034345Y-14388286D01*
X15024821Y-14369238D01*
X15024821Y-14359714D01*
X15034345Y-14340667D01*
X15053393Y-14331143D01*
X15081964Y-14331143D01*
X15101012Y-14340667D01*
X15177202Y-14540667D02*
X15186726Y-14531143D01*
X15205774Y-14502571D01*
X15215298Y-14483524D01*
X15224821Y-14454952D01*
X15234345Y-14407333D01*
X15234345Y-14369238D01*
X15224821Y-14321619D01*
X15215298Y-14293048D01*
X15205774Y-14274000D01*
X15186726Y-14245428D01*
X15177202Y-14235905D01*
D14*
X8746250Y-14598000D02*
X8746250Y-14678000D01*
X8706250Y-14638000D02*
X8786250Y-14638000D01*
D11*
X9081964Y-14528476D02*
X9101012Y-14528476D01*
X9120060Y-14538000D01*
X9129583Y-14547524D01*
X9139107Y-14566571D01*
X9148631Y-14604667D01*
X9148631Y-14652286D01*
X9139107Y-14690381D01*
X9129583Y-14709428D01*
X9120060Y-14718952D01*
X9101012Y-14728476D01*
X9081964Y-14728476D01*
X9062917Y-14718952D01*
X9053393Y-14709428D01*
X9043869Y-14690381D01*
X9034345Y-14652286D01*
X9034345Y-14604667D01*
X9043869Y-14566571D01*
X9053393Y-14547524D01*
X9062917Y-14538000D01*
X9081964Y-14528476D01*
X9234345Y-14709428D02*
X9243869Y-14718952D01*
X9234345Y-14728476D01*
X9224821Y-14718952D01*
X9234345Y-14709428D01*
X9234345Y-14728476D01*
X9358155Y-14614190D02*
X9339107Y-14604667D01*
X9329583Y-14595143D01*
X9320060Y-14576095D01*
X9320060Y-14566571D01*
X9329583Y-14547524D01*
X9339107Y-14538000D01*
X9358155Y-14528476D01*
X9396250Y-14528476D01*
X9415298Y-14538000D01*
X9424821Y-14547524D01*
X9434345Y-14566571D01*
X9434345Y-14576095D01*
X9424821Y-14595143D01*
X9415298Y-14604667D01*
X9396250Y-14614190D01*
X9358155Y-14614190D01*
X9339107Y-14623714D01*
X9329583Y-14633238D01*
X9320060Y-14652286D01*
X9320060Y-14690381D01*
X9329583Y-14709428D01*
X9339107Y-14718952D01*
X9358155Y-14728476D01*
X9396250Y-14728476D01*
X9415298Y-14718952D01*
X9424821Y-14709428D01*
X9434345Y-14690381D01*
X9434345Y-14652286D01*
X9424821Y-14633238D01*
X9415298Y-14623714D01*
X9396250Y-14614190D01*
X9558155Y-14528476D02*
X9577202Y-14528476D01*
X9596250Y-14538000D01*
X9605774Y-14547524D01*
X9615298Y-14566571D01*
X9624821Y-14604667D01*
X9624821Y-14652286D01*
X9615298Y-14690381D01*
X9605774Y-14709428D01*
X9596250Y-14718952D01*
X9577202Y-14728476D01*
X9558155Y-14728476D01*
X9539107Y-14718952D01*
X9529583Y-14709428D01*
X9520060Y-14690381D01*
X9510536Y-14652286D01*
X9510536Y-14604667D01*
X9520060Y-14566571D01*
X9529583Y-14547524D01*
X9539107Y-14538000D01*
X9558155Y-14528476D01*
X9748631Y-14528476D02*
X9767679Y-14528476D01*
X9786726Y-14538000D01*
X9796250Y-14547524D01*
X9805774Y-14566571D01*
X9815298Y-14604667D01*
X9815298Y-14652286D01*
X9805774Y-14690381D01*
X9796250Y-14709428D01*
X9786726Y-14718952D01*
X9767679Y-14728476D01*
X9748631Y-14728476D01*
X9729583Y-14718952D01*
X9720060Y-14709428D01*
X9710536Y-14690381D01*
X9701012Y-14652286D01*
X9701012Y-14604667D01*
X9710536Y-14566571D01*
X9720060Y-14547524D01*
X9729583Y-14538000D01*
X9748631Y-14528476D01*
X9901012Y-14728476D02*
X9901012Y-14595143D01*
X9901012Y-14614190D02*
X9910536Y-14604667D01*
X9929583Y-14595143D01*
X9958155Y-14595143D01*
X9977202Y-14604667D01*
X9986726Y-14623714D01*
X9986726Y-14728476D01*
X9986726Y-14623714D02*
X9996250Y-14604667D01*
X10015298Y-14595143D01*
X10043869Y-14595143D01*
X10062917Y-14604667D01*
X10072440Y-14623714D01*
X10072440Y-14728476D01*
X10167679Y-14728476D02*
X10167679Y-14595143D01*
X10167679Y-14614190D02*
X10177202Y-14604667D01*
X10196250Y-14595143D01*
X10224821Y-14595143D01*
X10243869Y-14604667D01*
X10253393Y-14623714D01*
X10253393Y-14728476D01*
X10253393Y-14623714D02*
X10262917Y-14604667D01*
X10281964Y-14595143D01*
X10310536Y-14595143D01*
X10329583Y-14604667D01*
X10339107Y-14623714D01*
X10339107Y-14728476D01*
X10729583Y-14518952D02*
X10558155Y-14776095D01*
X10986726Y-14528476D02*
X11005774Y-14528476D01*
X11024821Y-14538000D01*
X11034345Y-14547524D01*
X11043869Y-14566571D01*
X11053393Y-14604667D01*
X11053393Y-14652286D01*
X11043869Y-14690381D01*
X11034345Y-14709428D01*
X11024821Y-14718952D01*
X11005774Y-14728476D01*
X10986726Y-14728476D01*
X10967679Y-14718952D01*
X10958155Y-14709428D01*
X10948631Y-14690381D01*
X10939107Y-14652286D01*
X10939107Y-14604667D01*
X10948631Y-14566571D01*
X10958155Y-14547524D01*
X10967679Y-14538000D01*
X10986726Y-14528476D01*
X11139107Y-14709428D02*
X11148631Y-14718952D01*
X11139107Y-14728476D01*
X11129583Y-14718952D01*
X11139107Y-14709428D01*
X11139107Y-14728476D01*
X11272440Y-14528476D02*
X11291488Y-14528476D01*
X11310536Y-14538000D01*
X11320059Y-14547524D01*
X11329583Y-14566571D01*
X11339107Y-14604667D01*
X11339107Y-14652286D01*
X11329583Y-14690381D01*
X11320059Y-14709428D01*
X11310536Y-14718952D01*
X11291488Y-14728476D01*
X11272440Y-14728476D01*
X11253393Y-14718952D01*
X11243869Y-14709428D01*
X11234345Y-14690381D01*
X11224821Y-14652286D01*
X11224821Y-14604667D01*
X11234345Y-14566571D01*
X11243869Y-14547524D01*
X11253393Y-14538000D01*
X11272440Y-14528476D01*
X11405774Y-14528476D02*
X11529583Y-14528476D01*
X11462917Y-14604667D01*
X11491488Y-14604667D01*
X11510536Y-14614190D01*
X11520059Y-14623714D01*
X11529583Y-14642762D01*
X11529583Y-14690381D01*
X11520059Y-14709428D01*
X11510536Y-14718952D01*
X11491488Y-14728476D01*
X11434345Y-14728476D01*
X11415298Y-14718952D01*
X11405774Y-14709428D01*
X11720059Y-14728476D02*
X11605774Y-14728476D01*
X11662917Y-14728476D02*
X11662917Y-14528476D01*
X11643869Y-14557048D01*
X11624821Y-14576095D01*
X11605774Y-14585619D01*
X11901012Y-14528476D02*
X11805774Y-14528476D01*
X11796250Y-14623714D01*
X11805774Y-14614190D01*
X11824821Y-14604667D01*
X11872440Y-14604667D01*
X11891488Y-14614190D01*
X11901012Y-14623714D01*
X11910536Y-14642762D01*
X11910536Y-14690381D01*
X11901012Y-14709428D01*
X11891488Y-14718952D01*
X11872440Y-14728476D01*
X11824821Y-14728476D01*
X11805774Y-14718952D01*
X11796250Y-14709428D01*
X11986726Y-14528476D02*
X11986726Y-14566571D01*
X12062917Y-14528476D02*
X12062917Y-14566571D01*
X12358155Y-14804667D02*
X12348631Y-14795143D01*
X12329583Y-14766571D01*
X12320059Y-14747524D01*
X12310536Y-14718952D01*
X12301012Y-14671333D01*
X12301012Y-14633238D01*
X12310536Y-14585619D01*
X12320059Y-14557048D01*
X12329583Y-14538000D01*
X12348631Y-14509428D01*
X12358155Y-14499905D01*
X12539107Y-14728476D02*
X12424821Y-14728476D01*
X12481964Y-14728476D02*
X12481964Y-14528476D01*
X12462917Y-14557048D01*
X12443869Y-14576095D01*
X12424821Y-14585619D01*
X12615298Y-14547524D02*
X12624821Y-14538000D01*
X12643869Y-14528476D01*
X12691488Y-14528476D01*
X12710536Y-14538000D01*
X12720059Y-14547524D01*
X12729583Y-14566571D01*
X12729583Y-14585619D01*
X12720059Y-14614190D01*
X12605774Y-14728476D01*
X12729583Y-14728476D01*
X12967678Y-14728476D02*
X12967678Y-14528476D01*
X13053393Y-14728476D02*
X13053393Y-14623714D01*
X13043869Y-14604667D01*
X13024821Y-14595143D01*
X12996250Y-14595143D01*
X12977202Y-14604667D01*
X12967678Y-14614190D01*
X13177202Y-14728476D02*
X13158155Y-14718952D01*
X13148631Y-14709428D01*
X13139107Y-14690381D01*
X13139107Y-14633238D01*
X13148631Y-14614190D01*
X13158155Y-14604667D01*
X13177202Y-14595143D01*
X13205774Y-14595143D01*
X13224821Y-14604667D01*
X13234345Y-14614190D01*
X13243869Y-14633238D01*
X13243869Y-14690381D01*
X13234345Y-14709428D01*
X13224821Y-14718952D01*
X13205774Y-14728476D01*
X13177202Y-14728476D01*
X13358155Y-14728476D02*
X13339107Y-14718952D01*
X13329583Y-14699905D01*
X13329583Y-14528476D01*
X13510536Y-14718952D02*
X13491488Y-14728476D01*
X13453393Y-14728476D01*
X13434345Y-14718952D01*
X13424821Y-14699905D01*
X13424821Y-14623714D01*
X13434345Y-14604667D01*
X13453393Y-14595143D01*
X13491488Y-14595143D01*
X13510536Y-14604667D01*
X13520059Y-14623714D01*
X13520059Y-14642762D01*
X13424821Y-14661809D01*
X13596250Y-14718952D02*
X13615298Y-14728476D01*
X13653393Y-14728476D01*
X13672440Y-14718952D01*
X13681964Y-14699905D01*
X13681964Y-14690381D01*
X13672440Y-14671333D01*
X13653393Y-14661809D01*
X13624821Y-14661809D01*
X13605774Y-14652286D01*
X13596250Y-14633238D01*
X13596250Y-14623714D01*
X13605774Y-14604667D01*
X13624821Y-14595143D01*
X13653393Y-14595143D01*
X13672440Y-14604667D01*
X13748631Y-14804667D02*
X13758155Y-14795143D01*
X13777202Y-14766571D01*
X13786726Y-14747524D01*
X13796250Y-14718952D01*
X13805774Y-14671333D01*
X13805774Y-14633238D01*
X13796250Y-14585619D01*
X13786726Y-14557048D01*
X13777202Y-14538000D01*
X13758155Y-14509428D01*
X13748631Y-14499905D01*
D15*
X8771606Y-14937356D02*
X8771606Y-14866644D01*
X8700894Y-14866644D01*
X8700894Y-14937356D01*
X8771606Y-14937356D01*
D11*
X9148631Y-14992476D02*
X9034345Y-14992476D01*
X9091488Y-14992476D02*
X9091488Y-14792476D01*
X9072440Y-14821048D01*
X9053393Y-14840095D01*
X9034345Y-14849619D01*
X9234345Y-14973428D02*
X9243869Y-14982952D01*
X9234345Y-14992476D01*
X9224821Y-14982952D01*
X9234345Y-14973428D01*
X9234345Y-14992476D01*
X9367679Y-14792476D02*
X9386726Y-14792476D01*
X9405774Y-14802000D01*
X9415298Y-14811524D01*
X9424821Y-14830571D01*
X9434345Y-14868667D01*
X9434345Y-14916286D01*
X9424821Y-14954381D01*
X9415298Y-14973428D01*
X9405774Y-14982952D01*
X9386726Y-14992476D01*
X9367679Y-14992476D01*
X9348631Y-14982952D01*
X9339107Y-14973428D01*
X9329583Y-14954381D01*
X9320060Y-14916286D01*
X9320060Y-14868667D01*
X9329583Y-14830571D01*
X9339107Y-14811524D01*
X9348631Y-14802000D01*
X9367679Y-14792476D01*
X9558155Y-14792476D02*
X9577202Y-14792476D01*
X9596250Y-14802000D01*
X9605774Y-14811524D01*
X9615298Y-14830571D01*
X9624821Y-14868667D01*
X9624821Y-14916286D01*
X9615298Y-14954381D01*
X9605774Y-14973428D01*
X9596250Y-14982952D01*
X9577202Y-14992476D01*
X9558155Y-14992476D01*
X9539107Y-14982952D01*
X9529583Y-14973428D01*
X9520060Y-14954381D01*
X9510536Y-14916286D01*
X9510536Y-14868667D01*
X9520060Y-14830571D01*
X9529583Y-14811524D01*
X9539107Y-14802000D01*
X9558155Y-14792476D01*
X9748631Y-14792476D02*
X9767679Y-14792476D01*
X9786726Y-14802000D01*
X9796250Y-14811524D01*
X9805774Y-14830571D01*
X9815298Y-14868667D01*
X9815298Y-14916286D01*
X9805774Y-14954381D01*
X9796250Y-14973428D01*
X9786726Y-14982952D01*
X9767679Y-14992476D01*
X9748631Y-14992476D01*
X9729583Y-14982952D01*
X9720060Y-14973428D01*
X9710536Y-14954381D01*
X9701012Y-14916286D01*
X9701012Y-14868667D01*
X9710536Y-14830571D01*
X9720060Y-14811524D01*
X9729583Y-14802000D01*
X9748631Y-14792476D01*
X9901012Y-14992476D02*
X9901012Y-14859143D01*
X9901012Y-14878190D02*
X9910536Y-14868667D01*
X9929583Y-14859143D01*
X9958155Y-14859143D01*
X9977202Y-14868667D01*
X9986726Y-14887714D01*
X9986726Y-14992476D01*
X9986726Y-14887714D02*
X9996250Y-14868667D01*
X10015298Y-14859143D01*
X10043869Y-14859143D01*
X10062917Y-14868667D01*
X10072440Y-14887714D01*
X10072440Y-14992476D01*
X10167679Y-14992476D02*
X10167679Y-14859143D01*
X10167679Y-14878190D02*
X10177202Y-14868667D01*
X10196250Y-14859143D01*
X10224821Y-14859143D01*
X10243869Y-14868667D01*
X10253393Y-14887714D01*
X10253393Y-14992476D01*
X10253393Y-14887714D02*
X10262917Y-14868667D01*
X10281964Y-14859143D01*
X10310536Y-14859143D01*
X10329583Y-14868667D01*
X10339107Y-14887714D01*
X10339107Y-14992476D01*
X10729583Y-14782952D02*
X10558155Y-15040095D01*
X10986726Y-14792476D02*
X11005774Y-14792476D01*
X11024821Y-14802000D01*
X11034345Y-14811524D01*
X11043869Y-14830571D01*
X11053393Y-14868667D01*
X11053393Y-14916286D01*
X11043869Y-14954381D01*
X11034345Y-14973428D01*
X11024821Y-14982952D01*
X11005774Y-14992476D01*
X10986726Y-14992476D01*
X10967679Y-14982952D01*
X10958155Y-14973428D01*
X10948631Y-14954381D01*
X10939107Y-14916286D01*
X10939107Y-14868667D01*
X10948631Y-14830571D01*
X10958155Y-14811524D01*
X10967679Y-14802000D01*
X10986726Y-14792476D01*
X11139107Y-14973428D02*
X11148631Y-14982952D01*
X11139107Y-14992476D01*
X11129583Y-14982952D01*
X11139107Y-14973428D01*
X11139107Y-14992476D01*
X11272440Y-14792476D02*
X11291488Y-14792476D01*
X11310536Y-14802000D01*
X11320059Y-14811524D01*
X11329583Y-14830571D01*
X11339107Y-14868667D01*
X11339107Y-14916286D01*
X11329583Y-14954381D01*
X11320059Y-14973428D01*
X11310536Y-14982952D01*
X11291488Y-14992476D01*
X11272440Y-14992476D01*
X11253393Y-14982952D01*
X11243869Y-14973428D01*
X11234345Y-14954381D01*
X11224821Y-14916286D01*
X11224821Y-14868667D01*
X11234345Y-14830571D01*
X11243869Y-14811524D01*
X11253393Y-14802000D01*
X11272440Y-14792476D01*
X11405774Y-14792476D02*
X11529583Y-14792476D01*
X11462917Y-14868667D01*
X11491488Y-14868667D01*
X11510536Y-14878190D01*
X11520059Y-14887714D01*
X11529583Y-14906762D01*
X11529583Y-14954381D01*
X11520059Y-14973428D01*
X11510536Y-14982952D01*
X11491488Y-14992476D01*
X11434345Y-14992476D01*
X11415298Y-14982952D01*
X11405774Y-14973428D01*
X11624821Y-14992476D02*
X11662917Y-14992476D01*
X11681964Y-14982952D01*
X11691488Y-14973428D01*
X11710536Y-14944857D01*
X11720059Y-14906762D01*
X11720059Y-14830571D01*
X11710536Y-14811524D01*
X11701012Y-14802000D01*
X11681964Y-14792476D01*
X11643869Y-14792476D01*
X11624821Y-14802000D01*
X11615298Y-14811524D01*
X11605774Y-14830571D01*
X11605774Y-14878190D01*
X11615298Y-14897238D01*
X11624821Y-14906762D01*
X11643869Y-14916286D01*
X11681964Y-14916286D01*
X11701012Y-14906762D01*
X11710536Y-14897238D01*
X11720059Y-14878190D01*
X11891488Y-14859143D02*
X11891488Y-14992476D01*
X11843869Y-14782952D02*
X11796250Y-14925809D01*
X11920059Y-14925809D01*
X11986726Y-14792476D02*
X11986726Y-14830571D01*
X12062917Y-14792476D02*
X12062917Y-14830571D01*
X12358155Y-15068667D02*
X12348631Y-15059143D01*
X12329583Y-15030571D01*
X12320059Y-15011524D01*
X12310536Y-14982952D01*
X12301012Y-14935333D01*
X12301012Y-14897238D01*
X12310536Y-14849619D01*
X12320059Y-14821048D01*
X12329583Y-14802000D01*
X12348631Y-14773428D01*
X12358155Y-14763905D01*
X12424821Y-14811524D02*
X12434345Y-14802000D01*
X12453393Y-14792476D01*
X12501012Y-14792476D01*
X12520059Y-14802000D01*
X12529583Y-14811524D01*
X12539107Y-14830571D01*
X12539107Y-14849619D01*
X12529583Y-14878190D01*
X12415298Y-14992476D01*
X12539107Y-14992476D01*
X12605774Y-14792476D02*
X12729583Y-14792476D01*
X12662917Y-14868667D01*
X12691488Y-14868667D01*
X12710536Y-14878190D01*
X12720059Y-14887714D01*
X12729583Y-14906762D01*
X12729583Y-14954381D01*
X12720059Y-14973428D01*
X12710536Y-14982952D01*
X12691488Y-14992476D01*
X12634345Y-14992476D01*
X12615298Y-14982952D01*
X12605774Y-14973428D01*
X12967678Y-14992476D02*
X12967678Y-14792476D01*
X13053393Y-14992476D02*
X13053393Y-14887714D01*
X13043869Y-14868667D01*
X13024821Y-14859143D01*
X12996250Y-14859143D01*
X12977202Y-14868667D01*
X12967678Y-14878190D01*
X13177202Y-14992476D02*
X13158155Y-14982952D01*
X13148631Y-14973428D01*
X13139107Y-14954381D01*
X13139107Y-14897238D01*
X13148631Y-14878190D01*
X13158155Y-14868667D01*
X13177202Y-14859143D01*
X13205774Y-14859143D01*
X13224821Y-14868667D01*
X13234345Y-14878190D01*
X13243869Y-14897238D01*
X13243869Y-14954381D01*
X13234345Y-14973428D01*
X13224821Y-14982952D01*
X13205774Y-14992476D01*
X13177202Y-14992476D01*
X13358155Y-14992476D02*
X13339107Y-14982952D01*
X13329583Y-14963905D01*
X13329583Y-14792476D01*
X13510536Y-14982952D02*
X13491488Y-14992476D01*
X13453393Y-14992476D01*
X13434345Y-14982952D01*
X13424821Y-14963905D01*
X13424821Y-14887714D01*
X13434345Y-14868667D01*
X13453393Y-14859143D01*
X13491488Y-14859143D01*
X13510536Y-14868667D01*
X13520059Y-14887714D01*
X13520059Y-14906762D01*
X13424821Y-14925809D01*
X13596250Y-14982952D02*
X13615298Y-14992476D01*
X13653393Y-14992476D01*
X13672440Y-14982952D01*
X13681964Y-14963905D01*
X13681964Y-14954381D01*
X13672440Y-14935333D01*
X13653393Y-14925809D01*
X13624821Y-14925809D01*
X13605774Y-14916286D01*
X13596250Y-14897238D01*
X13596250Y-14887714D01*
X13605774Y-14868667D01*
X13624821Y-14859143D01*
X13653393Y-14859143D01*
X13672440Y-14868667D01*
X13748631Y-15068667D02*
X13758155Y-15059143D01*
X13777202Y-15030571D01*
X13786726Y-15011524D01*
X13796250Y-14982952D01*
X13805774Y-14935333D01*
X13805774Y-14897238D01*
X13796250Y-14849619D01*
X13786726Y-14821048D01*
X13777202Y-14802000D01*
X13758155Y-14773428D01*
X13748631Y-14763905D01*
D16*
X8721250Y-15231000D02*
X8786250Y-15166000D01*
X8721250Y-15101000D01*
X8656250Y-15166000D01*
X8721250Y-15231000D01*
D11*
X9148631Y-15256476D02*
X9034345Y-15256476D01*
X9091488Y-15256476D02*
X9091488Y-15056476D01*
X9072440Y-15085048D01*
X9053393Y-15104095D01*
X9034345Y-15113619D01*
X9234345Y-15237428D02*
X9243869Y-15246952D01*
X9234345Y-15256476D01*
X9224821Y-15246952D01*
X9234345Y-15237428D01*
X9234345Y-15256476D01*
X9310536Y-15056476D02*
X9434345Y-15056476D01*
X9367679Y-15132667D01*
X9396250Y-15132667D01*
X9415298Y-15142190D01*
X9424821Y-15151714D01*
X9434345Y-15170762D01*
X9434345Y-15218381D01*
X9424821Y-15237428D01*
X9415298Y-15246952D01*
X9396250Y-15256476D01*
X9339107Y-15256476D01*
X9320060Y-15246952D01*
X9310536Y-15237428D01*
X9558155Y-15056476D02*
X9577202Y-15056476D01*
X9596250Y-15066000D01*
X9605774Y-15075524D01*
X9615298Y-15094571D01*
X9624821Y-15132667D01*
X9624821Y-15180286D01*
X9615298Y-15218381D01*
X9605774Y-15237428D01*
X9596250Y-15246952D01*
X9577202Y-15256476D01*
X9558155Y-15256476D01*
X9539107Y-15246952D01*
X9529583Y-15237428D01*
X9520060Y-15218381D01*
X9510536Y-15180286D01*
X9510536Y-15132667D01*
X9520060Y-15094571D01*
X9529583Y-15075524D01*
X9539107Y-15066000D01*
X9558155Y-15056476D01*
X9748631Y-15056476D02*
X9767679Y-15056476D01*
X9786726Y-15066000D01*
X9796250Y-15075524D01*
X9805774Y-15094571D01*
X9815298Y-15132667D01*
X9815298Y-15180286D01*
X9805774Y-15218381D01*
X9796250Y-15237428D01*
X9786726Y-15246952D01*
X9767679Y-15256476D01*
X9748631Y-15256476D01*
X9729583Y-15246952D01*
X9720060Y-15237428D01*
X9710536Y-15218381D01*
X9701012Y-15180286D01*
X9701012Y-15132667D01*
X9710536Y-15094571D01*
X9720060Y-15075524D01*
X9729583Y-15066000D01*
X9748631Y-15056476D01*
X9901012Y-15256476D02*
X9901012Y-15123143D01*
X9901012Y-15142190D02*
X9910536Y-15132667D01*
X9929583Y-15123143D01*
X9958155Y-15123143D01*
X9977202Y-15132667D01*
X9986726Y-15151714D01*
X9986726Y-15256476D01*
X9986726Y-15151714D02*
X9996250Y-15132667D01*
X10015298Y-15123143D01*
X10043869Y-15123143D01*
X10062917Y-15132667D01*
X10072440Y-15151714D01*
X10072440Y-15256476D01*
X10167679Y-15256476D02*
X10167679Y-15123143D01*
X10167679Y-15142190D02*
X10177202Y-15132667D01*
X10196250Y-15123143D01*
X10224821Y-15123143D01*
X10243869Y-15132667D01*
X10253393Y-15151714D01*
X10253393Y-15256476D01*
X10253393Y-15151714D02*
X10262917Y-15132667D01*
X10281964Y-15123143D01*
X10310536Y-15123143D01*
X10329583Y-15132667D01*
X10339107Y-15151714D01*
X10339107Y-15256476D01*
X10729583Y-15046952D02*
X10558155Y-15304095D01*
X10986726Y-15056476D02*
X11005774Y-15056476D01*
X11024821Y-15066000D01*
X11034345Y-15075524D01*
X11043869Y-15094571D01*
X11053393Y-15132667D01*
X11053393Y-15180286D01*
X11043869Y-15218381D01*
X11034345Y-15237428D01*
X11024821Y-15246952D01*
X11005774Y-15256476D01*
X10986726Y-15256476D01*
X10967679Y-15246952D01*
X10958155Y-15237428D01*
X10948631Y-15218381D01*
X10939107Y-15180286D01*
X10939107Y-15132667D01*
X10948631Y-15094571D01*
X10958155Y-15075524D01*
X10967679Y-15066000D01*
X10986726Y-15056476D01*
X11139107Y-15237428D02*
X11148631Y-15246952D01*
X11139107Y-15256476D01*
X11129583Y-15246952D01*
X11139107Y-15237428D01*
X11139107Y-15256476D01*
X11272440Y-15056476D02*
X11291488Y-15056476D01*
X11310536Y-15066000D01*
X11320059Y-15075524D01*
X11329583Y-15094571D01*
X11339107Y-15132667D01*
X11339107Y-15180286D01*
X11329583Y-15218381D01*
X11320059Y-15237428D01*
X11310536Y-15246952D01*
X11291488Y-15256476D01*
X11272440Y-15256476D01*
X11253393Y-15246952D01*
X11243869Y-15237428D01*
X11234345Y-15218381D01*
X11224821Y-15180286D01*
X11224821Y-15132667D01*
X11234345Y-15094571D01*
X11243869Y-15075524D01*
X11253393Y-15066000D01*
X11272440Y-15056476D01*
X11520059Y-15056476D02*
X11424821Y-15056476D01*
X11415298Y-15151714D01*
X11424821Y-15142190D01*
X11443869Y-15132667D01*
X11491488Y-15132667D01*
X11510536Y-15142190D01*
X11520059Y-15151714D01*
X11529583Y-15170762D01*
X11529583Y-15218381D01*
X11520059Y-15237428D01*
X11510536Y-15246952D01*
X11491488Y-15256476D01*
X11443869Y-15256476D01*
X11424821Y-15246952D01*
X11415298Y-15237428D01*
X11720059Y-15256476D02*
X11605774Y-15256476D01*
X11662917Y-15256476D02*
X11662917Y-15056476D01*
X11643869Y-15085048D01*
X11624821Y-15104095D01*
X11605774Y-15113619D01*
X11796250Y-15075524D02*
X11805774Y-15066000D01*
X11824821Y-15056476D01*
X11872440Y-15056476D01*
X11891488Y-15066000D01*
X11901012Y-15075524D01*
X11910536Y-15094571D01*
X11910536Y-15113619D01*
X11901012Y-15142190D01*
X11786726Y-15256476D01*
X11910536Y-15256476D01*
X11986726Y-15056476D02*
X11986726Y-15094571D01*
X12062917Y-15056476D02*
X12062917Y-15094571D01*
X12358155Y-15332667D02*
X12348631Y-15323143D01*
X12329583Y-15294571D01*
X12320059Y-15275524D01*
X12310536Y-15246952D01*
X12301012Y-15199333D01*
X12301012Y-15161238D01*
X12310536Y-15113619D01*
X12320059Y-15085048D01*
X12329583Y-15066000D01*
X12348631Y-15037428D01*
X12358155Y-15027905D01*
X12529583Y-15056476D02*
X12434345Y-15056476D01*
X12424821Y-15151714D01*
X12434345Y-15142190D01*
X12453393Y-15132667D01*
X12501012Y-15132667D01*
X12520059Y-15142190D01*
X12529583Y-15151714D01*
X12539107Y-15170762D01*
X12539107Y-15218381D01*
X12529583Y-15237428D01*
X12520059Y-15246952D01*
X12501012Y-15256476D01*
X12453393Y-15256476D01*
X12434345Y-15246952D01*
X12424821Y-15237428D01*
X12777202Y-15256476D02*
X12777202Y-15056476D01*
X12862917Y-15256476D02*
X12862917Y-15151714D01*
X12853393Y-15132667D01*
X12834345Y-15123143D01*
X12805774Y-15123143D01*
X12786726Y-15132667D01*
X12777202Y-15142190D01*
X12986726Y-15256476D02*
X12967678Y-15246952D01*
X12958155Y-15237428D01*
X12948631Y-15218381D01*
X12948631Y-15161238D01*
X12958155Y-15142190D01*
X12967678Y-15132667D01*
X12986726Y-15123143D01*
X13015298Y-15123143D01*
X13034345Y-15132667D01*
X13043869Y-15142190D01*
X13053393Y-15161238D01*
X13053393Y-15218381D01*
X13043869Y-15237428D01*
X13034345Y-15246952D01*
X13015298Y-15256476D01*
X12986726Y-15256476D01*
X13167678Y-15256476D02*
X13148631Y-15246952D01*
X13139107Y-15227905D01*
X13139107Y-15056476D01*
X13320059Y-15246952D02*
X13301012Y-15256476D01*
X13262917Y-15256476D01*
X13243869Y-15246952D01*
X13234345Y-15227905D01*
X13234345Y-15151714D01*
X13243869Y-15132667D01*
X13262917Y-15123143D01*
X13301012Y-15123143D01*
X13320059Y-15132667D01*
X13329583Y-15151714D01*
X13329583Y-15170762D01*
X13234345Y-15189809D01*
X13405774Y-15246952D02*
X13424821Y-15256476D01*
X13462917Y-15256476D01*
X13481964Y-15246952D01*
X13491488Y-15227905D01*
X13491488Y-15218381D01*
X13481964Y-15199333D01*
X13462917Y-15189809D01*
X13434345Y-15189809D01*
X13415298Y-15180286D01*
X13405774Y-15161238D01*
X13405774Y-15151714D01*
X13415298Y-15132667D01*
X13434345Y-15123143D01*
X13462917Y-15123143D01*
X13481964Y-15132667D01*
X13558155Y-15332667D02*
X13567678Y-15323143D01*
X13586726Y-15294571D01*
X13596250Y-15275524D01*
X13605774Y-15246952D01*
X13615298Y-15199333D01*
X13615298Y-15161238D01*
X13605774Y-15113619D01*
X13596250Y-15085048D01*
X13586726Y-15066000D01*
X13567678Y-15037428D01*
X13558155Y-15027905D01*
D17*
X8626250Y-15350000D02*
X8786250Y-15510000D01*
X8786250Y-15350000D02*
X8626250Y-15510000D01*
X8786250Y-15430000D02*
G75*
G03*
X8786250Y-15430000I-80000J0D01*
G01*
D11*
X9148631Y-15520476D02*
X9034345Y-15520476D01*
X9091488Y-15520476D02*
X9091488Y-15320476D01*
X9072440Y-15349048D01*
X9053393Y-15368095D01*
X9034345Y-15377619D01*
X9234345Y-15501428D02*
X9243869Y-15510952D01*
X9234345Y-15520476D01*
X9224821Y-15510952D01*
X9234345Y-15501428D01*
X9234345Y-15520476D01*
X9415298Y-15320476D02*
X9377202Y-15320476D01*
X9358155Y-15330000D01*
X9348631Y-15339524D01*
X9329583Y-15368095D01*
X9320060Y-15406190D01*
X9320060Y-15482381D01*
X9329583Y-15501428D01*
X9339107Y-15510952D01*
X9358155Y-15520476D01*
X9396250Y-15520476D01*
X9415298Y-15510952D01*
X9424821Y-15501428D01*
X9434345Y-15482381D01*
X9434345Y-15434762D01*
X9424821Y-15415714D01*
X9415298Y-15406190D01*
X9396250Y-15396667D01*
X9358155Y-15396667D01*
X9339107Y-15406190D01*
X9329583Y-15415714D01*
X9320060Y-15434762D01*
X9558155Y-15320476D02*
X9577202Y-15320476D01*
X9596250Y-15330000D01*
X9605774Y-15339524D01*
X9615298Y-15358571D01*
X9624821Y-15396667D01*
X9624821Y-15444286D01*
X9615298Y-15482381D01*
X9605774Y-15501428D01*
X9596250Y-15510952D01*
X9577202Y-15520476D01*
X9558155Y-15520476D01*
X9539107Y-15510952D01*
X9529583Y-15501428D01*
X9520060Y-15482381D01*
X9510536Y-15444286D01*
X9510536Y-15396667D01*
X9520060Y-15358571D01*
X9529583Y-15339524D01*
X9539107Y-15330000D01*
X9558155Y-15320476D01*
X9748631Y-15320476D02*
X9767679Y-15320476D01*
X9786726Y-15330000D01*
X9796250Y-15339524D01*
X9805774Y-15358571D01*
X9815298Y-15396667D01*
X9815298Y-15444286D01*
X9805774Y-15482381D01*
X9796250Y-15501428D01*
X9786726Y-15510952D01*
X9767679Y-15520476D01*
X9748631Y-15520476D01*
X9729583Y-15510952D01*
X9720060Y-15501428D01*
X9710536Y-15482381D01*
X9701012Y-15444286D01*
X9701012Y-15396667D01*
X9710536Y-15358571D01*
X9720060Y-15339524D01*
X9729583Y-15330000D01*
X9748631Y-15320476D01*
X9901012Y-15520476D02*
X9901012Y-15387143D01*
X9901012Y-15406190D02*
X9910536Y-15396667D01*
X9929583Y-15387143D01*
X9958155Y-15387143D01*
X9977202Y-15396667D01*
X9986726Y-15415714D01*
X9986726Y-15520476D01*
X9986726Y-15415714D02*
X9996250Y-15396667D01*
X10015298Y-15387143D01*
X10043869Y-15387143D01*
X10062917Y-15396667D01*
X10072440Y-15415714D01*
X10072440Y-15520476D01*
X10167679Y-15520476D02*
X10167679Y-15387143D01*
X10167679Y-15406190D02*
X10177202Y-15396667D01*
X10196250Y-15387143D01*
X10224821Y-15387143D01*
X10243869Y-15396667D01*
X10253393Y-15415714D01*
X10253393Y-15520476D01*
X10253393Y-15415714D02*
X10262917Y-15396667D01*
X10281964Y-15387143D01*
X10310536Y-15387143D01*
X10329583Y-15396667D01*
X10339107Y-15415714D01*
X10339107Y-15520476D01*
X10729583Y-15310952D02*
X10558155Y-15568095D01*
X10986726Y-15320476D02*
X11005774Y-15320476D01*
X11024821Y-15330000D01*
X11034345Y-15339524D01*
X11043869Y-15358571D01*
X11053393Y-15396667D01*
X11053393Y-15444286D01*
X11043869Y-15482381D01*
X11034345Y-15501428D01*
X11024821Y-15510952D01*
X11005774Y-15520476D01*
X10986726Y-15520476D01*
X10967679Y-15510952D01*
X10958155Y-15501428D01*
X10948631Y-15482381D01*
X10939107Y-15444286D01*
X10939107Y-15396667D01*
X10948631Y-15358571D01*
X10958155Y-15339524D01*
X10967679Y-15330000D01*
X10986726Y-15320476D01*
X11139107Y-15501428D02*
X11148631Y-15510952D01*
X11139107Y-15520476D01*
X11129583Y-15510952D01*
X11139107Y-15501428D01*
X11139107Y-15520476D01*
X11272440Y-15320476D02*
X11291488Y-15320476D01*
X11310536Y-15330000D01*
X11320059Y-15339524D01*
X11329583Y-15358571D01*
X11339107Y-15396667D01*
X11339107Y-15444286D01*
X11329583Y-15482381D01*
X11320059Y-15501428D01*
X11310536Y-15510952D01*
X11291488Y-15520476D01*
X11272440Y-15520476D01*
X11253393Y-15510952D01*
X11243869Y-15501428D01*
X11234345Y-15482381D01*
X11224821Y-15444286D01*
X11224821Y-15396667D01*
X11234345Y-15358571D01*
X11243869Y-15339524D01*
X11253393Y-15330000D01*
X11272440Y-15320476D01*
X11510536Y-15320476D02*
X11472440Y-15320476D01*
X11453393Y-15330000D01*
X11443869Y-15339524D01*
X11424821Y-15368095D01*
X11415298Y-15406190D01*
X11415298Y-15482381D01*
X11424821Y-15501428D01*
X11434345Y-15510952D01*
X11453393Y-15520476D01*
X11491488Y-15520476D01*
X11510536Y-15510952D01*
X11520059Y-15501428D01*
X11529583Y-15482381D01*
X11529583Y-15434762D01*
X11520059Y-15415714D01*
X11510536Y-15406190D01*
X11491488Y-15396667D01*
X11453393Y-15396667D01*
X11434345Y-15406190D01*
X11424821Y-15415714D01*
X11415298Y-15434762D01*
X11596250Y-15320476D02*
X11720059Y-15320476D01*
X11653393Y-15396667D01*
X11681964Y-15396667D01*
X11701012Y-15406190D01*
X11710536Y-15415714D01*
X11720059Y-15434762D01*
X11720059Y-15482381D01*
X11710536Y-15501428D01*
X11701012Y-15510952D01*
X11681964Y-15520476D01*
X11624821Y-15520476D01*
X11605774Y-15510952D01*
X11596250Y-15501428D01*
X11843869Y-15320476D02*
X11862917Y-15320476D01*
X11881964Y-15330000D01*
X11891488Y-15339524D01*
X11901012Y-15358571D01*
X11910536Y-15396667D01*
X11910536Y-15444286D01*
X11901012Y-15482381D01*
X11891488Y-15501428D01*
X11881964Y-15510952D01*
X11862917Y-15520476D01*
X11843869Y-15520476D01*
X11824821Y-15510952D01*
X11815298Y-15501428D01*
X11805774Y-15482381D01*
X11796250Y-15444286D01*
X11796250Y-15396667D01*
X11805774Y-15358571D01*
X11815298Y-15339524D01*
X11824821Y-15330000D01*
X11843869Y-15320476D01*
X11986726Y-15320476D02*
X11986726Y-15358571D01*
X12062917Y-15320476D02*
X12062917Y-15358571D01*
X12358155Y-15596667D02*
X12348631Y-15587143D01*
X12329583Y-15558571D01*
X12320059Y-15539524D01*
X12310536Y-15510952D01*
X12301012Y-15463333D01*
X12301012Y-15425238D01*
X12310536Y-15377619D01*
X12320059Y-15349048D01*
X12329583Y-15330000D01*
X12348631Y-15301428D01*
X12358155Y-15291905D01*
X12415298Y-15320476D02*
X12539107Y-15320476D01*
X12472440Y-15396667D01*
X12501012Y-15396667D01*
X12520059Y-15406190D01*
X12529583Y-15415714D01*
X12539107Y-15434762D01*
X12539107Y-15482381D01*
X12529583Y-15501428D01*
X12520059Y-15510952D01*
X12501012Y-15520476D01*
X12443869Y-15520476D01*
X12424821Y-15510952D01*
X12415298Y-15501428D01*
X12777202Y-15520476D02*
X12777202Y-15320476D01*
X12862917Y-15520476D02*
X12862917Y-15415714D01*
X12853393Y-15396667D01*
X12834345Y-15387143D01*
X12805774Y-15387143D01*
X12786726Y-15396667D01*
X12777202Y-15406190D01*
X12986726Y-15520476D02*
X12967678Y-15510952D01*
X12958155Y-15501428D01*
X12948631Y-15482381D01*
X12948631Y-15425238D01*
X12958155Y-15406190D01*
X12967678Y-15396667D01*
X12986726Y-15387143D01*
X13015298Y-15387143D01*
X13034345Y-15396667D01*
X13043869Y-15406190D01*
X13053393Y-15425238D01*
X13053393Y-15482381D01*
X13043869Y-15501428D01*
X13034345Y-15510952D01*
X13015298Y-15520476D01*
X12986726Y-15520476D01*
X13167678Y-15520476D02*
X13148631Y-15510952D01*
X13139107Y-15491905D01*
X13139107Y-15320476D01*
X13320059Y-15510952D02*
X13301012Y-15520476D01*
X13262917Y-15520476D01*
X13243869Y-15510952D01*
X13234345Y-15491905D01*
X13234345Y-15415714D01*
X13243869Y-15396667D01*
X13262917Y-15387143D01*
X13301012Y-15387143D01*
X13320059Y-15396667D01*
X13329583Y-15415714D01*
X13329583Y-15434762D01*
X13234345Y-15453809D01*
X13405774Y-15510952D02*
X13424821Y-15520476D01*
X13462917Y-15520476D01*
X13481964Y-15510952D01*
X13491488Y-15491905D01*
X13491488Y-15482381D01*
X13481964Y-15463333D01*
X13462917Y-15453809D01*
X13434345Y-15453809D01*
X13415298Y-15444286D01*
X13405774Y-15425238D01*
X13405774Y-15415714D01*
X13415298Y-15396667D01*
X13434345Y-15387143D01*
X13462917Y-15387143D01*
X13481964Y-15396667D01*
X13558155Y-15596667D02*
X13567678Y-15587143D01*
X13586726Y-15558571D01*
X13596250Y-15539524D01*
X13605774Y-15510952D01*
X13615298Y-15463333D01*
X13615298Y-15425238D01*
X13605774Y-15377619D01*
X13596250Y-15349048D01*
X13586726Y-15330000D01*
X13567678Y-15301428D01*
X13558155Y-15291905D01*
M02*
